<svg viewBox="0 0 26 26" fill="none" xmlns="http://www.w3.org/2000/svg">
<path fill-rule="evenodd" clip-rule="evenodd" d="M13 2.58331C18.753 2.58331 23.4167 7.24701 23.4167 13C23.4167 18.7529 18.753 23.4166 13 23.4166C7.24707 23.4166 2.58337 18.7529 2.58337 13C2.58337 7.24701 7.24707 2.58331 13 2.58331ZM15.3438 17.1666H10.6563C9.37255 17.1666 8.83337 17.9471 8.83337 19.6964L8.83321 20.2184C10.059 20.9275 11.4821 21.3333 13 21.3333C14.5184 21.3333 15.9419 20.9272 17.1679 20.2178L17.1667 19.6964C17.1667 17.9471 16.6275 17.1666 15.3438 17.1666ZM13 4.66665C8.39767 4.66665 4.66671 8.39761 4.66671 13C4.66671 15.1538 5.48384 17.1169 6.82502 18.5959C7.13112 16.4479 8.38965 15.0833 10.6563 15.0833H15.3438C17.6104 15.0833 18.869 16.4479 19.1757 18.5947C20.5162 17.1169 21.3334 15.1538 21.3334 13C21.3334 8.39761 17.6024 4.66665 13 4.66665ZM13 6.74998C15.3012 6.74998 17.1667 8.61546 17.1667 10.9166C17.1667 13.2178 15.3012 15.0833 13 15.0833C10.6989 15.0833 8.83337 13.2178 8.83337 10.9166C8.83337 8.61546 10.6989 6.74998 13 6.74998ZM13 8.83331C11.8494 8.83331 10.9167 9.76605 10.9167 10.9166C10.9167 12.0672 11.8494 13 13 13C14.1506 13 15.0834 12.0672 15.0834 10.9166C15.0834 9.76605 14.1506 8.83331 13 8.83331Z" fill="white" fill-opacity="0.7"/>
</svg>
