<svg viewBox="0 0 16 16" fill="none" xmlns="http://www.w3.org/2000/svg">
<path d="M13.5823 8.80846C13.846 8.5515 14.2681 8.55697 14.525 8.82067L14.5444 8.84049C14.7975 9.10031 14.7965 9.51487 14.542 9.7734L10.9479 13.4249C10.8124 13.558 10.6013 13.556 10.4724 13.4246L8.79155 11.7118C8.5371 11.4525 8.5371 11.0372 8.79155 10.7779L8.81017 10.7589C8.81311 10.7559 8.81607 10.753 8.81906 10.75C9.08185 10.4922 9.50394 10.4961 9.76182 10.7589L10.7094 11.7245L13.5726 8.81807L13.5823 8.80846ZM6.66667 10.6667C7.03486 10.6667 7.33333 10.9651 7.33333 11.3333C7.33333 11.7015 7.03486 12 6.66667 12H2.66667C2.29848 12 2 11.7015 2 11.3333C2 10.9651 2.29848 10.6667 2.66667 10.6667H6.66667ZM10 7.33333C10.3682 7.33333 10.6667 7.63181 10.6667 8C10.6667 8.36819 10.3682 8.66667 10 8.66667H2.66667C2.29848 8.66667 2 8.36819 2 8C2 7.63181 2.29848 7.33333 2.66667 7.33333H10ZM13.3333 4C13.7015 4 14 4.29848 14 4.66667C14 5.03486 13.7015 5.33333 13.3333 5.33333H2.66667C2.29848 5.33333 2 5.03486 2 4.66667C2 4.29848 2.29848 4 2.66667 4H13.3333Z" fill="white" fill-opacity="0.7"/>
</svg>
