<svg viewBox="0 0 290 246" fill="none" xmlns="http://www.w3.org/2000/svg">
<g clip-path="url(#clip0_2712_19900)">
<rect width="290" height="246" rx="8" fill="#282A32"/>
<rect x="14.4758" y="14.9856" width="261.048" height="238.966" rx="8.91129" fill="#414451" stroke="#515565" stroke-width="1.04839"/>
<path d="M15 23.8969C15 19.2648 18.755 15.5098 23.3871 15.5098H266.613C271.245 15.5098 275 19.2648 275 23.8969V31.2312H15V23.8969Z" fill="#515565"/>
<path d="M34.8905 56.2446L36.4408 50.3535H38.0764L37.495 53.3068L35.9602 58.7406H34.6502L34.8905 56.2446ZM34.2781 50.3535L35.2393 56.1981L35.3478 58.7406H33.7588L31.7744 50.3535H34.2781ZM39.4561 56.0741L40.4251 50.3535H42.9288L40.9599 58.7406H39.3709L39.4561 56.0741ZM38.2624 50.3535L39.8282 56.2291L40.0685 58.7406H38.743L37.2392 53.3223L36.6811 50.3535H38.2624Z" fill="#747784"/>
<path d="M46.557 56.2446L48.1073 50.3535H49.7429L49.1615 53.3068L47.6267 58.7406H46.3167L46.557 56.2446ZM45.9446 50.3535L46.9058 56.1981L47.0143 58.7406H45.4253L43.4409 50.3535H45.9446ZM51.1226 56.0741L52.0915 50.3535H54.5953L52.6264 58.7406H51.0373L51.1226 56.0741ZM49.9289 50.3535L51.4947 56.2291L51.735 58.7406H50.4095L48.9057 53.3223L48.3476 50.3535H49.9289Z" fill="#747784"/>
<path d="M58.2235 56.2446L59.7738 50.3535H61.4093L60.828 53.3068L59.2932 58.7406H57.9832L58.2235 56.2446ZM57.6111 50.3535L58.5723 56.1981L58.6808 58.7406H57.0918L55.1074 50.3535H57.6111ZM62.7891 56.0741L63.758 50.3535H66.2618L64.2929 58.7406H62.7038L62.7891 56.0741ZM61.5954 50.3535L63.1612 56.2291L63.4015 58.7406H62.076L60.5722 53.3223L60.0141 50.3535H61.5954Z" fill="#747784"/>
<rect x="69.4067" y="50.3535" width="91.2097" height="8.3871" rx="4.19355" fill="#747784"/>
<path d="M31.7744 80.7561C31.7744 77.2821 34.5907 74.4658 38.0647 74.4658H243.549V96.4819H31.7744V80.7561Z" fill="#747784"/>
<rect x="41.2095" y="112.208" width="98.5484" height="10.4839" rx="5.24194" fill="#747784"/>
<rect x="154.436" y="106.966" width="20.9677" height="20.9677" rx="10.4839" fill="#747784"/>
<path d="M170.091 112.856C170.137 112.976 170.161 113.104 170.161 113.232V121.614C170.161 122.193 169.692 122.662 169.113 122.662C168.963 122.662 168.814 122.63 168.678 122.568L166.407 121.532C166.246 121.906 165.875 122.167 165.443 122.167H163.871C163.292 122.167 162.822 121.697 162.822 121.118V119.899L162.047 119.545L160.726 119.546C160.147 119.546 159.677 119.076 159.677 118.497V115.876C159.677 115.297 160.147 114.828 160.726 114.828L162.039 114.828L168.737 112.254C169.277 112.046 169.884 112.316 170.091 112.856ZM169.113 113.232L162.822 115.65V118.747L169.113 121.614V113.232ZM163.871 120.377V121.118H165.443V121.093L163.871 120.377ZM161.774 115.876H160.726V118.497H161.774V115.876Z" fill="#E5E6E8"/>
<rect x="183.791" y="106.966" width="20.9677" height="20.9677" rx="10.4839" fill="#747784"/>
<g clip-path="url(#clip1_2712_19900)">
<path d="M195.847 112.208C196.136 112.208 196.37 112.442 196.371 112.731V114.305C196.371 114.365 196.357 114.422 196.338 114.477C196.358 114.591 196.371 114.708 196.371 114.828C196.95 114.828 197.419 115.298 197.419 115.877H198.467V115.091C198.467 114.801 198.702 114.567 198.992 114.566C199.281 114.566 199.516 114.801 199.516 115.091V116.401C199.516 116.691 199.281 116.926 198.992 116.926H197.419V117.974H198.992C199.281 117.974 199.516 118.209 199.516 118.498C199.516 118.787 199.281 119.022 198.992 119.022H197.419V119.546C197.419 119.724 197.404 119.9 197.375 120.07H198.992C199.281 120.07 199.516 120.305 199.516 120.595V121.905C199.516 122.195 199.281 122.43 198.992 122.43C198.702 122.43 198.467 122.195 198.467 121.905V121.119H196.995C196.451 122.058 195.437 122.691 194.274 122.691C193.111 122.691 192.097 122.058 191.553 121.119H190.081V121.905C190.08 122.195 189.846 122.43 189.556 122.43C189.267 122.43 189.033 122.195 189.033 121.905V120.595C189.033 120.305 189.267 120.07 189.556 120.07H191.173C191.145 119.9 191.129 119.724 191.129 119.546V119.022H189.556C189.267 119.022 189.033 118.787 189.033 118.498C189.033 118.209 189.267 117.974 189.556 117.974H191.129V116.926H189.556C189.267 116.926 189.033 116.691 189.033 116.401V115.091C189.033 114.801 189.267 114.567 189.556 114.566C189.846 114.566 190.081 114.801 190.081 115.091V115.877H191.129C191.129 115.298 191.598 114.828 192.177 114.828C192.177 114.709 192.189 114.592 192.208 114.479C192.189 114.424 192.177 114.366 192.177 114.305V112.731C192.177 112.442 192.412 112.208 192.702 112.208C192.991 112.208 193.226 112.442 193.226 112.731V113.014C193.535 112.835 193.892 112.731 194.274 112.731C194.656 112.731 195.014 112.835 195.323 113.014V112.731C195.323 112.442 195.558 112.208 195.847 112.208ZM192.177 119.546C192.177 120.704 193.116 121.642 194.274 121.643C195.432 121.643 196.371 120.704 196.371 119.546V115.877H192.177V119.546ZM194.274 113.78C193.695 113.78 193.226 114.249 193.226 114.828H195.323C195.323 114.249 194.853 113.78 194.274 113.78Z" fill="#E5E6E8"/>
</g>
<rect x="213.145" y="106.966" width="20.9677" height="20.9677" rx="10.4839" fill="#747784"/>
<g clip-path="url(#clip2_2712_19900)">
<path fill-rule="evenodd" clip-rule="evenodd" d="M221.532 112.208C221.821 112.208 222.056 112.443 222.056 112.732V113.256H227.809C228.395 113.256 228.871 113.731 228.871 114.318V120.582C228.871 121.168 228.395 121.643 227.809 121.643H219.448C218.862 121.643 218.387 121.168 218.387 120.582V114.318C218.387 113.731 218.862 113.256 219.448 113.256H221.008V112.732C221.008 112.443 221.242 112.208 221.532 112.208ZM227.822 114.305H219.435V120.595H227.822V114.305ZM226.191 115.215C226.229 115.262 226.25 115.321 226.25 115.381V117.45C226.25 118.897 225.076 120.071 223.629 120.071C222.181 120.071 221.008 118.897 221.008 117.45V115.877C221.008 115.588 221.242 115.353 221.532 115.353C221.801 115.353 222.022 115.556 222.053 115.816L222.056 115.877V117.45C222.056 118.318 222.76 119.023 223.629 119.023C224.497 119.023 225.201 118.318 225.201 117.45L225.201 116.926H224.385C224.238 116.926 224.12 116.807 224.12 116.66C224.12 116.58 224.156 116.504 224.219 116.453L225.819 115.174C225.933 115.082 226.1 115.101 226.191 115.215Z" fill="#E5E6E8"/>
</g>
<rect x="41.2095" y="134.224" width="202.339" height="1.04839" rx="0.524194" fill="#747784"/>
<rect x="41.2095" y="146.805" width="72.3387" height="10.4839" rx="5.24194" fill="#747784"/>
<rect x="154.436" y="141.562" width="20.9677" height="20.9677" rx="10.4839" fill="#747784"/>
<rect x="183.791" y="141.562" width="20.9677" height="20.9677" rx="10.4839" fill="#747784"/>
<g clip-path="url(#clip3_2712_19900)">
<path d="M195.847 146.805C196.136 146.805 196.37 147.039 196.371 147.328V148.901C196.371 148.962 196.357 149.019 196.338 149.073C196.358 149.188 196.371 149.305 196.371 149.425C196.95 149.425 197.419 149.895 197.419 150.474H198.467V149.688C198.467 149.398 198.702 149.163 198.992 149.163C199.281 149.163 199.516 149.398 199.516 149.688V150.998C199.516 151.287 199.281 151.522 198.992 151.522H197.419V152.57H198.992C199.281 152.57 199.516 152.805 199.516 153.095C199.516 153.384 199.281 153.619 198.992 153.619H197.419V154.143C197.419 154.321 197.404 154.497 197.375 154.667H198.992C199.281 154.667 199.516 154.902 199.516 155.191V156.502C199.516 156.791 199.281 157.026 198.992 157.026C198.702 157.026 198.467 156.791 198.467 156.502V155.716H196.995C196.451 156.655 195.437 157.288 194.274 157.288C193.111 157.288 192.097 156.655 191.553 155.716H190.081V156.502C190.08 156.791 189.846 157.026 189.556 157.026C189.267 157.026 189.033 156.791 189.033 156.502V155.191C189.033 154.902 189.267 154.667 189.556 154.667H191.173C191.145 154.497 191.129 154.321 191.129 154.143V153.619H189.556C189.267 153.619 189.033 153.384 189.033 153.095C189.033 152.805 189.267 152.57 189.556 152.57H191.129V151.522H189.556C189.267 151.522 189.033 151.287 189.033 150.998V149.688C189.033 149.398 189.267 149.163 189.556 149.163C189.846 149.163 190.081 149.398 190.081 149.688V150.474H191.129C191.129 149.895 191.598 149.425 192.177 149.425C192.177 149.306 192.189 149.189 192.208 149.075C192.189 149.021 192.177 148.962 192.177 148.901V147.328C192.177 147.039 192.412 146.805 192.702 146.805C192.991 146.805 193.226 147.039 193.226 147.328V147.61C193.535 147.432 193.892 147.328 194.274 147.328C194.656 147.328 195.014 147.432 195.323 147.61V147.328C195.323 147.039 195.558 146.805 195.847 146.805ZM192.177 154.143C192.177 155.3 193.116 156.239 194.274 156.239C195.432 156.239 196.371 155.301 196.371 154.143V150.474H192.177V154.143ZM194.274 148.377C193.695 148.377 193.226 148.846 193.226 149.425H195.323C195.323 148.846 194.853 148.377 194.274 148.377Z" fill="#E5E6E8"/>
</g>
<rect x="213.145" y="141.562" width="20.9677" height="20.9677" rx="10.4839" fill="#747784"/>
<g clip-path="url(#clip4_2712_19900)">
<path fill-rule="evenodd" clip-rule="evenodd" d="M221.532 146.805C221.821 146.805 222.056 147.039 222.056 147.329V147.853H227.809C228.395 147.853 228.871 148.328 228.871 148.914V155.179C228.871 155.765 228.395 156.24 227.809 156.24H219.448C218.862 156.24 218.387 155.765 218.387 155.179V148.914C218.387 148.328 218.862 147.853 219.448 147.853H221.008V147.329C221.008 147.039 221.242 146.805 221.532 146.805ZM227.822 148.901H219.435V155.192H227.822V148.901ZM226.191 149.812C226.229 149.859 226.25 149.917 226.25 149.978V152.047C226.25 153.494 225.076 154.668 223.629 154.668C222.181 154.668 221.008 153.494 221.008 152.047V150.474C221.008 150.185 221.242 149.95 221.532 149.95C221.801 149.95 222.022 150.152 222.053 150.413L222.056 150.474V152.047C222.056 152.915 222.76 153.619 223.629 153.619C224.497 153.619 225.201 152.915 225.201 152.047L225.201 151.522H224.385C224.238 151.522 224.12 151.404 224.12 151.257C224.12 151.177 224.156 151.1 224.219 151.05L225.819 149.77C225.933 149.679 226.1 149.697 226.191 149.812Z" fill="#E5E6E8"/>
</g>
<rect x="41.2095" y="168.821" width="202.339" height="1.04839" rx="0.524194" fill="#747784"/>
<rect x="41.2095" y="181.401" width="83.871" height="10.4839" rx="5.24194" fill="#747784"/>
<rect x="154.436" y="176.159" width="20.9677" height="20.9677" rx="10.4839" fill="#747784"/>
<path d="M170.091 182.049C170.137 182.17 170.161 182.297 170.161 182.426V190.807C170.161 191.386 169.692 191.856 169.113 191.856C168.963 191.856 168.814 191.823 168.678 191.761L166.407 190.726C166.246 191.099 165.875 191.36 165.443 191.36H163.871C163.292 191.36 162.822 190.891 162.822 190.312V189.092L162.047 188.739L160.726 188.739C160.147 188.739 159.677 188.27 159.677 187.691V185.07C159.677 184.491 160.147 184.021 160.726 184.021L162.039 184.021L168.737 181.447C169.277 181.239 169.884 181.509 170.091 182.049ZM169.113 182.426L162.822 184.843V187.94L169.113 190.807V182.426ZM163.871 189.57V190.312H165.443V190.287L163.871 189.57ZM161.774 185.07H160.726V187.691H161.774V185.07Z" fill="#E5E6E8"/>
<rect x="183.791" y="176.159" width="20.9677" height="20.9677" rx="10.4839" fill="#747784"/>
<rect x="213.145" y="176.159" width="20.9677" height="20.9677" rx="10.4839" fill="#747784"/>
<rect x="41.2095" y="203.418" width="202.339" height="1.04839" rx="0.524194" fill="#747784"/>
<rect x="41.2095" y="215.998" width="53.4677" height="10.4839" rx="5.24194" fill="#747784"/>
<rect x="154.436" y="210.756" width="20.9677" height="20.9677" rx="10.4839" fill="#747784"/>
<path d="M170.091 216.646C170.137 216.766 170.161 216.894 170.161 217.022V225.404C170.161 225.983 169.692 226.452 169.113 226.452C168.963 226.452 168.814 226.42 168.678 226.358L166.407 225.323C166.246 225.696 165.875 225.957 165.443 225.957H163.871C163.292 225.957 162.822 225.487 162.822 224.908V223.689L162.047 223.335L160.726 223.336C160.147 223.336 159.677 222.866 159.677 222.287V219.667C159.677 219.087 160.147 218.618 160.726 218.618L162.039 218.618L168.737 216.044C169.277 215.836 169.884 216.106 170.091 216.646ZM169.113 217.022L162.822 219.44V222.537L169.113 225.404V217.022ZM163.871 224.167V224.908H165.443V224.883L163.871 224.167ZM161.774 219.667H160.726V222.287H161.774V219.667Z" fill="#E5E6E8"/>
<rect x="183.791" y="210.756" width="20.9677" height="20.9677" rx="10.4839" fill="#747784"/>
<g clip-path="url(#clip5_2712_19900)">
<path d="M195.847 215.998C196.136 215.998 196.37 216.232 196.371 216.521V218.095C196.371 218.155 196.357 218.212 196.338 218.267C196.358 218.381 196.371 218.498 196.371 218.618C196.95 218.618 197.419 219.088 197.419 219.667H198.467V218.881C198.467 218.591 198.702 218.357 198.992 218.356C199.281 218.356 199.516 218.591 199.516 218.881V220.191C199.516 220.481 199.281 220.716 198.992 220.716H197.419V221.764H198.992C199.281 221.764 199.516 221.999 199.516 222.288C199.516 222.578 199.281 222.812 198.992 222.812H197.419V223.336C197.419 223.515 197.404 223.69 197.375 223.86H198.992C199.281 223.86 199.516 224.095 199.516 224.385V225.695C199.516 225.985 199.281 226.22 198.992 226.22C198.702 226.22 198.467 225.985 198.467 225.695V224.909H196.995C196.451 225.848 195.437 226.481 194.274 226.481C193.111 226.481 192.097 225.848 191.553 224.909H190.081V225.695C190.08 225.985 189.846 226.22 189.556 226.22C189.267 226.22 189.033 225.985 189.033 225.695V224.385C189.033 224.095 189.267 223.861 189.556 223.86H191.173C191.145 223.69 191.129 223.515 191.129 223.336V222.812H189.556C189.267 222.812 189.033 222.577 189.033 222.288C189.033 221.999 189.267 221.764 189.556 221.764H191.129V220.716H189.556C189.267 220.716 189.033 220.481 189.033 220.191V218.881C189.033 218.591 189.267 218.357 189.556 218.356C189.846 218.356 190.081 218.591 190.081 218.881V219.667H191.129C191.129 219.088 191.598 218.618 192.177 218.618C192.177 218.499 192.189 218.382 192.208 218.269C192.189 218.214 192.177 218.156 192.177 218.095V216.521C192.177 216.232 192.412 215.998 192.702 215.998C192.991 215.998 193.226 216.232 193.226 216.521V216.804C193.535 216.625 193.892 216.522 194.274 216.521C194.656 216.521 195.014 216.625 195.323 216.804V216.521C195.323 216.232 195.558 215.998 195.847 215.998ZM192.177 223.336C192.177 224.494 193.116 225.432 194.274 225.433C195.432 225.433 196.371 224.494 196.371 223.336V219.667H192.177V223.336ZM194.274 217.57C193.695 217.57 193.226 218.039 193.226 218.618H195.323C195.323 218.039 194.853 217.57 194.274 217.57Z" fill="#E5E6E8"/>
</g>
<rect x="213.145" y="210.756" width="20.9677" height="20.9677" rx="10.4839" fill="#747784"/>
<path d="M55.4489 86.8458C55.7254 86.5764 56.1679 86.5822 56.4372 86.8586L56.4575 86.8794C56.7229 87.1518 56.7218 87.5864 56.455 87.8575L52.687 91.6857C52.5449 91.8251 52.3237 91.8231 52.1885 91.6853L50.4263 89.8896C50.1596 89.6178 50.1596 89.1824 50.4263 88.9106L50.4458 88.8907C50.4489 88.8875 50.452 88.8844 50.4552 88.8813C50.7307 88.611 51.1732 88.6152 51.4435 88.8907L52.437 89.903L55.4388 86.8559L55.4489 86.8458ZM48.1986 88.7939C48.5846 88.7939 48.8976 89.1069 48.8976 89.4929C48.8976 89.8789 48.5846 90.1918 48.1986 90.1918H44.0051C43.6191 90.1918 43.3062 89.8789 43.3062 89.4929C43.3062 89.1069 43.6191 88.7939 44.0051 88.7939H48.1986ZM51.6932 85.2993C52.0793 85.2993 52.3922 85.6122 52.3922 85.9982C52.3922 86.3842 52.0793 86.6972 51.6932 86.6972H44.0051C43.6191 86.6972 43.3062 86.3842 43.3062 85.9982C43.3062 85.6122 43.6191 85.2993 44.0051 85.2993H51.6932ZM55.1879 81.8047C55.5739 81.8047 55.8868 82.1176 55.8868 82.5036C55.8868 82.8896 55.5739 83.2025 55.1879 83.2025H44.0051C43.6191 83.2025 43.3062 82.8896 43.3062 82.5036C43.3062 82.1176 43.6191 81.8047 44.0051 81.8047H55.1879Z" fill="white"/>
<rect x="182.742" y="46.1592" width="51.371" height="15.7258" rx="7.8629" fill="#7A95E3"/>
<path fill-rule="evenodd" clip-rule="evenodd" d="M192.789 50.964C192.789 50.4332 193.219 50.0029 193.75 50.0029C194.281 50.0029 194.711 50.4332 194.711 50.964V53.0607H196.808C197.338 53.0607 197.769 53.491 197.769 54.0217C197.769 54.5525 197.338 54.9828 196.808 54.9828H194.711V57.0795C194.711 57.6103 194.281 58.0406 193.75 58.0406C193.219 58.0406 192.789 57.6103 192.789 57.0795V54.9828H190.692C190.161 54.9828 189.731 54.5525 189.731 54.0217C189.731 53.491 190.161 53.0607 190.692 53.0607H192.789V50.964Z" fill="#3D65D6"/>
<rect x="201.962" y="51.9258" width="25.1613" height="4.19355" rx="2.09677" fill="#3D65D6"/>
<g filter="url(#filter0_d_2712_19900)">
<path fill-rule="evenodd" clip-rule="evenodd" d="M224.825 60.1573C224.824 59.562 224.355 59.0796 223.777 59.0796C223.198 59.0796 222.728 59.5628 222.728 60.1588V61.238L222.728 62.0474C222.728 62.1965 222.611 62.3172 222.466 62.3172C222.321 62.3172 222.204 62.1965 222.204 62.0474V61.238H222.204V55.8419C222.204 55.2459 221.735 54.7627 221.156 54.7627C220.577 54.7627 220.107 55.2459 220.107 55.8419V61.238V63.3965V64.7505L219.304 63.2609C219.023 62.7397 218.385 62.5517 217.879 62.8409C217.372 63.1301 217.19 63.7871 217.471 64.3083L220.368 69.6834C220.676 70.2532 221.241 70.5825 221.831 70.6023C222.258 70.8253 222.741 70.951 223.252 70.951H226.922C228.659 70.951 230.067 69.5015 230.067 67.7134V63.4087L230.067 63.3965V61.238C230.067 60.642 229.598 60.1588 229.019 60.1588C228.44 60.1588 227.97 60.642 227.97 61.238L227.97 62.0474C227.97 62.1965 227.853 62.3172 227.708 62.3172C227.563 62.3172 227.446 62.1965 227.446 62.0474L227.446 61.238V60.1588L227.446 60.1573C227.445 59.562 226.976 59.0796 226.398 59.0796C225.819 59.0796 225.349 59.5628 225.349 60.1588V61.238L225.349 62.0474C225.349 62.1965 225.232 62.3172 225.087 62.3172C224.942 62.3172 224.825 62.1965 224.825 62.0474V60.1573Z" fill="url(#paint0_linear_2712_19900)"/>
</g>
<path fill-rule="evenodd" clip-rule="evenodd" d="M225.349 60.1589C225.349 60.1584 225.349 60.1579 225.349 60.1574C225.349 60.1572 225.349 60.1577 225.349 60.1574C225.35 59.8299 225.492 59.5359 225.717 59.3384C225.9 59.1771 226.138 59.0797 226.398 59.0797C226.876 59.0797 227.279 59.4092 227.405 59.8596C227.432 59.9541 227.446 60.0541 227.446 60.1574V62.0476C227.446 62.1966 227.564 62.3174 227.708 62.3174C227.853 62.3174 227.97 62.1966 227.97 62.0476L227.97 61.2381C227.97 60.8387 228.181 60.4899 228.495 60.3033C228.649 60.2115 228.828 60.1589 229.019 60.1589C229.598 60.1589 230.067 60.6421 230.067 61.2381V63.3966L230.067 63.4088V67.7135C230.067 69.5016 228.659 70.9511 226.922 70.9511H223.253C222.741 70.9511 222.258 70.8254 221.831 70.6024C221.241 70.5826 220.676 70.2534 220.369 69.6835L217.471 64.3084C217.19 63.7872 217.373 63.1303 217.879 62.841C218.269 62.6185 218.736 62.6785 219.059 62.9554C219.156 63.0384 219.24 63.1409 219.304 63.261L220.107 64.7507V55.842C220.107 55.246 220.577 54.7628 221.156 54.7628C221.735 54.7628 222.204 55.246 222.204 55.842V61.2381L222.204 62.0476C222.204 62.1966 222.322 62.3174 222.466 62.3174C222.611 62.3174 222.728 62.1966 222.728 62.0476L222.728 60.1589C222.728 59.7595 222.939 59.4107 223.253 59.2241C223.407 59.1323 223.586 59.0797 223.777 59.0797C224.037 59.0797 224.275 59.1771 224.458 59.3384C224.682 59.536 224.825 59.8296 224.825 60.1574V62.0476C224.825 62.1966 224.943 62.3174 225.087 62.3174C225.232 62.3174 225.349 62.1966 225.349 62.0476L225.349 60.1589ZM225.087 58.4739C225.446 58.1777 225.902 58.0005 226.398 58.0005C227.227 58.0005 227.944 58.4963 228.284 59.2158C228.513 59.1278 228.76 59.0797 229.019 59.0797C230.177 59.0797 231.116 60.0461 231.116 61.2381V63.4026L231.116 63.4119V67.7135C231.116 70.0976 229.238 72.0304 226.922 72.0304H223.253C222.65 72.0304 222.076 71.8991 221.556 71.6621C220.701 71.5564 219.903 71.0441 219.452 70.2072L216.554 64.8321C215.992 63.7897 216.358 62.4758 217.37 61.8974C217.908 61.5904 218.519 61.5523 219.059 61.7399V55.842C219.059 54.65 219.998 53.6836 221.156 53.6836C222.314 53.6836 223.253 54.65 223.253 55.842V58.0685C223.42 58.0241 223.596 58.0005 223.777 58.0005C224.273 58.0005 224.728 58.1777 225.087 58.4739Z" fill="#1C1B1F"/>
</g>
<rect x="0.5" y="0.5" width="289" height="245" rx="7.5" stroke="#414451"/>
<defs>
<filter id="filter0_d_2712_19900" x="216.29" y="54.7627" width="14.8248" height="18.2853" filterUnits="userSpaceOnUse" color-interpolation-filters="sRGB">
<feFlood flood-opacity="0" result="BackgroundImageFix"/>
<feColorMatrix in="SourceAlpha" type="matrix" values="0 0 0 0 0 0 0 0 0 0 0 0 0 0 0 0 0 0 127 0" result="hardAlpha"/>
<feOffset dy="1.04839"/>
<feGaussianBlur stdDeviation="0.524194"/>
<feComposite in2="hardAlpha" operator="out"/>
<feColorMatrix type="matrix" values="0 0 0 0 0 0 0 0 0 0 0 0 0 0 0 0 0 0 0.1 0"/>
<feBlend mode="normal" in2="BackgroundImageFix" result="effect1_dropShadow_2712_19900"/>
<feBlend mode="normal" in="SourceGraphic" in2="effect1_dropShadow_2712_19900" result="shape"/>
</filter>
<linearGradient id="paint0_linear_2712_19900" x1="223.703" y1="54.7627" x2="223.703" y2="70.951" gradientUnits="userSpaceOnUse">
<stop offset="0.353422" stop-color="white"/>
<stop offset="1" stop-color="#E7E7E7"/>
</linearGradient>
<clipPath id="clip0_2712_19900">
<rect width="290" height="246" rx="8" fill="white"/>
</clipPath>
<clipPath id="clip1_2712_19900">
<rect width="12.5806" height="12.5806" fill="white" transform="translate(187.984 111.159)"/>
</clipPath>
<clipPath id="clip2_2712_19900">
<rect width="12.5806" height="12.5806" fill="white" transform="translate(217.338 111.159)"/>
</clipPath>
<clipPath id="clip3_2712_19900">
<rect width="12.5806" height="12.5806" fill="white" transform="translate(187.984 145.756)"/>
</clipPath>
<clipPath id="clip4_2712_19900">
<rect width="12.5806" height="12.5806" fill="white" transform="translate(217.338 145.756)"/>
</clipPath>
<clipPath id="clip5_2712_19900">
<rect width="12.5806" height="12.5806" fill="white" transform="translate(187.984 214.949)"/>
</clipPath>
</defs>
</svg>
