<svg width="21" height="21" viewBox="0 0 21 21" fill="none" xmlns="http://www.w3.org/2000/svg">
<g clip-path="url(#clip0_311_53046)">
<path fill-rule="evenodd" clip-rule="evenodd" d="M13.624 2.91015L14.4284 1.45925C14.4492 1.42172 14.4542 1.37749 14.4424 1.33626C14.4306 1.29504 14.4028 1.26019 14.3652 1.23938C14.3413 1.2261 14.3144 1.21919 14.287 1.21929C14.2579 1.2194 14.2293 1.22733 14.2043 1.24225C14.1793 1.25718 14.1588 1.27855 14.145 1.30411L13.3311 2.76897C12.637 2.46534 11.8875 2.30858 11.1297 2.30858C10.3719 2.30858 9.6224 2.46534 8.92835 2.76897L8.11444 1.30411C8.10495 1.28411 8.09145 1.26626 8.07478 1.25167C8.05811 1.23709 8.03861 1.22607 8.0175 1.2193C7.99639 1.21253 7.97412 1.21016 7.95206 1.21233C7.92999 1.21449 7.90861 1.22115 7.88922 1.2319C7.86984 1.24265 7.85287 1.25725 7.83937 1.2748C7.82586 1.29235 7.81611 1.31248 7.8107 1.33395C7.8053 1.35541 7.80437 1.37775 7.80796 1.39959C7.81155 1.42143 7.81959 1.44231 7.83158 1.46092L8.63599 2.91183C7.08978 3.71318 6.04277 5.23942 6.04277 6.99055H16.2167C16.2167 5.23942 15.1697 3.71318 13.624 2.91015ZM8.78189 5.13227C8.69787 5.13227 8.61573 5.1074 8.54586 5.0608C8.476 5.0142 8.42154 4.94796 8.38939 4.87046C8.35723 4.79297 8.34882 4.70769 8.36521 4.62542C8.3816 4.54315 8.42207 4.46758 8.48148 4.40827C8.5409 4.34896 8.6166 4.30856 8.69901 4.2922C8.78142 4.27584 8.86684 4.28424 8.94447 4.31634C9.0221 4.34844 9.08846 4.40279 9.13514 4.47254C9.18182 4.54228 9.20674 4.62428 9.20674 4.70816C9.20659 4.8206 9.16178 4.92839 9.08214 5.00789C9.0025 5.0874 8.89452 5.13213 8.78189 5.13227ZM13.4775 5.13227C13.3935 5.13227 13.3114 5.1074 13.2415 5.0608C13.1716 5.0142 13.1172 4.94796 13.085 4.87046C13.0529 4.79297 13.0445 4.70769 13.0609 4.62542C13.0773 4.54315 13.1177 4.46758 13.1771 4.40827C13.2365 4.34896 13.3122 4.30856 13.3947 4.2922C13.4771 4.27584 13.5625 4.28424 13.6401 4.31634C13.7178 4.34844 13.7841 4.40279 13.8308 4.47254C13.8775 4.54228 13.9024 4.62428 13.9024 4.70816C13.9022 4.8206 13.8574 4.92839 13.7778 5.00789C13.6981 5.0874 13.5902 5.13213 13.4775 5.13227Z" fill="white" fill-opacity="0.9"/>
<path d="M5.28393 7.53044C5.49779 7.74393 5.61793 8.03349 5.61793 8.33541V13.0788C5.61793 13.3807 5.49779 13.6702 5.28393 13.8837C5.07006 14.0972 4.78001 14.2172 4.47756 14.2172C4.17511 14.2172 3.88506 14.0972 3.6712 13.8837C3.45733 13.6702 3.33719 13.3807 3.33719 13.0788V8.33541C3.33719 8.03349 3.45733 7.74393 3.6712 7.53044C3.88506 7.31695 4.17511 7.19701 4.47756 7.19701C4.78001 7.19701 5.07006 7.31695 5.28393 7.53044Z" fill="white" fill-opacity="0.9"/>
<path d="M18.5882 7.53044C18.8021 7.74393 18.9223 8.03349 18.9223 8.33541V13.0788C18.9223 13.3807 18.8021 13.6702 18.5882 13.8837C18.3744 14.0972 18.0843 14.2172 17.7819 14.2172C17.4794 14.2172 17.1894 14.0972 16.9755 13.8837C16.7617 13.6702 16.6415 13.3807 16.6415 13.0788V8.33541C16.6415 8.03349 16.7617 7.74393 16.9755 7.53044C17.1894 7.31695 17.4794 7.19701 17.7819 7.19701C18.0843 7.19701 18.3744 7.31695 18.5882 7.53044Z" fill="white" fill-opacity="0.9"/>
<path d="M6.04277 14.7529V7.39231H16.2167V14.7529C16.2167 15.0785 16.0871 15.3907 15.8565 15.621C15.6258 15.8512 15.313 15.9806 14.9869 15.9806H14.1707V18.4917C14.1707 18.7937 14.0506 19.0832 13.8367 19.2967C13.6228 19.5102 13.3328 19.6302 13.0303 19.6302C12.7279 19.6302 12.4378 19.5102 12.224 19.2967C12.0101 19.0832 11.89 18.7937 11.89 18.4917V15.9806H10.3695V18.4917C10.3695 18.7937 10.2493 19.0832 10.0355 19.2967C9.8216 19.5102 9.53154 19.6302 9.2291 19.6302C8.92665 19.6302 8.63659 19.5102 8.42273 19.2967C8.20887 19.0832 8.08873 18.7937 8.08873 18.4917V15.9806H7.27258C6.94641 15.9806 6.6336 15.8512 6.40297 15.621C6.17233 15.3907 6.04277 15.0785 6.04277 14.7529Z" fill="white" fill-opacity="0.9"/>
</g>
<defs>
<clipPath id="clip0_311_53046">
<rect width="20.093" height="20.093" fill="white" transform="translate(0.87207 0.535156)"/>
</clipPath>
</defs>
</svg>
