<svg viewBox="0 0 40 40" fill="none" xmlns="http://www.w3.org/2000/svg">
<path d="M20 40C31.0457 40 40 31.0457 40 20C40 8.9543 31.0457 0 20 0C8.9543 0 0 8.9543 0 20C0 31.0457 8.9543 40 20 40Z" fill="#2F372F"/>
<path d="M28.2224 12.6986C28.2957 12.8894 28.3334 13.0921 28.3334 13.2965V26.6212C28.3334 27.5416 27.5872 28.2878 26.6667 28.2878C26.4282 28.2878 26.1925 28.2366 25.9755 28.1377L22.365 26.4917C22.1097 27.0848 21.52 27.5001 20.8334 27.5001H18.3334C17.4129 27.5001 16.6667 26.7539 16.6667 25.8334V23.8944L15.4334 23.3327L13.3334 23.3334C12.4129 23.3334 11.6667 22.5873 11.6667 21.6668V17.5001C11.6667 16.5796 12.4129 15.8334 13.3334 15.8334L15.4209 15.8327L26.0687 11.7408C26.9279 11.4106 27.8922 11.8394 28.2224 12.6986ZM26.6667 13.2965L16.6667 17.14V22.0633L26.6667 26.6212V13.2965ZM18.3334 24.6544V25.8334H20.8334V25.7936L18.3334 24.6544ZM15 17.5001H13.3334V21.6668H15V17.5001Z" fill="#8ED788"/>
</svg>
