<svg width="19" height="18" viewBox="0 0 19 18" fill="none" xmlns="http://www.w3.org/2000/svg">
    <path fill-rule="evenodd" clip-rule="evenodd" d="M7.86569 3.71784C8.15858 3.42495 8.63345 3.42495 8.92635 3.71784C9.21924 4.01073 9.21924 4.48561 8.92635 4.7785L5.45455 8.24942L15.4814 8.25001C15.9058 8.25001 16.2499 8.59407 16.2499 9.01849C16.2499 9.44291 15.9058 9.78697 15.4814 9.78697L5.45005 9.78692L8.92635 13.2638C9.19671 13.5341 9.21751 13.9596 8.98874 14.2538L8.92635 14.3244C8.63345 14.6173 8.15858 14.6173 7.86569 14.3244L3.09272 9.55147C2.79982 9.25858 2.79982 8.7837 3.09272 8.49081L7.86569 3.71784Z" fill="#1C1B1F"/>
</svg>
