<svg viewBox="0 0 14 14" fill="none" xmlns="http://www.w3.org/2000/svg">
<path d="M7.00037 0.333496C10.6821 0.333672 13.6664 3.3187 13.6664 7.00049C13.6662 10.6821 10.682 13.6663 7.00037 13.6665C3.31858 13.6665 0.33355 10.6822 0.333374 7.00049C0.333374 3.31859 3.31847 0.333496 7.00037 0.333496ZM3.72986 11.2124C4.63303 11.9146 5.76774 12.3335 7.00037 12.3335C9.94563 12.3333 12.3332 9.94575 12.3334 7.00049C12.3334 5.76786 11.9145 4.63316 11.2123 3.72998L3.72986 11.2124ZM7.00037 1.6665C4.05485 1.6665 1.66638 4.05497 1.66638 7.00049C1.66646 8.23255 2.0858 9.3661 2.78748 10.269L10.2689 2.7876C9.36598 2.08592 8.23242 1.66658 7.00037 1.6665Z" fill="white" fill-opacity="0.7"/>
</svg>
