<svg viewBox="0 0 24 25" fill="none" xmlns="http://www.w3.org/2000/svg">
<path fill-rule="evenodd" clip-rule="evenodd" d="M18.9096 3.89641C19.3001 4.28693 19.3001 4.9201 18.9096 5.31062L4.76747 19.4528C4.37694 19.8433 3.74378 19.8433 3.35326 19.4528C2.96273 19.0622 2.96273 18.4291 3.35326 18.0385L4.93385 16.4575L4.75789 16.2917C4.32827 15.8704 3.93288 15.409 3.57779 14.9108L3.39415 14.6444L1.79785 12.25L3.39415 9.85551C5.18596 7.16779 8.12561 5.47816 11.3482 5.27104L11.6714 5.25529L11.9997 5.24996C13.218 5.24996 14.408 5.46448 15.5222 5.8682L17.4954 3.89641C17.8859 3.50588 18.5191 3.50588 18.9096 3.89641ZM18.4331 7.49426C19.1825 8.08948 19.8536 8.7922 20.4216 9.58915L20.6053 9.85551L22.2016 12.25L20.6053 14.6444C18.8134 17.3321 15.8738 19.0218 12.6512 19.2289L12.328 19.2446L11.9997 19.25C10.4708 19.25 8.98665 18.9121 7.64074 18.2865L9.17141 16.7577C9.884 17.0148 10.6341 17.1755 11.4023 17.2297L11.6867 17.2448L11.9831 17.2501L12.2781 17.2453C14.8695 17.1591 17.2701 15.8722 18.7774 13.7717L18.9412 13.535L19.7977 12.25L18.9412 10.9649C18.4095 10.1675 17.7531 9.47948 17.0072 8.91983L18.4331 7.49426ZM15.5403 10.387L15.6279 10.5637C15.8665 11.0761 15.9997 11.6475 15.9997 12.25C15.9997 14.4591 14.2088 16.25 11.9997 16.25C11.3274 16.25 10.6939 16.0841 10.1377 15.7911L15.5403 10.387ZM12.0163 7.24982L11.7213 7.25459C9.12988 7.34086 6.72929 8.62772 5.22201 10.7282L5.05825 10.9649L4.2007 12.25L5.05825 13.535C5.431 14.0941 5.86513 14.5995 6.34819 15.0445L8.12885 13.2625L8.12614 13.2516C8.0436 12.9315 7.9997 12.5958 7.9997 12.25C7.9997 10.0408 9.79056 8.24996 11.9997 8.24996C12.3496 8.24996 12.689 8.29489 13.0125 8.37929L13.9159 7.47452L13.7654 7.43882C13.3753 7.35434 12.9772 7.29748 12.5739 7.2697L12.2876 7.25492L12.0163 7.24982Z" fill="white" fill-opacity="0.9"/>
</svg>
