<svg viewBox="0 0 151 150" fill="none" xmlns="http://www.w3.org/2000/svg">
<path d="M53.5 132C82.2188 132 105.5 108.719 105.5 80C105.5 51.2812 82.2188 28 53.5 28C24.7812 28 1.5 51.2812 1.5 80C1.5 108.719 24.7812 132 53.5 132Z" fill="#282A32"/>
<path d="M111.905 128.02C127.402 128.02 139.965 115.457 139.965 99.96C139.965 84.4629 127.402 71.9 111.905 71.9C96.4076 71.9 83.8447 84.4629 83.8447 99.96C83.8447 115.457 96.4076 128.02 111.905 128.02Z" fill="#282A32"/>
<path d="M109.145 98.09C131.261 98.09 149.19 80.1612 149.19 58.045C149.19 35.9288 131.261 18 109.145 18C87.0284 18 69.0996 35.9288 69.0996 58.045C69.0996 80.1612 87.0284 98.09 109.145 98.09Z" fill="#282A32"/>
<path d="M18.5 48C18.5 41.3726 23.8726 36 30.5 36H120.5C127.127 36 132.5 41.3726 132.5 48V101.5C132.5 108.127 127.127 113.5 120.5 113.5H30.5C23.8726 113.5 18.5 108.127 18.5 101.5V48Z" fill="#0F68EE"/>
<path d="M24.5 49.5C24.5 45.0817 28.0817 41.5 32.5 41.5H118.5C122.918 41.5 126.5 45.0817 126.5 49.5V99.5C126.5 103.918 122.918 107.5 118.5 107.5H32.5C28.0817 107.5 24.5 103.918 24.5 99.5V49.5Z" fill="#093F90"/>
<path d="M29.5 65.3077C29.5 62.9286 31.757 61 34.5411 61H116.459C119.243 61 121.5 62.9286 121.5 65.3077V98.6923C121.5 101.071 119.243 103 116.459 103H34.5411C31.757 103 29.5 101.071 29.5 98.6923V65.3077Z" fill="#0C54C0"/>
<path d="M29.5 53.5C29.5 55.7091 31.757 57.5 34.5411 57.5H116.459C119.243 57.5 121.5 55.7091 121.5 53.5V51C121.5 48.7909 119.243 47 116.459 47H34.5411C31.757 47 29.5 48.7909 29.5 51V53.5Z" fill="#0C54C0"/>
<circle cx="31.75" cy="44.75" r="1.25" fill="#0C54C0"/>
<circle cx="36.25" cy="44.75" r="1.25" fill="#0C54C0"/>
<circle cx="40.75" cy="44.75" r="1.25" fill="#0C54C0"/>
<circle cx="77" cy="76.5" r="22.5" fill="#093F90"/>
<ellipse cx="77" cy="73.2856" rx="22.5" ry="22.5" fill="#1C1B1F"/>
<path d="M77.1602 58.8218C85.2373 58.8218 91.7852 65.3696 91.7852 73.4468C91.785 81.5238 85.2372 88.0718 77.1602 88.0718C69.0833 88.0716 62.5353 81.5237 62.5352 73.4468C62.5352 65.3697 69.0832 58.822 77.1602 58.8218ZM72.6201 81.5249C73.9621 82.2808 75.5102 82.7143 77.1602 82.7144C82.2785 82.7144 86.4285 78.5651 86.4287 73.4468C86.4287 71.7964 85.9944 70.248 85.2383 68.9058L72.6201 81.5249ZM77.1602 64.1782C72.0418 64.1784 67.8926 68.3284 67.8926 73.4468C67.8926 74.965 68.26 76.3969 68.9072 77.6616L81.375 65.1929C80.1104 64.5458 78.6783 64.1782 77.1602 64.1782Z" fill="#F06666"/>
</svg>
