<svg width="321" height="22" viewBox="0 0 321 22" fill="none" xmlns="http://www.w3.org/2000/svg">
    <path fill-rule="evenodd" clip-rule="evenodd" d="M94.4986 8.56636V12.9963C94.4986 14.6347 94.0053 15.6502 91.5489 15.6502C90.7286 15.6502 89.9265 15.5917 89.1657 15.4762L89.1191 15.4688V7.59107L89.1498 7.57651C89.8555 7.23437 91.3524 6.65497 92.489 6.65497C93.8787 6.65497 94.4986 7.24444 94.4986 8.56636ZM89.1993 5.76866L89.1191 5.8113V0.214587C89.1191 0.084037 89.0031 -0.0163252 88.8741 0.00221138L87.3348 0.222002C87.2294 0.237361 87.151 0.32766 87.151 0.434907V16.7396C87.151 16.8408 87.2204 16.9287 87.3192 16.9496C88.6739 17.2393 90.3599 17.3717 91.4006 17.3717C95.8531 17.3717 96.4669 15.2334 96.4669 12.9222V8.6405C96.4669 6.18097 95.2952 4.93346 92.9839 4.93346C91.3564 4.93346 89.9617 5.3651 89.1993 5.76866Z" fill="#7A95E3"/>
    <path fill-rule="evenodd" clip-rule="evenodd" d="M99.0741 5.18091H97.5885C97.4429 5.18091 97.3393 5.32338 97.3841 5.4616L101.119 16.976C101.147 17.0644 101.23 17.1243 101.323 17.1243H101.769C101.916 17.1243 102.019 17.2694 101.971 17.4089L100.485 21.715C100.437 21.8548 100.541 21.9999 100.689 21.9999H102.074C102.165 21.9999 102.246 21.9422 102.276 21.8564L103.92 17.1608L107.786 5.46266C107.832 5.32417 107.729 5.18091 107.582 5.18091H106.098C106.005 5.18091 105.922 5.24102 105.894 5.32973L102.767 15.0612C102.703 15.2603 102.422 15.2595 102.358 15.0604L99.2782 5.33052C99.2502 5.24155 99.1675 5.18091 99.0741 5.18091Z" fill="#7A95E3"/>
    <path fill-rule="evenodd" clip-rule="evenodd" d="M119.51 9.23458C119.51 7.38225 120.343 6.55605 122.212 6.55605C124.044 6.55605 124.791 7.33194 124.791 9.23458V10.065C124.791 10.1837 124.694 10.2792 124.576 10.2792H119.725C119.606 10.2792 119.51 10.1837 119.51 10.065V9.23458ZM117.542 9.38314V12.9967C117.542 15.9816 119.041 17.3719 122.262 17.3719C123.636 17.3719 125.153 17.1386 126.285 16.757C126.384 16.7236 126.443 16.6225 126.426 16.52L126.238 15.3747C126.218 15.2507 126.095 15.1716 125.973 15.202C124.654 15.5322 123.465 15.6999 122.435 15.6999C119.948 15.6999 119.51 14.8199 119.51 12.9715V12.117C119.51 11.9984 119.606 11.902 119.725 11.902H126.47C126.589 11.902 126.685 11.8061 126.685 11.6878V9.43266C126.685 6.40484 125.222 4.93384 122.212 4.93384C119.113 4.93384 117.542 6.43053 117.542 9.38314Z" fill="#7A95E3"/>
    <path fill-rule="evenodd" clip-rule="evenodd" d="M132.488 10.3026C130.451 9.80581 130.393 9.5606 130.393 8.17036C130.393 7.0158 130.708 6.60561 132.477 6.60561C133.332 6.60561 134.526 6.7216 135.537 6.89902C135.661 6.921 135.777 6.83096 135.788 6.70571L135.891 5.52122C135.9 5.41715 135.832 5.32023 135.73 5.29481C134.799 5.06443 133.655 4.93335 132.551 4.93335C129.561 4.93335 128.45 5.79742 128.45 8.12084C128.45 10.5973 128.727 11.1976 131.674 11.9285C134.071 12.5156 134.239 12.652 134.239 14.0112C134.239 15.2987 133.924 15.6996 131.957 15.6996C131.006 15.6996 129.794 15.537 128.787 15.2791C128.665 15.2481 128.544 15.3284 128.524 15.452L128.337 16.5701C128.32 16.6741 128.38 16.775 128.48 16.8089C129.447 17.1349 130.942 17.3716 132.081 17.3716C135.548 17.3716 136.182 16.215 136.182 13.9371C136.182 11.3939 135.718 11.1105 132.488 10.3026Z" fill="#7A95E3"/>
    <path fill-rule="evenodd" clip-rule="evenodd" d="M41.1662 17.0004L39.0189 5.38086C38.9945 5.24899 39.0957 5.12744 39.2299 5.12744H41.6137C41.7173 5.12744 41.8063 5.20132 41.8248 5.30301L43.1152 12.3138C43.156 12.5354 43.4674 12.5521 43.5317 12.336L45.6311 5.28077C45.6582 5.18967 45.7418 5.12744 45.8369 5.12744H48.6582C48.7532 5.12744 48.8372 5.18994 48.8639 5.28129L50.9397 12.3299C51.0036 12.5466 51.3158 12.5301 51.3565 12.3082L52.6459 5.30301C52.6644 5.20132 52.7531 5.12744 52.8569 5.12744H55.2407C55.375 5.12744 55.4762 5.24899 55.4518 5.38086L53.3045 17.0004C53.2857 17.1023 53.197 17.1759 53.0934 17.1759H49.9443C49.849 17.1759 49.7653 17.1132 49.7383 17.0218L47.4411 9.21607C47.3807 9.01085 47.09 9.01085 47.0296 9.21607L44.7324 17.0218C44.7054 17.1132 44.6217 17.1759 44.5264 17.1759H41.377C41.2737 17.1759 41.185 17.1023 41.1662 17.0004Z" fill="#7A95E3"/>
    <path fill-rule="evenodd" clip-rule="evenodd" d="M37.6818 14.9494C36.5932 14.9494 36.2717 14.4791 36.2717 13.1185V4.38036V0.945539C36.2717 0.814988 36.1565 0.714891 36.0275 0.732633L33.4383 1.09357C33.3323 1.1084 33.2534 1.19922 33.2534 1.30621V1.41796V4.38036V13.4402C33.2534 16.1865 34.9111 17.3739 37.1376 17.3739C37.3651 17.3739 38.1632 17.339 38.5776 17.299C38.6873 17.2884 38.7704 17.1955 38.7704 17.0853V15.153C38.7704 15.0312 38.6698 14.9337 38.5482 14.9388C38.2683 14.9494 37.869 14.9494 37.6818 14.9494Z" fill="#7A95E3"/>
    <path fill-rule="evenodd" clip-rule="evenodd" d="M74.2518 7.71489C73.1888 8.19922 72.3046 8.70951 71.3024 9.34398C71.2401 9.38344 71.202 9.45229 71.202 9.52591V16.9614C71.202 17.0798 71.1061 17.1762 70.9875 17.1762H68.3985C68.2798 17.1762 68.1837 17.0798 68.1837 16.9614V5.74737C68.1837 5.6433 68.2589 5.55406 68.3619 5.53605L70.5153 5.16479C70.6342 5.14413 70.7465 5.22596 70.7643 5.34486L70.881 6.13372C70.9038 6.28704 71.0759 6.36675 71.207 6.2844C71.8783 5.86123 72.9524 5.2588 73.8448 4.95824C73.974 4.91481 74.1098 5.00379 74.1247 5.13937L74.377 7.49695C74.3871 7.58884 74.336 7.67675 74.2518 7.71489Z" fill="#7A95E3"/>
    <path fill-rule="evenodd" clip-rule="evenodd" d="M114.428 15.7244C113.226 15.7244 113.136 15.1734 113.136 14.3331V7.01808C113.136 6.89971 113.232 6.80359 113.351 6.80359H116.188C116.298 6.80359 116.391 6.72017 116.401 6.61028L116.52 5.41705C116.533 5.29074 116.434 5.18111 116.307 5.18111H113.351C113.232 5.18111 113.136 5.08472 113.136 4.96635V2.16971C113.136 2.03943 113.02 1.93854 112.891 1.95734L111.352 2.17739C111.246 2.19222 111.167 2.28305 111.167 2.38977V4.96635C111.167 5.08472 111.071 5.18111 110.953 5.18111H109.255C109.136 5.18111 109.04 5.27723 109.04 5.3956V6.58883C109.04 6.70746 109.136 6.80359 109.255 6.80359H110.953C111.071 6.80359 111.167 6.89971 111.167 7.01808V14.6795C111.167 16.5914 112.019 17.3718 114.106 17.3718C114.573 17.3718 115.055 17.3228 115.525 17.2304C115.625 17.2105 115.696 17.1213 115.696 17.0193V15.8404C115.696 15.7072 115.575 15.6071 115.444 15.6296C115.071 15.6942 114.744 15.7244 114.428 15.7244Z" fill="#7A95E3"/>
    <path fill-rule="evenodd" clip-rule="evenodd" d="M82.5642 10.0178C82.5642 10.1364 82.4683 10.2323 82.3497 10.2323H78.51H78.5097V9.17731C78.5097 8.03917 79.0293 7.24766 80.5141 7.24766C80.6923 7.24766 80.8565 7.25984 81.0087 7.28155C82.1254 7.44335 82.5642 8.17581 82.5642 9.17731V10.0178ZM82.9781 5.21976C82.3341 4.93536 81.5193 4.77356 80.4889 4.77356C79.3155 4.77356 78.3948 4.97349 77.6804 5.32224C76.0441 6.12011 75.4915 7.70101 75.4915 9.47416V12.6656C75.4915 15.4954 76.7458 17.2365 80.3382 17.3135C80.6046 17.3284 80.8909 17.317 81.1755 17.317C82.1458 17.317 83.1545 17.2129 84.108 17.0739C84.2251 17.0567 84.3056 16.9473 84.2886 16.8303L84.2733 16.7262L84.0307 15.0852C83.1333 15.1802 82.311 15.2178 81.4046 15.2186C79.1778 15.2186 78.51 14.5754 78.51 13.2395V12.8187C78.51 12.8171 78.5097 12.8155 78.5097 12.8142V12.2369H78.51H84.9999C85.1185 12.2369 85.2147 12.1408 85.2147 12.0224V11.1117V9.62272C85.2147 7.71822 84.7473 6.00147 82.9781 5.21976Z" fill="#7A95E3"/>
    <path fill-rule="evenodd" clip-rule="evenodd" d="M9.10277 19.2155C9.12236 19.2176 9.14196 19.2203 9.16155 19.2219C9.29025 19.2314 9.41444 19.1104 9.41444 18.9737C9.41444 18.8599 9.34242 18.7516 9.22881 18.7357L9.16976 18.7261L9.01353 18.7013C6.29898 18.1518 4.2552 15.7497 4.2552 12.8697C4.2552 11.6441 4.6254 10.5049 5.25988 9.55824C5.35097 9.42292 5.54613 9.32627 5.70952 9.4788L10.0126 13.8603C10.0619 13.9024 10.1255 13.9284 10.1962 13.9284C10.2669 13.9284 10.3304 13.9024 10.3797 13.8603L14.7289 9.52064C14.9007 9.36731 15.0273 9.40094 15.1332 9.55824C15.7701 10.5036 16.1382 11.6441 16.1382 12.8697C16.1382 14.3904 15.5683 15.7783 14.6306 16.8299C14.5996 16.8648 14.5681 16.899 14.5361 16.9331C14.5226 16.9625 14.5152 16.9951 14.5152 17.0295C14.5152 17.1569 14.6179 17.2596 14.745 17.2596C14.7575 17.2596 14.7696 17.2586 14.7816 17.257C14.8149 17.2427 14.848 17.2289 14.8811 17.2149C20.6291 14.7712 20.3918 9.06543 20.3918 9.06543C20.3918 5.78208 18.8437 2.86099 16.4387 0.993297C16.3349 0.912796 16.1848 0.924183 16.0924 1.0166L10.3821 6.73406C10.2801 6.83628 10.1117 6.83628 10.0097 6.73406L4.29968 1.0166C4.20726 0.924183 4.05685 0.912796 3.95331 0.993297C1.54886 2.86046 0.00105923 5.78023 0 9.06225V9.06729C0.00105923 14.3348 3.98668 18.6692 9.10277 19.2155Z" fill="#7A95E3"/>
    <path fill-rule="evenodd" clip-rule="evenodd" d="M28.1332 12.6733C28.1332 14.1824 27.119 15.1967 25.5108 15.1967C24.2739 15.1967 23.6304 14.7269 23.6304 13.737C23.6304 12.6487 24.2985 12.2279 25.5108 12.2279H27.9187C28.037 12.2279 28.1332 12.324 28.1332 12.4424V12.6733ZM25.5108 4.88C24.4659 4.88 23.3545 4.96289 22.3249 5.11595C22.2086 5.13316 22.1289 5.24173 22.1451 5.35825L22.3969 7.19125C22.4147 7.30511 22.5121 7.40865 22.6273 7.39541C23.5936 7.28843 24.2617 7.25507 25.2386 7.25507C27.4653 7.25507 28.1332 7.89828 28.1332 9.23424V10.0342C28.1332 10.1526 28.037 10.2487 27.9187 10.2487H25.1213C22.6472 10.2487 21.2122 11.4859 21.2122 13.7619C21.2122 15.865 22.845 17.3493 25.2695 17.3493C26.803 17.3493 27.3891 17.1176 27.8898 16.6287C28.027 16.4947 28.2568 16.5874 28.2568 16.7794V16.937C28.2568 17.0551 28.3532 17.1515 28.4713 17.1515H30.937C31.0556 17.1515 31.1514 17.0551 31.1514 16.937V9.30865C31.1514 6.315 29.0486 4.88 25.5108 4.88Z" fill="#7A95E3"/>
    <path fill-rule="evenodd" clip-rule="evenodd" d="M63.0724 12.6733C63.0724 14.1824 62.0582 15.1967 60.45 15.1967C59.2131 15.1967 58.5696 14.7269 58.5696 13.737C58.5696 12.6487 59.2377 12.2279 60.45 12.2279H62.8579C62.9763 12.2279 63.0724 12.324 63.0724 12.4424V12.6733ZM60.45 4.88C59.4051 4.88 58.2937 4.96289 57.2641 5.11595C57.1478 5.13316 57.0681 5.24173 57.084 5.35825L57.3361 7.19125C57.3539 7.30511 57.4513 7.40865 57.5665 7.39541C58.5328 7.28843 59.2009 7.25507 60.1778 7.25507C62.4045 7.25507 63.0724 7.89828 63.0724 9.23424V10.0342C63.0724 10.1526 62.9763 10.2487 62.8579 10.2487H60.0605C57.5864 10.2487 56.1514 11.4859 56.1514 13.7619C56.1514 15.865 57.7842 17.3493 60.2088 17.3493C61.7423 17.3493 62.3283 17.1176 62.829 16.6287C62.9662 16.4947 63.196 16.5874 63.196 16.7794V16.937C63.196 17.0551 63.2924 17.1515 63.4105 17.1515H65.8762C65.9948 17.1515 66.0909 17.0551 66.0909 16.937V9.30865C66.0909 6.315 63.9878 4.88 60.45 4.88Z" fill="#7A95E3"/>
    <path d="M148.097 21.2414V0.807129H147.179V21.2414H148.097ZM165.387 17.9684C168.55 17.9684 170.584 16.5309 170.584 13.5454V13.4569C170.584 11.4002 169.722 10.2281 167.422 9.67525C169.235 9.05603 169.81 7.77336 169.81 6.33588V6.24742C169.81 3.12921 167.665 2.15615 164.724 2.15615H159.969V17.9684H165.387ZM164.724 9.05603H161.849V3.65997H164.68C166.891 3.65997 167.93 4.38976 167.93 6.18108V6.26954C167.93 8.21566 167.046 9.05603 164.724 9.05603ZM165.343 16.4646H161.849V10.5599H165.078C167.621 10.5599 168.704 11.4887 168.704 13.4348V13.5233C168.704 15.4473 167.643 16.4646 165.343 16.4646ZM176.349 17.9684V11.6214C176.349 8.76854 177.831 8.03874 180.153 7.92817V6.20319C178.074 6.26954 177.079 7.17626 176.349 8.48104V6.40223H174.513V17.9684H176.349ZM188.217 18.1674C191.512 18.1674 193.923 15.7569 193.923 12.2627V12.0858C193.923 8.61373 191.512 6.20319 188.239 6.20319C184.966 6.20319 182.556 8.63585 182.556 12.1079V12.2848C182.556 15.6684 184.922 18.1674 188.217 18.1674ZM188.239 16.6415C185.895 16.6415 184.458 14.9165 184.458 12.2848V12.1079C184.458 9.4541 185.917 7.72913 188.239 7.72913C190.539 7.72913 192.021 9.4541 192.021 12.13V12.2848C192.021 14.8944 190.561 16.6415 188.239 16.6415ZM201.811 17.9684L204.509 9.2993L206.919 17.9684H208.954L212.559 6.40223H210.679L207.959 15.7127L205.327 6.40223H203.735L200.926 15.7127L198.228 6.40223H196.238L199.798 17.9684H201.811ZM219.54 18.1674C222.348 18.1674 223.786 16.7521 223.786 14.6511C223.786 12.1964 222.105 11.6656 219.716 11.2233C217.593 10.8473 217.018 10.4272 217.018 9.38776C217.018 8.39258 217.881 7.72913 219.208 7.72913C220.667 7.72913 221.375 8.28201 221.64 9.54256H223.41C223.1 7.04357 221.309 6.20319 219.23 6.20319C217.417 6.20319 215.316 7.30895 215.316 9.4541C215.316 11.4666 216.333 12.3069 219.341 12.8598C221.132 13.1915 222.039 13.5896 222.039 14.8059C222.039 16.0444 221.265 16.6415 219.517 16.6415C217.66 16.6415 216.93 15.779 216.797 14.4079H215.006C215.117 16.7742 216.775 18.1674 219.54 18.1674ZM232.226 18.1674C234.836 18.1674 236.76 16.9511 237.158 14.629H235.322C235.079 15.978 234.04 16.6415 232.248 16.6415C229.882 16.6415 228.621 15.1819 228.533 12.5502H237.246V11.9531C237.246 7.81759 234.725 6.20319 232.049 6.20319C228.865 6.20319 226.631 8.63585 226.631 12.13V12.3069C226.631 15.8675 228.953 18.1674 232.226 18.1674ZM235.367 11.0685H228.599C228.909 9.0118 230.17 7.72913 232.049 7.72913C233.951 7.72913 235.19 8.68008 235.367 11.0685ZM242.812 17.9684V11.6214C242.812 8.76854 244.294 8.03874 246.616 7.92817V6.20319C244.537 6.26954 243.542 7.17626 242.812 8.48104V6.40223H240.976V17.9684H242.812ZM264.005 18.1674C268.053 18.1674 270.861 15.7348 270.861 11.157V9.98486H264.359V11.5771H268.981C268.915 14.3858 267.433 16.6194 264.005 16.6194C260.29 16.6194 258.344 14.054 258.344 10.1397V9.96275C258.344 6.09262 260.423 3.43882 264.05 3.43882C266.35 3.43882 268.075 4.41188 268.517 6.93299H270.441C269.954 3.37247 267.146 1.91288 264.005 1.91288C259.472 1.91288 256.354 5.36282 256.354 9.98486V10.1618C256.354 14.7838 259.14 18.1674 264.005 18.1674ZM278.793 18.1674C280.651 18.1674 281.933 17.2165 282.464 16.1328V17.9684H284.3V6.40223H282.464V13.4127C282.464 15.4915 280.916 16.5751 279.28 16.5751C277.466 16.5751 276.604 15.6684 276.604 13.6338V6.40223H274.768V13.7223C274.768 16.9069 276.493 18.1674 278.793 18.1674ZM291.834 18.1674C293.536 18.1674 294.576 17.5924 295.438 16.5088V17.9684H297.274V10.3387C297.274 7.10991 295.261 6.20319 293.05 6.20319C290.816 6.20319 288.715 7.17626 288.472 9.80794H290.308C290.485 8.39258 291.369 7.72913 292.961 7.72913C294.731 7.72913 295.438 8.50316 295.438 10.3387V11.1791H293.78C290.816 11.1791 287.986 12.0858 287.986 14.7617C287.986 17.128 289.688 18.1674 291.834 18.1674ZM292.01 16.7078C290.396 16.7078 289.821 15.9559 289.821 14.7617C289.821 13.0589 291.524 12.4839 293.846 12.4839H295.438V13.9213C295.438 15.7127 293.957 16.7078 292.01 16.7078ZM303.636 17.9684V11.6214C303.636 8.76854 305.117 8.03874 307.439 7.92817V6.20319C305.361 6.26954 304.365 7.17626 303.636 8.48104V6.40223H301.8V17.9684H303.636ZM315.062 18.1674C316.742 18.1674 318.357 17.1059 319.02 15.978V17.9684H320.856V0.873474H319.02V8.25989C318.357 7.13203 317.163 6.20319 315.239 6.20319C312.054 6.20319 309.843 8.70219 309.843 12.2406V12.4175C309.843 16.0223 312.032 18.1674 315.062 18.1674ZM315.261 16.6415C313.315 16.6415 311.744 15.2482 311.744 12.3291V12.1521C311.744 9.34353 313.116 7.72913 315.416 7.72913C317.671 7.72913 319.087 9.12238 319.087 12.0858V12.2627C319.087 15.2261 317.406 16.6415 315.261 16.6415Z" fill="#7A95E3"/>
</svg>
