<svg viewBox="0 0 24 25" fill="none" xmlns="http://www.w3.org/2000/svg">
<path d="M15 2.75C15.5523 2.75 16 3.19772 16 3.75V6.75C16 6.86588 15.9786 6.97658 15.9424 7.08008C15.9791 7.298 16 7.52162 16 7.75C17.1046 7.75 18 8.64543 18 9.75H20V8.25C20 7.69772 20.4477 7.25 21 7.25C21.5523 7.25 22 7.69772 22 8.25V10.75C22 11.3023 21.5523 11.75 21 11.75H18V13.75H21C21.5523 13.75 22 14.1977 22 14.75C22 15.3023 21.5523 15.75 21 15.75H18V16.75C18 17.0908 17.9696 17.4247 17.915 17.75H21C21.5523 17.75 22 18.1977 22 18.75V21.25C22 21.8023 21.5523 22.25 21 22.25C20.4477 22.25 20 21.8023 20 21.25V19.75H17.1953C16.1578 21.5429 14.2205 22.75 12 22.75C9.77951 22.75 7.84224 21.5429 6.80469 19.75H4V21.25C4 21.8023 3.55228 22.25 3 22.25C2.44772 22.25 2 21.8023 2 21.25V18.75C2 18.1977 2.44772 17.75 3 17.75H6.08496C6.03037 17.4247 6 17.0908 6 16.75V15.75H3C2.44772 15.75 2 15.3023 2 14.75C2 14.1977 2.44772 13.75 3 13.75H6V11.75H3C2.44772 11.75 2 11.3023 2 10.75V8.25C2 7.69772 2.44772 7.25 3 7.25C3.55228 7.25 4 7.69772 4 8.25V9.75H6C6 8.64543 6.89543 7.75 8 7.75C8 7.52168 8.0199 7.29795 8.05664 7.08008C8.02046 6.97666 8 6.86577 8 6.75V3.75C8 3.19772 8.44772 2.75 9 2.75C9.55228 2.75 10 3.19772 10 3.75V4.28613C10.5884 3.94564 11.2712 3.75 12 3.75C12.7288 3.75 13.4116 3.94564 14 4.28613V3.75C14 3.19772 14.4477 2.75 15 2.75ZM8 16.75C8 18.9591 9.79086 20.75 12 20.75C14.2091 20.75 16 18.9591 16 16.75V9.75H8V16.75ZM12 5.75C10.8954 5.75 10 6.64543 10 7.75H14C14 6.64543 13.1046 5.75 12 5.75Z" fill="white" fill-opacity="0.9"/>
</svg>
