<svg viewBox="0 0 290 246" fill="none" xmlns="http://www.w3.org/2000/svg">
<g clip-path="url(#clip0_2712_19245)">
<rect width="290" height="246" rx="8" fill="#282A32"/>
<rect x="14.4199" y="15.3711" width="261.049" height="262.21" rx="9.86186" fill="#1C1B1F" stroke="#414451" stroke-width="1.16022"/>
<path d="M15 25.2329C15 20.1068 19.1556 15.9512 24.2818 15.9512H265.607C270.733 15.9512 274.889 20.1068 274.889 25.2329V32.672H15V25.2329Z" fill="#1C1B1F"/>
<rect x="27.7627" y="42.6367" width="70.7734" height="6.96132" rx="3.48066" fill="#414451"/>
<rect x="234.281" y="42.6367" width="26.685" height="6.96132" rx="3.48066" fill="#414451"/>
<rect x="25.4418" y="199.267" width="52.2099" height="34.8066" rx="5.8011" fill="#282A32"/>
<rect x="25.4418" y="199.267" width="52.2099" height="34.8066" rx="5.8011" stroke="#7A95E3" stroke-width="2.32044"/>
<path d="M50.4774 209.893C50.5455 210.07 50.5804 210.258 50.5804 210.448V222.815C50.5804 223.67 49.8878 224.362 49.0335 224.362C48.8121 224.362 48.5933 224.315 48.3919 224.223L45.0407 222.695C44.8038 223.246 44.2565 223.631 43.6191 223.631H41.2987C40.4443 223.631 39.7517 222.939 39.7517 222.084V220.284L38.607 219.763L36.6578 219.764C35.8034 219.764 35.1108 219.071 35.1108 218.217V214.349C35.1108 213.495 35.8034 212.802 36.6578 212.802L38.5954 212.802L48.4785 209.004C49.276 208.697 50.1709 209.095 50.4774 209.893ZM49.0335 210.448L39.7517 214.015V218.585L49.0335 222.815V210.448ZM41.2987 220.99V222.084H43.6191V222.047L41.2987 220.99ZM38.2048 214.349H36.6578V218.217H38.2048V214.349Z" fill="#7A95E3"/>
<rect x="27.1822" y="201.007" width="48.7292" height="31.3259" rx="4.06077" stroke="#3D65D6" stroke-width="1.16022"/>
<rect x="88.0938" y="200.427" width="49.8894" height="32.4861" rx="4.64088" fill="#282A32"/>
<g clip-path="url(#clip1_2712_19245)">
<path d="M106.658 208.935C107.085 208.935 107.431 209.281 107.431 209.708V212.028C107.431 212.118 107.414 212.203 107.386 212.283C107.415 212.452 107.43 212.625 107.43 212.802L107.431 212.803C108.285 212.803 108.978 213.495 108.978 214.349H110.525V213.188C110.525 212.761 110.871 212.415 111.298 212.415C111.726 212.415 112.072 212.761 112.072 213.188V215.122C112.072 215.549 111.726 215.896 111.298 215.896H108.978V217.443H111.298C111.725 217.444 112.072 217.79 112.072 218.217C112.072 218.644 111.725 218.99 111.298 218.99H108.978V219.764C108.978 220.027 108.955 220.285 108.913 220.536H111.298C111.725 220.536 112.072 220.883 112.072 221.31V223.243C112.072 223.67 111.726 224.018 111.298 224.018C110.871 224.018 110.525 223.67 110.525 223.243V222.083H108.356C107.554 223.47 106.055 224.404 104.337 224.404C102.619 224.404 101.12 223.47 100.318 222.083H98.1489V223.243C98.1489 223.67 97.8026 224.018 97.3755 224.018C96.9483 224.018 96.6021 223.67 96.6021 223.243V221.31C96.6023 220.883 96.9484 220.536 97.3755 220.536H99.7612C99.7191 220.285 99.6958 220.027 99.6958 219.764V218.99H97.3755C96.9485 218.99 96.6021 218.644 96.6021 218.217C96.6021 217.79 96.9485 217.444 97.3755 217.443H99.6958V215.896H97.3755C96.9483 215.896 96.6021 215.549 96.6021 215.122V213.188C96.6021 212.761 96.9483 212.415 97.3755 212.415C97.8026 212.415 98.1489 212.761 98.1489 213.188V214.349H99.6958C99.6962 213.548 100.305 212.89 101.084 212.811L101.243 212.803V212.802C101.243 212.625 101.258 212.452 101.287 212.283C101.259 212.203 101.244 212.118 101.244 212.028V209.708C101.244 209.281 101.59 208.935 102.017 208.935C102.444 208.935 102.791 209.281 102.791 209.708V210.125C103.246 209.862 103.773 209.708 104.336 209.708C104.901 209.708 105.429 209.862 105.884 210.126V209.708C105.884 209.281 106.231 208.935 106.658 208.935ZM101.243 218.2C101.243 218.206 101.244 218.211 101.244 218.217C101.244 218.222 101.243 218.227 101.243 218.232V219.764C101.243 221.472 102.629 222.857 104.337 222.857C106.046 222.857 107.431 221.472 107.431 219.764V218.232C107.431 218.227 107.43 218.222 107.43 218.217C107.43 218.211 107.431 218.206 107.431 218.2V214.35H101.243V218.2ZM104.336 211.255C103.482 211.255 102.79 211.948 102.79 212.802H105.883C105.883 211.948 105.191 211.255 104.336 211.255Z" fill="white" fill-opacity="0.7"/>
</g>
<rect x="149.585" y="200.427" width="49.8894" height="32.4861" rx="4.64088" fill="#282A32"/>
<g clip-path="url(#clip2_2712_19245)">
<path fill-rule="evenodd" clip-rule="evenodd" d="M162.735 208.935C163.162 208.935 163.509 209.281 163.509 209.708V210.482H171.998C172.863 210.482 173.564 211.183 173.564 212.047V221.291C173.564 222.156 172.863 222.857 171.998 222.857H159.66C158.795 222.857 158.094 222.156 158.094 221.291V212.047C158.094 211.183 158.795 210.482 159.66 210.482H161.962V209.708C161.962 209.281 162.308 208.935 162.735 208.935ZM172.017 212.028H159.641V221.31H172.017V212.028ZM169.611 213.372C169.666 213.441 169.696 213.528 169.696 213.616V216.669C169.696 218.805 167.965 220.537 165.829 220.537C163.693 220.537 161.962 218.805 161.962 216.669V214.349C161.962 213.922 162.308 213.575 162.735 213.575C163.132 213.575 163.459 213.874 163.503 214.259L163.509 214.349V216.669C163.509 217.951 164.547 218.99 165.829 218.99C167.111 218.99 168.149 217.951 168.149 216.669L168.149 215.896H166.945C166.729 215.896 166.554 215.721 166.554 215.504C166.554 215.386 166.608 215.273 166.7 215.199L169.06 213.311C169.229 213.176 169.476 213.203 169.611 213.372Z" fill="white" fill-opacity="0.7"/>
</g>
<rect x="211.077" y="200.427" width="49.8894" height="32.4861" rx="4.64088" fill="#282A32"/>
<g clip-path="url(#clip3_2712_19245)">
<path fill-rule="evenodd" clip-rule="evenodd" d="M232.664 210.208C232.966 210.51 232.966 211 232.664 211.302L221.726 222.241C221.424 222.543 220.934 222.543 220.632 222.241C220.33 221.938 220.33 221.449 220.632 221.147L221.854 219.924L221.718 219.796C221.386 219.47 221.08 219.113 220.805 218.727L220.663 218.521L219.429 216.669L220.663 214.817C222.049 212.738 224.323 211.431 226.816 211.271L227.066 211.259L227.32 211.255C228.262 211.255 229.182 211.421 230.044 211.733L231.57 210.208C231.872 209.906 232.362 209.906 232.664 210.208ZM232.296 212.991C232.875 213.451 233.394 213.995 233.834 214.611L233.976 214.817L235.211 216.669L233.976 218.521C232.59 220.6 230.316 221.907 227.824 222.067L227.574 222.08L227.32 222.084C226.137 222.084 224.989 221.822 223.948 221.338L225.132 220.156C225.683 220.355 226.263 220.479 226.858 220.521L227.078 220.533L227.307 220.537L227.535 220.533C229.539 220.466 231.396 219.471 232.562 217.846L232.689 217.663L233.351 216.669L232.689 215.675C232.278 215.059 231.77 214.526 231.193 214.094L232.296 212.991ZM230.058 215.228L230.126 215.365C230.311 215.761 230.414 216.203 230.414 216.669C230.414 218.378 229.028 219.763 227.32 219.763C226.8 219.763 226.31 219.635 225.879 219.408L230.058 215.228ZM227.332 212.802L227.104 212.805C225.1 212.872 223.243 213.868 222.077 215.492L221.951 215.675L221.287 216.669L221.951 217.663C222.239 218.096 222.575 218.487 222.948 218.831L224.326 217.452L224.324 217.444C224.26 217.196 224.226 216.937 224.226 216.669C224.226 214.961 225.611 213.575 227.32 213.575C227.59 213.575 227.853 213.61 228.103 213.675L228.802 212.976L228.685 212.948C228.384 212.883 228.076 212.839 227.764 212.817L227.542 212.806L227.332 212.802Z" fill="white" fill-opacity="0.7"/>
</g>
<g filter="url(#filter0_d_2712_19245)">
<path fill-rule="evenodd" clip-rule="evenodd" d="M65.0528 230.59C65.0519 229.949 64.5328 229.431 63.8925 229.431C63.2518 229.431 62.7323 229.95 62.7323 230.591V231.751L62.7323 232.622C62.7323 232.782 62.6025 232.912 62.4423 232.912C62.2821 232.912 62.1522 232.782 62.1522 232.622V231.751H62.1521V225.95C62.1521 225.309 61.6327 224.79 60.9919 224.79C60.3511 224.79 59.8317 225.309 59.8317 225.95V231.751V234.072V235.527L58.943 233.926C58.632 233.366 57.9258 233.164 57.3655 233.475C56.8052 233.785 56.6031 234.492 56.914 235.052L60.1208 240.831C60.4608 241.443 61.0864 241.797 61.7392 241.818C62.2117 242.058 62.7462 242.193 63.3124 242.193H67.3731C69.2954 242.193 70.8538 240.635 70.8538 238.713V234.085L70.8539 234.072V231.751C70.8539 231.111 70.3344 230.591 69.6936 230.591C69.0529 230.591 68.5334 231.111 68.5334 231.751L68.5334 232.622C68.5334 232.782 68.4036 232.912 68.2434 232.912C68.0832 232.912 67.9533 232.782 67.9533 232.622L67.9533 231.751V230.591L67.9533 230.59C67.9524 229.949 67.4333 229.431 66.7931 229.431C66.1523 229.431 65.6329 229.95 65.6329 230.591V231.751L65.6329 232.622C65.6329 232.782 65.503 232.912 65.3428 232.912C65.1826 232.912 65.0528 232.782 65.0528 232.622V230.59Z" fill="url(#paint0_linear_2712_19245)"/>
</g>
<path fill-rule="evenodd" clip-rule="evenodd" d="M65.6331 230.591C65.6331 230.591 65.6331 230.59 65.6331 230.59C65.6331 230.589 65.6331 230.59 65.6331 230.59C65.6339 230.237 65.7914 229.921 66.0397 229.709C66.2424 229.536 66.5057 229.431 66.7934 229.431C67.3225 229.431 67.7688 229.785 67.9084 230.269C67.9377 230.371 67.9534 230.478 67.9536 230.59V232.622C67.9536 232.782 68.0834 232.912 68.2436 232.912C68.4038 232.912 68.5337 232.782 68.5337 232.622L68.5337 231.751C68.5337 231.322 68.767 230.947 69.1138 230.746C69.2845 230.648 69.4826 230.591 69.6939 230.591C70.3347 230.591 70.8541 231.111 70.8541 231.751V234.072L70.8541 234.085V238.713C70.8541 240.635 69.2957 242.193 67.3734 242.193H63.3126C62.7465 242.193 62.212 242.058 61.7395 241.818C61.0867 241.797 60.4611 241.443 60.1211 240.831L56.9143 235.052C56.6034 234.492 56.8055 233.786 57.3658 233.475C57.7969 233.235 58.3144 233.3 58.6718 233.598C58.7788 233.687 58.8716 233.797 58.9432 233.926L59.832 235.528V225.95C59.832 225.31 60.3514 224.79 60.9922 224.79C61.633 224.79 62.1524 225.31 62.1524 225.95V231.751L62.1525 232.622C62.1525 232.782 62.2823 232.912 62.4425 232.912C62.6027 232.912 62.7326 232.782 62.7326 232.622L62.7326 230.591C62.7326 230.162 62.9659 229.787 63.3126 229.586C63.4833 229.487 63.6815 229.431 63.8928 229.431C64.1805 229.431 64.4437 229.536 64.6465 229.709C64.8949 229.922 65.0525 230.237 65.053 230.59V232.622C65.053 232.782 65.1829 232.912 65.3431 232.912C65.5033 232.912 65.6331 232.782 65.6331 232.622L65.6331 230.591ZM65.3431 228.78C65.7403 228.461 66.2446 228.271 66.7934 228.271C67.7114 228.271 68.5048 228.804 68.8812 229.577C69.1341 229.483 69.408 229.431 69.6939 229.431C70.9755 229.431 72.0143 230.47 72.0143 231.751V234.078L72.0143 234.088V238.713C72.0143 241.276 69.9365 243.354 67.3734 243.354H63.3126C62.6462 243.354 62.0101 243.212 61.4348 242.958C60.4893 242.844 59.606 242.293 59.1066 241.394L55.8998 235.615C55.278 234.494 55.6822 233.082 56.8028 232.46C57.3975 232.13 58.0744 232.089 58.6718 232.291V225.95C58.6718 224.669 59.7106 223.63 60.9922 223.63C62.2737 223.63 63.3126 224.669 63.3126 225.95V228.344C63.4981 228.296 63.6925 228.271 63.8928 228.271C64.4416 228.271 64.9458 228.461 65.3431 228.78Z" fill="#1C1B1F"/>
<rect x="26.6021" y="58.8799" width="234.364" height="122.983" rx="9.28175" fill="#282A32"/>
<path d="M172.79 62.3604L172.79 181.863" stroke="#414451" stroke-width="1.16022" stroke-dasharray="4.64 4.64"/>
<path d="M33.5635 163.3L75.3314 129.073L116.519 150.537L173.37 108.77L188.453 118.051H201.215L255.165 134.294" stroke="#7A95E3" stroke-width="3.48066" stroke-linecap="round"/>
<path d="M185.552 83.2441C188.115 83.2443 190.193 85.3219 190.193 87.8848V97.167C190.193 99.7298 188.115 101.807 185.552 101.808H176.184L173.37 105.288L170.556 101.808H161.187C158.624 101.807 156.547 99.7299 156.546 97.167V87.8848C156.547 85.3219 158.624 83.2443 161.187 83.2441H185.552Z" fill="#7A95E3"/>
<path fill-rule="evenodd" clip-rule="evenodd" d="M161.188 92.5256C161.188 89.9626 163.265 87.8848 165.828 87.8848C168.391 87.8848 170.469 89.9626 170.469 92.5256C170.469 95.0887 168.391 97.1665 165.828 97.1665C163.265 97.1665 161.188 95.0887 161.188 92.5256ZM165.828 89.2858C164.039 89.2858 162.589 90.7363 162.589 92.5256C162.589 93.167 162.775 93.7644 163.096 94.2673L167.57 89.7932C167.067 89.4719 166.47 89.2858 165.828 89.2858ZM164.087 95.258C164.59 95.5793 165.187 95.7655 165.828 95.7655C167.618 95.7655 169.068 94.315 169.068 92.5256C169.068 91.8842 168.882 91.2868 168.561 90.7839L164.087 95.258Z" fill="#1C1B1F"/>
<path d="M181.328 92.9165L179.809 92.5596L180.308 88.3447H185.129V89.829H181.866L181.679 91.4662C181.77 91.4133 181.923 91.351 182.138 91.2793C182.357 91.2037 182.599 91.166 182.863 91.166C183.271 91.166 183.632 91.2283 183.945 91.3529C184.262 91.4738 184.53 91.6532 184.749 91.8911C184.968 92.1253 185.133 92.4142 185.242 92.7579C185.356 93.1015 185.412 93.4943 185.412 93.9362C185.412 94.2912 185.354 94.6349 185.237 94.9673C185.123 95.2958 184.948 95.5923 184.71 95.8567C184.476 96.1173 184.179 96.325 183.82 96.4799C183.462 96.6309 183.037 96.7065 182.546 96.7065C182.179 96.7065 181.822 96.6498 181.475 96.5365C181.128 96.4232 180.814 96.2608 180.535 96.0493C180.259 95.834 180.04 95.5753 179.877 95.2732C179.719 94.9673 179.641 94.6255 179.645 94.2478H181.566C181.577 94.448 181.624 94.6217 181.707 94.769C181.79 94.9163 181.902 95.0315 182.042 95.1146C182.185 95.1939 182.349 95.2335 182.534 95.2335C182.723 95.2335 182.88 95.1958 183.005 95.1202C183.129 95.0447 183.227 94.9408 183.299 94.8086C183.371 94.6765 183.422 94.5254 183.452 94.3554C183.482 94.1817 183.497 93.9985 183.497 93.8059C183.497 93.602 183.475 93.4188 183.429 93.2564C183.388 93.094 183.32 92.9561 183.226 92.8428C183.131 92.7258 183.008 92.637 182.857 92.5766C182.71 92.5162 182.532 92.4859 182.325 92.4859C182.049 92.4859 181.832 92.5331 181.673 92.6276C181.515 92.722 181.399 92.8183 181.328 92.9165Z" fill="#1C1B1F" fill-opacity="0.8"/>
<path d="M178.84 93.3697V94.8426H172.903L172.79 93.6756L176.104 88.3447H177.611L175.973 91.0243L174.614 93.3697H178.84ZM178.007 88.3447V96.5932H176.098V88.3447H178.007Z" fill="#1C1B1F" fill-opacity="0.8"/>
</g>
<rect x="0.5" y="0.5" width="289" height="245" rx="7.5" stroke="#414451"/>
<defs>
<filter id="filter0_d_2712_19245" x="55.6078" y="224.79" width="16.4064" height="19.7238" filterUnits="userSpaceOnUse" color-interpolation-filters="sRGB">
<feFlood flood-opacity="0" result="BackgroundImageFix"/>
<feColorMatrix in="SourceAlpha" type="matrix" values="0 0 0 0 0 0 0 0 0 0 0 0 0 0 0 0 0 0 127 0" result="hardAlpha"/>
<feOffset dy="1.16022"/>
<feGaussianBlur stdDeviation="0.58011"/>
<feComposite in2="hardAlpha" operator="out"/>
<feColorMatrix type="matrix" values="0 0 0 0 0 0 0 0 0 0 0 0 0 0 0 0 0 0 0.1 0"/>
<feBlend mode="normal" in2="BackgroundImageFix" result="effect1_dropShadow_2712_19245"/>
<feBlend mode="normal" in="SourceGraphic" in2="effect1_dropShadow_2712_19245" result="shape"/>
</filter>
<linearGradient id="paint0_linear_2712_19245" x1="63.811" y1="224.79" x2="63.811" y2="242.193" gradientUnits="userSpaceOnUse">
<stop offset="0.353422" stop-color="white"/>
<stop offset="1" stop-color="#E7E7E7"/>
</linearGradient>
<clipPath id="clip0_2712_19245">
<rect width="290" height="246" rx="8" fill="white"/>
</clipPath>
<clipPath id="clip1_2712_19245">
<rect width="18.5635" height="18.5635" fill="white" transform="translate(95.0552 207.388)"/>
</clipPath>
<clipPath id="clip2_2712_19245">
<rect width="18.5635" height="18.5635" fill="white" transform="translate(156.547 207.388)"/>
</clipPath>
<clipPath id="clip3_2712_19245">
<rect width="18.5635" height="18.5635" fill="white" transform="translate(218.038 207.388)"/>
</clipPath>
</defs>
</svg>
