<svg width="21" height="21" viewBox="0 0 21 21" fill="none" xmlns="http://www.w3.org/2000/svg">
<path d="M18.4693 7.44397C18.6273 7.44397 18.7034 7.49896 18.7584 7.64319C20.3246 11.8473 18.3254 16.5183 14.1969 18.2906C13.2146 18.7097 12.1844 18.9302 11.1197 18.9508C11.0442 18.9508 10.9343 18.9296 10.9068 18.8815C10.8794 18.8334 10.9135 18.7236 10.9478 18.6617C12.04 16.7591 13.132 14.8563 14.2379 12.9674C14.5814 12.3904 14.8703 11.7988 14.9527 11.1256C15.0968 9.89618 14.7672 8.81071 13.943 7.87659C13.8812 7.80792 13.8124 7.74607 13.7574 7.67053C13.6889 7.57448 13.7298 7.47836 13.8531 7.45764C13.9012 7.45078 13.9496 7.45081 13.9977 7.45081C14.7463 7.44394 15.4883 7.44397 16.2301 7.44397C16.9787 7.44397 17.7207 7.45083 18.4693 7.44397ZM3.59726 6.52307C3.68654 6.36536 3.79698 6.37969 3.90683 6.56506C4.52501 7.62971 5.13633 8.69475 5.74765 9.7594C6.29028 10.7004 6.82615 11.6417 7.36191 12.5758C8.26865 14.1624 10.0957 14.9585 11.8678 14.5397C11.9158 14.5259 11.9643 14.5124 12.0123 14.5055C12.129 14.4986 12.1979 14.5812 12.1568 14.691C12.1431 14.7391 12.1091 14.7875 12.0816 14.8356C11.3466 16.1063 10.6115 17.3773 9.88339 18.6549C9.78727 18.8197 9.69074 18.861 9.50546 18.8268C7.16986 18.3871 5.31473 17.2055 3.97519 15.2408C3.14401 14.0456 2.6906 12.6991 2.57382 11.236C2.56695 11.181 2.55335 11.1327 2.54648 11.0778V10.0612C2.58769 9.75208 2.62926 9.43566 2.67734 9.12659C2.83536 8.20628 3.15083 7.34038 3.59726 6.52307ZM10.941 7.45764C12.7201 7.47831 14.0455 8.92112 14.0455 10.611C14.0111 12.39 12.5828 13.729 10.8932 13.7086C9.1347 13.688 7.78096 12.2734 7.79453 10.5699C7.80826 8.7839 9.24426 7.4439 10.941 7.45764ZM11.4078 2.21643C11.7788 2.27139 12.157 2.30591 12.5211 2.38147C14.2106 2.71119 15.6599 3.49402 16.8687 4.70959C17.3289 5.16978 17.7275 5.67863 18.0641 6.24182C18.0983 6.30351 18.1332 6.40647 18.1129 6.44104C18.0786 6.49589 17.9755 6.52395 17.9068 6.52405C15.7019 6.53092 13.4966 6.54371 11.2848 6.51624C10.5154 6.50937 9.77341 6.59269 9.08652 6.94983C8.06984 7.4719 7.38907 8.2824 7.02499 9.37463C6.99063 9.47767 6.92863 9.62843 6.84628 9.65588C6.70232 9.69674 6.67466 9.52542 6.61288 9.42932C5.88475 8.16539 5.15648 6.89439 4.42148 5.63733C4.33919 5.49322 4.34589 5.3898 4.45566 5.2594C5.67149 3.81688 7.18312 2.86209 9.02402 2.43616C9.42233 2.34001 9.84149 2.30557 10.2467 2.24377C10.3084 2.23691 10.3637 2.22331 10.4185 2.20959C10.7482 2.21646 11.0781 2.21643 11.4078 2.21643Z" fill="white" fill-opacity="0.9"/>
</svg>
