<svg viewBox="0 0 20 20" fill="none" xmlns="http://www.w3.org/2000/svg">
<path d="M16.667 15C17.127 15.0002 17.4998 15.373 17.5 15.833C17.5 16.2931 17.1271 16.6668 16.667 16.667H3.33301C2.87292 16.6668 2.5 16.2931 2.5 15.833C2.50018 15.373 2.87303 15.0002 3.33301 15H16.667ZM10 3.33301C10.4602 3.33301 10.833 3.70675 10.833 4.16699C10.8329 4.43021 10.7102 4.66376 10.5195 4.81641L13.1055 8.04883C13.2358 8.21168 13.4667 8.25281 13.6455 8.14551L16.7861 6.26074C16.7111 6.13561 16.667 5.98955 16.667 5.83301C16.6672 5.37292 17.0399 5 17.5 5C17.9601 5 18.3328 5.37292 18.333 5.83301C18.333 6.29325 17.9602 6.66699 17.5 6.66699C17.472 6.66699 17.4443 6.66481 17.417 6.66211L16.7422 13.416C16.6996 13.842 16.3402 14.167 15.9121 14.167H4.08789C3.65976 14.167 3.30041 13.842 3.25781 13.416L2.58203 6.66211C2.55503 6.66475 2.5277 6.66699 2.5 6.66699C2.03976 6.66699 1.66699 6.29325 1.66699 5.83301C1.66717 5.37292 2.03987 5 2.5 5C2.96013 5 3.33283 5.37292 3.33301 5.83301C3.33301 5.98973 3.28813 6.13552 3.21289 6.26074L6.35449 8.14551C6.53333 8.25281 6.76425 8.21168 6.89453 8.04883L9.47949 4.81641C9.28917 4.66374 9.16709 4.42993 9.16699 4.16699C9.16699 3.70675 9.53976 3.33301 10 3.33301ZM8.19531 9.08984C7.54393 9.90407 6.39122 10.1116 5.49707 9.5752L4.48828 8.96973L4.8418 12.5H15.1582L15.5117 8.96973L14.5029 9.5752C13.6088 10.1116 12.4561 9.90407 11.8047 9.08984L10 6.83496L8.19531 9.08984Z" fill="white" fill-opacity="0.9"/>
</svg>
