<svg viewBox="0 0 24 24" fill="none" xmlns="http://www.w3.org/2000/svg">
<g clip-path="url(#clip0_379_7218)">
<path fill-rule="evenodd" clip-rule="evenodd" d="M17.9779 11.9714L12.3211 6.31453C11.9306 5.924 11.9306 5.29084 12.3211 4.90032C12.7116 4.50979 13.3448 4.50979 13.7353 4.90032L20.0993 11.2643C20.4898 11.6548 20.4898 12.288 20.0993 12.6785L13.7353 19.0425C13.3448 19.433 12.7116 19.433 12.3211 19.0425C11.9306 18.6519 11.9306 18.0188 12.3211 17.6282L17.9779 11.9714Z" fill="white" fill-opacity="0.9"/>
<path fill-rule="evenodd" clip-rule="evenodd" d="M10.7281 11.9714L5.07121 6.31453C4.68069 5.924 4.68069 5.29084 5.07121 4.90032C5.46174 4.50979 6.0949 4.50979 6.48543 4.90032L12.8494 11.2643C13.2399 11.6548 13.2399 12.288 12.8494 12.6785L6.48543 19.0425C6.0949 19.433 5.46174 19.433 5.07121 19.0425C4.68069 18.6519 4.68069 18.0188 5.07121 17.6282L10.7281 11.9714Z" fill="white" fill-opacity="0.9"/>
</g>
<defs>
<clipPath id="clip0_379_7218">
<rect width="24" height="24" fill="white"/>
</clipPath>
</defs>
</svg>
