<svg viewBox="0 0 97 110" fill="none" xmlns="http://www.w3.org/2000/svg">
<path d="M49.3516 12.0879V91.8681" stroke="black" stroke-width="1.20879"/>
<path d="M52.5728 1.6543C49.7762 0.293038 46.509 0.292946 43.7124 1.6543L6.23975 19.8955C2.75777 21.5905 0.54834 25.1244 0.54834 28.9971V43.4062C0.548344 67.3661 13.1316 89.5656 33.689 101.873L42.9438 107.414C46.145 109.33 50.1412 109.33 53.3423 107.414L62.5972 101.873C83.1543 89.5656 95.7368 67.366 95.7368 43.4062V28.9971C95.7368 25.1244 93.5274 21.5905 90.0454 19.8955L52.5728 1.6543Z" fill="#515565" stroke="#747784" stroke-width="0.903273"/>
<path d="M88.4775 33.2196C88.533 30.4453 87.0008 27.8824 84.5306 26.6181L52.218 10.0798C50.2341 9.06439 47.8934 9.0175 45.8704 9.95265L12.9213 25.1835C10.4025 26.3478 8.76883 28.8472 8.71325 31.6216L8.46582 43.9716C8.05717 64.3685 18.3906 83.4813 35.6809 94.3091L44.7574 99.9931C46.268 100.939 48.1765 100.977 49.7237 100.093L59.0205 94.7767C76.7307 84.6501 87.8214 65.9665 88.23 45.5697L88.4775 33.2196Z" fill="#414451"/>
<path d="M48.5007 71C58.718 71 67.0007 62.7173 67.0007 52.5C67.0007 42.2827 58.718 34 48.5007 34C38.2835 34 30.0007 42.2827 30.0007 52.5C30.0007 62.7173 38.2835 71 48.5007 71Z" fill="#515565"/>
<path d="M48.3603 57.8174C47.3191 57.8174 46.4743 56.9726 46.4743 55.9313V54.7984C46.4743 52.6177 47.6334 50.5745 49.5718 49.3499C50.2071 48.9439 50.8095 48.1057 50.5869 46.9531C50.4166 46.0887 49.6963 45.3683 48.8384 45.1981C48.1311 45.0605 47.4501 45.2308 46.9196 45.6696C46.3957 46.1018 46.0879 46.7436 46.0879 47.4246C46.0879 48.4659 45.2432 49.3106 44.2019 49.3106C43.1607 49.3106 42.3159 48.4659 42.3159 47.4246C42.3159 45.6106 43.1148 43.9145 44.5163 42.762C45.9177 41.6094 47.7513 41.151 49.5522 41.4981C51.9228 41.9565 53.8219 43.8621 54.2869 46.2328C54.7715 48.7147 53.7106 51.1901 51.5888 52.5326C50.7441 53.0696 50.2398 53.9144 50.2398 54.7984V55.9313C50.2398 56.9726 49.395 57.8174 48.3538 57.8174H48.3603Z" fill="white"/>
<path d="M48.3605 63.3768C49.5359 63.3768 50.4888 62.4239 50.4888 61.2484C50.4888 60.073 49.5359 59.1201 48.3605 59.1201C47.1851 59.1201 46.2322 60.073 46.2322 61.2484C46.2322 62.4239 47.1851 63.3768 48.3605 63.3768Z" fill="white"/>
</svg>
