<svg viewBox="0 0 160 160" fill="none" xmlns="http://www.w3.org/2000/svg">
<path d="M108 115.2C136.719 115.2 160 92.2773 160 64.0003C160 35.7233 136.719 12.8003 108 12.8003C79.2812 12.8003 56 35.7233 56 64.0003C56 92.2773 79.2812 115.2 108 115.2Z" fill="#282A32"/>
<path d="M63.5305 143.595C80.0608 143.595 93.4612 130.195 93.4612 113.665C93.4612 97.1343 80.0608 83.7339 63.5305 83.7339C47.0003 83.7339 33.5999 97.1343 33.5999 113.665C33.5999 130.195 47.0003 143.595 63.5305 143.595Z" fill="#282A32"/>
<path d="M39.6105 105.355C61.1923 105.355 78.6879 87.8593 78.6879 66.2775C78.6879 44.6957 61.1923 27.2002 39.6105 27.2002C18.0287 27.2002 0.533203 44.6957 0.533203 66.2775C0.533203 87.8593 18.0287 105.355 39.6105 105.355Z" fill="#282A32"/>
<path d="M95.1304 77.9899C95.1357 77.8832 95.1411 77.7712 95.1411 77.6646C95.1411 74.3792 92.4744 71.7126 89.1891 71.7126C89.0717 71.7126 88.9597 71.7126 88.8424 71.7232C88.3891 68.2672 85.4344 65.6006 81.8557 65.6006C78.2771 65.6006 75.1411 68.4326 74.8317 72.0432C73.9891 71.6859 73.0664 71.4939 72.0957 71.4939C68.3891 71.4939 65.3491 74.3579 65.0664 77.9952H95.1304V77.9899Z" fill="#282A32"/>
<path d="M60.2668 60.8705C60.2668 54.082 64.1156 47.8806 70.1986 44.8675L93.6922 33.2303C101.364 29.4302 110.37 29.4302 118.041 33.2302L141.535 44.8675C147.618 47.8806 151.467 54.0821 151.467 60.8705V61.4545C151.467 90.1663 136.504 116.803 111.984 131.74C108.227 134.029 103.507 134.029 99.7501 131.74C75.2299 116.803 60.2668 90.1663 60.2668 61.4545V60.8705Z" fill="#9799A3"/>
<path fill-rule="evenodd" clip-rule="evenodd" d="M88.5336 47.4661C88.5336 46.877 89.0112 46.3994 89.6003 46.3994H126.499C134.199 46.3994 140.8 51.5885 140.8 58.3994C140.8 65.2104 134.199 70.3994 126.499 70.3994H68.8003C68.2112 70.3994 67.7336 69.9219 67.7336 69.3327C67.7336 68.7436 68.2112 68.2661 68.8003 68.2661H126.499C133.42 68.2661 138.667 63.6689 138.667 58.3994C138.667 53.1299 133.42 48.5327 126.499 48.5327H89.6003C89.0112 48.5327 88.5336 48.0552 88.5336 47.4661Z" fill="#B9BBC1"/>
<path fill-rule="evenodd" clip-rule="evenodd" d="M110.381 120.165L101.234 120.165C93.5349 120.165 86.9335 114.976 86.9335 108.165C86.9335 101.354 93.5349 96.165 101.234 96.165L137.333 96.165C137.923 96.165 138.4 96.6426 138.4 97.2317C138.4 97.8208 137.923 98.2984 137.333 98.2984L101.234 98.2984C94.3136 98.2984 89.0668 102.896 89.0668 108.165C89.0668 113.435 94.3136 118.032 101.234 118.032L110.381 118.032C110.97 118.032 111.448 118.509 111.448 119.098C111.448 119.687 110.97 120.165 110.381 120.165Z" fill="#B9BBC1"/>
<path d="M139.217 60.4465C137.452 60.4465 136.015 59.0098 136.015 57.2445C136.015 55.4792 137.452 54.0425 139.217 54.0425C140.982 54.0425 142.419 55.4792 142.419 57.2445C142.419 59.0098 140.982 60.4465 139.217 60.4465Z" fill="#9799A3"/>
<path fill-rule="evenodd" clip-rule="evenodd" d="M139.217 55.1094C138.041 55.1094 137.082 56.0686 137.082 57.2448C137.082 58.421 138.041 59.3801 139.217 59.3801C140.393 59.3801 141.353 58.421 141.353 57.2448C141.353 56.0686 140.393 55.1094 139.217 55.1094ZM134.948 57.2448C134.948 54.8904 136.863 52.9761 139.217 52.9761C141.572 52.9761 143.486 54.8904 143.486 57.2448C143.486 59.5992 141.572 61.5135 139.217 61.5135C136.863 61.5135 134.948 59.5992 134.948 57.2448Z" fill="#B9BBC1"/>
<path d="M75.7335 72.698C73.9682 72.698 72.5315 71.2613 72.5315 69.496C72.5315 67.7307 73.9682 66.2939 75.7335 66.2939C77.4988 66.2939 78.9356 67.7307 78.9356 69.496C78.9356 71.2613 77.4988 72.698 75.7335 72.698Z" fill="#9799A3"/>
<path fill-rule="evenodd" clip-rule="evenodd" d="M75.7335 67.3609C74.5574 67.3609 73.5982 68.32 73.5982 69.4962C73.5982 70.6724 74.5574 71.6316 75.7335 71.6316C76.9097 71.6316 77.8689 70.6724 77.8689 69.4962C77.8689 68.32 76.9097 67.3609 75.7335 67.3609ZM71.4648 69.4962C71.4648 67.1418 73.3791 65.2275 75.7335 65.2275C78.0879 65.2275 80.0022 67.1418 80.0022 69.4962C80.0022 71.8506 78.0879 73.7649 75.7335 73.7649C73.3791 73.7649 71.4648 71.8506 71.4648 69.4962Z" fill="#B9BBC1"/>
<path fill-rule="evenodd" clip-rule="evenodd" d="M73.0669 83.1995C73.0669 82.6104 73.5445 82.1328 74.1336 82.1328H139.734V84.2661H74.1336C73.5445 84.2661 73.0669 83.7886 73.0669 83.1995Z" fill="#B9BBC1"/>
<path d="M88.0023 104C89.7676 104 91.2043 105.436 91.2043 107.202C91.2043 108.967 89.7676 110.404 88.0023 110.404C86.237 110.404 84.8003 108.967 84.8003 107.202C84.8003 105.436 86.237 104 88.0023 104Z" fill="#9799A3"/>
<path fill-rule="evenodd" clip-rule="evenodd" d="M88.0023 109.337C89.1785 109.337 90.1377 108.378 90.1377 107.202C90.1377 106.025 89.1785 105.066 88.0023 105.066C86.8261 105.066 85.8669 106.025 85.8669 107.202C85.8669 108.378 86.8261 109.337 88.0023 109.337ZM92.271 107.202C92.271 109.556 90.3567 111.47 88.0023 111.47C85.6479 111.47 83.7336 109.556 83.7336 107.202C83.7336 104.847 85.6479 102.933 88.0023 102.933C90.3567 102.933 92.271 104.847 92.271 107.202Z" fill="#B9BBC1"/>
<path d="M138.133 86.4036C136.368 86.4036 134.931 84.9668 134.931 83.2015C134.931 81.4362 136.368 79.9995 138.133 79.9995C139.899 79.9995 141.335 81.4362 141.335 83.2015C141.335 84.9668 139.899 86.4036 138.133 86.4036Z" fill="#9799A3"/>
<path fill-rule="evenodd" clip-rule="evenodd" d="M138.133 81.0664C136.957 81.0664 135.998 82.0256 135.998 83.2018C135.998 84.378 136.957 85.3372 138.133 85.3372C139.31 85.3372 140.269 84.378 140.269 83.2018C140.269 82.0256 139.31 81.0664 138.133 81.0664ZM133.865 83.2018C133.865 80.8474 135.779 78.9331 138.133 78.9331C140.488 78.9331 142.402 80.8474 142.402 83.2018C142.402 85.5562 140.488 87.4705 138.133 87.4705C135.779 87.4705 133.865 85.5562 133.865 83.2018Z" fill="#B9BBC1"/>
<path d="M62.1897 55.7834C63.4244 53.7932 65.2045 52.1414 67.3851 51.0612L100.185 34.8142C103.765 33.0408 107.968 33.0408 111.548 34.8142L144.348 51.0612C146.529 52.1413 148.309 53.7929 149.543 55.7829C148.698 52.0972 146.247 48.9163 142.774 47.1864L111.574 31.6433C107.98 29.8526 103.753 29.8526 100.159 31.6433L68.9589 47.1864C65.4862 48.9164 63.0345 52.0975 62.1897 55.7834Z" fill="#B9BBC1"/>
<path d="M106.133 55.4658C115.853 55.4658 123.733 63.3454 123.734 73.0654C123.734 81.3138 118.059 88.236 110.401 90.1436V96.5322H116.648C117.91 96.5322 118.934 97.556 118.934 98.8184V100.113C118.934 101.376 117.91 102.399 116.648 102.399H114.667V108.266H116.648C117.91 108.266 118.934 109.289 118.934 110.552V111.847C118.934 113.109 117.91 114.133 116.648 114.133H110.401V115.504C110.401 117.397 108.865 118.932 106.972 118.933H105.295C103.402 118.932 101.866 117.397 101.866 115.504V90.1426C94.2084 88.2351 88.5334 81.3139 88.5334 73.0654C88.5337 63.3455 96.4132 55.466 106.133 55.4658ZM106.133 66.1191C102.296 66.1194 99.1858 69.2296 99.1858 73.0664C99.1859 76.9031 102.296 80.0134 106.133 80.0137C109.97 80.0137 113.081 76.9032 113.081 73.0664C113.081 69.2295 109.97 66.1191 106.133 66.1191Z" fill="#747784"/>
<path d="M101.867 84.7998H110.4V112.838C110.4 114.731 108.865 116.266 106.972 116.266H105.296C103.402 116.266 101.867 114.731 101.867 112.838V84.7998Z" fill="#E5E6E8"/>
<path d="M106.133 51.7329C115.853 51.7329 123.733 59.6125 123.734 69.3325C123.734 79.0527 115.853 86.9331 106.133 86.9331C96.413 86.9329 88.5334 79.0526 88.5334 69.3325C88.5337 59.6126 96.4132 51.7331 106.133 51.7329ZM106.133 62.3853C102.296 62.3855 99.186 65.4959 99.1858 69.3325C99.1858 73.1693 102.296 76.2805 106.133 76.2808C109.97 76.2808 113.081 73.1694 113.081 69.3325C113.081 65.4958 109.97 62.3853 106.133 62.3853Z" fill="#E5E6E8"/>
<path d="M106.133 62.3853C102.296 62.3855 99.186 65.4959 99.1858 69.3325C99.1858 73.1693 102.296 76.2805 106.133 76.2808V116.266H105.295C103.402 116.266 101.867 114.731 101.866 112.837V86.4097C94.2084 84.5022 88.5334 77.581 88.5334 69.3325C88.5337 59.6126 96.4132 51.7331 106.133 51.7329V62.3853Z" fill="#DCDDE0"/>
<path d="M106.103 53.5854C112.898 53.5855 118.688 57.8897 120.895 63.9204C117.92 58.8462 112.41 55.4381 106.103 55.438C99.7964 55.438 94.2862 58.8451 91.3108 63.9185C93.5185 57.8887 99.3082 53.5854 106.103 53.5854Z" fill="white"/>
<path d="M118.933 96.1519C118.933 94.8896 117.91 93.8662 116.648 93.8662H110.4V111.466H116.648C117.91 111.466 118.933 110.443 118.933 109.18V107.885C118.933 106.623 117.91 105.6 116.648 105.6H114.667V99.7329H116.648C117.91 99.7329 118.933 98.7095 118.933 97.4472V96.1519Z" fill="#DCDDE0"/>
<path d="M118.4 46.3994L119.08 49.652C119.698 52.6183 121.955 54.9318 124.836 55.5675L128 56.2661L124.836 56.9647C121.949 57.6003 119.698 59.9196 119.08 62.8801L118.4 66.1327L117.721 62.8801C117.102 59.9138 114.846 57.6003 111.965 56.9647L108.8 56.2661L111.965 55.5675C114.851 54.9318 117.102 52.6126 117.721 49.652L118.4 46.3994Z" fill="white"/>
<path d="M42.2347 121.749C42.24 121.621 42.2453 121.493 42.2453 121.365C42.2453 117.504 39.1147 114.378 35.2587 114.378C35.12 114.378 34.9867 114.378 34.8533 114.389C34.32 110.33 30.8533 107.2 26.6453 107.2C22.4373 107.2 18.7627 110.528 18.4 114.762C17.4133 114.346 16.3253 114.117 15.184 114.117C10.8267 114.117 7.26402 117.482 6.93335 121.749H42.2347Z" fill="#747784"/>
<path d="M10.1333 60.8705C10.1333 54.0821 13.982 47.8806 20.0651 44.8675L43.5586 33.2303C51.2303 29.4302 60.2363 29.4302 67.9079 33.2302L91.4015 44.8675C97.4846 47.8806 101.333 54.0821 101.333 60.8705V61.4545C101.333 90.1663 86.3702 116.803 61.8501 131.74C58.0933 134.029 53.3733 134.029 49.6165 131.74C25.0964 116.803 10.1333 90.1663 10.1333 61.4545V60.8705Z" fill="#FFCC28"/>
<path fill-rule="evenodd" clip-rule="evenodd" d="M38.4001 47.4661C38.4001 46.877 38.8777 46.3994 39.4668 46.3994H76.3658C84.0653 46.3994 90.6668 51.5885 90.6668 58.3994C90.6668 65.2104 84.0653 70.3994 76.3658 70.3994H18.6668C18.0777 70.3994 17.6001 69.9219 17.6001 69.3327C17.6001 68.7436 18.0777 68.2661 18.6668 68.2661H76.3658C83.2866 68.2661 88.5334 63.6689 88.5334 58.3994C88.5334 53.1299 83.2866 48.5327 76.3658 48.5327H39.4668C38.8777 48.5327 38.4001 48.0552 38.4001 47.4661Z" fill="#FFDE77"/>
<path fill-rule="evenodd" clip-rule="evenodd" d="M60.2479 120.165L51.1012 120.165C43.4016 120.165 36.8002 114.976 36.8002 108.165C36.8002 101.354 43.4016 96.165 51.1012 96.165L87.2002 96.165C87.7893 96.165 88.2668 96.6426 88.2668 97.2317C88.2668 97.8208 87.7893 98.2984 87.2002 98.2984L51.1012 98.2984C44.1803 98.2984 38.9335 102.896 38.9335 108.165C38.9335 113.435 44.1803 118.032 51.1012 118.032L60.2479 118.032C60.837 118.032 61.3145 118.509 61.3145 119.098C61.3145 119.687 60.837 120.165 60.2479 120.165Z" fill="#FFDE77"/>
<path d="M89.0836 60.4465C87.3183 60.4465 85.8816 59.0098 85.8816 57.2445C85.8816 55.4792 87.3183 54.0425 89.0836 54.0425C90.8489 54.0425 92.2856 55.4792 92.2856 57.2445C92.2856 59.0098 90.8489 60.4465 89.0836 60.4465Z" fill="#FFCC28"/>
<path fill-rule="evenodd" clip-rule="evenodd" d="M89.0836 55.1094C87.9074 55.1094 86.9483 56.0686 86.9483 57.2448C86.9483 58.421 87.9074 59.3801 89.0836 59.3801C90.2598 59.3801 91.219 58.421 91.219 57.2448C91.219 56.0686 90.2598 55.1094 89.0836 55.1094ZM84.8149 57.2448C84.8149 54.8904 86.7292 52.9761 89.0836 52.9761C91.438 52.9761 93.3523 54.8904 93.3523 57.2448C93.3523 59.5992 91.438 61.5135 89.0836 61.5135C86.7292 61.5135 84.8149 59.5992 84.8149 57.2448Z" fill="#FFDE77"/>
<path d="M25.6002 72.698C23.8349 72.698 22.3982 71.2613 22.3982 69.496C22.3982 67.7307 23.8349 66.2939 25.6002 66.2939C27.3655 66.2939 28.8023 67.7307 28.8023 69.496C28.8023 71.2613 27.3655 72.698 25.6002 72.698Z" fill="#FFCC28"/>
<path fill-rule="evenodd" clip-rule="evenodd" d="M25.6002 67.3609C24.4241 67.3609 23.4649 68.32 23.4649 69.4962C23.4649 70.6724 24.4241 71.6316 25.6002 71.6316C26.7764 71.6316 27.7356 70.6724 27.7356 69.4962C27.7356 68.32 26.7764 67.3609 25.6002 67.3609ZM21.3315 69.4962C21.3315 67.1418 23.2458 65.2275 25.6002 65.2275C27.9546 65.2275 29.8689 67.1418 29.8689 69.4962C29.8689 71.8506 27.9546 73.7649 25.6002 73.7649C23.2458 73.7649 21.3315 71.8506 21.3315 69.4962Z" fill="#FFDE77"/>
<path fill-rule="evenodd" clip-rule="evenodd" d="M22.9336 83.1995C22.9336 82.6104 23.4112 82.1328 24.0003 82.1328H89.6003V84.2661H24.0003C23.4112 84.2661 22.9336 83.7886 22.9336 83.1995Z" fill="#FFDE77"/>
<path d="M37.8688 104C39.6341 104 41.0708 105.436 41.0708 107.202C41.0708 108.967 39.6341 110.404 37.8688 110.404C36.1035 110.404 34.6667 108.967 34.6667 107.202C34.6667 105.436 36.1035 104 37.8688 104Z" fill="#FFCC28"/>
<path fill-rule="evenodd" clip-rule="evenodd" d="M37.8688 109.337C39.0449 109.337 40.0041 108.378 40.0041 107.202C40.0041 106.025 39.0449 105.066 37.8688 105.066C36.6926 105.066 35.7334 106.025 35.7334 107.202C35.7334 108.378 36.6926 109.337 37.8688 109.337ZM42.1375 107.202C42.1375 109.556 40.2232 111.47 37.8688 111.47C35.5144 111.47 33.6001 109.556 33.6001 107.202C33.6001 104.847 35.5144 102.933 37.8688 102.933C40.2232 102.933 42.1375 104.847 42.1375 107.202Z" fill="#FFDE77"/>
<path d="M88.0001 86.4036C86.2348 86.4036 84.7981 84.9668 84.7981 83.2015C84.7981 81.4362 86.2348 79.9995 88.0001 79.9995C89.7654 79.9995 91.2022 81.4362 91.2022 83.2015C91.2022 84.9668 89.7654 86.4036 88.0001 86.4036Z" fill="#FFCC28"/>
<path fill-rule="evenodd" clip-rule="evenodd" d="M87.9999 81.0664C86.8237 81.0664 85.8645 82.0256 85.8645 83.2018C85.8645 84.378 86.8237 85.3372 87.9999 85.3372C89.1761 85.3372 90.1353 84.378 90.1353 83.2018C90.1353 82.0256 89.1761 81.0664 87.9999 81.0664ZM83.7312 83.2018C83.7312 80.8474 85.6455 78.9331 87.9999 78.9331C90.3543 78.9331 92.2686 80.8474 92.2686 83.2018C92.2686 85.5562 90.3543 87.4705 87.9999 87.4705C85.6455 87.4705 83.7312 85.5562 83.7312 83.2018Z" fill="#FFDE77"/>
<path d="M12.0564 55.7834C13.2911 53.7932 15.0712 52.1414 17.2518 51.0612L50.0518 34.8142C53.6319 33.0408 57.8347 33.0408 61.4148 34.8142L94.2148 51.0612C96.3953 52.1413 98.1753 53.7929 99.41 55.7829C98.5651 52.0972 96.1134 48.9163 92.6409 47.1864L61.4408 31.6433C57.8464 29.8526 53.62 29.8526 50.0256 31.6433L18.8256 47.1864C15.3529 48.9164 12.9012 52.0975 12.0564 55.7834Z" fill="#FFDE77"/>
<path d="M55.9998 55.4658C65.7198 55.4658 73.6001 63.3454 73.6003 73.0654C73.6003 81.3138 67.9254 88.236 60.2673 90.1436V96.5322H66.5144C67.7767 96.5323 68.8005 97.556 68.8005 98.8184V100.113C68.8005 101.376 67.7767 102.399 66.5144 102.399H64.533V108.266H66.5144C67.7767 108.266 68.8005 109.289 68.8005 110.552V111.847C68.8005 113.109 67.7767 114.133 66.5144 114.133H60.2673V115.504C60.2673 117.397 58.732 118.932 56.8386 118.933H55.1619C53.2684 118.932 51.7332 117.397 51.7332 115.504V90.1426C44.0751 88.2351 38.4001 81.3139 38.4001 73.0654C38.4004 63.3455 46.2799 55.466 55.9998 55.4658ZM55.9998 66.1191C52.163 66.1193 49.0525 69.2296 49.0525 73.0664C49.0526 76.9031 52.163 80.0135 55.9998 80.0137C59.8366 80.0137 62.9469 76.9032 62.947 73.0664C62.947 69.2295 59.8367 66.1191 55.9998 66.1191Z" fill="#E4AE02"/>
<path d="M51.7336 84.7998H60.267V112.838C60.267 114.731 58.732 116.266 56.8384 116.266H55.1622C53.2687 116.266 51.7336 114.731 51.7336 112.838V84.7998Z" fill="#0A32A3"/>
<path d="M55.9998 51.7329C65.7198 51.7329 73.6001 59.6125 73.6003 69.3325C73.6003 79.0527 65.72 86.9331 55.9998 86.9331C46.2797 86.9329 38.4001 79.0526 38.4001 69.3325C38.4004 59.6126 46.2799 51.7331 55.9998 51.7329ZM55.9998 62.3853C52.1631 62.3854 49.0527 65.4959 49.0525 69.3325C49.0525 73.1693 52.163 76.2806 55.9998 76.2808C59.8367 76.2808 62.947 73.1694 62.947 69.3325C62.9468 65.4958 59.8365 62.3853 55.9998 62.3853Z" fill="#0A32A3"/>
<path d="M55.9998 62.3853C52.1631 62.3854 49.0527 65.4959 49.0525 69.3325C49.0525 73.1693 52.163 76.2806 55.9998 76.2808V116.266H55.1619C53.2685 116.266 51.7333 114.731 51.7332 112.837V86.4097C44.0751 84.5022 38.4001 77.581 38.4001 69.3325C38.4004 59.6126 46.2799 51.7331 55.9998 51.7329V62.3853Z" fill="#0D3ECC"/>
<path d="M55.9695 53.5854C62.7647 53.5856 68.5543 57.8897 70.7615 63.9204C67.7863 58.8462 62.2765 55.4381 55.9695 55.438C49.664 55.438 44.1532 58.8434 41.1775 63.9155C43.3859 57.8871 49.1759 53.5854 55.9695 53.5854Z" fill="#7A95E3"/>
<path d="M68.8002 96.1519C68.8002 94.8896 67.7768 93.8662 66.5145 93.8662H60.2668V111.466H66.5145C67.7768 111.466 68.8002 110.443 68.8002 109.18V107.885C68.8002 106.623 67.7768 105.6 66.5145 105.6H64.5335V99.7329H66.5145C67.7768 99.7329 68.8002 98.7095 68.8002 97.4472V96.1519Z" fill="#08257A"/>
<path d="M68.2667 46.3994L68.9465 49.652C69.5649 52.6183 71.8215 54.9318 74.702 55.5675L77.8667 56.2661L74.702 56.9647C71.8159 57.6003 69.5649 59.9196 68.9465 62.8801L68.2667 66.1327L67.587 62.8801C66.9685 59.9138 64.712 57.6003 61.8315 56.9647L58.6667 56.2661L61.8315 55.5675C64.7176 54.9318 66.9685 52.6126 67.587 49.652L68.2667 46.3994Z" fill="white"/>
<path d="M151.131 116.389C151.136 116.283 151.141 116.171 151.141 116.064C151.141 112.779 148.475 110.112 145.189 110.112C145.072 110.112 144.96 110.112 144.843 110.123C144.389 106.667 141.435 104 137.856 104C134.277 104 131.141 106.832 130.832 110.443C129.989 110.085 129.067 109.893 128.096 109.893C124.389 109.893 121.349 112.757 121.067 116.395H151.131V116.389Z" fill="#F6F7F7"/>
</svg>
