<svg viewBox="0 0 24 25" fill="none" xmlns="http://www.w3.org/2000/svg">
<path fill-rule="evenodd" clip-rule="evenodd" d="M8 2.25C8.55228 2.25 9 2.69772 9 3.25V4.25H19.9756C21.0937 4.25 22 5.15634 22 6.27437V18.2256C22 19.3437 21.0937 20.25 19.9756 20.25H4.02437C2.90634 20.25 2 19.3437 2 18.2256V6.27437C2 5.15634 2.90634 4.25 4.02437 4.25H7V3.25C7 2.69772 7.44772 2.25 8 2.25ZM20 6.25H4V18.25H20V6.25ZM16.8891 7.98683C16.9609 8.07657 17 8.18807 17 8.30299V12.25C17 15.0114 14.7614 17.25 12 17.25C9.23858 17.25 7 15.0114 7 12.25V9.25C7 8.69772 7.44772 8.25 8 8.25C8.51284 8.25 8.93551 8.63604 8.99327 9.13338L9 9.25V12.25C9 13.9069 10.3431 15.25 12 15.25C13.6569 15.25 15 13.9069 15 12.25L14.999 11.25H13.4428C13.1632 11.25 12.9367 11.0234 12.9367 10.7439C12.9367 10.5902 13.0066 10.4448 13.1266 10.3487L16.1778 7.9078C16.396 7.73319 16.7145 7.76858 16.8891 7.98683Z" fill="white" fill-opacity="0.9"/>
</svg>
