<svg viewBox="0 0 168 168" fill="none" xmlns="http://www.w3.org/2000/svg">
<circle cx="84" cy="84" r="84" fill="#414451"/>
<path d="M37.8717 56.6661C38.0507 52.3814 41.5764 49 45.8648 49H129.476C134.147 49 137.825 52.9857 137.45 57.642L132.88 114.397C132.714 116.46 131.002 118.056 128.933 118.076L39.4794 118.958C37.1893 118.981 35.3478 117.08 35.4434 114.792L37.8717 56.6661Z" fill="#747784"/>
<path d="M120.685 58.8645C124.966 58.8647 128.489 62.2362 128.677 66.5139L130.793 114.825C130.892 117.101 129.074 119 126.797 119H36.4629C34.3218 119 32.5605 117.314 32.4668 115.175L30 58.8645V54.512C30 52.3028 31.7909 50.512 34 50.512H52.8066C54.4164 50.5121 55.869 51.4773 56.4932 52.9612L58.9756 58.8645H120.685Z" fill="#9799A3"/>
</svg>
