<svg width="198" height="87" viewBox="0 0 198 87" fill="none" xmlns="http://www.w3.org/2000/svg">
<rect x="0.740356" y="74.3215" width="59.6722" height="5.9575" rx="2.97875" fill="url(#paint0_linear_311_53058)"/>
<rect x="197.74" y="80.2791" width="59.6722" height="5.9575" rx="2.97875" transform="rotate(-180 197.74 80.2791)" fill="url(#paint1_linear_311_53058)"/>
<rect x="39.6587" y="0.352061" width="111.683" height="79.2354" rx="10.4934" fill="#282A32" stroke="#414451" stroke-width="0.635966" stroke-linecap="round"/>
<rect x="44.4186" y="6.45093" width="102.163" height="68.2142" rx="4.62469" fill="#1C1B1F"/>
<rect x="52.1915" y="13.3879" width="16.657" height="54.3401" rx="2.54386" fill="#282A32"/>
<path d="M77.7324 15.9318C77.7324 14.5269 78.8713 13.3879 80.2763 13.3879H137.375C138.78 13.3879 139.919 14.5269 139.919 15.9318V65.1842C139.919 66.5891 138.78 67.728 137.375 67.728H80.2763C78.8713 67.728 77.7324 66.5891 77.7324 65.1842V15.9318Z" fill="#282A32"/>
<path d="M70.914 68.1941C71.1874 71.2245 73.7333 73.5994 76.8349 73.5994L113.704 73.5994C116.806 73.5994 119.352 71.2245 119.625 68.1941L70.914 68.1941Z" fill="white" stroke="#DCDDE0" stroke-width="1.08114"/>
<path d="M24.9808 67.9714C25.1498 74.8139 30.7491 80.3084 37.6322 80.3084L152.908 80.3084C159.791 80.3083 165.39 74.8139 165.559 67.9714L24.9808 67.9714Z" fill="#282A32" stroke="#414451" stroke-width="0.635966" stroke-linejoin="round"/>
<rect x="136.122" y="20.5629" width="31.783" height="59.2488" rx="8.59324" fill="#282A32" stroke="#414451" stroke-width="0.635966"/>
<rect x="139.987" y="24.6003" width="24.0528" height="51.1743" rx="4.45561" fill="#1C1B1F"/>
<rect x="144.171" y="39.8435" width="15.6866" height="31.5756" rx="2.2278" fill="#282A32"/>
<rect x="144.171" y="28.4111" width="15.6866" height="7.07729" rx="2.2278" fill="#282A32"/>
<rect x="32.8657" y="80.3726" width="65.3942" height="5.9575" rx="2.97875" fill="url(#paint2_linear_311_53058)"/>
<path d="M95.5756 10.0638V71.6107" stroke="black" stroke-width="0.848927"/>
<path d="M97.7519 1.90466C95.7894 0.949476 93.4966 0.949434 91.5341 1.90466L61.957 16.3031C59.5133 17.4927 57.9619 19.972 57.9619 22.6898V36.8783C57.9619 53.7034 66.7985 69.2924 81.2343 77.9349L90.9941 83.7777C93.2408 85.1228 96.0452 85.1228 98.2919 83.7777L108.052 77.9349C122.487 69.2924 131.324 53.7034 131.324 36.8783V22.6898C131.324 19.972 129.773 17.4927 127.329 16.3031L97.7519 1.90466Z" fill="#414451" stroke="#515565" stroke-width="0.624544"/>
<path d="M125.766 26.0522C125.805 24.1038 124.729 22.3039 122.994 21.416L97.5696 8.4033C96.1762 7.69017 94.5324 7.65724 93.1116 8.31399L67.1866 20.2979C65.4176 21.1156 64.2703 22.871 64.2312 24.8194L63.9885 36.9347C63.7015 51.2593 70.9586 64.6821 83.1015 72.2864L92.201 77.9848C93.2619 78.6492 94.6022 78.676 95.6889 78.0547L105.009 72.7253C117.447 65.6135 125.236 52.4921 125.523 38.1675L125.766 26.0522Z" fill="#282A32"/>
<path d="M94.7986 20.9757C101.394 20.9757 106.74 26.3221 106.74 32.9171C106.74 38.5145 102.888 43.2097 97.6912 44.5031V48.839H102.758C103.157 48.8392 103.481 49.1631 103.481 49.5626V52.0958C103.481 52.4954 103.157 52.8193 102.758 52.8195H100.586V56.7999H102.758C103.157 56.8001 103.481 57.124 103.481 57.5236V60.0568C103.481 60.4563 103.157 60.7802 102.758 60.7804H97.6912V62.9513C97.6912 63.5508 97.2048 64.0372 96.6052 64.0372H92.9871C92.3875 64.0372 91.9011 63.5508 91.9011 62.9513V44.5021C86.7065 43.2071 82.8572 38.5127 82.8572 32.9171C82.8572 26.3221 88.2035 20.9757 94.7986 20.9757ZM94.7976 28.2032C92.1943 28.2033 90.0837 30.3138 90.0837 32.9171C90.0837 35.5204 92.1943 37.631 94.7976 37.631C97.4009 37.631 99.5115 35.5204 99.5115 32.9171C99.5115 30.3138 97.4009 28.2032 94.7976 28.2032Z" fill="#1C1B1F"/>
<path d="M91.9012 40.8782H97.691V61.1424C97.691 61.7419 97.2049 62.228 96.6054 62.228H92.9868C92.3872 62.228 91.9012 61.7419 91.9012 61.1424V40.8782Z" fill="#7A95E3"/>
<path d="M94.7986 18.4427C101.394 18.4427 106.74 23.7891 106.74 30.3842C106.74 36.9792 101.394 42.3256 94.7986 42.3256C88.2035 42.3256 82.8572 36.9792 82.8572 30.3842C82.8572 23.7891 88.2035 18.4427 94.7986 18.4427ZM94.7976 25.6703C92.1943 25.6703 90.0837 27.7809 90.0837 30.3842C90.0837 32.9875 92.1943 35.098 94.7976 35.098C97.4009 35.098 99.5115 32.9875 99.5115 30.3842C99.5115 27.7808 97.4009 25.6703 94.7976 25.6703Z" fill="#7A95E3"/>
<path d="M103.481 47.7535C103.481 47.3538 103.157 47.0298 102.757 47.0298H97.6912V58.9712H102.757C103.157 58.9712 103.481 58.6472 103.481 58.2475V55.7144C103.481 55.3147 103.157 54.9907 102.757 54.9907H100.586V51.0103H102.757C103.157 51.0103 103.481 50.6862 103.481 50.2865V47.7535Z" fill="#7A95E3"/>
<defs>
<linearGradient id="paint0_linear_311_53058" x1="39.3795" y1="80.279" x2="-0.306523" y2="80.279" gradientUnits="userSpaceOnUse">
<stop stop-color="#1C1B1F"/>
<stop offset="1" stop-color="#1C1B1F" stop-opacity="0"/>
</linearGradient>
<linearGradient id="paint1_linear_311_53058" x1="256.366" y1="86.2366" x2="196.693" y2="86.2366" gradientUnits="userSpaceOnUse">
<stop/>
<stop offset="1" stop-opacity="0"/>
</linearGradient>
<linearGradient id="paint2_linear_311_53058" x1="97.1127" y1="86.3301" x2="31.7185" y2="86.3301" gradientUnits="userSpaceOnUse">
<stop/>
<stop offset="1" stop-opacity="0"/>
</linearGradient>
</defs>
</svg>
