<svg width="198" height="87" viewBox="0 0 198 87" fill="none" xmlns="http://www.w3.org/2000/svg">
<rect x="0.740356" y="74.3215" width="59.6722" height="5.9575" rx="2.97875" fill="url(#paint0_linear_311_52974)"/>
<rect x="197.74" y="80.2791" width="59.6722" height="5.9575" rx="2.97875" transform="rotate(-180 197.74 80.2791)" fill="url(#paint1_linear_311_52974)"/>
<rect x="39.6587" y="0.352061" width="111.683" height="79.2354" rx="10.4934" fill="#282A32" stroke="#414451" stroke-width="0.635966" stroke-linecap="round"/>
<rect x="44.4186" y="6.45093" width="102.163" height="68.2142" rx="4.62469" fill="#1C1B1F"/>
<rect x="52.1915" y="13.3879" width="16.657" height="54.3401" rx="2.54386" fill="#282A32"/>
<path d="M77.7324 15.9318C77.7324 14.5269 78.8713 13.3879 80.2763 13.3879H137.375C138.78 13.3879 139.919 14.5269 139.919 15.9318V65.1842C139.919 66.5891 138.78 67.728 137.375 67.728H80.2763C78.8713 67.728 77.7324 66.5891 77.7324 65.1842V15.9318Z" fill="#282A32"/>
<path d="M70.914 68.1941C71.1874 71.2245 73.7333 73.5994 76.8349 73.5994L113.704 73.5994C116.806 73.5994 119.352 71.2245 119.625 68.1941L70.914 68.1941Z" fill="white" stroke="#DCDDE0" stroke-width="1.08114"/>
<path d="M24.9808 67.9714C25.1498 74.8139 30.7491 80.3084 37.6322 80.3084L152.908 80.3084C159.791 80.3083 165.39 74.8139 165.559 67.9714L24.9808 67.9714Z" fill="#282A32" stroke="#414451" stroke-width="0.635966" stroke-linejoin="round"/>
<rect x="136.122" y="20.5629" width="31.783" height="59.2488" rx="8.59324" fill="#282A32" stroke="#414451" stroke-width="0.635966"/>
<rect x="139.987" y="24.6003" width="24.0528" height="51.1743" rx="4.45561" fill="#1C1B1F"/>
<rect x="144.171" y="39.8435" width="15.6866" height="31.5756" rx="2.2278" fill="#282A32"/>
<rect x="144.171" y="28.411" width="15.6866" height="7.07729" rx="2.2278" fill="#282A32"/>
<rect x="32.8657" y="80.3724" width="65.3942" height="5.9575" rx="2.97875" fill="url(#paint2_linear_311_52974)"/>
<path d="M95.5756 10.0638V71.6107" stroke="black" stroke-width="0.848927"/>
<path d="M97.7519 1.90466C95.7894 0.949476 93.4966 0.949434 91.5341 1.90466L61.957 16.3031C59.5133 17.4927 57.9619 19.972 57.9619 22.6898V36.8783C57.9619 53.7034 66.7985 69.2924 81.2343 77.9349L90.9941 83.7777C93.2408 85.1228 96.0452 85.1228 98.2919 83.7777L108.052 77.9349C122.487 69.2924 131.324 53.7034 131.324 36.8783V22.6898C131.324 19.972 129.773 17.4927 127.329 16.3031L97.7519 1.90466Z" fill="#414451" stroke="#515565" stroke-width="0.624544"/>
<path d="M125.766 26.0522C125.805 24.1038 124.729 22.3039 122.994 21.416L97.5696 8.4033C96.1762 7.69017 94.5324 7.65724 93.1116 8.31399L67.1866 20.2979C65.4176 21.1156 64.2703 22.871 64.2312 24.8194L63.9885 36.9347C63.7015 51.2593 70.9586 64.6821 83.1015 72.2864L92.201 77.9848C93.2619 78.6492 94.6022 78.676 95.6889 78.0547L105.009 72.7253C117.447 65.6135 125.236 52.4921 125.523 38.1675L125.766 26.0522Z" fill="#282A32"/>
<path fill-rule="evenodd" clip-rule="evenodd" d="M93.2455 60.4573C93.5769 60.4573 93.745 60.2999 93.745 59.985C93.745 59.8276 93.5769 59.6701 93.4136 59.5127H92.9141C86.9022 58.4059 82.8928 52.7195 84.0643 47.0331C84.3957 45.7689 84.8998 44.3473 85.7353 43.2406C85.9034 42.9257 86.2348 42.9257 86.5708 43.0831L94.7532 50.821H95.4206L103.603 43.0831C103.934 42.7683 104.102 42.7683 104.27 43.0831C107.108 47.1905 106.609 52.4046 103.267 56.0397H103.099C103.099 56.1971 103.267 56.512 103.598 56.512H103.93C110.11 54.1411 114.282 48.2973 114.282 41.9764C114.282 36.2854 111.613 30.9184 106.936 27.4408C106.768 27.2834 106.6 27.2834 106.436 27.4408L95.5793 37.707C95.4113 37.8644 95.2479 38.0219 94.9119 37.8644C94.9119 37.8644 94.7438 37.8644 94.7438 37.707L83.887 27.4408C83.7189 27.2834 83.5556 27.2834 83.3875 27.4408C78.5472 30.9138 75.7046 36.4474 75.8727 42.1339C76.0407 51.6128 83.3875 59.5127 93.2409 60.4573" fill="#7A95E3"/>
<defs>
<linearGradient id="paint0_linear_311_52974" x1="39.3795" y1="80.279" x2="-0.306523" y2="80.279" gradientUnits="userSpaceOnUse">
<stop stop-color="#1C1B1F"/>
<stop offset="1" stop-color="#1C1B1F" stop-opacity="0"/>
</linearGradient>
<linearGradient id="paint1_linear_311_52974" x1="256.366" y1="86.2366" x2="196.693" y2="86.2366" gradientUnits="userSpaceOnUse">
<stop/>
<stop offset="1" stop-opacity="0"/>
</linearGradient>
<linearGradient id="paint2_linear_311_52974" x1="97.1127" y1="86.3299" x2="31.7185" y2="86.3299" gradientUnits="userSpaceOnUse">
<stop/>
<stop offset="1" stop-opacity="0"/>
</linearGradient>
</defs>
</svg>
