<svg width="160" height="160" viewBox="0 0 160 160" fill="none" xmlns="http://www.w3.org/2000/svg">
<path d="M108 115.2C136.719 115.2 160 92.277 160 64C160 35.723 136.719 12.8 108 12.8C79.2812 12.8 56 35.723 56 64C56 92.277 79.2812 115.2 108 115.2Z" fill="#282A32"/>
<path d="M63.5306 143.595C80.0609 143.595 93.4613 130.194 93.4613 113.664C93.4613 97.1338 80.0609 83.7333 63.5306 83.7333C47.0004 83.7333 33.6 97.1338 33.6 113.664C33.6 130.194 47.0004 143.595 63.5306 143.595Z" fill="#282A32"/>
<path d="M39.6107 105.355C61.1925 105.355 78.688 87.8592 78.688 66.2773C78.688 44.6955 61.1925 27.2 39.6107 27.2C18.0288 27.2 0.533325 44.6955 0.533325 66.2773C0.533325 87.8592 18.0288 105.355 39.6107 105.355Z" fill="#282A32"/>
<path d="M95.1306 77.9894C95.136 77.8827 95.1413 77.7707 95.1413 77.664C95.1413 74.3787 92.4746 71.712 89.1893 71.712C89.072 71.712 88.96 71.712 88.8426 71.7227C88.3893 68.2667 85.4346 65.6 81.856 65.6C78.2773 65.6 75.1413 68.432 74.832 72.0427C73.9893 71.6854 73.0666 71.4934 72.096 71.4934C68.3893 71.4934 65.3493 74.3574 65.0667 77.9947H95.1306V77.9894Z" fill="#282A32"/>
<path d="M60.2666 60.8708C60.2666 54.0824 64.1153 47.8809 70.1984 44.8678L93.692 33.2306C101.364 29.4305 110.37 29.4305 118.041 33.2306L141.535 44.8678C147.618 47.8809 151.467 54.0824 151.467 60.8708V61.4548C151.467 90.1666 136.504 116.803 111.983 131.74V131.74C108.227 134.029 103.507 134.029 99.7498 131.74V131.74C75.2297 116.803 60.2666 90.1666 60.2666 61.4548V60.8708Z" fill="#9799A3"/>
<path fill-rule="evenodd" clip-rule="evenodd" d="M88.5333 47.4666C88.5333 46.8775 89.0108 46.4 89.5999 46.4H126.499C134.198 46.4 140.8 51.589 140.8 58.4C140.8 65.2109 134.198 70.4 126.499 70.4H68.7999C68.2108 70.4 67.7333 69.9224 67.7333 69.3333C67.7333 68.7442 68.2108 68.2666 68.7999 68.2666H126.499C133.42 68.2666 138.667 63.6694 138.667 58.4C138.667 53.1305 133.42 48.5333 126.499 48.5333H89.5999C89.0108 48.5333 88.5333 48.0557 88.5333 47.4666Z" fill="#B9BBC1"/>
<path fill-rule="evenodd" clip-rule="evenodd" d="M110.381 120.165L101.234 120.165C93.5347 120.165 86.9332 114.976 86.9332 108.165C86.9332 101.354 93.5347 96.1653 101.234 96.1653L137.333 96.1653C137.922 96.1653 138.4 96.6429 138.4 97.232C138.4 97.8211 137.922 98.2986 137.333 98.2986L101.234 98.2986C94.3134 98.2986 89.0666 102.896 89.0666 108.165C89.0666 113.435 94.3134 118.032 101.234 118.032L110.381 118.032C110.97 118.032 111.448 118.51 111.448 119.099C111.448 119.688 110.97 120.165 110.381 120.165Z" fill="#B9BBC1"/>
<path d="M139.217 60.4475C137.452 60.4475 136.015 59.0107 136.015 57.2454C136.015 55.4801 137.452 54.0434 139.217 54.0434C140.982 54.0434 142.419 55.4801 142.419 57.2454C142.419 59.0107 140.982 60.4475 139.217 60.4475Z" fill="#9799A3"/>
<path fill-rule="evenodd" clip-rule="evenodd" d="M139.217 55.11C138.041 55.11 137.081 56.0692 137.081 57.2454C137.081 58.4216 138.041 59.3807 139.217 59.3807C140.393 59.3807 141.352 58.4216 141.352 57.2454C141.352 56.0692 140.393 55.11 139.217 55.11ZM134.948 57.2454C134.948 54.891 136.862 52.9767 139.217 52.9767C141.571 52.9767 143.486 54.891 143.486 57.2454C143.486 59.5998 141.571 61.5141 139.217 61.5141C136.862 61.5141 134.948 59.5998 134.948 57.2454Z" fill="#B9BBC1"/>
<path d="M75.7333 72.6987C73.968 72.6987 72.5312 71.2619 72.5312 69.4966C72.5312 67.7314 73.968 66.2946 75.7333 66.2946C77.4986 66.2946 78.9353 67.7314 78.9353 69.4966C78.9353 71.2619 77.4986 72.6987 75.7333 72.6987Z" fill="#9799A3"/>
<path fill-rule="evenodd" clip-rule="evenodd" d="M75.7333 67.3613C74.5571 67.3613 73.5979 68.3205 73.5979 69.4967C73.5979 70.6729 74.5571 71.632 75.7333 71.632C76.9095 71.632 77.8687 70.6729 77.8687 69.4967C77.8687 68.3205 76.9095 67.3613 75.7333 67.3613ZM71.4646 69.4967C71.4646 67.1423 73.3789 65.228 75.7333 65.228C78.0877 65.228 80.002 67.1423 80.002 69.4967C80.002 71.8511 78.0877 73.7654 75.7333 73.7654C73.3789 73.7654 71.4646 71.8511 71.4646 69.4967Z" fill="#B9BBC1"/>
<path fill-rule="evenodd" clip-rule="evenodd" d="M73.0665 83.2C73.0665 82.6109 73.5441 82.1333 74.1332 82.1333H139.733V84.2666H74.1332C73.5441 84.2666 73.0665 83.7891 73.0665 83.2Z" fill="#B9BBC1"/>
<path d="M88.0021 104C89.7674 104 91.2041 105.437 91.2041 107.202C91.2041 108.967 89.7674 110.404 88.0021 110.404C86.2368 110.404 84.8 108.967 84.8 107.202C84.8 105.437 86.2368 104 88.0021 104Z" fill="#9799A3"/>
<path fill-rule="evenodd" clip-rule="evenodd" d="M88.0021 109.337C89.1782 109.337 90.1374 108.378 90.1374 107.202C90.1374 106.026 89.1782 105.067 88.0021 105.067C86.8259 105.067 85.8667 106.026 85.8667 107.202C85.8667 108.378 86.8259 109.337 88.0021 109.337ZM92.2708 107.202C92.2708 109.556 90.3565 111.471 88.0021 111.471C85.6477 111.471 83.7334 109.556 83.7334 107.202C83.7334 104.848 85.6477 102.933 88.0021 102.933C90.3565 102.933 92.2708 104.848 92.2708 107.202Z" fill="#B9BBC1"/>
<path d="M138.133 86.4041C136.368 86.4041 134.931 84.9673 134.931 83.202C134.931 81.4367 136.368 80 138.133 80C139.899 80 141.335 81.4367 141.335 83.202C141.335 84.9673 139.899 86.4041 138.133 86.4041Z" fill="#9799A3"/>
<path fill-rule="evenodd" clip-rule="evenodd" d="M138.133 81.0666C136.957 81.0666 135.998 82.0258 135.998 83.202C135.998 84.3782 136.957 85.3374 138.133 85.3374C139.309 85.3374 140.269 84.3782 140.269 83.202C140.269 82.0258 139.309 81.0666 138.133 81.0666ZM133.865 83.202C133.865 80.8476 135.779 78.9333 138.133 78.9333C140.488 78.9333 142.402 80.8476 142.402 83.202C142.402 85.5564 140.488 87.4707 138.133 87.4707C135.779 87.4707 133.865 85.5564 133.865 83.202Z" fill="#B9BBC1"/>
<path d="M62.1896 55.7835C63.4243 53.7933 65.2043 52.1414 67.385 51.0612L100.185 34.8142C103.765 33.0409 107.968 33.0409 111.548 34.8142L144.348 51.0612C146.529 52.1413 148.308 53.793 149.543 55.783C148.698 52.0973 146.247 48.9164 142.774 47.1864L111.574 31.6433C107.98 29.8527 103.753 29.8527 100.159 31.6433L68.9588 47.1864C65.4861 48.9165 63.0344 52.0976 62.1896 55.7835Z" fill="#B9BBC1"/>
<path d="M106.133 55.4667C115.853 55.4667 123.733 63.3463 123.733 73.0663C123.733 81.315 118.058 88.2371 110.399 90.1444V96.5331H116.647C117.91 96.5331 118.934 97.5569 118.934 98.8192V100.114C118.934 101.376 117.91 102.4 116.647 102.4H114.666V108.266H116.647C117.91 108.266 118.934 109.29 118.934 110.553V111.848C118.934 113.11 117.91 114.134 116.647 114.134H110.399V115.505C110.399 117.398 108.865 118.933 106.972 118.933H105.295C103.401 118.933 101.866 117.398 101.866 115.505V90.1434C94.2081 88.2359 88.5332 81.3148 88.5332 73.0663C88.5334 63.3464 96.4129 55.4669 106.133 55.4667ZM106.133 66.119C102.296 66.1192 99.1857 69.2296 99.1855 73.0663C99.1855 76.9031 102.296 80.0133 106.133 80.0135C109.97 80.0135 113.08 76.9032 113.08 73.0663C113.08 69.2295 109.97 66.119 106.133 66.119Z" fill="#747784"/>
<path d="M101.866 84.7999H110.4V112.838C110.4 114.732 108.865 116.267 106.971 116.267H105.295C103.401 116.267 101.866 114.732 101.866 112.838V84.7999Z" fill="#E5E6E8"/>
<path d="M106.133 51.7333C115.853 51.7333 123.733 59.6129 123.733 69.3329C123.733 79.0532 115.853 86.9335 106.133 86.9335C96.4128 86.9333 88.5332 79.053 88.5332 69.3329C88.5334 59.613 96.4129 51.7335 106.133 51.7333ZM106.133 62.3857C102.296 62.3859 99.1857 65.4963 99.1855 69.3329C99.1855 73.1697 102.296 76.28 106.133 76.2802C109.97 76.2802 113.08 73.1699 113.08 69.3329C113.08 65.4962 109.97 62.3857 106.133 62.3857Z" fill="#E5E6E8"/>
<path d="M106.133 62.3857C102.296 62.3859 99.1857 65.4963 99.1855 69.3329C99.1855 73.1697 102.296 76.28 106.133 76.2802V116.267H105.295C103.401 116.266 101.866 114.731 101.866 112.838V86.4101C94.2081 84.5026 88.5332 77.5814 88.5332 69.3329C88.5334 59.613 96.4129 51.7335 106.133 51.7333V62.3857Z" fill="#DCDDE0"/>
<path d="M106.103 53.5859C112.896 53.5861 118.684 57.888 120.893 63.916C117.917 58.8443 112.408 55.4386 106.103 55.4385C99.7971 55.4385 94.2863 58.8439 91.3105 63.916C93.519 57.8876 99.3089 53.5859 106.103 53.5859Z" fill="white"/>
<path d="M118.933 96.1524C118.933 94.89 117.91 93.8666 116.647 93.8666H110.4V111.467H116.647C117.91 111.467 118.933 110.443 118.933 109.181V107.886C118.933 106.623 117.91 105.6 116.647 105.6H114.666V99.7333H116.647C117.91 99.7333 118.933 98.71 118.933 97.4476V96.1524Z" fill="#DCDDE0"/>
<path d="M118.4 46.4L119.08 49.6526C119.698 52.6189 121.955 54.9324 124.835 55.568L128 56.2666L124.835 56.9653C121.949 57.6009 119.698 59.9201 119.08 62.8807L118.4 66.1333L117.72 62.8807C117.102 59.9144 114.845 57.6009 111.965 56.9653L108.8 56.2666L111.965 55.568C114.851 54.9324 117.102 52.6132 117.72 49.6526L118.4 46.4Z" fill="white"/>
<path d="M42.2347 121.749C42.24 121.621 42.2453 121.493 42.2453 121.365C42.2453 117.504 39.1147 114.379 35.2587 114.379C35.12 114.379 34.9867 114.379 34.8533 114.389C34.32 110.331 30.8533 107.2 26.6453 107.2C22.4373 107.2 18.7627 110.528 18.4 114.763C17.4133 114.347 16.3253 114.117 15.184 114.117C10.8267 114.117 7.26402 117.483 6.93335 121.749H42.2347Z" fill="#747784"/>
<path d="M10.1334 60.8708C10.1334 54.0824 13.9822 47.8809 20.0652 44.8678L43.5588 33.2306C51.2304 29.4305 60.2364 29.4305 67.9081 33.2306L91.4016 44.8678C97.4847 47.8809 101.333 54.0824 101.333 60.8708V61.4548C101.333 90.1666 86.3703 116.803 61.8502 131.74V131.74C58.0934 134.029 53.3734 134.029 49.6167 131.74V131.74C25.0965 116.803 10.1334 90.1666 10.1334 61.4548V60.8708Z" fill="#FFCC28"/>
<path fill-rule="evenodd" clip-rule="evenodd" d="M38.4 47.4666C38.4 46.8775 38.8775 46.4 39.4666 46.4H76.3656C84.0652 46.4 90.6666 51.589 90.6666 58.4C90.6666 65.2109 84.0652 70.4 76.3656 70.4H18.6666C18.0775 70.4 17.6 69.9224 17.6 69.3333C17.6 68.7442 18.0775 68.2666 18.6666 68.2666H76.3656C83.2865 68.2666 88.5333 63.6694 88.5333 58.4C88.5333 53.1305 83.2865 48.5333 76.3656 48.5333H39.4666C38.8775 48.5333 38.4 48.0557 38.4 47.4666Z" fill="#FFDE77"/>
<path fill-rule="evenodd" clip-rule="evenodd" d="M60.2477 120.165L51.101 120.165C43.4015 120.165 36.8 114.976 36.8 108.165C36.8 101.354 43.4015 96.1653 51.101 96.1653L87.2001 96.1653C87.7892 96.1653 88.2667 96.6429 88.2667 97.232C88.2667 97.8211 87.7892 98.2986 87.2001 98.2986L51.101 98.2986C44.1802 98.2986 38.9334 102.896 38.9334 108.165C38.9334 113.435 44.1802 118.032 51.101 118.032L60.2477 118.032C60.8368 118.032 61.3144 118.51 61.3144 119.099C61.3144 119.688 60.8368 120.165 60.2477 120.165Z" fill="#FFDE77"/>
<path d="M89.0836 60.4475C87.3183 60.4475 85.8816 59.0107 85.8816 57.2454C85.8816 55.4801 87.3183 54.0434 89.0836 54.0434C90.8489 54.0434 92.2856 55.4801 92.2856 57.2454C92.2856 59.0107 90.8489 60.4475 89.0836 60.4475Z" fill="#FFCC28"/>
<path fill-rule="evenodd" clip-rule="evenodd" d="M89.0835 55.11C87.9073 55.11 86.9482 56.0692 86.9482 57.2454C86.9482 58.4216 87.9073 59.3807 89.0835 59.3807C90.2597 59.3807 91.2189 58.4216 91.2189 57.2454C91.2189 56.0692 90.2597 55.11 89.0835 55.11ZM84.8148 57.2454C84.8148 54.891 86.7291 52.9767 89.0835 52.9767C91.4379 52.9767 93.3522 54.891 93.3522 57.2454C93.3522 59.5998 91.4379 61.5141 89.0835 61.5141C86.7291 61.5141 84.8148 59.5998 84.8148 57.2454Z" fill="#FFDE77"/>
<path d="M25.6001 72.6987C23.8348 72.6987 22.3981 71.2619 22.3981 69.4966C22.3981 67.7314 23.8348 66.2946 25.6001 66.2946C27.3654 66.2946 28.8021 67.7314 28.8021 69.4966C28.8021 71.2619 27.3654 72.6987 25.6001 72.6987Z" fill="#FFCC28"/>
<path fill-rule="evenodd" clip-rule="evenodd" d="M25.6 67.3613C24.4238 67.3613 23.4646 68.3205 23.4646 69.4967C23.4646 70.6729 24.4238 71.632 25.6 71.632C26.7762 71.632 27.7354 70.6729 27.7354 69.4967C27.7354 68.3205 26.7762 67.3613 25.6 67.3613ZM21.3313 69.4967C21.3313 67.1423 23.2456 65.228 25.6 65.228C27.9544 65.228 29.8687 67.1423 29.8687 69.4967C29.8687 71.8511 27.9544 73.7654 25.6 73.7654C23.2456 73.7654 21.3313 71.8511 21.3313 69.4967Z" fill="#FFDE77"/>
<path fill-rule="evenodd" clip-rule="evenodd" d="M22.9333 83.2C22.9333 82.6109 23.4109 82.1333 24 82.1333H89.6V84.2666H24C23.4109 84.2666 22.9333 83.7891 22.9333 83.2Z" fill="#FFDE77"/>
<path d="M37.8689 104C39.6342 104 41.0709 105.437 41.0709 107.202C41.0709 108.967 39.6342 110.404 37.8689 110.404C36.1036 110.404 34.6669 108.967 34.6669 107.202C34.6669 105.437 36.1036 104 37.8689 104Z" fill="#FFCC28"/>
<path fill-rule="evenodd" clip-rule="evenodd" d="M37.8689 109.337C39.0451 109.337 40.0042 108.378 40.0042 107.202C40.0042 106.026 39.0451 105.067 37.8689 105.067C36.6927 105.067 35.7335 106.026 35.7335 107.202C35.7335 108.378 36.6927 109.337 37.8689 109.337ZM42.1376 107.202C42.1376 109.556 40.2233 111.471 37.8689 111.471C35.5145 111.471 33.6002 109.556 33.6002 107.202C33.6002 104.848 35.5145 102.933 37.8689 102.933C40.2233 102.933 42.1376 104.848 42.1376 107.202Z" fill="#FFDE77"/>
<path d="M88 86.4041C86.2347 86.4041 84.798 84.9673 84.798 83.202C84.798 81.4367 86.2347 80 88 80C89.7653 80 91.202 81.4367 91.202 83.202C91.202 84.9673 89.7653 86.4041 88 86.4041Z" fill="#FFCC28"/>
<path fill-rule="evenodd" clip-rule="evenodd" d="M88 81.0666C86.8238 81.0666 85.8647 82.0258 85.8647 83.202C85.8647 84.3782 86.8238 85.3374 88 85.3374C89.1762 85.3374 90.1354 84.3782 90.1354 83.202C90.1354 82.0258 89.1762 81.0666 88 81.0666ZM83.7313 83.202C83.7313 80.8476 85.6456 78.9333 88 78.9333C90.3544 78.9333 92.2687 80.8476 92.2687 83.202C92.2687 85.5564 90.3544 87.4707 88 87.4707C85.6456 87.4707 83.7313 85.5564 83.7313 83.202Z" fill="#FFDE77"/>
<path d="M12.0564 55.7835C13.2911 53.7933 15.0712 52.1414 17.2518 51.0612L50.0518 34.8142C53.6319 33.0409 57.8347 33.0409 61.4148 34.8142L94.2148 51.0612C96.3953 52.1413 98.1753 53.793 99.41 55.783C98.5651 52.0973 96.1134 48.9164 92.6409 47.1864L61.4408 31.6433C57.8464 29.8527 53.62 29.8527 50.0256 31.6433L18.8256 47.1864C15.3529 48.9165 12.9012 52.0976 12.0564 55.7835Z" fill="#FFDE77"/>
<path d="M55.9996 55.4667C65.7197 55.4667 73.6 63.3463 73.6002 73.0663C73.6002 81.315 67.9248 88.2371 60.2662 90.1444V96.5331H66.5143C67.7766 96.5331 68.8004 97.5569 68.8004 98.8192V100.114C68.8004 101.376 67.7766 102.4 66.5143 102.4H64.5328V108.266H66.5143C67.7766 108.267 68.8004 109.29 68.8004 110.553V111.848C68.8004 113.11 67.7766 114.134 66.5143 114.134H60.2662V115.505C60.2662 117.398 58.7318 118.933 56.8385 118.933H55.1617C53.2682 118.933 51.733 117.398 51.733 115.505V90.1434C44.0749 88.2359 38.4 81.3148 38.4 73.0663C38.4002 63.3464 46.2797 55.4669 55.9996 55.4667ZM55.9996 66.119C52.163 66.1192 49.0526 69.2296 49.0524 73.0663C49.0524 76.9031 52.1629 80.0134 55.9996 80.0135C59.8366 80.0135 62.9469 76.9032 62.9469 73.0663C62.9467 69.2295 59.8364 66.119 55.9996 66.119Z" fill="#E4AE02"/>
<path d="M51.7333 84.7999H60.2666V112.838C60.2666 114.732 58.7316 116.267 56.838 116.267H55.1618C53.2683 116.267 51.7333 114.732 51.7333 112.838V84.7999Z" fill="#0A32A3"/>
<path d="M55.9996 51.7333C65.7197 51.7333 73.6 59.6129 73.6002 69.3329C73.6002 79.0532 65.7198 86.9335 55.9996 86.9335C46.2796 86.9333 38.4 79.053 38.4 69.3329C38.4002 59.613 46.2797 51.7335 55.9996 51.7333ZM55.9996 62.3857C52.163 62.3859 49.0526 65.4963 49.0524 69.3329C49.0524 73.1698 52.1629 76.28 55.9996 76.2802C59.8366 76.2802 62.9469 73.1699 62.9469 69.3329C62.9467 65.4962 59.8364 62.3857 55.9996 62.3857Z" fill="#0A32A3"/>
<path d="M55.9996 62.3857C52.163 62.3859 49.0526 65.4963 49.0524 69.3329C49.0524 73.1698 52.1629 76.28 55.9996 76.2802V116.267H55.1617C53.2682 116.266 51.733 114.731 51.733 112.838V86.4101C44.0749 84.5026 38.4 77.5814 38.4 69.3329C38.4002 59.613 46.2797 51.7335 55.9996 51.7333V62.3857Z" fill="#0D3ECC"/>
<path d="M55.9694 53.5859C62.7626 53.5861 68.5509 57.888 70.7594 63.916C67.7836 58.8442 62.2737 55.4385 55.9684 55.4385C49.6631 55.4387 44.153 58.8441 41.1774 63.916C43.3858 57.8877 49.1758 53.5859 55.9694 53.5859Z" fill="#7A95E3"/>
<path d="M68.7999 96.1524C68.7999 94.89 67.7766 93.8666 66.5142 93.8666H60.2666V111.467H66.5142C67.7766 111.467 68.7999 110.443 68.7999 109.181V107.886C68.7999 106.623 67.7766 105.6 66.5142 105.6H64.5333V99.7333H66.5142C67.7766 99.7333 68.7999 98.71 68.7999 97.4476V96.1524Z" fill="#08257A"/>
<path d="M68.2666 46.4L68.9464 49.6526C69.5648 52.6189 71.8214 54.9324 74.7019 55.568L77.8666 56.2666L74.7019 56.9653C71.8158 57.6009 69.5648 59.9201 68.9464 62.8807L68.2666 66.1333L67.5869 62.8807C66.9684 59.9144 64.7119 57.6009 61.8313 56.9653L58.6666 56.2666L61.8313 55.568C64.7175 54.9324 66.9684 52.6132 67.5869 49.6526L68.2666 46.4Z" fill="white"/>
<path d="M151.131 116.389C151.136 116.283 151.141 116.171 151.141 116.064C151.141 112.779 148.475 110.112 145.189 110.112C145.072 110.112 144.96 110.112 144.843 110.123C144.389 106.667 141.435 104 137.856 104C134.277 104 131.141 106.832 130.832 110.443C129.989 110.085 129.067 109.893 128.096 109.893C124.389 109.893 121.349 112.757 121.067 116.395H151.131V116.389Z" fill="#F6F7F7"/>
</svg>
