<svg viewBox="0 0 97 110" fill="none" xmlns="http://www.w3.org/2000/svg">
<path d="M49.3516 12.0879V91.8681" stroke="black" stroke-width="1.20879"/>
<path d="M52.5728 1.6543C49.7762 0.293038 46.509 0.292946 43.7124 1.6543L6.23975 19.8955C2.75777 21.5905 0.54834 25.1244 0.54834 28.9971V43.4062C0.548344 67.3661 13.1316 89.5656 33.689 101.873L42.9438 107.414C46.145 109.33 50.1412 109.33 53.3423 107.414L62.5972 101.873C83.1543 89.5656 95.7368 67.366 95.7368 43.4062V28.9971C95.7368 25.1244 93.5274 21.5905 90.0454 19.8955L52.5728 1.6543Z" fill="#515565" stroke="#747784" stroke-width="0.903273"/>
<path d="M88.4775 33.2196C88.533 30.4453 87.0008 27.8824 84.5306 26.6181L52.218 10.0798C50.2341 9.06439 47.8934 9.0175 45.8704 9.95265L12.9213 25.1835C10.4025 26.3478 8.76883 28.8472 8.71325 31.6216L8.46582 43.9716C8.05717 64.3685 18.3906 83.4813 35.6809 94.3091L44.7574 99.9931C46.268 100.939 48.1765 100.977 49.7237 100.093L59.0205 94.7767C76.7307 84.6501 87.8214 65.9665 88.23 45.5697L88.4775 33.2196Z" fill="#414451"/>
<path d="M61.3327 51.7595C62.0809 52.6512 61.9646 53.9806 61.0729 54.7288L51.4084 62.8391C51.6307 63.4846 51.7514 64.1774 51.7514 64.8984C51.7514 68.3905 48.9205 71.2213 45.4285 71.2213C41.9364 71.2213 39.1056 68.3905 39.1056 64.8984C39.1056 61.4064 41.9364 58.5755 45.4285 58.5755C46.6607 58.5755 47.8106 58.928 48.7828 59.5377L58.3634 51.4998C59.2551 50.7515 60.5845 50.8678 61.3327 51.7595ZM28.5674 39.9018C40.2196 28.2678 59.098 28.2678 70.7201 39.9018L64.6983 45.9297C56.3882 37.6111 42.8993 37.6111 34.5892 45.9297L28.5674 39.9018Z" fill="#8ED788"/>
</svg>
