<svg width="21" height="21" viewBox="0 0 21 21" fill="none" xmlns="http://www.w3.org/2000/svg">
<path d="M7.49363 3.04675C5.22632 3.04675 3.3837 4.88937 3.3837 7.15669V14.0066C3.3837 16.2739 5.22632 18.1165 7.49363 18.1165H14.3435C16.6108 18.1165 18.4535 16.2739 18.4535 14.0066V7.15669C18.4535 4.88937 16.6108 3.04675 14.3435 3.04675H7.49363ZM6.33571 8.20826C6.57545 8.20826 6.75379 8.37956 6.75379 8.6056C6.75379 8.82822 6.57545 8.99961 6.33571 8.99961C6.09254 8.99961 5.91495 8.82822 5.91495 8.6056C5.91495 8.37956 6.09254 8.20826 6.33571 8.20826ZM9.90448 8.40358C11.1546 8.40358 11.9253 9.27649 11.9253 10.6773C11.9253 12.0747 11.1614 12.955 9.90448 12.955C8.64067 12.955 7.87359 12.0781 7.87359 10.6773C7.87359 9.27307 8.65779 8.40358 9.90448 8.40358ZM14.3335 8.40358C15.2137 8.40358 15.857 8.91687 15.8981 9.64981H15.2406C15.1755 9.24909 14.8297 8.99961 14.3228 8.99961C13.7885 8.99961 13.4358 9.2526 13.4358 9.64647C13.4358 9.95471 13.6619 10.133 14.2305 10.2666L14.7068 10.383C15.6007 10.5919 15.967 10.9516 15.967 11.6058C15.967 12.438 15.3229 12.9584 14.292 12.9584C13.3296 12.9584 12.6823 12.4622 12.6344 11.6847H13.3027C13.3609 12.0957 13.7647 12.359 14.3435 12.359C14.8847 12.359 15.282 12.0784 15.282 11.6914C15.282 11.3626 15.032 11.1641 14.4566 11.0271L13.8947 10.8934C13.1104 10.7084 12.7508 10.3283 12.7508 9.69128C12.7508 8.91725 13.3848 8.40358 14.3335 8.40358ZM9.90448 9.03038C9.08591 9.03038 8.56594 9.67036 8.56594 10.6773C8.56594 11.6808 9.06879 12.3282 9.90448 12.3282C10.7299 12.3282 11.237 11.6808 11.237 10.6773C11.237 9.67036 10.7299 9.03038 9.90448 9.03038ZM6.01395 9.57489H6.65813V12.8527H6.01395V9.57489Z" fill="white" fill-opacity="0.9"/>
</svg>
