<svg width="21" height="21" viewBox="0 0 21 21" fill="none" xmlns="http://www.w3.org/2000/svg">
<g clip-path="url(#clip0_311_53044)">
<path d="M11.8433 5.59692C13.5168 4.94386 15.3436 5.46455 16.4253 6.72974C16.4866 6.80116 16.538 6.89323 16.5992 6.97485C13.9969 8.55663 14.1498 12.241 17.0787 13.6799C16.548 15.1697 15.7623 16.4962 14.5787 17.5676C13.997 18.0983 13.2928 18.2102 12.5376 18.0061C12.3438 17.9551 12.1393 17.8944 11.9556 17.8127C10.8842 17.3434 9.83318 17.374 8.75152 17.8127C7.31271 18.3842 6.56791 18.1697 5.56792 16.9963C4.04738 15.2309 3.12877 13.2 2.98589 10.8733C2.85323 8.93434 3.35338 7.21982 5.04741 6.06665C6.08825 5.36265 7.26164 5.09746 8.43511 5.60767C9.60863 6.11787 10.6698 6.0561 11.8433 5.59692ZM13.4966 1.37231C13.7415 3.08662 12.1908 5.1584 10.5582 5.31177C10.0275 5.36279 9.95593 5.29113 10.0171 4.77075C10.2314 2.97471 11.619 1.60708 13.4966 1.37231Z" fill="white" fill-opacity="0.9"/>
</g>
<defs>
<clipPath id="clip0_311_53044">
<rect width="20.093" height="20.093" fill="white" transform="translate(0.0351562 0.535156)"/>
</clipPath>
</defs>
</svg>
