<svg viewBox="0 0 20 20" fill="none" xmlns="http://www.w3.org/2000/svg">
<path d="M19.1654 9.03836C19.1661 6.13042 17.7865 3.39477 15.4478 1.66663L10.0003 7.11408L4.54726 1.66663C2.21048 3.39517 0.832375 6.12987 0.833344 9.03649C0.832305 14.0251 4.82204 18.0979 9.80958 18.1997H9.82828C9.89509 18.2051 9.95968 18.1744 9.99771 18.1192C10.0357 18.064 10.0414 17.9927 10.0127 17.9322C9.9839 17.8717 9.92501 17.8311 9.8582 17.8257H9.82267C9.41759 17.7897 9.01721 17.7127 8.62771 17.5957C7.07362 17.1222 5.87006 15.8861 5.43813 14.32C5.00621 12.7538 5.40604 11.0756 6.49772 9.8724L10.0003 13.3918L13.5123 9.87988C15.1594 11.6932 15.1521 14.4633 13.4954 16.268C13.4633 16.3012 13.4447 16.3452 13.4431 16.3914C13.4424 16.4466 13.4661 16.4994 13.508 16.5354C13.5498 16.5715 13.6055 16.5872 13.66 16.5784C19.3936 14.5213 19.1654 9.04397 19.1654 9.04397" fill="white" fill-opacity="0.9"/>
</svg>
