<svg viewBox="0 0 24 25" fill="none" xmlns="http://www.w3.org/2000/svg">
<path d="M21.8669 3.98808C21.9549 4.21707 22 4.4603 22 4.70562V20.6952C22 21.7998 21.1046 22.6952 20 22.6952C19.7138 22.6952 19.4309 22.6338 19.1705 22.5151L14.8379 20.5399C14.5316 21.2516 13.824 21.7499 13 21.7499H10C8.89543 21.7499 8 20.8545 8 19.7499V17.4231L6.52 16.7491L4 16.7499C2.89543 16.7499 2 15.8545 2 14.7499V9.74994C2 8.64537 2.89543 7.74994 4 7.74994L6.505 7.74908L19.2825 2.83876C20.3135 2.44248 21.4706 2.95705 21.8669 3.98808ZM20 4.70562L8 9.31786V15.2258L20 20.6952V4.70562ZM10 18.3351V19.7499H13V19.7021L10 18.3351ZM6 9.74994H4V14.7499H6V9.74994Z" fill="white" fill-opacity="0.9"/>
</svg>
