<svg width="112" height="94" viewBox="0 0 112 94" fill="none" xmlns="http://www.w3.org/2000/svg">
    <path opacity="0.15" d="M35.926 0.600006C44.787 0.600006 52.6708 4.7877 57.7131 11.2934C62.1475 9.57331 66.9681 8.62933 72.009 8.6293C93.8743 8.6293 111.6 26.3772 111.6 48.2709C111.6 70.1648 93.8744 87.9135 72.009 87.9135C62.5289 87.9134 53.8284 84.5753 47.012 79.0111C43.0229 87.0454 34.7438 92.5676 25.175 92.5678C11.7134 92.5678 0.800163 81.6407 0.800049 68.1615C0.800049 58.3625 6.56766 49.9125 14.8889 46.0287C10.8192 41.219 8.36353 34.9963 8.36353 28.1986C8.36379 12.9564 20.7037 0.600265 35.926 0.600006Z" fill="white"/>
    <path d="M53.9039 92.9316C53.9129 92.7472 53.9219 92.5628 53.9219 92.3784C53.9219 86.7879 49.3918 82.2544 43.8054 82.2544C43.6077 82.2544 43.4099 82.2634 43.2167 82.2724C42.4437 76.394 37.4236 71.856 31.3385 71.856C25.2533 71.856 19.9277 76.6729 19.4018 82.8121C17.9727 82.2094 16.3997 81.8721 14.7503 81.8721C8.44493 81.8721 3.28107 86.743 2.80469 92.9316H53.9084H53.9039Z" fill="#3D65D6"/>
    <path d="M20.5002 37.9693C20.5002 32.9203 23.3557 28.3056 27.8741 26.0525L43.4507 18.2851C50.1947 14.922 58.1268 14.922 64.8709 18.2851L80.4475 26.0525C84.9658 28.3056 87.8213 32.9203 87.8213 37.9693V38.6137C87.8213 59.8268 76.7992 79.5163 58.7159 90.6064C55.921 92.3204 52.4005 92.3204 49.6056 90.6064C31.5223 79.5163 20.5002 59.8268 20.5002 38.6137V37.9693Z" fill="#0F68EE"/>
    <path d="M23.2585 32.6251C24.0672 31.7948 25.0209 31.0926 26.0937 30.5605L49.5342 18.9345C52.4497 17.4884 55.8723 17.4884 58.7878 18.9345L82.2284 30.5605C83.3008 31.0925 84.2542 31.7944 85.0627 32.6244C84.0761 30.5134 82.3925 28.7519 80.2258 27.6836L58.7657 17.1026C55.8622 15.671 52.4594 15.671 49.556 17.1026L28.0959 27.6836C25.9289 28.752 24.2452 30.5139 23.2585 32.6251Z" fill="#3F87F3"/>
    <path fill-rule="evenodd" clip-rule="evenodd" d="M41.2198 28.005C41.2198 27.5246 41.6088 27.1352 42.0885 27.1352H69.4734C75.2158 27.1352 80.164 31.0127 80.164 36.1298C80.164 41.2469 75.2158 45.1244 69.4734 45.1244H26.6516C26.1719 45.1244 25.783 44.735 25.783 44.2546C25.783 43.7743 26.1719 43.3848 26.6516 43.3848H69.4734C74.5816 43.3848 78.4267 39.99 78.4267 36.1298C78.4267 32.2697 74.5816 28.8748 69.4734 28.8748H42.0885C41.6088 28.8748 41.2198 28.4854 41.2198 28.005Z" fill="#3F87F3"/>
    <path fill-rule="evenodd" clip-rule="evenodd" d="M57.5113 82.1063L50.723 82.1063C44.9806 82.1063 40.0324 78.2288 40.0324 73.1117C40.0324 67.9946 44.9806 64.1171 50.723 64.1171L77.5142 64.1171C77.9939 64.1171 78.3828 64.5065 78.3828 64.9869C78.3828 65.4672 77.9939 65.8567 77.5142 65.8567L50.723 65.8567C45.6147 65.8567 41.7697 69.2516 41.7697 73.1117C41.7697 76.9718 45.6147 80.3667 50.723 80.3667L57.5113 80.3667C57.991 80.3667 58.3799 80.7562 58.3799 81.2365C58.3799 81.7169 57.991 82.1063 57.5113 82.1063Z" fill="#3F87F3"/>
    <path d="M78.9121 37.6513C77.6019 37.6513 76.5356 36.5837 76.5356 35.2718C76.5356 33.96 77.6019 32.8923 78.9121 32.8923C80.2222 32.8923 81.2885 33.96 81.2885 35.2718C81.2885 36.5837 80.2222 37.6513 78.9121 37.6513Z" fill="#0F68EE"/>
    <path fill-rule="evenodd" clip-rule="evenodd" d="M78.9121 33.7621C78.0817 33.7621 77.4043 34.4404 77.4043 35.2718C77.4043 36.1033 78.0817 36.7815 78.9121 36.7815C79.7424 36.7815 80.4198 36.1033 80.4198 35.2718C80.4198 34.4404 79.7424 33.7621 78.9121 33.7621ZM75.667 35.2718C75.667 33.4796 77.1222 32.0225 78.9121 32.0225C80.7019 32.0225 82.1571 33.4796 82.1571 35.2718C82.1571 37.064 80.7019 38.5211 78.9121 38.5211C77.1222 38.5211 75.667 37.064 75.667 35.2718Z" fill="#3F87F3"/>
    <path d="M31.7973 46.7555C30.4872 46.7555 29.4209 45.6879 29.4209 44.376C29.4209 43.0642 30.4872 41.9965 31.7973 41.9965C33.1074 41.9965 34.1737 43.0642 34.1737 44.376C34.1737 45.6879 33.1074 46.7555 31.7973 46.7555Z" fill="#0F68EE"/>
    <path fill-rule="evenodd" clip-rule="evenodd" d="M31.7973 42.8663C30.9669 42.8663 30.2896 43.5445 30.2896 44.376C30.2896 45.2075 30.9669 45.8857 31.7973 45.8857C32.6277 45.8857 33.3051 45.2075 33.3051 44.376C33.3051 43.5445 32.6277 42.8663 31.7973 42.8663ZM28.5522 44.376C28.5522 42.5838 30.0074 41.1267 31.7973 41.1267C33.5872 41.1267 35.0424 42.5838 35.0424 44.376C35.0424 46.1682 33.5872 47.6253 31.7973 47.6253C30.0074 47.6253 28.5522 46.1682 28.5522 44.376Z" fill="#3F87F3"/>
    <path fill-rule="evenodd" clip-rule="evenodd" d="M29.7412 54.5593C29.7412 54.0789 30.1301 53.6895 30.6099 53.6895H79.2954V55.4291H30.6099C30.1301 55.4291 29.7412 55.0397 29.7412 54.5593Z" fill="#3F87F3"/>
    <path d="M40.9026 70.0163C42.2128 70.0163 43.2791 71.0839 43.2791 72.3958C43.2791 73.7076 42.2128 74.7753 40.9026 74.7753C39.5925 74.7753 38.5262 73.7076 38.5262 72.3958C38.5262 71.0839 39.5925 70.0163 40.9026 70.0163Z" fill="#0F68EE"/>
    <path fill-rule="evenodd" clip-rule="evenodd" d="M40.9026 73.9055C41.733 73.9055 42.4104 73.2272 42.4104 72.3958C42.4104 71.5643 41.733 70.8861 40.9026 70.8861C40.0723 70.8861 39.3949 71.5643 39.3949 72.3958C39.3949 73.2272 40.0723 73.9055 40.9026 73.9055ZM44.1477 72.3958C44.1477 74.188 42.6925 75.6451 40.9026 75.6451C39.1128 75.6451 37.6576 74.188 37.6576 72.3958C37.6576 70.6036 39.1128 69.1465 40.9026 69.1465C42.6925 69.1465 44.1477 70.6036 44.1477 72.3958Z" fill="#3F87F3"/>
    <path d="M78.1079 56.9404C76.7977 56.9404 75.7314 55.8727 75.7314 54.5608C75.7314 53.249 76.7977 52.1813 78.1079 52.1813C79.418 52.1813 80.4843 53.249 80.4843 54.5608C80.4843 55.8727 79.418 56.9404 78.1079 56.9404Z" fill="#0F68EE"/>
    <path fill-rule="evenodd" clip-rule="evenodd" d="M78.1079 53.0511C77.2775 53.0511 76.6001 53.7294 76.6001 54.5608C76.6001 55.3923 77.2775 56.0705 78.1079 56.0705C78.9382 56.0705 79.6156 55.3923 79.6156 54.5608C79.6156 53.7294 78.9382 53.0511 78.1079 53.0511ZM74.8628 54.5608C74.8628 52.7686 76.318 51.3115 78.1079 51.3115C79.8977 51.3115 81.3529 52.7686 81.3529 54.5608C81.3529 56.353 79.8977 57.8101 78.1079 57.8101C76.318 57.8101 74.8628 56.353 74.8628 54.5608Z" fill="#3F87F3"/>
    <path fill-rule="evenodd" clip-rule="evenodd" d="M52.812 71.9042C53.1262 71.9042 53.2855 71.7536 53.2855 71.4522C53.2855 71.3016 53.1262 71.1509 52.9713 71.0002H52.4978C46.7976 69.9411 42.996 64.4994 44.1068 59.0577C44.4211 57.848 44.899 56.4876 45.6912 55.4285C45.8505 55.1271 46.1647 55.1271 46.4834 55.2778L54.2414 62.6826H54.8743L62.6324 55.2778C62.9466 54.9765 63.1059 54.9765 63.2652 55.2778C65.956 59.2084 65.4824 64.1981 62.3137 67.6767H62.1544C62.1544 67.8274 62.3137 68.1287 62.6279 68.1287H62.9421C68.8016 65.8599 72.7581 60.2675 72.7581 54.2187C72.7581 48.7726 70.2267 43.6366 65.7922 40.3087C65.6329 40.158 65.4736 40.158 65.3187 40.3087L55.0248 50.133C54.8654 50.2837 54.7106 50.4343 54.3919 50.2837C54.3919 50.2837 54.2326 50.2837 54.2326 50.133L43.9387 40.3087C43.7794 40.158 43.6245 40.158 43.4651 40.3087C38.8758 43.6322 36.1806 48.9277 36.3399 54.3694C36.4993 63.4403 43.4651 71.0002 52.8076 71.9042" fill="#0C54C0"/>
    <path fill-rule="evenodd" clip-rule="evenodd" d="M52.812 68.7059C53.1262 68.7059 53.2855 68.5553 53.2855 68.2539C53.2855 68.1033 53.1262 67.9526 52.9713 67.8019H52.4978C46.7976 66.7428 42.996 61.3011 44.1068 55.8594C44.4211 54.6497 44.899 53.2892 45.6912 52.2302C45.8505 51.9288 46.1647 51.9288 46.4834 52.0795L54.2414 59.4843H54.8743L62.6324 52.0795C62.9466 51.7782 63.1059 51.7782 63.2652 52.0795C65.956 56.0101 65.4824 60.9998 62.3137 64.4784H62.1544C62.1544 64.6291 62.3137 64.9304 62.6279 64.9304H62.9421C68.8016 62.6616 72.7581 57.0692 72.7581 51.0204C72.7581 45.5743 70.2267 40.4383 65.7922 37.1104C65.6329 36.9597 65.4736 36.9597 65.3187 37.1104L55.0248 46.9347C54.8654 47.0853 54.7106 47.236 54.3919 47.0854C54.3919 47.0854 54.2326 47.0853 54.2326 46.9347L43.9387 37.1104C43.7794 36.9597 43.6245 36.9597 43.4651 37.1104C38.8758 40.4339 36.1806 45.7294 36.3399 51.1711C36.4993 60.242 43.4651 67.8019 52.8076 68.7059" fill="white"/>
    <path d="M73.5126 17.6613L73.9384 19.8118C74.3258 21.7729 75.7394 23.3025 77.5439 23.7228L79.5264 24.1847L77.5439 24.6466C75.7359 25.0668 74.3258 26.6002 73.9384 28.5576L73.5126 30.7081L73.0868 28.5576C72.6993 26.5964 71.2858 25.0668 69.4813 24.6466L67.4988 24.1847L69.4813 23.7228C71.2892 23.3025 72.6993 21.7692 73.0868 19.8118L73.5126 17.6613Z" fill="white"/>
    <path d="M110.028 92.927C110.042 92.6724 110.051 92.4178 110.051 92.1587C110.051 84.4393 103.837 78.1838 96.1692 78.1838C95.8983 78.1838 95.6273 78.1929 95.3609 78.2111C94.2997 70.0962 87.4087 63.827 79.0546 63.827C70.7005 63.827 63.394 70.4781 62.6715 78.9567C60.7072 78.1247 58.5486 77.661 56.2863 77.661C47.6341 77.661 40.5444 84.3893 39.8896 92.9316H110.028V92.927Z" fill="#7A95E3"/>
</svg>
