<!-- Cloud + Window combined (dark colors) -->
<svg width="455" height="215" viewBox="0 0 455 215" fill="none" xmlns="http://www.w3.org/2000/svg">
  <!-- cloud -->
  <path opacity="0.3" d="M232.396 0C261.438 3.45182e-05 286.294 17.9192 296.515 43.3037C302.708 39.7812 309.872 37.7676 317.506 37.7676C339.841 37.7677 358.152 54.9888 359.89 76.877C363.972 75.8999 368.234 75.3818 372.616 75.3818C402.704 75.3821 427.096 99.7741 427.096 129.862C427.096 131.517 427.021 133.154 426.877 134.771C426.95 134.77 427.023 134.769 427.096 134.769C442.507 134.769 455 147.262 455 162.673C455 164.026 454.901 165.357 454.715 166.659H455C455 185.006 440.127 199.879 421.78 199.879H125.317C112.302 209.325 96.2907 214.896 78.9785 214.896C35.3599 214.895 0 179.536 0 135.917C1.23699e-05 92.2983 35.3599 56.9386 78.9785 56.9385C90.5669 56.9385 101.573 59.4335 111.487 63.917C112.084 40.9534 130.886 22.5217 153.993 22.5215C162.155 22.5215 169.779 24.8221 176.254 28.8086C188.796 11.3623 209.269 0 232.396 0Z" fill="url(#paint0_linear_dark)"/>
  <defs>
    <linearGradient id="paint0_linear_dark" x1="243.724" y1="99.7946" x2="243.724" y2="199.878" gradientUnits="userSpaceOnUse">
      <stop stop-color="#5D5A66"/>
      <stop offset="1" stop-opacity="0"/>
    </linearGradient>
  </defs>

  <!-- window (same placement/scale as before) -->
  <g transform="translate(135,15) scale(1.2)">
    <rect x="18" y="36" width="114" height="77.5" rx="12" fill="#515565"/>
    <rect x="24" y="41.5" width="102" height="66" rx="8" fill="#414451"/>
    <rect x="29" y="64" width="92" height="39" rx="4" fill="#747784"/>
    <rect width="92" height="10.5" rx="4" transform="matrix(1 0 0 -1 29 57)" fill="#747784"/>
    <circle cx="34" cy="52" r="2" fill="#414451"/>
    <circle cx="41" cy="52" r="2" fill="#414451"/>
    <circle cx="48" cy="52" r="2" fill="#414451"/>
    <path d="M125.126 126.25C132.927 126.25 139.251 119.926 139.251 112.125C139.251 104.324 132.927 98 125.126 98C117.325 98 111.001 104.324 111.001 112.125C111.001 119.926 117.325 126.25 125.126 126.25Z" fill="#DCDDE0"/>
    <path d="M125.019 116.685C124.224 116.685 123.579 116.04 123.579 115.245V114.38C123.579 112.715 124.464 111.155 125.944 110.22C126.429 109.91 126.889 109.27 126.719 108.39C126.589 107.73 126.039 107.18 125.384 107.05C124.844 106.945 124.324 107.075 123.919 107.41C123.519 107.74 123.284 108.23 123.284 108.75C123.284 109.545 122.639 110.19 121.844 110.19C121.049 110.19 120.404 109.545 120.404 108.75C120.404 107.365 121.014 106.07 122.084 105.19C123.154 104.31 124.554 103.96 125.929 104.225C127.739 104.575 129.189 106.03 129.544 107.84C129.914 109.735 129.104 111.625 127.484 112.65C126.839 113.06 126.454 113.705 126.454 114.38V115.245C126.454 116.04 125.809 116.685 125.014 116.685H125.019Z" fill="#414451"/>
    <path d="M125.019 120.93C125.917 120.93 126.644 120.203 126.644 119.305C126.644 118.408 125.917 117.68 125.019 117.68C124.122 117.68 123.394 118.408 123.394 119.305C123.394 120.203 124.122 120.93 125.019 120.93Z" fill="#414451"/>
  </g>
</svg>
