<svg viewBox="0 0 221 170" fill="none" xmlns="http://www.w3.org/2000/svg">
<path d="M143.04 5.42561e-05C100.261 5.05121e-05 65.5808 34.7176 65.5808 77.5439C65.5808 120.37 100.261 155.088 143.04 155.088C185.82 155.088 220.5 120.37 220.5 77.5439C220.5 34.7176 185.82 5.8e-05 143.04 5.42561e-05Z" fill="#282A32"/>
<path d="M56.0399 5.93508C32.9553 5.93508 14.2415 24.6692 14.2415 47.7789C14.2415 70.8887 32.9552 89.6228 56.0399 89.6228C79.1245 89.6228 97.8383 70.8887 97.8383 47.7789C97.8383 24.6692 79.1245 5.93508 56.0399 5.93508Z" fill="#282A32"/>
<path d="M60.1513 50.5675C27.2068 50.5675 0.499985 77.3034 0.499982 110.284C0.499979 143.264 27.2068 170 60.1513 170C93.0959 170 119.803 143.264 119.803 110.284C119.803 77.3034 93.0959 50.5675 60.1513 50.5675Z" fill="#282A32"/>
<rect x="24.3347" y="26.0968" width="169.815" height="115.57" rx="24" fill="#202228"/>
<rect x="33.2723" y="34.2986" width="151.94" height="98.4211" rx="16" fill="#414451"/>
<rect width="19.3649" height="84.2544" rx="8" transform="matrix(-1 0 0 1 60.0853 41.7544)" fill="#747784"/>
<ellipse cx="121.903" cy="83.5088" rx="41.709" ry="41.7544" fill="#E60000"/>
<rect x="66.7875" y="41.7544" width="108.741" height="84.2544" rx="8" fill="#747784"/>
<path d="M185.399 152.987C197.019 152.987 206.439 143.556 206.439 131.923C206.439 120.29 197.019 110.86 185.399 110.86C173.778 110.86 164.358 120.29 164.358 131.923C164.358 143.556 173.778 152.987 185.399 152.987Z" fill="#FFBC66"/>
<path d="M185.399 137.568C183.996 137.568 182.859 138.706 182.859 140.11C182.859 141.514 183.996 142.653 185.399 142.653C186.801 142.653 187.938 141.514 187.938 140.11C187.938 138.706 186.801 137.568 185.399 137.568Z" fill="#202228"/>
<path d="M182.859 132.468C182.859 133.872 183.994 135.01 185.395 135.01C186.795 135.01 187.931 133.872 187.931 132.468L187.931 123.736C187.931 122.332 186.795 121.194 185.395 121.194C183.994 121.194 182.859 122.332 182.859 123.736L182.859 132.468Z" fill="#202228"/>
<path fill-rule="evenodd" clip-rule="evenodd" d="M138.821 103.263C130.112 94.545 115.992 94.545 107.283 103.263C106.12 104.428 104.233 104.428 103.07 103.263C101.907 102.099 101.907 100.21 103.07 99.0454C114.106 87.9977 131.998 87.9977 143.034 99.0454C144.197 100.21 144.197 102.099 143.034 103.263C141.87 104.428 139.984 104.428 138.821 103.263Z" fill="#282A32"/>
<rect width="26.6014" height="5.96167" rx="2.98084" transform="matrix(0.706722 0.707491 -0.706722 0.707491 96.3242 61.1404)" fill="#282A32"/>
<rect width="26.6014" height="5.96167" rx="2.98084" transform="matrix(0.706722 -0.707491 0.706722 0.707491 92.2374 79.9607)" fill="#282A32"/>
<rect width="26.6014" height="5.96167" rx="2.98084" transform="matrix(0.706722 0.707491 -0.706722 0.707491 133.471 61.1404)" fill="#282A32"/>
<rect width="26.6014" height="5.96167" rx="2.98084" transform="matrix(0.706722 -0.707491 0.706722 0.707491 129.385 79.9607)" fill="#282A32"/>
</svg>
