<svg viewBox="0 0 576 296" fill="none" xmlns="http://www.w3.org/2000/svg">
<rect width="576" height="296" rx="16" fill="#282A32"/>
<rect x="146" y="38" width="285" height="200" rx="4" fill="#515565"/>
<path d="M146 42C146 39.7909 147.791 38 150 38H427C429.209 38 431 39.7909 431 42V52H146V42Z" fill="#202228"/>
<rect x="153" y="42" width="6" height="6" rx="3" fill="#FF7676"/>
<rect x="163" y="42" width="6" height="6" rx="3" fill="#F6CB6D"/>
<rect x="173" y="42" width="6" height="6" rx="3" fill="#74CD75"/>
<path d="M352 52H431V234C431 236.209 429.209 238 427 238H352V52Z" fill="#414451"/>
<g clip-path="url(#clip0_739_34614)">
<path d="M372.499 67.423C372.5 65.6783 371.672 64.0369 370.269 63L367 66.2685L363.728 63C362.326 64.0371 361.499 65.6779 361.5 67.4219C361.499 70.4151 363.893 72.8588 366.886 72.9199H366.897C366.937 72.9231 366.976 72.9046 366.999 72.8715C367.021 72.8384 367.025 72.7957 367.008 72.7593C366.99 72.723 366.955 72.6987 366.915 72.6955H366.894C366.651 72.6739 366.41 72.6276 366.177 72.5574C365.244 72.2733 364.522 71.5317 364.263 70.592C364.004 69.6523 364.244 68.6454 364.899 67.9235L367 70.0351L369.107 67.928C370.096 69.016 370.091 70.678 369.097 71.7608C369.078 71.7808 369.067 71.8071 369.066 71.8349C369.065 71.868 369.08 71.8996 369.105 71.9213C369.13 71.9429 369.163 71.9524 369.196 71.9471C372.636 70.7128 372.499 67.4264 372.499 67.4264" fill="#7A95E3"/>
</g>
<rect x="379" y="63" width="43" height="9" rx="2" fill="#515565"/>
<rect x="361" y="78" width="61" height="21" rx="2" fill="#515565"/>
<rect x="361" y="103" width="61" height="21" rx="2" fill="#515565"/>
<g filter="url(#filter0_d_739_34614)">
<rect x="105.4" y="68" width="174.4" height="109" rx="8.30476" fill="#1C1B1F"/>
</g>
<path d="M139.13 139.18C148.511 139.18 156.116 131.575 156.116 122.194C156.116 112.812 148.511 105.207 139.13 105.207C129.748 105.207 122.143 112.812 122.143 122.194C122.143 131.575 129.748 139.18 139.13 139.18Z" fill="#282A32"/>
<path d="M141.273 143.792C146.335 143.792 150.439 139.689 150.439 134.626C150.439 129.564 146.335 125.46 141.273 125.46C136.21 125.46 132.106 129.564 132.106 134.626C132.106 139.689 136.21 143.792 141.273 143.792Z" fill="#282A32"/>
<path d="M156.948 129.083C164.172 129.083 170.029 123.226 170.029 116.001C170.029 108.777 164.172 102.92 156.948 102.92C149.723 102.92 143.866 108.777 143.866 116.001C143.866 123.226 149.723 129.083 156.948 129.083Z" fill="#282A32"/>
<path d="M146.431 140.508C146.434 140.441 146.438 140.374 146.438 140.307C146.438 138.277 144.791 136.631 142.761 136.631C142.689 136.631 142.617 136.634 142.547 136.637C142.266 134.503 140.442 132.854 138.23 132.854C136.019 132.854 134.083 134.604 133.892 136.833C133.373 136.614 132.801 136.492 132.201 136.492C129.91 136.492 128.033 138.261 127.86 140.508H146.433H146.431Z" fill="#414451"/>
<path d="M145.581 106.84C146.233 106.84 146.877 106.878 147.509 106.951C148.433 107.058 149.173 107.735 149.466 108.617L149.812 109.656C150.157 110.695 151.343 111.185 152.322 110.695L153.298 110.206C154.13 109.79 155.13 109.834 155.86 110.411C156.872 111.212 157.788 112.128 158.588 113.14C159.165 113.869 159.21 114.869 158.793 115.7L158.304 116.679C157.814 117.657 158.305 118.842 159.343 119.188L160.382 119.533C161.265 119.827 161.941 120.565 162.048 121.489C162.122 122.122 162.16 122.766 162.16 123.418C162.16 124.07 162.122 124.713 162.048 125.346C161.941 126.27 161.265 127.009 160.382 127.303L159.343 127.648C158.305 127.994 157.814 129.18 158.304 130.158L158.793 131.135C159.209 131.966 159.164 132.967 158.587 133.696C157.787 134.708 156.871 135.624 155.86 136.425C155.13 137.002 154.13 137.046 153.298 136.63L152.322 136.141C151.343 135.65 150.157 136.142 149.812 137.181L149.466 138.22C149.172 139.102 148.433 139.778 147.509 139.885C146.877 139.958 146.234 139.996 145.581 139.996C144.929 139.996 144.285 139.958 143.653 139.885C142.729 139.778 141.99 139.101 141.697 138.219L141.351 137.181C141.006 136.142 139.82 135.651 138.841 136.141L137.864 136.63C137.032 137.046 136.032 137.001 135.303 136.425C134.291 135.624 133.374 134.708 132.574 133.696C131.996 132.967 131.952 131.965 132.37 131.134L132.859 130.158C133.349 129.18 132.857 127.994 131.819 127.648L130.781 127.304C129.898 127.01 129.222 126.271 129.115 125.347C129.041 124.714 129.003 124.07 129.003 123.418C129.003 122.766 129.041 122.122 129.115 121.489C129.222 120.565 129.898 119.827 130.781 119.533L131.819 119.188C132.857 118.842 133.349 117.657 132.859 116.679L132.37 115.702C131.953 114.87 131.996 113.869 132.574 113.14C133.374 112.128 134.29 111.212 135.302 110.411C136.031 109.834 137.032 109.79 137.864 110.206L138.841 110.695C139.82 111.185 141.006 110.695 141.351 109.656L141.697 108.617C141.99 107.735 142.729 107.058 143.653 106.951C144.285 106.878 144.929 106.84 145.581 106.84Z" fill="#0F68EE"/>
<path d="M145.663 111.577C151.887 111.577 156.933 116.622 156.933 122.847C156.933 129.071 151.887 134.116 145.663 134.116C139.439 134.116 134.393 129.071 134.393 122.847C134.393 116.623 139.439 111.577 145.663 111.577ZM145.663 116.15C141.964 116.151 138.966 119.148 138.966 122.847C138.966 126.545 141.964 129.543 145.663 129.543C149.361 129.543 152.36 126.545 152.36 122.847C152.36 119.148 149.361 116.15 145.663 116.15Z" fill="#3D65D6"/>
<path d="M145.663 112.23C151.887 112.23 156.933 117.276 156.933 123.5C156.933 129.724 151.887 134.77 145.663 134.77C139.439 134.769 134.393 129.724 134.393 123.5C134.393 117.276 139.439 112.231 145.663 112.23ZM145.663 116.804C141.964 116.804 138.966 119.802 138.966 123.5C138.966 127.198 141.964 130.196 145.663 130.196C149.361 130.196 152.36 127.198 152.36 123.5C152.36 119.802 149.361 116.804 145.663 116.804Z" fill="#0C54C0"/>
<path d="M167.602 140.488C167.607 140.397 167.61 140.305 167.61 140.212C167.61 137.439 165.363 135.191 162.59 135.191C162.492 135.191 162.394 135.195 162.297 135.201C161.913 132.286 159.421 130.033 156.399 130.033C153.378 130.033 150.735 132.423 150.474 135.469C149.763 135.17 148.982 135.003 148.164 135.003C145.035 135.003 142.47 137.421 142.233 140.49H167.602V140.488Z" fill="#515565"/>
<path d="M158.117 139.262C160.666 139.262 162.732 137.196 162.732 134.647C162.732 132.099 160.666 130.033 158.117 130.033C155.569 130.033 153.503 132.099 153.503 134.647C153.503 137.196 155.569 139.262 158.117 139.262Z" fill="#8ED788"/>
<path d="M157.678 136.376C157.532 136.376 157.393 136.319 157.29 136.216L155.987 134.912C155.773 134.699 155.773 134.352 155.987 134.138C156.201 133.924 156.547 133.924 156.761 134.138L157.678 135.055L159.51 133.222C159.724 133.008 160.07 133.008 160.284 133.222C160.498 133.436 160.498 133.782 160.284 133.996L158.065 136.216C157.962 136.319 157.823 136.376 157.678 136.376Z" fill="#1C1B1F"/>
<path d="M145.664 112.23V122.847H134.414C134.753 116.927 139.658 112.231 145.663 112.23H145.664Z" fill="url(#paint0_linear_739_34614)"/>
<path d="M146.153 112.884V123.5H139.62" stroke="#08257A" stroke-width="0.98" stroke-linecap="round" stroke-linejoin="round"/>
<circle cx="145.827" cy="123.173" r="1.47" fill="#08257A"/>
<path d="M145.663 112.557V122.847H139.293" stroke="#E5E6E8" stroke-width="0.98" stroke-linecap="round" stroke-linejoin="round"/>
<circle cx="145.663" cy="122.847" r="1.38833" fill="#9799A3" stroke="#B9BBC1" stroke-width="0.163333"/>
<circle cx="145.663" cy="122.847" r="0.653333" fill="#E5E6E8"/>
<rect x="189.486" y="85.6475" width="80.9714" height="15.5714" rx="4.15238" fill="#282A32"/>
<rect x="189.486" y="107.448" width="80.9714" height="55.019" rx="4.15238" fill="#282A32"/>
<g filter="url(#filter1_d_739_34614)">
<rect x="176" y="150" width="195.49" height="113" rx="9.04" fill="#202228"/>
</g>
<path opacity="0.15" d="M231.717 179.308C240.837 179.308 248.231 186.701 248.231 195.821C248.231 200.132 246.578 204.056 243.873 206.997C247.761 208.862 250.447 212.836 250.447 217.437C250.447 223.827 245.266 229.007 238.876 229.007C235.696 229.007 232.818 227.724 230.726 225.648C226.821 229.745 221.31 232.298 215.204 232.298C203.361 232.298 193.76 222.697 193.76 210.854C193.76 199.012 203.361 189.411 215.204 189.411C215.632 189.411 216.057 189.425 216.478 189.449C218.972 183.493 224.856 179.308 231.717 179.308Z" fill="white"/>
<path d="M223.554 185.699C224.85 185.699 226.118 185.817 227.349 186.042C227.652 186.098 227.912 186.302 228.009 186.595C228.912 189.309 232.011 190.593 234.569 189.312C234.842 189.175 235.166 189.212 235.418 189.386C237.521 190.835 239.344 192.66 240.793 194.763C240.967 195.015 241.006 195.34 240.869 195.613C239.589 198.171 240.872 201.269 243.586 202.172C243.878 202.269 244.081 202.527 244.137 202.83C244.363 204.061 244.482 205.33 244.482 206.627C244.482 207.924 244.363 209.192 244.137 210.424C244.081 210.727 243.878 210.986 243.586 211.083C240.872 211.986 239.588 215.085 240.869 217.643C241.006 217.915 240.967 218.239 240.794 218.49C239.344 220.594 237.518 222.419 235.414 223.869C235.164 224.042 234.841 224.08 234.569 223.943C232.011 222.662 228.912 223.946 228.009 226.66C227.912 226.952 227.654 227.155 227.352 227.21C226.12 227.436 224.851 227.555 223.554 227.555C222.256 227.555 220.986 227.436 219.753 227.21C219.451 227.154 219.195 226.951 219.098 226.66C218.195 223.946 215.097 222.663 212.539 223.943C212.267 224.08 211.943 224.041 211.692 223.868C209.588 222.418 207.763 220.594 206.313 218.49C206.14 218.239 206.101 217.915 206.238 217.643C207.519 215.085 206.235 211.986 203.521 211.083C203.229 210.986 203.025 210.727 202.97 210.425C202.744 209.193 202.626 207.924 202.626 206.627C202.626 205.33 202.744 204.061 202.97 202.83C203.025 202.527 203.229 202.269 203.521 202.172C206.235 201.269 207.518 198.171 206.238 195.613C206.1 195.34 206.14 195.015 206.314 194.763C207.763 192.661 209.586 190.836 211.688 189.387C211.94 189.213 212.265 189.174 212.539 189.312C215.097 190.592 218.195 189.309 219.098 186.595C219.195 186.302 219.454 186.099 219.757 186.043C220.988 185.817 222.257 185.699 223.554 185.699Z" fill="#0F68EE"/>
<path d="M223.657 192.503C231.514 192.503 237.883 198.873 237.883 206.73C237.883 214.588 231.514 220.957 223.657 220.957C215.8 220.957 209.43 214.588 209.43 206.73C209.43 198.873 215.8 192.503 223.657 192.503ZM223.657 198.277C218.988 198.277 215.203 202.062 215.203 206.73C215.203 211.399 218.988 215.185 223.657 215.185C228.326 215.185 232.11 211.399 232.11 206.73C232.11 202.062 228.325 198.277 223.657 198.277Z" fill="#0C54C0"/>
<path d="M223.657 192.503C231.514 192.503 237.883 198.873 237.883 206.73C237.883 206.937 237.877 207.143 237.869 207.348C237.544 199.778 231.307 193.74 223.657 193.74C216.007 193.74 209.768 199.778 209.444 207.348C209.435 207.143 209.43 206.937 209.43 206.73C209.43 198.873 215.8 192.503 223.657 192.503Z" fill="#3F87F3"/>
<path d="M223.658 215.05C219.103 215.05 215.41 211.358 215.41 206.803C215.41 206.683 215.414 206.563 215.419 206.444C215.607 210.833 219.223 214.334 223.658 214.334C228.092 214.334 231.708 210.833 231.896 206.444C231.901 206.563 231.905 206.683 231.905 206.803C231.904 211.357 228.212 215.05 223.658 215.05Z" fill="#3F87F3"/>
<path d="M229.409 205.708C229.461 205.852 229.509 205.998 229.549 206.148C230.06 208.054 229.515 210.089 228.119 211.485C226.723 212.881 224.688 213.426 222.781 212.915C220.874 212.404 219.384 210.915 218.873 209.008C218.362 207.101 218.907 205.065 220.303 203.669C221.699 202.273 223.734 201.729 225.641 202.24C225.776 202.276 225.908 202.317 226.038 202.363C225.936 202.436 225.838 202.517 225.747 202.608L224.824 203.53C223.884 204.471 223.884 205.997 224.824 206.938C225.765 207.878 227.29 207.878 228.231 206.937L229.153 206.014C229.249 205.918 229.332 205.814 229.409 205.708Z" fill="#0F68EE"/>
<path d="M220.633 208.595C222.05 208.546 223.212 209.708 223.164 211.126C223.143 211.746 222.887 212.336 222.448 212.775L215.101 220.122C214.662 220.561 214.072 220.817 213.452 220.838C212.034 220.886 210.872 219.724 210.921 218.307C210.942 217.686 211.198 217.097 211.637 216.658L218.984 209.311C219.423 208.872 220.012 208.616 220.633 208.595Z" fill="#0F68EE"/>
<path d="M220.139 207.534C221.557 207.486 222.719 208.648 222.671 210.066C222.649 210.686 222.394 211.276 221.955 211.715L214.607 219.062C214.168 219.501 213.579 219.757 212.959 219.778C211.541 219.826 210.379 218.664 210.427 217.246C210.448 216.626 210.704 216.037 211.143 215.598L218.49 208.25C218.929 207.811 219.519 207.556 220.139 207.534Z" fill="#FFCC28"/>
<path d="M220.301 207.692C220.395 207.688 220.489 207.691 220.58 207.697L220.724 207.84L211.529 216.976C211.246 217.257 210.782 216.944 210.937 216.576C210.973 216.491 211.026 216.412 211.091 216.347L219.498 207.869C219.752 207.766 220.023 207.705 220.301 207.692Z" fill="#FFEBAF"/>
<path d="M219.75 202.56C221.146 201.164 223.181 200.619 225.088 201.13C225.233 201.169 225.374 201.214 225.514 201.264C225.395 201.346 225.282 201.439 225.176 201.545L224.253 202.468C223.312 203.409 223.312 204.933 224.253 205.874C225.194 206.815 226.719 206.815 227.659 205.874L228.582 204.951C228.688 204.845 228.78 204.731 228.862 204.612C228.911 204.752 228.958 204.893 228.996 205.037C229.507 206.944 228.962 208.979 227.566 210.375C226.17 211.771 224.135 212.317 222.228 211.806C220.321 211.295 218.832 209.804 218.321 207.897C217.81 205.99 218.354 203.956 219.75 202.56Z" fill="#FFCC28"/>
<path d="M223.307 201.2C222.609 201.512 221.962 201.949 221.405 202.507C219.798 204.113 219.171 206.455 219.759 208.649C219.942 209.333 220.235 209.969 220.617 210.54C219.762 209.85 219.127 208.9 218.833 207.804C218.346 205.983 218.866 204.04 220.199 202.707C221.05 201.856 222.149 201.338 223.307 201.2Z" fill="#FFEBAF"/>
<rect x="267.53" y="162.43" width="88.14" height="16.95" rx="4.52" fill="#282A32"/>
<rect x="267.53" y="186.16" width="88.14" height="59.89" rx="4.52" fill="#282A32"/>
<defs>
<filter id="filter0_d_739_34614" x="84.638" y="47.2381" width="215.924" height="150.524" filterUnits="userSpaceOnUse" color-interpolation-filters="sRGB">
<feFlood flood-opacity="0" result="BackgroundImageFix"/>
<feColorMatrix in="SourceAlpha" type="matrix" values="0 0 0 0 0 0 0 0 0 0 0 0 0 0 0 0 0 0 127 0" result="hardAlpha"/>
<feOffset/>
<feGaussianBlur stdDeviation="10.381"/>
<feComposite in2="hardAlpha" operator="out"/>
<feColorMatrix type="matrix" values="0 0 0 0 0 0 0 0 0 0 0 0 0 0 0 0 0 0 0.1 0"/>
<feBlend mode="normal" in2="BackgroundImageFix" result="effect1_dropShadow_739_34614"/>
<feBlend mode="normal" in="SourceGraphic" in2="effect1_dropShadow_739_34614" result="shape"/>
</filter>
<filter id="filter1_d_739_34614" x="153.4" y="127.4" width="240.69" height="158.2" filterUnits="userSpaceOnUse" color-interpolation-filters="sRGB">
<feFlood flood-opacity="0" result="BackgroundImageFix"/>
<feColorMatrix in="SourceAlpha" type="matrix" values="0 0 0 0 0 0 0 0 0 0 0 0 0 0 0 0 0 0 127 0" result="hardAlpha"/>
<feOffset/>
<feGaussianBlur stdDeviation="11.3"/>
<feComposite in2="hardAlpha" operator="out"/>
<feColorMatrix type="matrix" values="0 0 0 0 0 0 0 0 0 0 0 0 0 0 0 0 0 0 0.1 0"/>
<feBlend mode="normal" in2="BackgroundImageFix" result="effect1_dropShadow_739_34614"/>
<feBlend mode="normal" in="SourceGraphic" in2="effect1_dropShadow_739_34614" result="shape"/>
</filter>
<linearGradient id="paint0_linear_739_34614" x1="145.664" y1="119.254" x2="137.417" y2="122.52" gradientUnits="userSpaceOnUse">
<stop stop-color="#7A92E0"/>
<stop offset="1" stop-color="#7A92E0" stop-opacity="0"/>
</linearGradient>
<clipPath id="clip0_739_34614">
<rect width="12" height="12" fill="white" transform="translate(361 62)"/>
</clipPath>
</defs>
</svg>
