<svg width="24" height="24" viewBox="0 0 24 24" fill="none" xmlns="http://www.w3.org/2000/svg">
<g clip-path="url(#clip0_379_7377)">
<path fill-rule="evenodd" clip-rule="evenodd" d="M12 22C17.5228 22 22 17.5228 22 12C22 6.47715 17.5228 2 12 2C6.47715 2 2 6.47715 2 12C2 17.5228 6.47715 22 12 22ZM11.1835 15.5279L16.4856 10.2417C16.8771 9.85136 16.8787 9.21766 16.4891 8.8253C16.1004 8.43381 15.4679 8.43157 15.0764 8.82031L15.0753 8.82144L10.8248 13.0555L9.4189 11.6496C9.02837 11.259 8.39521 11.259 8.00468 11.6496C7.61416 12.0401 7.61416 12.6733 8.00468 13.0638L10.4683 15.5274C10.6657 15.7248 10.9857 15.725 11.1835 15.5279Z" fill="#8ED788"/>
</g>
<defs>
<clipPath id="clip0_379_7377">
<rect width="24" height="24" fill="white"/>
</clipPath>
</defs>
</svg>
