<svg viewBox="0 0 24 24" fill="none" xmlns="http://www.w3.org/2000/svg">
<g clip-path="url(#clip0_160_2088)">
<path fill-rule="evenodd" clip-rule="evenodd" d="M12 2C17.5228 2 22 6.47715 22 12C22 17.5228 17.5228 22 12 22C6.47715 22 2 17.5228 2 12C2 6.47715 6.47715 2 12 2ZM12 4C7.58172 4 4 7.58172 4 12C4 16.4183 7.58172 20 12 20C16.4183 20 20 16.4183 20 12C20 7.58172 16.4183 4 12 4ZM15 8C15.5523 8 16 8.44772 16 9V15C16 15.5523 15.5523 16 15 16C14.4477 16 14 15.5523 14 15V9C14 8.44772 14.4477 8 15 8ZM9 8C9.55228 8 10 8.44772 10 9V15C10 15.5523 9.55228 16 9 16C8.44772 16 8 15.5523 8 15V9C8 8.44772 8.44772 8 9 8Z" fill="#FFFFFF" fill-opacity="0.5"/>
</g>
<defs>
<clipPath id="clip0_160_2088">
<rect width="24" height="24" fill="white"/>
</clipPath>
</defs>
</svg>
