<svg viewBox="0 0 24 24" fill="none" xmlns="http://www.w3.org/2000/svg">
<g clip-path="url(#clip0_379_9382)">
<path fill-rule="evenodd" clip-rule="evenodd" d="M15.287 2.89217L16.2478 1.15914C16.2727 1.11432 16.2787 1.06149 16.2646 1.01225C16.2504 0.963006 16.2173 0.921383 16.1724 0.896524C16.1438 0.880667 16.1116 0.872404 16.0789 0.872528C16.0441 0.872655 16.01 0.882131 15.9802 0.899958C15.9504 0.917786 15.9259 0.943308 15.9093 0.973844L14.9372 2.72354C14.1081 2.36086 13.2129 2.17362 12.3077 2.17362C11.4026 2.17362 10.5073 2.36086 9.67833 2.72354L8.70616 0.973844C8.69483 0.949952 8.6787 0.928635 8.65879 0.911211C8.63887 0.893786 8.61559 0.880625 8.59038 0.872541C8.56516 0.864457 8.53856 0.861622 8.5122 0.86421C8.48585 0.866799 8.46031 0.874756 8.43715 0.887591C8.414 0.900425 8.39373 0.917864 8.3776 0.938829C8.36147 0.959794 8.34982 0.983839 8.34337 1.00948C8.33691 1.03512 8.3358 1.0618 8.34009 1.08789C8.34438 1.11398 8.35398 1.13891 8.3683 1.16114L9.32913 2.89417C7.48227 3.85134 6.23166 5.67435 6.23166 7.76598H18.3838C18.3838 5.67435 17.1332 3.85134 15.287 2.89217ZM9.5034 5.54637C9.40303 5.54637 9.30492 5.51666 9.22147 5.461C9.13802 5.40533 9.07298 5.32622 9.03457 5.23365C8.99616 5.14109 8.98611 5.03923 9.00569 4.94097C9.02527 4.8427 9.07361 4.75244 9.14457 4.68159C9.21554 4.61074 9.30596 4.5625 9.4044 4.54295C9.50283 4.5234 9.60487 4.53344 9.69759 4.57178C9.79032 4.61012 9.86957 4.67505 9.92533 4.75835C9.98109 4.84166 10.0108 4.9396 10.0108 5.03979C10.0107 5.17409 9.95715 5.30284 9.86202 5.3978C9.7669 5.49277 9.63793 5.54619 9.5034 5.54637ZM15.1121 5.54637C15.0117 5.54637 14.9136 5.51666 14.8302 5.461C14.7467 5.40533 14.6817 5.32622 14.6433 5.23365C14.6049 5.14109 14.5948 5.03923 14.6144 4.94097C14.634 4.8427 14.6823 4.75244 14.7533 4.68159C14.8242 4.61074 14.9147 4.5625 15.0131 4.54295C15.1115 4.5234 15.2136 4.53344 15.3063 4.57178C15.399 4.61012 15.4783 4.67505 15.534 4.75835C15.5898 4.84166 15.6195 4.9396 15.6195 5.03979C15.6194 5.17409 15.5658 5.30284 15.4707 5.3978C15.3756 5.49277 15.2466 5.54619 15.1121 5.54637Z" fill="white" fill-opacity="0.9"/>
<path d="M5.32527 8.41084C5.58071 8.66585 5.72422 9.01171 5.72422 9.37234V15.038C5.72422 15.3986 5.58071 15.7445 5.32527 15.9995C5.06982 16.2545 4.72336 16.3978 4.36211 16.3978C4.00086 16.3978 3.6544 16.2545 3.39895 15.9995C3.14351 15.7445 3 15.3986 3 15.038V9.37234C3 9.01171 3.14351 8.66585 3.39895 8.41084C3.6544 8.15584 4.00086 8.01258 4.36211 8.01258C4.72336 8.01258 5.06982 8.15584 5.32527 8.41084Z" fill="white" fill-opacity="0.9"/>
<path d="M21.2165 8.41084C21.472 8.66585 21.6155 9.01171 21.6155 9.37234V15.038C21.6155 15.3986 21.472 15.7445 21.2165 15.9995C20.9611 16.2545 20.6146 16.3978 20.2534 16.3978C19.8921 16.3978 19.5457 16.2545 19.2902 15.9995C19.0348 15.7445 18.8913 15.3986 18.8913 15.038V9.37234C18.8913 9.01171 19.0348 8.66585 19.2902 8.41084C19.5457 8.15584 19.8921 8.01258 20.2534 8.01258C20.6146 8.01258 20.9611 8.15584 21.2165 8.41084Z" fill="white" fill-opacity="0.9"/>
<path d="M6.23166 17.0376V8.24586H18.3838V17.0376C18.3838 17.4266 18.2291 17.7995 17.9536 18.0745C17.6781 18.3496 17.3045 18.504 16.9149 18.504H15.94V21.5035C15.94 21.8642 15.7965 22.21 15.5411 22.465C15.2856 22.72 14.9392 22.8633 14.5779 22.8633C14.2167 22.8633 13.8702 22.72 13.6148 22.465C13.3593 22.21 13.2158 21.8642 13.2158 21.5035V18.504H11.3997V21.5035C11.3997 21.8642 11.2562 22.21 11.0007 22.465C10.7453 22.72 10.3988 22.8633 10.0376 22.8633C9.6763 22.8633 9.32985 22.72 9.0744 22.465C8.81895 22.21 8.67545 21.8642 8.67545 21.5035V18.504H7.7006C7.31102 18.504 6.93738 18.3496 6.6619 18.0745C6.38642 17.7995 6.23166 17.4266 6.23166 17.0376Z" fill="white" fill-opacity="0.9"/>
</g>
<defs>
<clipPath id="clip0_379_9382">
<rect width="24" height="24" fill="white"/>
</clipPath>
</defs>
</svg>
