<svg viewBox="0 0 16 16" fill="none" xmlns="http://www.w3.org/2000/svg">
<g clip-path="url(#clip0_339_1415)">
<path fill-rule="evenodd" clip-rule="evenodd" d="M7.98661 3.4417L12.9238 13.3328L3.04938 13.3328L7.98661 3.4417ZM7.98661 1.33551C7.71558 1.32529 7.46549 1.48087 7.35449 1.72875L1.40585 13.6394C1.29571 13.8646 1.31175 14.1312 1.4481 14.3416C1.58445 14.5519 1.82105 14.675 2.07124 14.6659L13.9286 14.6659C14.1788 14.675 14.4154 14.5519 14.5517 14.3416C14.6881 14.1312 14.7041 13.8646 14.594 13.6394L8.65201 1.72875C8.53667 1.4689 8.26945 1.31098 7.98661 1.33551ZM8.65201 10.0002L8.65201 6.66765C8.65201 6.29954 8.3541 6.00113 7.98661 6.00113C7.61912 6.00113 7.32122 6.29954 7.32122 6.66765L7.32122 10.0002C7.32122 10.3683 7.61912 10.6668 7.98661 10.6668C8.3541 10.6668 8.65201 10.3683 8.65201 10.0002ZM8.65201 11.9998C8.65201 11.6317 8.3541 11.3333 7.98661 11.3333C7.61912 11.3333 7.32122 11.6317 7.32122 11.9998C7.32122 12.3679 7.61912 12.6663 7.98661 12.6663C8.3541 12.6663 8.65201 12.3679 8.65201 11.9998Z" fill="#1C1B1F"/>
</g>
<defs>
<clipPath id="clip0_339_1415">
<rect width="16" height="16" fill="white"/>
</clipPath>
</defs>
</svg>
