<svg viewBox="0 0 16 16" fill="none" xmlns="http://www.w3.org/2000/svg">
<path d="M7.66699 1.5257C7.87313 1.40677 8.12685 1.40683 8.33301 1.5257L13.4404 4.47394C13.6466 4.59297 13.7733 4.81308 13.7734 5.05109L13.7734 10.9486C13.7734 11.1866 13.6466 11.4066 13.4404 11.5257L8.33301 14.4739C8.12681 14.5929 7.87316 14.5929 7.66699 14.4739L2.55957 11.5257C2.35352 11.4066 2.22664 11.1865 2.22656 10.9486L2.22656 5.05109C2.2267 4.81314 2.35353 4.59299 2.55957 4.47394L7.66699 1.5257ZM3.55957 5.43683L3.55957 10.5638L8 13.1273L12.4404 10.5638L12.4404 5.43683L8 2.87238L3.55957 5.43683ZM8 10.0003C8.36811 10.0003 8.66686 10.2983 8.66699 10.6663C8.66699 11.0345 8.36819 11.3333 8 11.3333C7.63186 11.3333 7.33301 11.0345 7.33301 10.6663C7.33314 10.2983 7.63194 10.0004 8 10.0003ZM8 4.66633C8.36819 4.66633 8.66699 4.96513 8.66699 5.33332V8.66633C8.66699 9.03452 8.36819 9.33332 8 9.33332C7.63186 9.33326 7.33301 9.03448 7.33301 8.66633V5.33332C7.33301 4.96516 7.63186 4.66638 8 4.66633Z" fill="#1C1B1F"/>
</svg>
