<svg viewBox="0 0 86 86" fill="none" xmlns="http://www.w3.org/2000/svg">
<path opacity="0.15" d="M54.4922 4.87305C67.172 4.87305 77.4509 15.1523 77.4512 27.832C77.4512 33.8254 75.1536 39.2814 71.3926 43.3701C76.7994 45.9628 80.5332 51.4869 80.5332 57.8838C80.5332 66.7688 73.3303 73.9717 64.4453 73.9717C60.025 73.9716 56.021 72.1885 53.1133 69.3027C47.6835 74.9976 40.023 78.5469 31.5332 78.5469C15.0678 78.5468 1.71976 65.1988 1.71973 48.7334C1.71973 32.268 15.0678 18.92 31.5332 18.9199C32.1282 18.9199 32.7192 18.9392 33.3057 18.9736C36.7725 10.6921 44.9525 4.87316 54.4922 4.87305Z" fill="white"/>
<path d="M43.1434 13.76C44.9455 13.76 46.7092 13.924 48.4207 14.2375C48.842 14.3147 49.2026 14.5978 49.3377 15.0042C50.5926 18.7777 54.9012 20.5625 58.4568 18.7815C58.8363 18.5914 59.2871 18.6442 59.6365 18.885C62.5607 20.9007 65.0971 23.4377 67.1131 26.3616C67.3542 26.7114 67.4079 27.1624 67.2176 27.5422C65.4366 31.0978 67.2216 35.4064 70.9949 36.6614C71.401 36.7964 71.6842 37.1555 71.7615 37.5764C72.0755 39.2887 72.2401 41.0537 72.2401 42.8567C72.2401 44.6592 72.0754 46.4232 71.7615 48.135C71.6843 48.5562 71.4013 48.9169 70.9949 49.052C67.2218 50.3069 65.4371 54.6147 67.2176 58.1702C67.4079 58.55 67.3542 59.001 67.1131 59.3508C65.097 62.2749 62.5599 64.8116 59.6356 66.8274C59.2864 67.068 58.836 67.1218 58.4568 66.9319C54.9012 65.1509 50.5926 66.9356 49.3377 70.7092C49.2027 71.115 48.8424 71.3977 48.4217 71.4749C46.7099 71.7887 44.9459 71.9534 43.1434 71.9534C41.34 71.9534 39.5747 71.789 37.8621 71.4749C37.4418 71.3976 37.0829 71.1147 36.9481 70.7092C35.6932 66.9356 31.3846 65.1509 27.8289 66.9319C27.4498 67.1218 26.9994 67.068 26.6502 66.8274C23.7256 64.8113 21.1878 62.2745 19.1717 59.3499C18.9308 59.0005 18.8781 58.5496 19.0682 58.1702C20.8487 54.6147 19.0641 50.3069 15.2908 49.052C14.8845 48.9169 14.6014 48.5562 14.5242 48.135C14.2106 46.4232 14.0467 44.6591 14.0467 42.8567C14.0467 41.0537 14.2104 39.2887 14.5242 37.5764C14.6015 37.1555 14.8848 36.7964 15.2908 36.6614C19.0643 35.4064 20.8492 31.0978 19.0682 27.5422C18.8781 27.1628 18.9308 26.7119 19.1717 26.3625C21.1877 23.4381 23.7248 20.901 26.6492 18.885C26.9986 18.6442 27.4495 18.5914 27.8289 18.7815C31.3846 20.5625 35.6932 18.7777 36.9481 15.0042C37.0831 14.5981 37.4422 14.3148 37.8631 14.2375C39.5754 13.9237 41.3404 13.76 43.1434 13.76Z" fill="#0F68EE"/>
<path d="M43.2868 23.22C54.2109 23.2201 63.0661 32.0761 63.0661 43.0002C63.066 53.9242 54.2108 62.7794 43.2868 62.7795C32.3627 62.7795 23.5067 53.9243 23.5065 43.0002C23.5065 32.0761 32.3626 23.22 43.2868 23.22ZM43.2868 31.2463C36.7956 31.2463 31.5329 36.5091 31.5329 43.0002C31.533 49.4913 36.7957 54.7532 43.2868 54.7532C49.7778 54.753 55.0396 49.4912 55.0397 43.0002C55.0397 36.5091 49.7779 31.2465 43.2868 31.2463Z" fill="#0C54C0"/>
<path d="M43.287 23.22C54.2111 23.2201 63.0663 32.0761 63.0663 43.0002C63.0663 43.2882 63.0589 43.5747 63.0468 43.8596C62.5963 33.3347 53.9228 24.9398 43.287 24.9397C32.6511 24.9397 23.9767 33.3346 23.5262 43.8596C23.5141 43.5747 23.5067 43.2882 23.5067 43.0002C23.5067 32.0761 32.3628 23.22 43.287 23.22Z" fill="#3F87F3"/>
<path d="M43.2866 54.5664C36.9538 54.5663 31.8198 49.4324 31.8198 43.0996C31.8198 42.9327 31.8264 42.7667 31.8334 42.6016C32.0947 48.7029 37.121 53.5693 43.2866 53.5693C49.4522 53.5693 54.4804 48.7029 54.7416 42.6016C54.7487 42.7667 54.7534 42.9327 54.7534 43.0996C54.7534 49.4325 49.6194 54.5664 43.2866 54.5664Z" fill="#3F87F3"/>
<path d="M51.2873 41.5792C51.3588 41.7784 51.4232 41.9811 51.4786 42.1876C52.189 44.839 51.4308 47.6685 49.4899 49.6095C47.5489 51.5503 44.72 52.3079 42.0687 51.5975C39.4174 50.887 37.3467 48.8164 36.6363 46.1651C35.9258 43.5137 36.6835 40.6849 38.6243 38.7439C40.5653 36.8029 43.3947 36.0447 46.0462 36.7552C46.231 36.8047 46.4128 36.8612 46.5917 36.9237C46.4522 37.0253 46.3192 37.1396 46.1933 37.2655L44.9102 38.5485C43.6022 39.8565 43.6022 41.9775 44.9102 43.2856C46.2183 44.5933 48.3387 44.5928 49.6466 43.2849L50.9296 42.0019C51.0625 41.8689 51.1814 41.7273 51.2873 41.5792Z" fill="#0F68EE"/>
<path d="M39.0811 45.5924C41.0521 45.5252 42.6677 47.141 42.6006 49.1119C42.5712 49.9745 42.2158 50.7946 41.6055 51.4049L31.3907 61.6198C30.7804 62.2301 29.9603 62.5855 29.0977 62.6149C27.1267 62.6819 25.511 61.0664 25.5782 59.0953C25.6076 58.2329 25.9632 57.4136 26.5733 56.8033L36.7891 46.5875C37.3994 45.9774 38.2187 45.6218 39.0811 45.5924Z" fill="#0F68EE"/>
<path d="M38.3953 44.1165C40.3664 44.0493 41.9823 45.6652 41.9151 47.6363C41.8857 48.4989 41.5299 49.3182 40.9196 49.9285L30.7044 60.1437C30.0941 60.754 29.2748 61.1099 28.4122 61.1393C26.4411 61.2065 24.8251 59.5905 24.8923 57.6194C24.9218 56.7568 25.2776 55.9376 25.8879 55.3273L36.1031 45.112C36.7134 44.5017 37.5327 44.1459 38.3953 44.1165Z" fill="#FFCC28"/>
<path d="M38.6218 44.3344C38.7526 44.3287 38.8822 44.3312 39.0095 44.3402L39.2087 44.5394L26.4255 57.2416C26.032 57.6326 25.3866 57.1968 25.6023 56.6859C25.6525 56.5673 25.7255 56.459 25.8162 56.3676L37.5046 44.5814C37.8575 44.4374 38.2345 44.3512 38.6218 44.3344Z" fill="#FFEBAF"/>
<path d="M37.8551 37.2003C39.796 35.2594 42.6246 34.5007 45.276 35.2111C45.4775 35.265 45.6753 35.3282 45.8698 35.3976C45.704 35.5118 45.5455 35.6417 45.3981 35.7892L44.1149 37.0724C42.8069 38.3804 42.8069 40.5017 44.1149 41.8097C45.4229 43.1176 47.5442 43.1177 48.8522 41.8097L50.1354 40.5265C50.2821 40.3797 50.4112 40.2217 50.525 40.0568C50.5935 40.2492 50.6552 40.4453 50.7086 40.6447C51.4189 43.296 50.6612 46.1247 48.7203 48.0656C46.7794 50.0064 43.9508 50.7641 41.2994 50.0538C38.648 49.3434 36.5763 47.2726 35.8658 44.6212C35.1555 41.9698 35.9142 39.1413 37.8551 37.2003Z" fill="#FFCC28"/>
<path d="M42.7941 35.3098C41.8258 35.7432 40.9294 36.3543 40.1555 37.1282C37.9222 39.3616 37.05 42.6164 37.8674 45.6672C38.1227 46.6202 38.5301 47.5086 39.0637 48.304C37.8722 47.3438 36.9895 46.0188 36.5803 44.4915C35.902 41.9602 36.6257 39.2595 38.4787 37.4065C39.6604 36.2248 41.1868 35.5023 42.7941 35.3098Z" fill="#FFEBAF"/>
<path d="M65.145 70.6633C69.6176 70.6633 73.2434 67.0376 73.2434 62.565C73.2434 58.0924 69.6176 54.4667 65.145 54.4667C60.6724 54.4667 57.0467 58.0924 57.0467 62.565C57.0467 67.0376 60.6724 70.6633 65.145 70.6633Z" fill="#093F90"/>
<path d="M65.145 60.395C65.6848 60.395 66.1225 59.9574 66.1225 59.4175C66.1225 58.8776 65.6848 58.4399 65.145 58.4399C64.6051 58.4399 64.1674 58.8776 64.1674 59.4175C64.1674 59.9574 64.6051 60.395 65.145 60.395Z" fill="#FFCC28"/>
<path d="M66.1225 62.3558C66.1225 61.816 65.6855 61.3783 65.1464 61.3783C64.6073 61.3783 64.1703 61.816 64.1703 62.3558V65.7127C64.1703 66.2526 64.6073 66.6902 65.1464 66.6902C65.6855 66.6902 66.1225 66.2526 66.1225 65.7127V62.3558Z" fill="#FFCC28"/>
</svg>
