<svg width="290" height="246" viewBox="0 0 290 246" fill="none" xmlns="http://www.w3.org/2000/svg">
<g clip-path="url(#clip0_2712_16271)">
<rect width="290" height="246" rx="8" fill="#282A32"/>
<g clip-path="url(#clip1_2712_16271)">
<g clip-path="url(#clip2_2712_16271)">
<path d="M-126 70.6458C-126 69.7197 -126 69.2566 -125.82 68.9029C-125.661 68.5917 -125.408 68.3388 -125.097 68.1802C-124.743 68 -124.28 68 -123.354 68H235.354C236.28 68 236.743 68 237.097 68.1802C237.408 68.3388 237.661 68.5917 237.82 68.9029C238 69.2566 238 69.7197 238 70.6458V290.354C238 291.28 238 291.743 237.82 292.097C237.661 292.408 237.408 292.661 237.097 292.82C236.743 293 236.28 293 235.354 293H-123.354C-124.28 293 -124.743 293 -125.097 292.82C-125.408 292.661 -125.661 292.408 -125.82 292.097C-126 291.743 -126 291.28 -126 290.354V70.6458Z" fill="#202228"/>
<rect width="362.323" height="33.0723" transform="translate(-124 68)" fill="#35363A"/>
<g opacity="0.6">
<rect x="-33.1665" y="71.3076" width="214.028" height="26.4579" rx="13.2289" fill="#202124"/>
</g>
<rect x="188.092" y="74.6143" width="19.8434" height="19.8434" rx="3.30723" fill="#515565"/>
<path d="M203.738 83.5921H202.854V79.6948H198.957V78.8115C198.957 77.9606 198.347 77.1876 197.502 77.1032C196.528 77.0057 195.709 77.7657 195.709 78.7205V79.6948H191.819V83.4622H192.721C193.572 83.4622 194.345 84.0338 194.508 84.8652C194.722 85.9824 193.871 86.9697 192.786 86.9697H191.812V90.7371H195.579V89.8277C195.579 88.9768 196.151 88.2038 196.982 88.0415C198.1 87.8271 199.087 88.678 199.087 89.7627V90.7371H202.854V86.8398H203.829C204.783 86.8398 205.543 86.0214 205.446 85.0471C205.362 84.2027 204.582 83.5921 203.738 83.5921Z" fill="white" fill-opacity="0.95"/>
<g clip-path="url(#clip3_2712_16271)">
<path fill-rule="evenodd" clip-rule="evenodd" d="M224.629 88.4498C225.5 88.4498 226.206 89.1627 226.206 90.0421C226.206 90.9214 225.5 91.6343 224.629 91.6343C223.758 91.6343 223.052 90.9214 223.052 90.0421C223.052 89.1627 223.758 88.4498 224.629 88.4498ZM224.629 82.9442C225.5 82.9442 226.206 83.657 226.206 84.5364C226.206 85.4157 225.5 86.1286 224.629 86.1286C223.758 86.1286 223.052 85.4157 223.052 84.5364C223.052 83.657 223.758 82.9442 224.629 82.9442ZM224.629 77.4385C225.5 77.4385 226.206 78.1513 226.206 79.0307C226.206 79.9101 225.5 80.6229 224.629 80.6229C223.758 80.6229 223.052 79.9101 223.052 79.0307C223.052 78.1513 223.758 77.4385 224.629 77.4385Z" fill="#9799A3"/>
</g>
<g filter="url(#filter0_dd_2712_16271)">
<rect x="2.9447" y="102.072" width="212.687" height="33.0723" rx="3.30723" fill="#1C1B1F"/>
<rect x="2.5313" y="101.659" width="213.514" height="33.8991" rx="3.72064" stroke="#414451" stroke-width="0.826808"/>
<path fill-rule="evenodd" clip-rule="evenodd" d="M16.2371 124.809C16.2552 124.809 16.2552 124.809 16.2823 124.809C16.3638 124.809 16.4271 124.746 16.4271 124.665C16.4271 124.601 16.3818 124.52 16.3004 124.52H16.2552L16.1557 124.502C14.4824 124.176 13.2432 122.685 13.2432 120.94C13.2432 120.198 13.4693 119.493 13.8582 118.923C13.9216 118.842 14.021 118.779 14.1296 118.878L16.7708 121.554C16.7889 121.573 16.8341 121.6 16.8703 121.6C16.9155 121.6 16.9517 121.582 16.9698 121.554L19.6291 118.896C19.7286 118.797 19.819 118.815 19.8733 118.914C20.2622 119.493 20.4884 120.189 20.4884 120.931C20.4884 121.862 20.1356 122.703 19.5567 123.345C19.5386 123.363 19.5115 123.39 19.4934 123.408C19.4934 123.426 19.4753 123.453 19.4753 123.471C19.4753 123.553 19.5386 123.616 19.62 123.616H19.6381C19.6562 123.616 19.6833 123.598 19.7014 123.598C23.2291 122.115 23.0662 118.607 23.0662 118.607C23.0662 116.609 22.1165 114.81 20.6512 113.679C20.5879 113.634 20.4884 113.634 20.4431 113.697L16.9788 117.206C16.9155 117.269 16.816 117.269 16.7527 117.206L13.2613 113.697C13.1979 113.634 13.1165 113.634 13.0532 113.679C11.615 114.81 10.6653 116.582 10.6653 118.607C10.6653 121.826 13.0984 124.484 16.2371 124.809Z" fill="white" fill-opacity="0.9"/>
<path d="M32.088 113.879H33.145L35.841 120.588L38.5313 113.879H39.5939L36.2479 122.108H35.4227L32.088 113.879ZM31.7433 113.879H32.6759L32.8285 118.898V122.108H31.7433V113.879ZM39.0005 113.879H39.933V122.108H38.8478V118.898L39.0005 113.879ZM45.5035 121.063V117.915C45.5035 117.673 45.4545 117.464 45.3565 117.287C45.2623 117.106 45.1192 116.967 44.927 116.869C44.7348 116.771 44.4974 116.722 44.2148 116.722C43.9511 116.722 43.7193 116.767 43.5196 116.858C43.3237 116.948 43.1692 117.067 43.0562 117.214C42.9469 117.361 42.8923 117.519 42.8923 117.689H41.8466C41.8466 117.47 41.9032 117.253 42.0162 117.039C42.1292 116.824 42.2913 116.63 42.5023 116.456C42.7171 116.279 42.9733 116.14 43.2709 116.038C43.5724 115.933 43.9077 115.88 44.277 115.88C44.7216 115.88 45.1135 115.955 45.4526 116.106C45.7955 116.257 46.063 116.485 46.2552 116.79C46.4511 117.091 46.5491 117.47 46.5491 117.926V120.775C46.5491 120.978 46.5661 121.195 46.6 121.425C46.6377 121.654 46.6923 121.852 46.7639 122.018V122.108H45.673C45.6203 121.988 45.5788 121.828 45.5487 121.628C45.5186 121.425 45.5035 121.236 45.5035 121.063ZM45.6844 118.401L45.6957 119.135H44.6387C44.3411 119.135 44.0754 119.16 43.8418 119.209C43.6082 119.254 43.4122 119.324 43.254 119.418C43.0957 119.512 42.9752 119.631 42.8923 119.774C42.8094 119.914 42.7679 120.077 42.7679 120.266C42.7679 120.458 42.8113 120.633 42.8979 120.791C42.9846 120.95 43.1146 121.076 43.2879 121.17C43.465 121.261 43.6817 121.306 43.9379 121.306C44.2582 121.306 44.5408 121.238 44.7857 121.102C45.0306 120.967 45.2247 120.801 45.3678 120.605C45.5148 120.409 45.5939 120.219 45.6052 120.034L46.0517 120.537C46.0254 120.695 45.9538 120.871 45.837 121.063C45.7201 121.255 45.5638 121.44 45.3678 121.617C45.1757 121.79 44.9458 121.935 44.6783 122.052C44.4145 122.165 44.1169 122.221 43.7853 122.221C43.3708 122.221 43.0072 122.14 42.6944 121.978C42.3855 121.816 42.1443 121.6 41.971 121.328C41.8014 121.053 41.7166 120.746 41.7166 120.407C41.7166 120.079 41.7807 119.791 41.9088 119.542C42.0369 119.29 42.2216 119.081 42.4627 118.915C42.7039 118.745 42.994 118.617 43.3331 118.531C43.6722 118.444 44.0509 118.401 44.4692 118.401H45.6844ZM49.5366 113.427V122.108H48.4853V113.427H49.5366ZM52.9706 121.023L54.5419 115.993H55.2314L55.0958 116.993L53.4962 122.108H52.8236L52.9706 121.023ZM51.9137 115.993L53.2532 121.08L53.3493 122.108H52.6428L50.8681 115.993H51.9137ZM56.7348 121.04L58.0122 115.993H59.0522L57.2774 122.108H56.5766L56.7348 121.04ZM55.384 115.993L56.9214 120.938L57.0966 122.108H56.4296L54.7849 116.982L54.6492 115.993H55.384ZM63.9387 121.063V117.915C63.9387 117.673 63.8897 117.464 63.7918 117.287C63.6976 117.106 63.5544 116.967 63.3622 116.869C63.17 116.771 62.9327 116.722 62.6501 116.722C62.3863 116.722 62.1546 116.767 61.9549 116.858C61.7589 116.948 61.6044 117.067 61.4914 117.214C61.3821 117.361 61.3275 117.519 61.3275 117.689H60.2819C60.2819 117.47 60.3384 117.253 60.4514 117.039C60.5645 116.824 60.7265 116.63 60.9375 116.456C61.1523 116.279 61.4085 116.14 61.7062 116.038C62.0076 115.933 62.343 115.88 62.7122 115.88C63.1569 115.88 63.5487 115.955 63.8879 116.106C64.2307 116.257 64.4983 116.485 64.6904 116.79C64.8864 117.091 64.9843 117.47 64.9843 117.926V120.775C64.9843 120.978 65.0013 121.195 65.0352 121.425C65.0729 121.654 65.1275 121.852 65.1991 122.018V122.108H64.1083C64.0555 121.988 64.0141 121.828 63.9839 121.628C63.9538 121.425 63.9387 121.236 63.9387 121.063ZM64.1196 118.401L64.1309 119.135H63.074C62.7763 119.135 62.5106 119.16 62.277 119.209C62.0434 119.254 61.8475 119.324 61.6892 119.418C61.531 119.512 61.4104 119.631 61.3275 119.774C61.2446 119.914 61.2031 120.077 61.2031 120.266C61.2031 120.458 61.2465 120.633 61.3331 120.791C61.4198 120.95 61.5498 121.076 61.7231 121.17C61.9002 121.261 62.1169 121.306 62.3731 121.306C62.6934 121.306 62.976 121.238 63.2209 121.102C63.4658 120.967 63.6599 120.801 63.8031 120.605C63.95 120.409 64.0292 120.219 64.0405 120.034L64.487 120.537C64.4606 120.695 64.389 120.871 64.2722 121.063C64.1554 121.255 63.999 121.44 63.8031 121.617C63.6109 121.79 63.3811 121.935 63.1135 122.052C62.8498 122.165 62.5521 122.221 62.2205 122.221C61.806 122.221 61.4424 122.14 61.1297 121.978C60.8207 121.816 60.5795 121.6 60.4062 121.328C60.2367 121.053 60.1519 120.746 60.1519 120.407C60.1519 120.079 60.2159 119.791 60.344 119.542C60.4722 119.29 60.6568 119.081 60.8979 118.915C61.1391 118.745 61.4292 118.617 61.7683 118.531C62.1075 118.444 62.4862 118.401 62.9044 118.401H64.1196ZM67.8814 116.954V122.108H66.8358V115.993H67.8531L67.8814 116.954ZM69.7918 115.959L69.7861 116.931C69.6995 116.912 69.6166 116.901 69.5374 116.897C69.4621 116.89 69.3754 116.886 69.2774 116.886C69.0363 116.886 68.8234 116.924 68.6388 116.999C68.4541 117.074 68.2978 117.18 68.1697 117.315C68.0415 117.451 67.9398 117.613 67.8644 117.802C67.7929 117.986 67.7458 118.19 67.7231 118.412L67.4292 118.582C67.4292 118.212 67.465 117.866 67.5366 117.542C67.612 117.218 67.7269 116.931 67.8814 116.682C68.0359 116.43 68.2318 116.234 68.4692 116.095C68.7104 115.951 68.9967 115.88 69.3283 115.88C69.4037 115.88 69.4903 115.889 69.5883 115.908C69.6863 115.923 69.7541 115.94 69.7918 115.959ZM73.3897 122.221C72.9639 122.221 72.5777 122.15 72.231 122.007C71.8881 121.86 71.5923 121.654 71.3437 121.391C71.0987 121.127 70.9103 120.814 70.7785 120.452C70.6466 120.091 70.5806 119.695 70.5806 119.265V119.028C70.5806 118.531 70.6541 118.088 70.8011 117.7C70.948 117.308 71.1477 116.976 71.4002 116.705C71.6526 116.434 71.939 116.228 72.2593 116.089C72.5796 115.95 72.9111 115.88 73.254 115.88C73.6911 115.88 74.0679 115.955 74.3844 116.106C74.7047 116.257 74.9666 116.468 75.1701 116.739C75.3735 117.007 75.5243 117.323 75.6222 117.689C75.7202 118.05 75.7692 118.446 75.7692 118.875V119.345H71.2024V118.491H74.7236V118.412C74.7085 118.141 74.652 117.877 74.554 117.621C74.4598 117.364 74.3091 117.153 74.1018 116.988C73.8946 116.822 73.612 116.739 73.254 116.739C73.0167 116.739 72.7981 116.79 72.5984 116.892C72.3987 116.99 72.2273 117.137 72.0841 117.332C71.9409 117.528 71.8297 117.768 71.7506 118.05C71.6715 118.333 71.6319 118.659 71.6319 119.028V119.265C71.6319 119.556 71.6715 119.829 71.7506 120.085C71.8335 120.337 71.9522 120.56 72.1067 120.752C72.2649 120.944 72.4552 121.095 72.6775 121.204C72.9036 121.313 73.1598 121.368 73.4462 121.368C73.8155 121.368 74.1282 121.293 74.3844 121.142C74.6407 120.991 74.8649 120.79 75.057 120.537L75.6901 121.04C75.5582 121.24 75.3905 121.43 75.187 121.611C74.9836 121.792 74.733 121.939 74.4353 122.052C74.1414 122.165 73.7929 122.221 73.3897 122.221ZM77.1911 113.427H78.2423V120.921L78.1519 122.108H77.1911V113.427ZM82.374 119V119.118C82.374 119.563 82.3212 119.976 82.2157 120.356C82.1102 120.733 81.9557 121.061 81.7522 121.34C81.5488 121.619 81.3001 121.835 81.0062 121.99C80.7123 122.144 80.375 122.221 79.9945 122.221C79.6064 122.221 79.2653 122.155 78.9714 122.024C78.6813 121.888 78.4364 121.694 78.2367 121.441C78.037 121.189 77.8768 120.884 77.7563 120.526C77.6395 120.168 77.5584 119.765 77.5132 119.316V118.796C77.5584 118.344 77.6395 117.939 77.7563 117.581C77.8768 117.223 78.037 116.918 78.2367 116.666C78.4364 116.409 78.6813 116.215 78.9714 116.083C79.2616 115.948 79.5988 115.88 79.9832 115.88C80.3675 115.88 80.7085 115.955 81.0062 116.106C81.3038 116.253 81.5525 116.464 81.7522 116.739C81.9557 117.014 82.1102 117.344 82.2157 117.728C82.3212 118.109 82.374 118.533 82.374 119ZM81.3227 119.118V119C81.3227 118.695 81.2944 118.408 81.2379 118.141C81.1814 117.869 81.0909 117.632 80.9666 117.429C80.8423 117.221 80.6783 117.059 80.4749 116.942C80.2714 116.822 80.0208 116.762 79.7232 116.762C79.4594 116.762 79.2296 116.807 79.0336 116.897C78.8414 116.988 78.6775 117.11 78.5419 117.265C78.4062 117.415 78.2951 117.589 78.2084 117.785C78.1255 117.977 78.0634 118.176 78.0219 118.384V119.746C78.0822 120.01 78.1802 120.264 78.3158 120.509C78.4552 120.75 78.6399 120.948 78.8697 121.102C79.1033 121.257 79.3916 121.334 79.7345 121.334C80.0171 121.334 80.2582 121.278 80.4579 121.165C80.6614 121.048 80.8253 120.888 80.9496 120.684C81.0778 120.481 81.172 120.245 81.2322 119.978C81.2925 119.71 81.3227 119.424 81.3227 119.118ZM85.5536 121.475L87.2549 115.993H88.374L85.921 123.052C85.8645 123.203 85.7891 123.365 85.6949 123.538C85.6045 123.715 85.4877 123.883 85.3445 124.041C85.2013 124.2 85.028 124.328 84.8245 124.426C84.6248 124.527 84.3855 124.578 84.1067 124.578C84.0238 124.578 83.9183 124.567 83.7902 124.544C83.6621 124.522 83.5716 124.503 83.5189 124.488L83.5132 123.64C83.5434 123.644 83.5905 123.648 83.6545 123.651C83.7224 123.659 83.7695 123.663 83.7958 123.663C84.0332 123.663 84.2348 123.631 84.4006 123.567C84.5664 123.506 84.7058 123.403 84.8188 123.256C84.9357 123.113 85.0355 122.915 85.1184 122.662L85.5536 121.475ZM84.3045 115.993L85.8927 120.741L86.164 121.843L85.4123 122.227L83.1628 115.993H84.3045ZM92.0849 115.993V116.796H88.7785V115.993H92.0849ZM89.8976 114.506H90.9432V120.594C90.9432 120.801 90.9752 120.957 91.0393 121.063C91.1033 121.168 91.1862 121.238 91.288 121.272C91.3897 121.306 91.499 121.323 91.6158 121.323C91.7025 121.323 91.7929 121.315 91.8871 121.3C91.9851 121.281 92.0585 121.266 92.1075 121.255L92.1132 122.108C92.0303 122.135 91.921 122.159 91.7854 122.182C91.6535 122.208 91.4933 122.221 91.3049 122.221C91.0487 122.221 90.8132 122.171 90.5984 122.069C90.3837 121.967 90.2122 121.798 90.0841 121.56C89.9598 121.319 89.8976 120.995 89.8976 120.588V114.506ZM96.0558 122.221C95.6301 122.221 95.2438 122.15 94.8972 122.007C94.5543 121.86 94.2585 121.654 94.0098 121.391C93.7649 121.127 93.5765 120.814 93.4446 120.452C93.3127 120.091 93.2468 119.695 93.2468 119.265V119.028C93.2468 118.531 93.3203 118.088 93.4672 117.7C93.6142 117.308 93.8139 116.976 94.0663 116.705C94.3188 116.434 94.6052 116.228 94.9254 116.089C95.2457 115.95 95.5773 115.88 95.9202 115.88C96.3573 115.88 96.7341 115.955 97.0506 116.106C97.3709 116.257 97.6328 116.468 97.8362 116.739C98.0397 117.007 98.1904 117.323 98.2884 117.689C98.3864 118.05 98.4353 118.446 98.4353 118.875V119.345H93.8685V118.491H97.3897V118.412C97.3746 118.141 97.3181 117.877 97.2202 117.621C97.126 117.364 96.9752 117.153 96.768 116.988C96.5608 116.822 96.2782 116.739 95.9202 116.739C95.6828 116.739 95.4643 116.79 95.2646 116.892C95.0649 116.99 94.8934 117.137 94.7502 117.332C94.607 117.528 94.4959 117.768 94.4168 118.05C94.3376 118.333 94.2981 118.659 94.2981 119.028V119.265C94.2981 119.556 94.3376 119.829 94.4168 120.085C94.4997 120.337 94.6184 120.56 94.7728 120.752C94.9311 120.944 95.1214 121.095 95.3437 121.204C95.5698 121.313 95.826 121.368 96.1124 121.368C96.4816 121.368 96.7944 121.293 97.0506 121.142C97.3068 120.991 97.531 120.79 97.7232 120.537L98.3562 121.04C98.2243 121.24 98.0567 121.43 97.8532 121.611C97.6497 121.792 97.3991 121.939 97.1015 122.052C96.8076 122.165 96.459 122.221 96.0558 122.221ZM103.424 120.486C103.424 120.336 103.39 120.196 103.322 120.068C103.258 119.936 103.124 119.817 102.921 119.712C102.721 119.603 102.419 119.508 102.016 119.429C101.677 119.358 101.37 119.273 101.095 119.175C100.824 119.077 100.592 118.958 100.4 118.819C100.211 118.68 100.066 118.516 99.9646 118.327C99.8629 118.139 99.812 117.918 99.812 117.666C99.812 117.425 99.8648 117.197 99.9703 116.982C100.08 116.767 100.232 116.577 100.428 116.411C100.628 116.245 100.867 116.115 101.146 116.021C101.425 115.927 101.736 115.88 102.078 115.88C102.568 115.88 102.987 115.967 103.333 116.14C103.68 116.313 103.946 116.545 104.13 116.835C104.315 117.121 104.407 117.44 104.407 117.79H103.361C103.361 117.621 103.311 117.457 103.209 117.299C103.111 117.137 102.966 117.003 102.774 116.897C102.585 116.792 102.354 116.739 102.078 116.739C101.788 116.739 101.553 116.784 101.372 116.875C101.195 116.961 101.065 117.072 100.982 117.208C100.903 117.344 100.863 117.487 100.863 117.638C100.863 117.751 100.882 117.852 100.92 117.943C100.961 118.03 101.033 118.111 101.135 118.186C101.236 118.257 101.379 118.325 101.564 118.389C101.749 118.453 101.984 118.517 102.271 118.582C102.772 118.695 103.184 118.83 103.508 118.988C103.832 119.147 104.074 119.341 104.232 119.571C104.39 119.8 104.469 120.079 104.469 120.407C104.469 120.675 104.413 120.92 104.3 121.142C104.19 121.364 104.03 121.556 103.819 121.718C103.612 121.877 103.363 122.001 103.073 122.091C102.787 122.178 102.465 122.221 102.107 122.221C101.568 122.221 101.112 122.125 100.739 121.933C100.366 121.741 100.083 121.492 99.8911 121.187C99.699 120.882 99.6029 120.56 99.6029 120.221H100.654C100.669 120.507 100.752 120.735 100.903 120.905C101.054 121.07 101.238 121.189 101.457 121.261C101.675 121.328 101.892 121.362 102.107 121.362C102.393 121.362 102.632 121.325 102.825 121.249C103.02 121.174 103.169 121.07 103.271 120.938C103.373 120.807 103.424 120.656 103.424 120.486ZM112.219 118.259H110.133L110.122 117.383H112.015C112.328 117.383 112.601 117.331 112.835 117.225C113.069 117.12 113.25 116.969 113.378 116.773C113.51 116.573 113.575 116.336 113.575 116.061C113.575 115.759 113.517 115.514 113.4 115.326C113.287 115.134 113.112 114.994 112.875 114.908C112.641 114.817 112.343 114.772 111.982 114.772H110.376V122.108H109.286V113.879H111.982C112.404 113.879 112.78 113.922 113.112 114.009C113.444 114.092 113.724 114.224 113.954 114.405C114.188 114.582 114.365 114.808 114.485 115.083C114.606 115.358 114.666 115.688 114.666 116.072C114.666 116.411 114.58 116.718 114.406 116.993C114.233 117.265 113.992 117.487 113.683 117.66C113.378 117.834 113.02 117.945 112.609 117.994L112.219 118.259ZM112.168 122.108H109.704L110.32 121.221H112.168C112.515 121.221 112.809 121.161 113.05 121.04C113.295 120.92 113.481 120.75 113.609 120.531C113.737 120.309 113.802 120.047 113.802 119.746C113.802 119.441 113.747 119.177 113.638 118.955C113.528 118.732 113.357 118.561 113.123 118.44C112.89 118.32 112.588 118.259 112.219 118.259H110.665L110.676 117.383H112.801L113.033 117.7C113.429 117.734 113.764 117.847 114.039 118.039C114.314 118.227 114.523 118.469 114.666 118.762C114.813 119.056 114.887 119.38 114.887 119.735C114.887 120.247 114.774 120.68 114.548 121.035C114.325 121.385 114.011 121.652 113.604 121.837C113.197 122.018 112.718 122.108 112.168 122.108ZM117.592 116.954V122.108H116.546V115.993H117.563L117.592 116.954ZM119.502 115.959L119.496 116.931C119.41 116.912 119.327 116.901 119.248 116.897C119.172 116.89 119.086 116.886 118.988 116.886C118.747 116.886 118.534 116.924 118.349 116.999C118.164 117.074 118.008 117.18 117.88 117.315C117.752 117.451 117.65 117.613 117.575 117.802C117.503 117.986 117.456 118.19 117.433 118.412L117.139 118.582C117.139 118.212 117.175 117.866 117.247 117.542C117.322 117.218 117.437 116.931 117.592 116.682C117.746 116.43 117.942 116.234 118.179 116.095C118.421 115.951 118.707 115.88 119.039 115.88C119.114 115.88 119.201 115.889 119.299 115.908C119.396 115.923 119.464 115.94 119.502 115.959ZM120.285 119.118V118.988C120.285 118.548 120.349 118.139 120.477 117.762C120.605 117.381 120.79 117.052 121.031 116.773C121.272 116.49 121.564 116.272 121.907 116.117C122.25 115.959 122.635 115.88 123.06 115.88C123.49 115.88 123.876 115.959 124.219 116.117C124.566 116.272 124.86 116.49 125.101 116.773C125.346 117.052 125.532 117.381 125.66 117.762C125.788 118.139 125.852 118.548 125.852 118.988V119.118C125.852 119.559 125.788 119.968 125.66 120.345C125.532 120.722 125.346 121.051 125.101 121.334C124.86 121.613 124.568 121.831 124.225 121.99C123.886 122.144 123.501 122.221 123.072 122.221C122.642 122.221 122.256 122.144 121.913 121.99C121.57 121.831 121.276 121.613 121.031 121.334C120.79 121.051 120.605 120.722 120.477 120.345C120.349 119.968 120.285 119.559 120.285 119.118ZM121.331 118.988V119.118C121.331 119.424 121.367 119.712 121.438 119.983C121.51 120.251 121.617 120.488 121.76 120.695C121.907 120.903 122.09 121.067 122.309 121.187C122.527 121.304 122.781 121.362 123.072 121.362C123.358 121.362 123.609 121.304 123.823 121.187C124.042 121.067 124.223 120.903 124.366 120.695C124.509 120.488 124.617 120.251 124.688 119.983C124.763 119.712 124.801 119.424 124.801 119.118V118.988C124.801 118.687 124.763 118.403 124.688 118.135C124.617 117.864 124.507 117.624 124.36 117.417C124.217 117.206 124.036 117.04 123.818 116.92C123.603 116.799 123.35 116.739 123.06 116.739C122.774 116.739 122.522 116.799 122.303 116.92C122.088 117.04 121.907 117.206 121.76 117.417C121.617 117.624 121.51 117.864 121.438 118.135C121.367 118.403 121.331 118.687 121.331 118.988ZM128.919 121.023L130.49 115.993H131.18L131.044 116.993L129.445 122.108H128.772L128.919 121.023ZM127.862 115.993L129.202 121.08L129.298 122.108H128.591L126.816 115.993H127.862ZM132.683 121.04L133.961 115.993H135.001L133.226 122.108H132.525L132.683 121.04ZM131.332 115.993L132.87 120.938L133.045 122.108H132.378L130.733 116.982L130.598 115.993H131.332ZM139.842 120.486C139.842 120.336 139.808 120.196 139.74 120.068C139.676 119.936 139.542 119.817 139.339 119.712C139.139 119.603 138.838 119.508 138.435 119.429C138.095 119.358 137.788 119.273 137.513 119.175C137.242 119.077 137.01 118.958 136.818 118.819C136.63 118.68 136.485 118.516 136.383 118.327C136.281 118.139 136.23 117.918 136.23 117.666C136.23 117.425 136.283 117.197 136.389 116.982C136.498 116.767 136.65 116.577 136.846 116.411C137.046 116.245 137.285 116.115 137.564 116.021C137.843 115.927 138.154 115.88 138.497 115.88C138.987 115.88 139.405 115.967 139.752 116.14C140.098 116.313 140.364 116.545 140.548 116.835C140.733 117.121 140.825 117.44 140.825 117.79H139.78C139.78 117.621 139.729 117.457 139.627 117.299C139.529 117.137 139.384 117.003 139.192 116.897C139.004 116.792 138.772 116.739 138.497 116.739C138.207 116.739 137.971 116.784 137.79 116.875C137.613 116.961 137.483 117.072 137.4 117.208C137.321 117.344 137.282 117.487 137.282 117.638C137.282 117.751 137.3 117.852 137.338 117.943C137.38 118.03 137.451 118.111 137.553 118.186C137.655 118.257 137.798 118.325 137.982 118.389C138.167 118.453 138.403 118.517 138.689 118.582C139.19 118.695 139.603 118.83 139.927 118.988C140.251 119.147 140.492 119.341 140.65 119.571C140.808 119.8 140.888 120.079 140.888 120.407C140.888 120.675 140.831 120.92 140.718 121.142C140.609 121.364 140.449 121.556 140.238 121.718C140.03 121.877 139.782 122.001 139.492 122.091C139.205 122.178 138.883 122.221 138.525 122.221C137.986 122.221 137.53 122.125 137.157 121.933C136.784 121.741 136.502 121.492 136.309 121.187C136.117 120.882 136.021 120.56 136.021 120.221H137.072C137.088 120.507 137.17 120.735 137.321 120.905C137.472 121.07 137.656 121.189 137.875 121.261C138.094 121.328 138.31 121.362 138.525 121.362C138.811 121.362 139.051 121.325 139.243 121.249C139.439 121.174 139.588 121.07 139.689 120.938C139.791 120.807 139.842 120.656 139.842 120.486ZM145.005 122.221C144.58 122.221 144.193 122.15 143.847 122.007C143.504 121.86 143.208 121.654 142.959 121.391C142.715 121.127 142.526 120.814 142.394 120.452C142.262 120.091 142.196 119.695 142.196 119.265V119.028C142.196 118.531 142.27 118.088 142.417 117.7C142.564 117.308 142.763 116.976 143.016 116.705C143.268 116.434 143.555 116.228 143.875 116.089C144.195 115.95 144.527 115.88 144.87 115.88C145.307 115.88 145.684 115.955 146 116.106C146.32 116.257 146.582 116.468 146.786 116.739C146.989 117.007 147.14 117.323 147.238 117.689C147.336 118.05 147.385 118.446 147.385 118.875V119.345H142.818V118.491H146.339V118.412C146.324 118.141 146.268 117.877 146.17 117.621C146.076 117.364 145.925 117.153 145.718 116.988C145.51 116.822 145.228 116.739 144.87 116.739C144.632 116.739 144.414 116.79 144.214 116.892C144.014 116.99 143.843 117.137 143.7 117.332C143.557 117.528 143.445 117.768 143.366 118.05C143.287 118.333 143.248 118.659 143.248 119.028V119.265C143.248 119.556 143.287 119.829 143.366 120.085C143.449 120.337 143.568 120.56 143.722 120.752C143.881 120.944 144.071 121.095 144.293 121.204C144.519 121.313 144.776 121.368 145.062 121.368C145.431 121.368 145.744 121.293 146 121.142C146.256 120.991 146.481 120.79 146.673 120.537L147.306 121.04C147.174 121.24 147.006 121.43 146.803 121.611C146.599 121.792 146.349 121.939 146.051 122.052C145.757 122.165 145.409 122.221 145.005 122.221ZM149.858 116.954V122.108H148.812V115.993H149.83L149.858 116.954ZM151.768 115.959L151.763 116.931C151.676 116.912 151.593 116.901 151.514 116.897C151.439 116.89 151.352 116.886 151.254 116.886C151.013 116.886 150.8 116.924 150.615 116.999C150.431 117.074 150.274 117.18 150.146 117.315C150.018 117.451 149.917 117.613 149.841 117.802C149.77 117.986 149.722 118.19 149.7 118.412L149.406 118.582C149.406 118.212 149.442 117.866 149.513 117.542C149.589 117.218 149.704 116.931 149.858 116.682C150.013 116.43 150.209 116.234 150.446 116.095C150.687 115.951 150.973 115.88 151.305 115.88C151.38 115.88 151.467 115.889 151.565 115.908C151.663 115.923 151.731 115.94 151.768 115.959ZM162.259 118.011V121.023C162.158 121.174 161.996 121.343 161.773 121.532C161.551 121.717 161.244 121.879 160.852 122.018C160.464 122.154 159.963 122.221 159.349 122.221C158.847 122.221 158.386 122.135 157.964 121.961C157.546 121.784 157.182 121.528 156.873 121.193C156.568 120.854 156.33 120.443 156.161 119.961C155.995 119.475 155.912 118.924 155.912 118.31V117.672C155.912 117.057 155.984 116.509 156.127 116.027C156.274 115.545 156.489 115.136 156.771 114.8C157.054 114.461 157.401 114.205 157.811 114.032C158.222 113.855 158.693 113.766 159.224 113.766C159.854 113.766 160.379 113.875 160.801 114.094C161.227 114.309 161.559 114.606 161.796 114.987C162.037 115.367 162.192 115.801 162.259 116.287H161.169C161.12 115.989 161.022 115.718 160.875 115.473C160.731 115.228 160.526 115.032 160.259 114.885C159.991 114.734 159.646 114.659 159.224 114.659C158.844 114.659 158.514 114.729 158.235 114.868C157.956 115.008 157.727 115.207 157.546 115.467C157.365 115.727 157.229 116.042 157.139 116.411C157.052 116.78 157.009 117.197 157.009 117.66V118.31C157.009 118.785 157.063 119.209 157.173 119.582C157.286 119.955 157.446 120.273 157.653 120.537C157.86 120.797 158.107 120.995 158.393 121.131C158.684 121.266 159.004 121.334 159.354 121.334C159.742 121.334 160.057 121.302 160.298 121.238C160.539 121.17 160.728 121.091 160.863 121.001C160.999 120.906 161.103 120.818 161.174 120.735V118.892H159.27V118.011H162.259ZM167.858 120.695V115.993H168.909V122.108H167.909L167.858 120.695ZM168.056 119.407L168.491 119.395C168.491 119.802 168.448 120.179 168.361 120.526C168.278 120.869 168.143 121.166 167.954 121.419C167.766 121.671 167.519 121.869 167.214 122.012C166.909 122.152 166.537 122.221 166.1 122.221C165.803 122.221 165.529 122.178 165.281 122.091C165.036 122.005 164.825 121.871 164.648 121.69C164.471 121.509 164.333 121.274 164.235 120.984C164.141 120.694 164.094 120.345 164.094 119.938V115.993H165.14V119.949C165.14 120.224 165.17 120.452 165.23 120.633C165.294 120.81 165.379 120.952 165.484 121.057C165.594 121.159 165.714 121.23 165.846 121.272C165.982 121.313 166.121 121.334 166.264 121.334C166.709 121.334 167.061 121.249 167.321 121.08C167.581 120.906 167.768 120.675 167.881 120.385C167.998 120.091 168.056 119.765 168.056 119.407ZM174.316 121.063V117.915C174.316 117.673 174.267 117.464 174.169 117.287C174.075 117.106 173.932 116.967 173.739 116.869C173.547 116.771 173.31 116.722 173.027 116.722C172.764 116.722 172.532 116.767 172.332 116.858C172.136 116.948 171.982 117.067 171.869 117.214C171.759 117.361 171.705 117.519 171.705 117.689H170.659C170.659 117.47 170.716 117.253 170.829 117.039C170.942 116.824 171.104 116.63 171.315 116.456C171.53 116.279 171.786 116.14 172.083 116.038C172.385 115.933 172.72 115.88 173.089 115.88C173.534 115.88 173.926 115.955 174.265 116.106C174.608 116.257 174.876 116.485 175.068 116.79C175.264 117.091 175.362 117.47 175.362 117.926V120.775C175.362 120.978 175.379 121.195 175.412 121.425C175.45 121.654 175.505 121.852 175.576 122.018V122.108H174.486C174.433 121.988 174.391 121.828 174.361 121.628C174.331 121.425 174.316 121.236 174.316 121.063ZM174.497 118.401L174.508 119.135H173.451C173.154 119.135 172.888 119.16 172.654 119.209C172.421 119.254 172.225 119.324 172.066 119.418C171.908 119.512 171.788 119.631 171.705 119.774C171.622 119.914 171.58 120.077 171.58 120.266C171.58 120.458 171.624 120.633 171.71 120.791C171.797 120.95 171.927 121.076 172.1 121.17C172.277 121.261 172.494 121.306 172.75 121.306C173.071 121.306 173.353 121.238 173.598 121.102C173.843 120.967 174.037 120.801 174.18 120.605C174.327 120.409 174.406 120.219 174.418 120.034L174.864 120.537C174.838 120.695 174.766 120.871 174.649 121.063C174.533 121.255 174.376 121.44 174.18 121.617C173.988 121.79 173.758 121.935 173.491 122.052C173.227 122.165 172.929 122.221 172.598 122.221C172.183 122.221 171.82 122.14 171.507 121.978C171.198 121.816 170.957 121.6 170.783 121.328C170.614 121.053 170.529 120.746 170.529 120.407C170.529 120.079 170.593 119.791 170.721 119.542C170.849 119.29 171.034 119.081 171.275 118.915C171.516 118.745 171.806 118.617 172.146 118.531C172.485 118.444 172.863 118.401 173.282 118.401H174.497ZM178.259 116.954V122.108H177.213V115.993H178.23L178.259 116.954ZM180.169 115.959L180.163 116.931C180.077 116.912 179.994 116.901 179.915 116.897C179.839 116.89 179.753 116.886 179.655 116.886C179.414 116.886 179.201 116.924 179.016 116.999C178.831 117.074 178.675 117.18 178.547 117.315C178.419 117.451 178.317 117.613 178.242 117.802C178.17 117.986 178.123 118.19 178.1 118.412L177.806 118.582C177.806 118.212 177.842 117.866 177.914 117.542C177.989 117.218 178.104 116.931 178.259 116.682C178.413 116.43 178.609 116.234 178.846 116.095C179.088 115.951 179.374 115.88 179.706 115.88C179.781 115.88 179.868 115.889 179.966 115.908C180.064 115.923 180.131 115.94 180.169 115.959ZM185.084 120.921V113.427H186.135V122.108H185.174L185.084 120.921ZM180.969 119.118V119C180.969 118.533 181.026 118.109 181.139 117.728C181.256 117.344 181.419 117.014 181.63 116.739C181.845 116.464 182.1 116.253 182.393 116.106C182.691 115.955 183.023 115.88 183.388 115.88C183.773 115.88 184.108 115.948 184.394 116.083C184.684 116.215 184.929 116.409 185.129 116.666C185.333 116.918 185.493 117.223 185.609 117.581C185.726 117.939 185.807 118.344 185.853 118.796V119.316C185.811 119.765 185.73 120.168 185.609 120.526C185.493 120.884 185.333 121.189 185.129 121.441C184.929 121.694 184.684 121.888 184.394 122.024C184.104 122.155 183.765 122.221 183.377 122.221C183.019 122.221 182.691 122.144 182.393 121.99C182.1 121.835 181.845 121.619 181.63 121.34C181.419 121.061 181.256 120.733 181.139 120.356C181.026 119.976 180.969 119.563 180.969 119.118ZM182.02 119V119.118C182.02 119.424 182.051 119.71 182.111 119.978C182.175 120.245 182.273 120.481 182.405 120.684C182.537 120.888 182.704 121.048 182.908 121.165C183.111 121.278 183.354 121.334 183.637 121.334C183.984 121.334 184.268 121.261 184.49 121.114C184.716 120.967 184.897 120.773 185.033 120.531C185.169 120.29 185.274 120.028 185.349 119.746V118.384C185.304 118.176 185.238 117.977 185.152 117.785C185.069 117.589 184.959 117.415 184.824 117.265C184.692 117.11 184.528 116.988 184.332 116.897C184.14 116.807 183.912 116.762 183.648 116.762C183.362 116.762 183.115 116.822 182.908 116.942C182.704 117.059 182.537 117.221 182.405 117.429C182.273 117.632 182.175 117.869 182.111 118.141C182.051 118.408 182.02 118.695 182.02 119Z" fill="white" fill-opacity="0.8"/>
<rect x="191.788" y="108.687" width="19.8434" height="19.8434" rx="3.30723" fill="#282A32"/>
<path d="M205.017 114.475H204.19V118.608L205.844 121.089V121.915H202.537V125.223L201.709 126.05L200.883 125.223V121.915H197.576V121.089L199.229 118.608V114.475H198.403V112.82H205.017V114.475Z" fill="#7A95E3"/>
</g>
</g>
<g filter="url(#filter1_d_2712_16271)">
<path fill-rule="evenodd" clip-rule="evenodd" d="M211.141 131.704C211.14 131.136 210.693 130.676 210.141 130.676C209.589 130.676 209.141 131.137 209.141 131.706V132.735L209.141 133.507C209.141 133.649 209.029 133.764 208.891 133.764C208.753 133.764 208.641 133.649 208.641 133.507V132.735H208.641V127.588C208.641 127.019 208.193 126.559 207.641 126.559C207.089 126.559 206.641 127.019 206.641 127.588V132.735V134.794V136.085L205.875 134.665C205.607 134.167 204.998 133.988 204.515 134.264C204.032 134.54 203.858 135.166 204.126 135.664L206.89 140.791C207.183 141.334 207.722 141.648 208.285 141.667C208.692 141.88 209.153 142 209.641 142H213.141C214.798 142 216.141 140.617 216.141 138.912V134.806L216.141 134.794V132.735C216.141 132.167 215.693 131.706 215.141 131.706C214.589 131.706 214.141 132.167 214.141 132.735L214.141 133.507C214.141 133.649 214.029 133.764 213.891 133.764C213.753 133.764 213.641 133.649 213.641 133.507L213.641 132.735V131.706L213.641 131.704C213.64 131.136 213.193 130.676 212.641 130.676C212.089 130.676 211.641 131.137 211.641 131.706V132.735L211.641 133.507C211.641 133.649 211.529 133.764 211.391 133.764C211.253 133.764 211.141 133.649 211.141 133.507V131.704Z" fill="url(#paint0_linear_2712_16271)"/>
</g>
<path fill-rule="evenodd" clip-rule="evenodd" d="M211.641 131.706C211.641 131.705 211.641 131.705 211.641 131.704C211.641 131.704 211.641 131.705 211.641 131.704C211.641 131.392 211.777 131.111 211.991 130.923C212.166 130.769 212.393 130.676 212.641 130.676C213.097 130.676 213.482 130.991 213.602 131.42C213.627 131.51 213.641 131.606 213.641 131.704V133.507C213.641 133.649 213.753 133.765 213.891 133.765C214.029 133.765 214.141 133.649 214.141 133.507L214.141 132.735C214.141 132.354 214.342 132.021 214.641 131.843C214.788 131.756 214.959 131.706 215.141 131.706C215.693 131.706 216.141 132.167 216.141 132.735V134.794L216.141 134.806V138.912C216.141 140.617 214.798 142 213.141 142H209.641C209.153 142 208.692 141.88 208.285 141.667C207.722 141.648 207.183 141.334 206.89 140.791L204.126 135.664C203.858 135.167 204.032 134.54 204.515 134.264C204.887 134.052 205.333 134.109 205.641 134.373C205.733 134.452 205.813 134.55 205.875 134.665L206.641 136.086V127.588C206.641 127.02 207.088 126.559 207.641 126.559C208.193 126.559 208.641 127.02 208.641 127.588V132.735L208.641 133.507C208.641 133.649 208.753 133.765 208.891 133.765C209.029 133.765 209.141 133.649 209.141 133.507L209.141 131.706C209.141 131.325 209.342 130.992 209.641 130.814C209.788 130.726 209.959 130.676 210.141 130.676C210.389 130.676 210.616 130.769 210.79 130.923C211.005 131.112 211.14 131.392 211.141 131.704V133.507C211.141 133.649 211.253 133.765 211.391 133.765C211.529 133.765 211.641 133.649 211.641 133.507L211.641 131.706ZM211.391 130.099C211.733 129.816 212.168 129.647 212.641 129.647C213.432 129.647 214.116 130.12 214.44 130.806C214.658 130.722 214.894 130.676 215.141 130.676C216.245 130.676 217.141 131.598 217.141 132.735V134.8L217.141 134.809V138.912C217.141 141.186 215.35 143.029 213.141 143.029H209.641C209.066 143.029 208.518 142.904 208.022 142.678C207.207 142.577 206.446 142.089 206.016 141.29L203.252 136.163C202.716 135.169 203.064 133.916 204.03 133.364C204.542 133.071 205.126 133.035 205.641 133.214V127.588C205.641 126.451 206.536 125.529 207.641 125.529C208.745 125.529 209.641 126.451 209.641 127.588V129.712C209.801 129.669 209.968 129.647 210.141 129.647C210.614 129.647 211.048 129.816 211.391 130.099Z" fill="#1C1B1F"/>
</g>
<rect x="-8.47926" y="67.5207" width="246.959" height="225.959" rx="9.47926" stroke="#414451" stroke-width="0.958525"/>
</g>
<rect x="0.5" y="0.5" width="289" height="245" rx="7.5" stroke="#414451"/>
<defs>
<filter id="filter0_dd_2712_16271" x="-6.9725" y="95.4647" width="232.521" height="52.9074" filterUnits="userSpaceOnUse" color-interpolation-filters="sRGB">
<feFlood flood-opacity="0" result="BackgroundImageFix"/>
<feColorMatrix in="SourceAlpha" type="matrix" values="0 0 0 0 0 0 0 0 0 0 0 0 0 0 0 0 0 0 127 0" result="hardAlpha"/>
<feOffset dy="0.826808"/>
<feGaussianBlur stdDeviation="1.24021"/>
<feColorMatrix type="matrix" values="0 0 0 0 0 0 0 0 0 0 0 0 0 0 0 0 0 0 0.01 0"/>
<feBlend mode="normal" in2="BackgroundImageFix" result="effect1_dropShadow_2712_16271"/>
<feColorMatrix in="SourceAlpha" type="matrix" values="0 0 0 0 0 0 0 0 0 0 0 0 0 0 0 0 0 0 127 0" result="hardAlpha"/>
<feMorphology radius="2.48042" operator="dilate" in="SourceAlpha" result="effect2_dropShadow_2712_16271"/>
<feOffset dy="3.31"/>
<feGaussianBlur stdDeviation="3.305"/>
<feColorMatrix type="matrix" values="0 0 0 0 0 0 0 0 0 0 0 0 0 0 0 0 0 0 0.08 0"/>
<feBlend mode="normal" in2="effect1_dropShadow_2712_16271" result="effect2_dropShadow_2712_16271"/>
<feBlend mode="normal" in="SourceGraphic" in2="effect2_dropShadow_2712_16271" result="shape"/>
</filter>
<filter id="filter1_d_2712_16271" x="203" y="126.559" width="14.1406" height="17.4414" filterUnits="userSpaceOnUse" color-interpolation-filters="sRGB">
<feFlood flood-opacity="0" result="BackgroundImageFix"/>
<feColorMatrix in="SourceAlpha" type="matrix" values="0 0 0 0 0 0 0 0 0 0 0 0 0 0 0 0 0 0 127 0" result="hardAlpha"/>
<feOffset dy="1"/>
<feGaussianBlur stdDeviation="0.5"/>
<feComposite in2="hardAlpha" operator="out"/>
<feColorMatrix type="matrix" values="0 0 0 0 0 0 0 0 0 0 0 0 0 0 0 0 0 0 0.1 0"/>
<feBlend mode="normal" in2="BackgroundImageFix" result="effect1_dropShadow_2712_16271"/>
<feBlend mode="normal" in="SourceGraphic" in2="effect1_dropShadow_2712_16271" result="shape"/>
</filter>
<linearGradient id="paint0_linear_2712_16271" x1="210.071" y1="126.559" x2="210.071" y2="142" gradientUnits="userSpaceOnUse">
<stop offset="0.353422" stop-color="white"/>
<stop offset="1" stop-color="#E7E7E7"/>
</linearGradient>
<clipPath id="clip0_2712_16271">
<rect width="290" height="246" rx="8" fill="white"/>
</clipPath>
<clipPath id="clip1_2712_16271">
<rect x="-8" y="68" width="246" height="225" rx="9" fill="white"/>
</clipPath>
<clipPath id="clip2_2712_16271">
<path d="M-126 70.6458C-126 69.7197 -126 69.2566 -125.82 68.9029C-125.661 68.5917 -125.408 68.3388 -125.097 68.1802C-124.743 68 -124.28 68 -123.354 68H235.354C236.28 68 236.743 68 237.097 68.1802C237.408 68.3388 237.661 68.5917 237.82 68.9029C238 69.2566 238 69.7197 238 70.6458V290.354C238 291.28 238 291.743 237.82 292.097C237.661 292.408 237.408 292.661 237.097 292.82C236.743 293 236.28 293 235.354 293H-123.354C-124.28 293 -124.743 293 -125.097 292.82C-125.408 292.661 -125.661 292.408 -125.82 292.097C-126 291.743 -126 291.28 -126 290.354V70.6458Z" fill="white"/>
</clipPath>
<clipPath id="clip3_2712_16271">
<rect width="18.9277" height="18.9277" fill="white" transform="translate(215.165 75.0723)"/>
</clipPath>
</defs>
</svg>
