<svg width="183" height="177" viewBox="0 0 183 177" fill="none" xmlns="http://www.w3.org/2000/svg">
    <path opacity="0.5" d="M118.5 0C145.286 0 167 21.7142 167 48.5C167 57.0232 164.798 65.0312 160.938 71.9912C174.39 82.805 183 99.3969 183 118C183 150.585 156.585 177 124 177C106.41 177 90.619 169.303 79.8096 157.093C72.0406 161.489 63.0637 164 53.5 164C23.9528 164 0 140.047 0 110.5C0 80.9528 23.9528 57 53.5 57C59.773 57 65.7937 58.0799 71.3867 60.0635C70.4803 56.3578 70 52.485 70 48.5C70 21.7142 91.7142 2.0619e-06 118.5 0Z" fill="#414451"/>
    <path d="M37.1426 60.7874C37.1426 54.5381 40.6856 48.8292 46.2855 46.0554L88.3024 25.2429C92.9007 22.9652 98.2987 22.9652 102.897 25.2429L144.914 46.0554C150.514 48.8292 154.057 54.5381 154.057 60.7874V81.7112C154.057 108.477 140.108 133.307 117.25 147.232L101.302 156.948C97.7997 159.081 93.3997 159.081 89.8976 156.948L73.9491 147.232C51.0913 133.307 37.1426 108.477 37.1426 81.7112V60.7874Z" fill="#3D65D6"/>
    <path d="M41.9922 56.642C43.2243 55.4188 44.6613 54.381 46.268 53.5851L88.3161 32.7572C92.9056 30.4838 98.2934 30.4838 102.883 32.7572L144.931 53.5851C146.537 54.3808 147.974 55.4184 149.206 56.6412C147.67 53.2121 144.974 50.3458 141.478 48.6244L102.848 29.6027C98.2776 27.3522 92.921 27.3521 88.3505 29.6027L49.7209 48.6244C46.2248 50.3459 43.5278 53.2125 41.9922 56.642Z" fill="#3F87F3"/>
    <path fill-rule="evenodd" clip-rule="evenodd" d="M73.3795 47.6084C73.3795 46.8532 73.9917 46.241 74.7469 46.241H122.05C131.92 46.241 140.383 52.8931 140.383 61.6244C140.383 70.3558 131.92 77.0079 122.05 77.0079H48.0823C47.3271 77.0079 46.7148 76.3957 46.7148 75.6405C46.7148 74.8853 47.3271 74.273 48.0823 74.273H122.05C130.922 74.273 137.648 68.3796 137.648 61.6244C137.648 54.8692 130.922 48.9758 122.05 48.9758H74.7469C73.9917 48.9758 73.3795 48.3636 73.3795 47.6084Z" fill="#3F87F3"/>
    <path fill-rule="evenodd" clip-rule="evenodd" d="M101.387 140.806L89.6614 140.806C79.791 140.806 71.3282 134.154 71.3282 125.422C71.3282 116.691 79.791 110.039 89.6614 110.039L135.939 110.039C136.694 110.039 137.306 110.651 137.306 111.406C137.306 112.161 136.694 112.774 135.939 112.774L89.6614 112.774C80.7892 112.774 74.063 118.667 74.063 125.422C74.063 132.177 80.7892 138.071 89.6614 138.071L101.387 138.071C102.142 138.071 102.754 138.683 102.754 139.438C102.754 140.193 102.142 140.806 101.387 140.806Z" fill="#3F87F3"/>
    <path d="M138.354 64.2502C136.091 64.2502 134.249 62.4084 134.249 60.1454C134.249 57.8824 136.091 56.0405 138.354 56.0405C140.617 56.0405 142.459 57.8824 142.459 60.1454C142.459 62.4084 140.617 64.2502 138.354 64.2502Z" fill="#0F68EE"/>
    <path fill-rule="evenodd" clip-rule="evenodd" d="M138.354 57.4078C136.846 57.4078 135.616 58.6374 135.616 60.1453C135.616 61.6531 136.846 62.8827 138.354 62.8827C139.861 62.8827 141.091 61.6531 141.091 60.1453C141.091 58.6374 139.861 57.4078 138.354 57.4078ZM132.881 60.1453C132.881 57.127 135.335 54.673 138.354 54.673C141.372 54.673 143.826 57.127 143.826 60.1453C143.826 63.1635 141.372 65.6175 138.354 65.6175C135.335 65.6175 132.881 63.1635 132.881 60.1453Z" fill="#3F87F3"/>
    <path d="M56.9701 79.9545C54.7071 79.9545 52.8652 78.1126 52.8652 75.8496C52.8652 73.5866 54.7071 71.7448 56.9701 71.7448C59.2331 71.7448 61.0749 73.5866 61.0749 75.8496C61.0749 78.1126 59.2331 79.9545 56.9701 79.9545Z" fill="#0F68EE"/>
    <path fill-rule="evenodd" clip-rule="evenodd" d="M56.9703 73.112C55.4625 73.112 54.2329 74.3417 54.2329 75.8495C54.2329 77.3573 55.4625 78.5869 56.9703 78.5869C58.4781 78.5869 59.7078 77.3573 59.7078 75.8495C59.7078 74.3417 58.4781 73.112 56.9703 73.112ZM51.498 75.8495C51.498 72.8312 53.9521 70.3772 56.9703 70.3772C59.9886 70.3772 62.4426 72.8312 62.4426 75.8495C62.4426 78.8677 59.9886 81.3218 56.9703 81.3218C53.9521 81.3218 51.498 78.8677 51.498 75.8495Z" fill="#3F87F3"/>
    <path fill-rule="evenodd" clip-rule="evenodd" d="M53.5518 93.4164C53.5518 92.6612 54.164 92.049 54.9192 92.049H139.015V94.7838H54.9192C54.164 94.7838 53.5518 94.1716 53.5518 93.4164Z" fill="#3F87F3"/>
    <path d="M72.6984 120.082C74.9614 120.082 76.8032 121.923 76.8032 124.186C76.8032 126.449 74.9614 128.291 72.6984 128.291C70.4353 128.291 68.5935 126.449 68.5935 124.186C68.5935 121.923 70.4353 120.082 72.6984 120.082Z" fill="#0F68EE"/>
    <path fill-rule="evenodd" clip-rule="evenodd" d="M72.6986 126.924C74.2064 126.924 75.4361 125.694 75.4361 124.187C75.4361 122.679 74.2064 121.449 72.6986 121.449C71.1908 121.449 69.9612 122.679 69.9612 124.187C69.9612 125.694 71.1908 126.924 72.6986 126.924ZM78.1709 124.187C78.1709 127.205 75.7169 129.659 72.6986 129.659C69.6804 129.659 67.2263 127.205 67.2263 124.187C67.2263 121.168 69.6804 118.714 72.6986 118.714C75.7169 118.714 78.1709 121.168 78.1709 124.187Z" fill="#3F87F3"/>
    <path d="M136.965 97.5245C134.702 97.5245 132.86 95.6827 132.86 93.4197C132.86 91.1567 134.702 89.3148 136.965 89.3148C139.228 89.3148 141.07 91.1567 141.07 93.4197C141.07 95.6827 139.228 97.5245 136.965 97.5245Z" fill="#0F68EE"/>
    <path fill-rule="evenodd" clip-rule="evenodd" d="M136.964 90.6822C135.457 90.6822 134.227 91.9118 134.227 93.4197C134.227 94.9275 135.457 96.1571 136.964 96.1571C138.472 96.1571 139.702 94.9275 139.702 93.4197C139.702 91.9118 138.472 90.6822 136.964 90.6822ZM131.492 93.4197C131.492 90.4014 133.946 87.9474 136.964 87.9474C139.983 87.9474 142.437 90.4014 142.437 93.4197C142.437 96.4379 139.983 98.8919 136.964 98.8919C133.946 98.8919 131.492 96.4379 131.492 93.4197Z" fill="#3F87F3"/>
    <path d="M68.8127 113.981L62.7595 81.6356C62.4549 80.0079 64.259 78.8159 65.6368 79.7344L77.9323 87.9314C78.7907 88.5037 79.9505 88.2732 80.5248 87.416L93.6026 67.8969C94.3438 66.7907 95.9705 66.7907 96.7117 67.8969L109.79 87.416C110.364 88.2732 111.524 88.5037 112.382 87.9314L124.678 79.7344C126.055 78.8159 127.859 80.0079 127.555 81.6356L121.502 113.981C121.17 115.752 119.624 117.035 117.823 117.035H72.4913C70.6899 117.035 69.1441 115.752 68.8127 113.981Z" fill="#0C54C0"/>
    <circle cx="95.6" cy="57.0564" r="2.65714" fill="#0C54C0"/>
    <circle cx="127.486" cy="70.3422" r="2.65714" fill="#0C54C0"/>
    <circle cx="63.7143" cy="70.3422" r="2.65714" fill="#0C54C0"/>
    <path d="M68.8127 108.368L62.7595 76.0221C62.4549 74.3944 64.259 73.2024 65.6368 74.1209L77.9323 82.3179C78.7907 82.8902 79.9505 82.6597 80.5248 81.8025L93.6026 62.2834C94.3438 61.1771 95.9705 61.1771 96.7117 62.2834L109.79 81.8025C110.364 82.6597 111.524 82.8902 112.382 82.3179L124.678 74.1209C126.055 73.2024 127.859 74.3944 127.555 76.0221L121.502 108.368C121.17 110.139 119.624 111.422 117.823 111.422H72.4913C70.6899 111.422 69.1441 110.139 68.8127 108.368Z" fill="#FFCC28"/>
    <path d="M72.2459 106.367L67.0622 80.847C66.8975 80.0362 67.789 79.4263 68.485 79.8738L78.6533 86.4105C79.3313 86.8464 79.7892 87.5526 79.9104 88.3493L82.6667 106.462C82.8391 107.595 81.9624 108.615 80.8168 108.615H74.9966C73.6618 108.615 72.5116 107.675 72.2459 106.367Z" fill="#FFE9A6"/>
    <path d="M118.536 106.367L123.73 80.7999C123.893 79.996 123.016 79.3861 122.319 79.8187L111.726 86.3941C111.01 86.8384 110.532 87.5806 110.423 88.4159L108.064 106.502C107.917 107.622 108.789 108.615 109.919 108.615H115.786C117.12 108.615 118.271 107.675 118.536 106.367Z" fill="#E4AE02"/>
    <circle cx="95.6" cy="55.2851" r="2.65714" fill="#FFCC28"/>
    <circle cx="127.486" cy="68.5708" r="2.65714" fill="#FFCC28"/>
    <circle cx="63.7143" cy="68.5708" r="2.65714" fill="#FFCC28"/>
    <path d="M163.886 96.1061C168.365 96.1061 172 99.6428 172 104H131C131.385 99.176 135.53 95.8161 140.583 95.8161C141.906 95.8161 143.164 96.0707 144.313 96.5447C144.735 91.756 149.01 88 153.888 88C158.767 88 162.795 91.5367 163.413 96.1202C163.573 96.1061 163.726 96.1061 163.886 96.1061H163.886Z" fill="#F6F7F7"/>
    <path d="M81.2414 145.257C81.2493 145.07 81.2571 144.883 81.2571 144.696C81.2571 139.055 76.6242 134.488 70.9178 134.488C70.7126 134.488 70.5153 134.488 70.3179 134.504C69.5287 128.574 64.3985 124 58.1712 124C51.9439 124 46.5059 128.862 45.9692 135.049C44.509 134.442 42.8989 134.106 41.2099 134.106C34.7616 134.106 29.4893 139.023 29 145.257H81.2414Z" fill="#F6F7F7"/>
    <path d="M104.556 64L105.091 66.6373C105.577 69.0424 107.353 70.9182 109.62 71.4335L112.111 72L109.62 72.5665C107.349 73.0818 105.577 74.9623 105.091 77.3627L104.556 80L104.021 77.3627C103.534 74.9576 101.758 73.0818 99.4907 72.5665L97 72L99.4907 71.4335C101.762 70.9182 103.534 69.0377 104.021 66.6373L104.556 64Z" fill="white"/>
</svg>
