<svg viewBox="0 0 290 246" fill="none" xmlns="http://www.w3.org/2000/svg">
<g clip-path="url(#clip0_2712_18241)">
<rect width="290" height="246" rx="8" fill="#282A32"/>
<rect x="14.5" y="15.2646" width="261.347" height="239.235" rx="8.89829" fill="#282A32" stroke="#515565"/>
<path d="M15 24.1629C15 19.5247 18.76 15.7646 23.3983 15.7646H266.949C271.587 15.7646 275.347 19.5247 275.347 24.1629V31.5071H15V24.1629Z" fill="#414451"/>
<rect x="125.228" y="141.986" width="38.8421" height="6.29872" rx="3.14936" fill="#8ED788"/>
<rect x="33.3713" y="163.506" width="66.1365" height="74.5348" rx="8.92318" stroke="#515565" stroke-width="1.04979"/>
<circle cx="66.4394" cy="189.226" r="16.7966" fill="#414451"/>
<rect width="16.7966" height="16.7966" transform="translate(58.0413 180.828)" fill="#414451"/>
<path d="M73.3449 183.094C73.4065 183.254 73.4381 183.425 73.4381 183.596V194.787C73.4381 195.56 72.8114 196.187 72.0384 196.187C71.8381 196.187 71.6401 196.144 71.4578 196.06L68.4257 194.678C68.2113 195.176 67.716 195.525 67.1393 195.525H65.0398C64.2667 195.525 63.6401 194.898 63.6401 194.125V192.497L62.6043 192.025L60.8406 192.026C60.0676 192.026 59.4409 191.399 59.4409 190.626V187.127C59.4409 186.354 60.0676 185.727 60.8406 185.727L62.5938 185.726L71.5362 182.29C72.2578 182.013 73.0675 182.373 73.3449 183.094ZM72.0384 183.596L63.6401 186.824V190.959L72.0384 194.787V183.596ZM65.0398 193.135V194.125H67.1393V194.092L65.0398 193.135ZM62.2403 187.127H60.8406V190.626H62.2403V187.127Z" fill="white" fill-opacity="0.9"/>
<rect x="53.2122" y="214.421" width="26.4546" height="14.697" rx="7.3485" fill="#7A95E3"/>
<circle cx="72.3183" cy="221.769" r="5.14395" fill="white"/>
<rect x="112.63" y="163.506" width="66.1365" height="74.5348" rx="8.92318" stroke="#515565" stroke-width="1.04979"/>
<circle cx="145.698" cy="189.226" r="16.7966" fill="#414451"/>
<g clip-path="url(#clip1_2712_18241)">
<rect width="16.7966" height="16.7966" transform="translate(137.3 180.828)" fill="#414451"/>
<path d="M147.798 182.228C148.184 182.228 148.497 182.541 148.497 182.928V185.027C148.497 185.108 148.481 185.185 148.455 185.258C148.466 185.318 148.477 185.379 148.484 185.44L148.498 185.728C149.271 185.728 149.898 186.354 149.898 187.127H151.297V186.077C151.297 185.691 151.611 185.377 151.997 185.377C152.384 185.377 152.697 185.691 152.697 186.077V187.826C152.697 188.213 152.384 188.526 151.997 188.526H149.898V189.927H151.997C152.384 189.927 152.697 190.24 152.697 190.627C152.696 191.013 152.384 191.326 151.997 191.326H149.898V192.026C149.898 192.265 149.876 192.498 149.838 192.726H151.997C152.384 192.726 152.696 193.039 152.697 193.425V195.175C152.697 195.561 152.384 195.875 151.997 195.875C151.611 195.875 151.297 195.561 151.297 195.175V194.125H149.334C148.608 195.38 147.253 196.226 145.698 196.226C144.144 196.226 142.788 195.38 142.062 194.125H140.1V195.175C140.1 195.561 139.786 195.875 139.4 195.875C139.013 195.875 138.699 195.561 138.699 195.175V193.425C138.7 193.038 139.013 192.726 139.4 192.726H141.558C141.52 192.498 141.499 192.265 141.499 192.026V191.326H139.4C139.013 191.326 138.7 191.013 138.699 190.627C138.699 190.24 139.013 189.927 139.4 189.927H141.499V188.526H139.4C139.013 188.526 138.699 188.213 138.699 187.826V186.077C138.699 185.691 139.013 185.377 139.4 185.377C139.786 185.377 140.1 185.691 140.1 186.077V187.127H141.499C141.499 186.402 142.05 185.806 142.756 185.734L142.899 185.728C142.899 185.568 142.915 185.412 142.941 185.26C142.915 185.187 142.899 185.109 142.899 185.027V182.928C142.899 182.541 143.212 182.228 143.599 182.228C143.985 182.228 144.298 182.541 144.298 182.928V183.306C144.71 183.067 145.188 182.928 145.698 182.928C146.209 182.928 146.686 183.066 147.098 183.305V182.928C147.098 182.541 147.412 182.228 147.798 182.228ZM142.899 192.026C142.899 193.572 144.152 194.825 145.698 194.825C147.244 194.825 148.497 193.572 148.497 192.026V187.127H142.899V192.026ZM145.698 184.327C144.925 184.327 144.299 184.954 144.299 185.728H147.098C147.098 184.955 146.471 184.327 145.698 184.327Z" fill="white" fill-opacity="0.9"/>
</g>
<rect x="132.471" y="214.421" width="26.4546" height="14.697" rx="7.3485" fill="#7A95E3"/>
<circle cx="151.577" cy="221.769" r="5.14395" fill="white"/>
<rect x="191.889" y="163.506" width="66.1365" height="74.5348" rx="8.92318" stroke="#515565" stroke-width="1.04979"/>
<circle cx="224.957" cy="189.226" r="16.7966" fill="#414451"/>
<g clip-path="url(#clip2_2712_18241)">
<rect width="16.7966" height="16.7966" transform="translate(216.559 180.828)" fill="#414451"/>
<path fill-rule="evenodd" clip-rule="evenodd" d="M222.158 182.228C222.544 182.228 222.857 182.541 222.857 182.927V183.627H230.539C231.321 183.627 231.956 184.262 231.956 185.044V193.408C231.956 194.191 231.321 194.825 230.539 194.825H219.375C218.593 194.825 217.958 194.191 217.958 193.408V185.044C217.958 184.262 218.593 183.627 219.375 183.627H221.458V182.927C221.458 182.541 221.771 182.228 222.158 182.228ZM230.556 185.027H219.358V193.425H230.556V185.027ZM228.379 186.243C228.429 186.305 228.456 186.383 228.456 186.464V189.226C228.456 191.159 226.89 192.725 224.957 192.725C223.024 192.725 221.458 191.159 221.458 189.226V187.127C221.458 186.74 221.771 186.427 222.158 186.427C222.517 186.427 222.812 186.697 222.853 187.045L222.857 187.127V189.226C222.857 190.386 223.798 191.326 224.957 191.326C226.117 191.326 227.057 190.386 227.057 189.226L227.056 188.526H225.967C225.771 188.526 225.613 188.368 225.613 188.172C225.613 188.064 225.662 187.963 225.746 187.895L227.881 186.187C228.034 186.065 228.257 186.09 228.379 186.243Z" fill="white" fill-opacity="0.4"/>
</g>
<rect x="211.73" y="214.421" width="26.4546" height="14.697" rx="7.3485" fill="#515565"/>
<circle cx="220.023" cy="221.664" r="5.14395" fill="white"/>
<g filter="url(#filter0_d_2712_18241)">
<path fill-rule="evenodd" clip-rule="evenodd" d="M238.752 220.409C238.751 219.812 238.282 219.329 237.702 219.329C237.123 219.329 236.653 219.813 236.653 220.41V221.491L236.653 222.301C236.653 222.451 236.535 222.571 236.39 222.571C236.245 222.571 236.128 222.451 236.128 222.301V221.491H236.128V216.087C236.128 215.491 235.658 215.007 235.078 215.007C234.498 215.007 234.028 215.491 234.028 216.087V221.491V223.652V225.008L233.224 223.516C232.943 222.995 232.304 222.806 231.797 223.096C231.29 223.385 231.107 224.043 231.388 224.565L234.29 229.947C234.597 230.518 235.163 230.848 235.754 230.868C236.182 231.091 236.665 231.217 237.177 231.217H240.852C242.591 231.217 244.001 229.765 244.001 227.975V223.664L244.001 223.652V221.491C244.001 220.894 243.531 220.41 242.951 220.41C242.372 220.41 241.902 220.894 241.902 221.491L241.902 222.301C241.902 222.451 241.784 222.571 241.639 222.571C241.494 222.571 241.377 222.451 241.377 222.301L241.377 221.491V220.41L241.377 220.409C241.376 219.812 240.906 219.329 240.327 219.329C239.747 219.329 239.277 219.813 239.277 220.41V221.491L239.277 222.301C239.277 222.451 239.16 222.571 239.015 222.571C238.87 222.571 238.752 222.451 238.752 222.301V220.409Z" fill="url(#paint0_linear_2712_18241)"/>
</g>
<path fill-rule="evenodd" clip-rule="evenodd" d="M239.277 220.411C239.277 220.41 239.277 220.41 239.277 220.409C239.277 220.409 239.277 220.409 239.277 220.409C239.278 220.081 239.42 219.787 239.645 219.589C239.828 219.428 240.067 219.33 240.327 219.33C240.806 219.33 241.209 219.66 241.336 220.111C241.362 220.206 241.376 220.306 241.377 220.409V222.302C241.377 222.451 241.494 222.572 241.639 222.572C241.784 222.572 241.902 222.451 241.902 222.302L241.902 221.491C241.902 221.091 242.113 220.742 242.426 220.555C242.581 220.463 242.76 220.411 242.951 220.411C243.531 220.411 244.001 220.895 244.001 221.491V223.653L244.001 223.665V227.975C244.001 229.766 242.591 231.217 240.852 231.217H237.177C236.665 231.217 236.182 231.091 235.754 230.868C235.163 230.848 234.597 230.519 234.29 229.948L231.388 224.566C231.107 224.044 231.29 223.386 231.797 223.096C232.187 222.874 232.655 222.934 232.978 223.211C233.075 223.294 233.159 223.397 233.224 223.517L234.028 225.009V216.088C234.028 215.491 234.498 215.007 235.078 215.007C235.658 215.007 236.128 215.491 236.128 216.088V221.491L236.128 222.302C236.128 222.451 236.245 222.572 236.39 222.572C236.535 222.572 236.653 222.451 236.653 222.302L236.653 220.411C236.653 220.011 236.864 219.662 237.177 219.475C237.332 219.383 237.511 219.33 237.702 219.33C237.963 219.33 238.201 219.428 238.384 219.589C238.609 219.787 238.752 220.081 238.752 220.409V222.302C238.752 222.451 238.87 222.572 239.015 222.572C239.16 222.572 239.277 222.451 239.277 222.302L239.277 220.411ZM239.015 218.723C239.374 218.427 239.83 218.249 240.327 218.249C241.157 218.249 241.875 218.746 242.216 219.466C242.445 219.378 242.693 219.33 242.951 219.33C244.111 219.33 245.051 220.298 245.051 221.491V223.659L245.051 223.668V227.975C245.051 230.363 243.171 232.298 240.852 232.298H237.177C236.574 232.298 235.999 232.167 235.478 231.929C234.623 231.823 233.824 231.31 233.372 230.472L230.47 225.09C229.908 224.046 230.273 222.731 231.287 222.152C231.825 221.844 232.438 221.806 232.978 221.994V216.088C232.978 214.894 233.918 213.927 235.078 213.927C236.237 213.927 237.177 214.894 237.177 216.088V218.318C237.345 218.273 237.521 218.249 237.702 218.249C238.199 218.249 238.655 218.427 239.015 218.723Z" fill="#1C1B1F"/>
<path d="M102.373 57.0551L103.537 52.6309H104.765L104.329 54.8488L103.176 58.9296H102.192L102.373 57.0551ZM101.913 52.6309L102.635 57.0202L102.716 58.9296H101.523L100.033 52.6309H101.913ZM105.802 56.927L106.529 52.6309H108.41L106.931 58.9296H105.738L105.802 56.927ZM104.905 52.6309L106.081 57.0435L106.262 58.9296H105.266L104.137 54.8604L103.718 52.6309H104.905Z" fill="#515565"/>
<path d="M111.134 57.0551L112.299 52.6309H113.527L113.09 54.8488L111.938 58.9296H110.954L111.134 57.0551ZM110.675 52.6309L111.396 57.0202L111.478 58.9296H110.285L108.794 52.6309H110.675ZM114.563 56.927L115.291 52.6309H117.171L115.693 58.9296H114.499L114.563 56.927ZM113.667 52.6309L114.843 57.0435L115.023 58.9296H114.028L112.898 54.8604L112.479 52.6309H113.667Z" fill="#515565"/>
<path d="M119.896 57.0551L121.06 52.6309H122.289L121.852 54.8488L120.699 58.9296H119.716L119.896 57.0551ZM119.436 52.6309L120.158 57.0202L120.239 58.9296H119.046L117.556 52.6309H119.436ZM123.325 56.927L124.052 52.6309H125.933L124.454 58.9296H123.261L123.325 56.927ZM122.428 52.6309L123.604 57.0435L123.785 58.9296H122.789L121.66 54.8604L121.241 52.6309H122.428Z" fill="#515565"/>
<rect x="129.082" y="52.6309" width="52.4893" height="6.29872" rx="3.14936" fill="#515565"/>
<path d="M145.615 77.499V118.84" stroke="black" stroke-width="0.62794"/>
<path d="M147.335 72.1299C145.864 71.401 144.136 71.401 142.665 72.1299L123.689 81.5332C121.899 82.4205 120.766 84.2457 120.766 86.2441V93.8594C120.766 106.207 127.2 117.662 137.744 124.088L142.264 126.843C143.944 127.867 146.056 127.867 147.736 126.843L152.256 124.088C162.8 117.662 169.234 106.207 169.234 93.8594V86.2441C169.234 84.2457 168.101 82.4205 166.311 81.5332L147.335 72.1299Z" fill="#515565" stroke="#747784" stroke-width="0.46923"/>
<path d="M165.534 88.4368C165.562 87.0051 164.776 85.6806 163.506 85.0188L147.131 76.4878C146.087 75.9441 144.85 75.9189 143.786 76.4196L127.088 84.2761C125.792 84.8856 124.955 86.177 124.927 87.6087L124.798 94.1334C124.591 104.645 129.877 114.509 138.746 120.162L143.234 123.023C144.027 123.529 145.036 123.549 145.848 123.076L150.445 120.401C159.529 115.114 165.199 105.473 165.406 94.9615L165.534 88.4368Z" fill="#414451"/>
<path d="M150.527 98.1232C150.916 98.5864 150.856 99.277 150.392 99.6657L145.372 103.879C145.487 104.214 145.55 104.574 145.55 104.949C145.55 106.763 144.08 108.233 142.266 108.233C140.452 108.233 138.981 106.763 138.981 104.949C138.981 103.135 140.452 101.664 142.266 101.664C142.906 101.664 143.503 101.847 144.008 102.164L148.985 97.9883C149.448 97.5996 150.139 97.66 150.527 98.1232ZM133.507 91.9634C139.56 85.9198 149.367 85.9198 155.404 91.9634L152.276 95.0947C147.959 90.7734 140.952 90.7734 136.635 95.0947L133.507 91.9634Z" fill="#8ED788"/>
</g>
<rect x="0.5" y="0.5" width="289" height="245" rx="7.5" stroke="#414451"/>
<defs>
<filter id="filter0_d_2712_18241" x="230.206" y="215.007" width="14.8447" height="18.3095" filterUnits="userSpaceOnUse" color-interpolation-filters="sRGB">
<feFlood flood-opacity="0" result="BackgroundImageFix"/>
<feColorMatrix in="SourceAlpha" type="matrix" values="0 0 0 0 0 0 0 0 0 0 0 0 0 0 0 0 0 0 127 0" result="hardAlpha"/>
<feOffset dy="1.04979"/>
<feGaussianBlur stdDeviation="0.524893"/>
<feComposite in2="hardAlpha" operator="out"/>
<feColorMatrix type="matrix" values="0 0 0 0 0 0 0 0 0 0 0 0 0 0 0 0 0 0 0.1 0"/>
<feBlend mode="normal" in2="BackgroundImageFix" result="effect1_dropShadow_2712_18241"/>
<feBlend mode="normal" in="SourceGraphic" in2="effect1_dropShadow_2712_18241" result="shape"/>
</filter>
<linearGradient id="paint0_linear_2712_18241" x1="237.629" y1="215.007" x2="237.629" y2="231.217" gradientUnits="userSpaceOnUse">
<stop offset="0.353422" stop-color="white"/>
<stop offset="1" stop-color="#E7E7E7"/>
</linearGradient>
<clipPath id="clip0_2712_18241">
<rect width="290" height="246" rx="8" fill="white"/>
</clipPath>
<clipPath id="clip1_2712_18241">
<rect width="16.7966" height="16.7966" fill="white" transform="translate(137.3 180.828)"/>
</clipPath>
<clipPath id="clip2_2712_18241">
<rect width="16.7966" height="16.7966" fill="white" transform="translate(216.559 180.828)"/>
</clipPath>
</defs>
</svg>
