<svg viewBox="0 0 25 24" fill="none" xmlns="http://www.w3.org/2000/svg">
<path fill-rule="evenodd" clip-rule="evenodd" d="M12.2408 1L22.25 3.79224L22.2315 5.94698L22.2205 6.58885C22.1959 7.83661 22.1512 9.02603 22.0864 10.1078L22.0619 10.4993C22.0535 10.6276 22.0449 10.7536 22.0359 10.8773L21.9789 11.5926C21.9588 11.822 21.9376 12.0423 21.9151 12.2536L21.844 12.8603L21.7653 13.4126C21.6827 13.9377 21.5883 14.3811 21.4803 14.7425C20.8271 16.9317 19.381 18.8292 17.2745 20.4105C16.3374 21.1083 15.3337 21.7101 14.2845 22.2038C13.875 22.3982 13.4577 22.5756 13.0337 22.7354L12.332 23L11.6282 22.7409C11.1975 22.5824 10.7734 22.4063 10.3644 22.2166C9.29435 21.7258 8.27481 21.1298 7.31348 20.4321C5.15719 18.8528 3.67643 16.9479 3.01691 14.7415C2.87364 14.2597 2.75402 13.6324 2.65433 12.86L2.58325 12.2535C2.56076 12.0423 2.53946 11.822 2.51929 11.5927L2.46211 10.8775L2.41136 10.1081C2.34627 9.00728 2.30135 7.81219 2.27812 6.59167L2.2668 5.9471L2.25 3.79268L12.2408 1ZM12.2413 3.05776L4.25793 5.28929L4.26444 5.91972L4.27551 6.55009C4.29789 7.72501 4.34104 8.8975 4.40577 9.9922L4.45174 10.6918L4.50335 11.346C4.51243 11.4512 4.52174 11.5543 4.53129 11.6554L4.59142 12.2371L4.65728 12.7674C4.73746 13.3549 4.82936 13.8322 4.9332 14.1814C5.47501 15.994 6.73365 17.5449 8.50054 18.8389C9.3482 19.4541 10.2534 19.9833 11.2032 20.419C11.5704 20.5892 11.9441 20.7444 12.3236 20.8841C12.6957 20.7438 13.062 20.5881 13.4216 20.4174C14.3558 19.9777 15.2446 19.4449 16.0747 18.8268C17.7953 17.5352 19.0251 15.9883 19.5646 14.1806C19.639 13.9314 19.7072 13.6168 19.7694 13.2433L19.8411 12.7671L19.9069 12.2369L19.967 11.6551L20.0213 11.0243C20.0299 10.9152 20.0382 10.8041 20.0463 10.6912L20.092 9.99138C20.1575 8.8975 20.1999 7.7242 20.223 6.55009C20.2315 6.12987 20.2374 5.70959 20.2406 5.28929L12.2413 3.05776ZM13.4437 13.5126C13.175 14.4108 12.7687 15.2462 12.25 16C11.7313 15.2462 11.325 14.4108 11.0563 13.5126H13.4437ZM9.76876 13.5126C9.96876 14.2977 10.2563 15.0515 10.6313 15.7487C9.48126 15.353 8.52501 14.5553 7.92501 13.5126H9.76876ZM16.575 13.5126C15.975 14.549 15.0187 15.353 13.8687 15.7487C14.2437 15.0515 14.5312 14.2977 14.7312 13.5126H16.575ZM9.52501 9.74372C9.47501 10.1583 9.43751 10.5729 9.43751 11C9.43751 11.4271 9.47501 11.8417 9.52501 12.2563H7.41252C7.31252 11.8543 7.25002 11.4334 7.25002 11C7.25002 10.5666 7.31252 10.1457 7.41252 9.74372H9.52501ZM13.7125 9.74372C13.7687 10.152 13.8125 10.5729 13.8125 11C13.8125 11.4271 13.7687 11.8417 13.7125 12.2563H10.7875C10.7313 11.8417 10.6875 11.4271 10.6875 11C10.6875 10.5729 10.7313 10.152 10.7875 9.74372H13.7125ZM17.0875 9.74372C17.1875 10.1457 17.25 10.5666 17.25 11C17.25 11.4334 17.1875 11.8543 17.0875 12.2563H14.975C15.025 11.8417 15.0625 11.4271 15.0625 11C15.0625 10.5729 15.025 10.1583 14.975 9.74372H17.0875ZM13.8687 6.25126C15.0187 6.64699 15.975 7.451 16.575 8.48744H14.7312C14.5312 7.70226 14.2437 6.94849 13.8687 6.25126ZM12.25 6C12.7687 6.75377 13.175 7.5892 13.4437 8.48744H11.0563C11.325 7.5892 11.7313 6.75377 12.25 6ZM10.6313 6.25126C10.2563 6.94849 9.96876 7.70226 9.76876 8.48744H7.92501C8.52501 7.44472 9.48126 6.64699 10.6313 6.25126Z" fill="white" fill-opacity="0.8"/>
</svg>
