<svg viewBox="0 0 97 110" fill="none" xmlns="http://www.w3.org/2000/svg">
<path d="M49.3515 12.0879V91.8681" stroke="black" stroke-width="1.20879"/>
<path d="M52.5728 1.6543C49.7762 0.293038 46.509 0.292946 43.7124 1.6543L6.23977 19.8955C2.75779 21.5905 0.548363 25.1244 0.548363 28.9971V43.4062C0.548367 67.3661 13.1317 89.5656 33.689 101.873L42.9439 107.414C46.1451 109.33 50.1412 109.33 53.3423 107.414L62.5972 101.873C83.1543 89.5656 95.7368 67.366 95.7368 43.4062V28.9971C95.7368 25.1244 93.5274 21.5905 90.0454 19.8955L52.5728 1.6543Z" fill="#515565" stroke="#747784" stroke-width="0.903273"/>
<path d="M88.4774 33.2196C88.533 30.4453 87.0007 27.8824 84.5306 26.6181L52.218 10.0798C50.2341 9.06439 47.8934 9.0175 45.8704 9.95265L12.9213 25.1835C10.4025 26.3478 8.7688 28.8472 8.71322 31.6216L8.46579 43.9716C8.05714 64.3685 18.3906 83.4813 35.6809 94.3091L44.7574 99.9931C46.2679 100.939 48.1764 100.977 49.7237 100.093L59.0205 94.7767C76.7307 84.6501 87.8213 65.9665 88.23 45.5697L88.4774 33.2196Z" fill="#414451"/>
<path d="M32.0972 54.6145C32.8453 53.7228 34.1747 53.6065 35.0663 54.3547L44.6462 62.3921C45.6184 61.7825 46.7682 61.43 48.0004 61.43C51.4922 61.43 54.3229 64.2607 54.3229 67.7525C54.3229 71.2443 51.4922 74.075 48.0004 74.075C44.5086 74.075 41.6779 71.2443 41.6779 67.7525C41.6779 67.0316 41.7986 66.3388 42.0208 65.6933L32.3569 57.5836C31.4653 56.8354 31.349 55.5061 32.0972 54.6145ZM25.8086 41.6389C38.0774 29.3893 57.9551 29.3893 70.1936 41.6403L71.3096 42.7574L63.054 51.0215L61.9357 49.9021C54.2436 42.2021 41.7572 42.2021 34.0651 49.9021L32.9468 51.0215L24.6898 42.756L25.8086 41.6389ZM66.3658 42.3981C55.8367 33.3513 40.1913 33.3513 29.6376 42.3994L29.191 42.7892L32.9866 46.5869L33.2827 46.3312C41.7663 39.1774 54.2344 39.1774 62.7181 46.3312L63.0121 46.5869L66.8077 42.7871L66.3658 42.3981Z" fill="#F06666"/>
</svg>
