<svg viewBox="0 0 16 16" fill="none" xmlns="http://www.w3.org/2000/svg">
<path d="M10.0002 1.3335C10.3683 1.33367 10.6663 1.63241 10.6663 2.00049V4.00049C10.6662 4.07785 10.6505 4.15114 10.6262 4.22021C10.6507 4.36549 10.6662 4.51425 10.6663 4.6665L10.803 4.67334C11.4753 4.74163 12.0002 5.31014 12.0002 6.00049H13.3333V5.00049C13.3333 4.6323 13.6321 4.3335 14.0002 4.3335C14.3683 4.33367 14.6663 4.63241 14.6663 5.00049V6.6665C14.6663 7.03459 14.3683 7.33332 14.0002 7.3335H12.0002V8.6665H14.0002C14.3683 8.66668 14.6663 8.96541 14.6663 9.3335C14.6663 9.70158 14.3683 10.0003 14.0002 10.0005H12.0002V10.6665C12.0002 10.8938 11.979 11.1166 11.9426 11.3335H14.0002C14.3683 11.3337 14.6663 11.6324 14.6663 12.0005V13.6665C14.6663 14.0346 14.3683 14.3333 14.0002 14.3335C13.6321 14.3335 13.3333 14.0347 13.3333 13.6665V12.6665H11.4641C10.7725 13.862 9.48065 14.6664 8.00024 14.6665C6.51982 14.6665 5.22804 13.8619 4.53638 12.6665H2.66626V13.6665C2.66626 14.0346 2.36828 14.3333 2.00024 14.3335C1.63205 14.3335 1.33325 14.0347 1.33325 13.6665V12.0005C1.33325 11.6323 1.63205 11.3335 2.00024 11.3335H4.05688C4.02048 11.1166 4.00024 10.8937 4.00024 10.6665V10.0005H2.00024C1.63205 10.0005 1.33325 9.70169 1.33325 9.3335C1.33325 8.96531 1.63205 8.6665 2.00024 8.6665H4.00024V7.3335H2.00024C1.63205 7.3335 1.33325 7.03469 1.33325 6.6665V5.00049C1.33325 4.6323 1.63205 4.3335 2.00024 4.3335C2.36828 4.33367 2.66626 4.63241 2.66626 5.00049V6.00049H4.00024C4.00024 5.31025 4.52436 4.74178 5.19653 4.67334L5.33325 4.6665C5.33327 4.51361 5.34856 4.36412 5.37329 4.21826C5.34943 4.14971 5.33329 4.07716 5.33325 4.00049V2.00049C5.33325 1.6323 5.63205 1.3335 6.00024 1.3335C6.36828 1.33367 6.66626 1.63241 6.66626 2.00049V2.35889C7.05874 2.1316 7.51407 2.00049 8.00024 2.00049C8.48619 2.00055 8.94092 2.13174 9.33325 2.35889V2.00049C9.33325 1.6323 9.63205 1.3335 10.0002 1.3335ZM5.33325 10.6665C5.33325 12.1393 6.52748 13.3335 8.00024 13.3335C9.47285 13.3333 10.6663 12.1392 10.6663 10.6665V6.00049H5.33325V10.6665ZM8.00024 3.3335C7.26397 3.3335 6.66644 3.93027 6.66626 4.6665H9.33325C9.33308 3.93038 8.73637 3.33367 8.00024 3.3335Z" fill="#F06666"/>
</svg>
