<svg viewBox="0 0 41 41" fill="none" xmlns="http://www.w3.org/2000/svg">
<path d="M20.668 40.5C31.7137 40.5 40.668 31.5457 40.668 20.5C40.668 9.4543 31.7137 0.5 20.668 0.5C9.62227 0.5 0.667969 9.4543 0.667969 20.5C0.667969 31.5457 9.62227 40.5 20.668 40.5Z" fill="#2F372F"/>
<g clip-path="url(#clip0_179_2249)">
<path fill-rule="evenodd" clip-rule="evenodd" d="M27.6606 23.5C28.2028 23.5 28.6462 23.9321 28.6603 24.4741C28.7282 27.0901 28.3624 28.5 26.8823 28.5H24.3914C23.8062 28.5 23.4867 28.1897 23.23 27.7185C23.1553 27.5814 22.857 26.8989 22.7641 26.7285C22.4832 26.2128 22.1972 26 21.6671 26C21.1379 26 20.8519 26.2128 20.5709 26.7285C20.4781 26.8989 20.1798 27.5814 20.1051 27.7185C19.8697 28.1504 19.5817 28.4472 19.0845 28.4936L18.9436 28.5H16.4528C14.9727 28.5 14.6069 27.0901 14.6748 24.4741C14.6878 23.9708 15.0711 23.5623 15.5599 23.5065L15.6745 23.5H27.6606ZM19.668 25.5H16.668C16.668 26.0523 17.3395 26.5 18.168 26.5C18.9964 26.5 19.668 26.0523 19.668 25.5ZM26.668 25.5H23.668C23.668 26.0523 24.3395 26.5 25.168 26.5C25.9964 26.5 26.668 26.0523 26.668 25.5ZM21.668 14.4167C23.1173 13.244 24.6017 13.1512 25.8576 14.3473C26.957 15.3943 27.8024 17.4289 28.4797 20.4996L29.668 20.5C30.2203 20.5 30.668 20.9477 30.668 21.5C30.668 22.0523 30.2203 22.5 29.668 22.5H13.668C13.1157 22.5 12.668 22.0523 12.668 21.5C12.668 20.9477 13.1157 20.5 13.668 20.5L14.8563 20.4996C15.5336 17.4289 16.3789 15.3943 17.4783 14.3473C18.7342 13.1512 20.2187 13.244 21.668 14.4167ZM22.5382 16.3222L22.399 16.4681L21.668 17.2513L20.9369 16.4681C19.942 15.402 19.3893 15.2892 18.8576 15.7956C18.1581 16.4618 17.4843 18.0431 16.9078 20.499H26.4281C25.8516 18.0431 25.1779 16.4618 24.4783 15.7956C23.972 15.3133 23.4466 15.3927 22.5382 16.3222Z" fill="#8ED788"/>
</g>
<defs>
<clipPath id="clip0_179_2249">
<rect width="24" height="24" fill="white" transform="translate(9.66797 9.5)"/>
</clipPath>
</defs>
</svg>
