<svg viewBox="0 0 97 111" fill="none" xmlns="http://www.w3.org/2000/svg">
<path d="M49.3515 12.301V92.0812" stroke="black" stroke-width="1.20879"/>
<path d="M52.5728 1.86743C49.7762 0.506172 46.509 0.506081 43.7124 1.86743L6.23975 20.1086C2.75777 21.8037 0.54834 25.3376 0.54834 29.2102V43.6194C0.548344 67.5793 13.1316 89.7788 33.689 102.086L42.9438 107.627C46.145 109.543 50.1412 109.544 53.3423 107.627L62.5972 102.086C83.1543 89.7787 95.7368 67.5791 95.7368 43.6194V29.2102C95.7368 25.3375 93.5274 21.8037 90.0454 20.1086L52.5728 1.86743Z" fill="#515565" stroke="#747784" stroke-width="0.903273"/>
<path d="M88.4775 33.4328C88.533 30.6584 87.0008 28.0955 84.5306 26.8313L52.218 10.293C50.2341 9.27753 47.8934 9.23063 45.8704 10.1658L12.9213 25.3966C10.4025 26.5609 8.76883 29.0604 8.71325 31.8347L8.46582 44.1848C8.05717 64.5816 18.3906 83.6944 35.6809 94.5222L44.7574 100.206C46.268 101.152 48.1765 101.19 49.7237 100.306L59.0205 94.9898C76.7307 84.8633 87.8214 66.1797 88.23 45.7828L88.4775 33.4328Z" fill="#414451"/>
<path d="M25.645 38.5125C37.9146 26.2622 57.7935 26.2627 70.0327 38.5144L71.1489 39.6316L62.8921 47.8962L61.7739 46.7761C54.0813 39.0759 41.5944 39.0758 33.9019 46.7761L32.7837 47.8962L24.5259 39.6296L25.645 38.5125ZM47.8374 32.4861V37.8396C53.0759 37.8395 58.3149 39.6276 62.5571 43.2048L62.8511 43.4607L66.647 39.6609L66.2046 39.2722C60.9367 34.7459 54.3882 32.4834 47.8374 32.4861Z" fill="#FAE269"/>
<path d="M49.6655 46.725C49.6732 45.561 48.7359 44.6111 47.5719 44.6034C46.4079 44.5957 45.4581 45.533 45.4503 46.697L45.3661 59.3133C44.7271 59.5538 44.1165 59.9026 43.5611 60.3624C40.8712 62.5893 40.4958 66.5751 42.7227 69.265C44.9495 71.9549 48.9353 72.3302 51.6252 70.1034C54.3151 67.8765 54.6905 63.8907 52.4636 61.2008C51.6778 60.2516 50.673 59.5907 49.5834 59.2305L49.6655 46.725Z" fill="#FAE269"/>
</svg>
