<svg viewBox="0 0 24 21" fill="none" xmlns="http://www.w3.org/2000/svg">
<rect y="0.25" width="24" height="20" rx="10" fill="#292116"/>
<g clip-path="url(#clip0_201_32415)">
<path fill-rule="evenodd" clip-rule="evenodd" d="M14 3.5835C14.7364 3.5835 15.3333 4.18045 15.3333 4.91683V7.5835H16.6667C17.403 7.5835 18 8.18045 18 8.91683V15.5835C18 16.3199 17.403 16.9168 16.6667 16.9168H7.33333C6.59695 16.9168 6 16.3199 6 15.5835L6 8.91683C6 8.18045 6.59695 7.5835 7.33333 7.5835H8.66667V4.91683C8.66667 4.18045 9.26362 3.5835 10 3.5835L14 3.5835ZM16.6667 8.91683L7.33333 8.91683L7.33333 15.5835L16.6667 15.5835V8.91683ZM12 10.2502C12.7364 10.2502 13.3333 10.8471 13.3333 11.5835C13.3333 12.0767 13.0655 12.5074 12.6674 12.738L12.6667 13.5835C12.6667 13.9517 12.3682 14.2502 12 14.2502C11.6318 14.2502 11.3333 13.9517 11.3333 13.5835L11.3333 12.7384C10.9348 12.5079 10.6667 12.077 10.6667 11.5835C10.6667 10.8471 11.2636 10.2502 12 10.2502ZM13.3333 4.91683H10.6667C10.2985 4.91683 10 5.21531 10 5.5835V7.5835H14V5.5835C14 5.21531 13.7015 4.91683 13.3333 4.91683Z" fill="#FFBC66"/>
</g>
<defs>
<clipPath id="clip0_201_32415">
<rect width="16" height="16" fill="white" transform="translate(4 2.25)"/>
</clipPath>
</defs>
</svg>
