<svg width="92" height="70" viewBox="0 0 92 70" fill="none" xmlns="http://www.w3.org/2000/svg">
<path d="M59.3031 0.040021C41.6889 0.0400195 27.4098 14.3191 27.4098 31.9334C27.4098 49.5476 41.6889 63.8267 59.3031 63.8267C76.9173 63.8267 91.1964 49.5476 91.1964 31.9334C91.1964 14.3192 76.9173 0.0400226 59.3031 0.040021Z" fill="#F1F6FE"/>
<path d="M23.4814 2.48104C13.9765 2.48103 6.27126 10.1863 6.27126 19.6912C6.27126 29.1961 13.9765 36.9013 23.4814 36.9013C32.9863 36.9013 40.6915 29.1961 40.6915 19.6912C40.6915 10.1863 32.9863 2.48104 23.4814 2.48104Z" fill="#F1F6FE"/>
<path d="M25.1743 20.8382C11.6096 20.8382 0.613338 31.8345 0.613337 45.3991C0.613336 58.9637 11.6096 69.96 25.1743 69.96C38.7389 69.96 49.7352 58.9637 49.7352 45.3991C49.7352 31.8345 38.7389 20.8382 25.1743 20.8382Z" fill="#F1F6FE"/>
<path d="M11.04 18.44C11.04 14.3752 14.3352 11.08 18.4 11.08H73.6C77.6648 11.08 80.96 14.3752 80.96 18.44V51.2533C80.96 55.3181 77.6648 58.6133 73.6 58.6133H18.4C14.3352 58.6133 11.04 55.3181 11.04 51.2533V18.44Z" fill="#093F90"/>
<path d="M14.72 19.3602C14.72 16.6503 16.9168 14.4535 19.6267 14.4535H72.3733C75.0832 14.4535 77.28 16.6503 77.28 19.3602V50.0268C77.28 52.7367 75.0832 54.9335 72.3733 54.9335H19.6267C16.9168 54.9335 14.72 52.7367 14.72 50.0268V19.3602Z" fill="#3F87F3"/>
<path d="M29.44 19.9733C29.44 18.6184 30.5384 17.52 31.8934 17.52H71.76C73.115 17.52 74.2133 18.6184 74.2133 19.9733V49.72C74.2133 51.0749 73.115 52.1733 71.76 52.1733H31.8934C30.5384 52.1733 29.44 51.0749 29.44 49.72V19.9733Z" fill="#0F68EE"/>
<path d="M25.76 19.9734C25.76 18.6184 24.6616 17.5201 23.3067 17.5201H20.24C18.8851 17.5201 17.7867 18.6184 17.7867 19.9734V49.72C17.7867 51.075 18.8851 52.1734 20.24 52.1734H23.3067C24.6616 52.1734 25.76 51.075 25.76 49.72V19.9734Z" fill="#CFE1FC"/>
<path fill-rule="evenodd" clip-rule="evenodd" d="M53.913 31.1154C54.0766 31.1154 54.2391 31.1256 54.3924 31.146C54.4742 31.146 54.556 31.1563 54.6378 31.1767C54.9005 31.2156 55.154 31.282 55.4034 31.3597C55.4883 31.3863 55.5731 31.4139 55.6569 31.4445C55.8593 31.5202 56.0576 31.605 56.2478 31.7052C56.3572 31.7614 56.4594 31.8258 56.5626 31.8892C56.6873 31.9669 56.809 32.0466 56.9265 32.1345C57.0288 32.2102 57.1289 32.2868 57.225 32.3696C57.3272 32.4576 57.4223 32.5547 57.5174 32.6508C57.6728 32.8082 57.8169 32.9748 57.9508 33.1516C58.0009 33.2171 58.05 33.2835 58.096 33.351C58.6602 34.1718 59.0027 35.1562 59.0027 36.2265V38.2709H44.6711V36.2265C44.6711 35.147 45.0207 34.1575 45.5911 33.3316C45.6248 33.2845 45.6586 33.2385 45.6933 33.1925C45.8692 32.9554 46.0644 32.7356 46.2791 32.5322C46.3292 32.4852 46.3752 32.4351 46.4273 32.3891C46.5367 32.293 46.6501 32.2051 46.7677 32.1192C46.8658 32.0466 46.968 31.9802 47.0723 31.9137C47.2011 31.833 47.3299 31.7543 47.4659 31.6858C47.6417 31.5948 47.8216 31.5151 48.0076 31.4456C48.0925 31.4149 48.1784 31.3863 48.2652 31.3597C48.5126 31.282 48.7651 31.2156 49.0258 31.1767C49.1076 31.1563 49.2006 31.146 49.2813 31.146C49.4357 31.1256 49.5982 31.1154 49.7618 31.1154H53.913ZM53.8716 33.16H49.7827C49.5681 33.16 49.3636 33.1805 49.1694 33.2214C48.873 33.2827 48.597 33.3839 48.3312 33.528C48.321 33.5178 48.3107 33.5383 48.3107 33.5383C48.229 33.5791 48.1472 33.6303 48.0756 33.6814C47.9121 33.7938 47.7587 33.9165 47.6156 34.0596C47.5441 34.1311 47.4827 34.2027 47.4214 34.2743C47.2681 34.4378 47.1556 34.6218 47.0534 34.816C47.033 34.8671 47.0125 34.9172 46.9921 34.9694C46.8183 35.3466 46.7161 35.7759 46.7161 36.2267L55.7218 36.2165H56.9383C56.9383 35.7759 56.8463 35.3466 56.6725 34.9694C56.6214 34.8467 56.5498 34.724 56.4783 34.6116C56.4783 34.6014 56.4681 34.5809 56.4578 34.5707C56.3352 34.3765 56.1921 34.2027 56.0387 34.0494C55.9876 33.9983 55.9365 33.9471 55.8752 33.895C55.773 33.8143 55.6707 33.7325 55.5583 33.6609C55.1903 33.4258 54.7712 33.2623 54.3316 33.1907C54.1783 33.1703 54.025 33.16 53.8716 33.16ZM51.8272 22.9378C54.0863 22.9378 55.9161 24.7471 55.9161 26.9756C55.9161 29.2143 54.0863 31.0236 51.8272 31.0236C49.5681 31.0236 47.7383 29.2143 47.7383 26.9756C47.7383 24.7471 49.5681 22.9378 51.8272 22.9378ZM51.8272 24.9822C50.6925 24.9822 49.7827 25.8818 49.7827 26.9756C49.7827 28.0796 50.6925 28.9791 51.8272 28.9791C52.9618 28.9791 53.8716 28.0796 53.8716 26.9756C53.8716 25.8818 52.9618 24.9822 51.8272 24.9822Z" fill="#B6C5F0"/>
<rect x="37.72" y="42.36" width="29.1333" height="7.36" rx="1.84" fill="#CFD8F5"/>
<circle cx="42.9333" cy="46.04" r="1.22667" fill="#0A32A3"/>
<circle cx="46.6133" cy="46.04" r="1.22667" fill="#0A32A3"/>
<circle cx="50.2934" cy="46.04" r="1.22667" fill="#0A32A3"/>
<circle cx="53.9733" cy="46.04" r="1.22667" fill="#0A32A3"/>
<circle cx="57.6533" cy="46.04" r="1.22667" fill="#0A32A3"/>
<circle cx="61.3333" cy="46.04" r="1.22667" fill="#0A32A3"/>
<path d="M76.7438 62.7533C81.5284 62.7533 85.4071 58.8746 85.4071 54.09C85.4071 49.3054 81.5284 45.4267 76.7438 45.4267C71.9592 45.4267 68.0805 49.3054 68.0805 54.09C68.0805 58.8746 71.9592 62.7533 76.7438 62.7533Z" fill="#093F90"/>
<path d="M76.7437 51.7686C77.3213 51.7686 77.7895 51.3004 77.7895 50.7228C77.7895 50.1453 77.3213 49.6771 76.7437 49.6771C76.1662 49.6771 75.698 50.1453 75.698 50.7228C75.698 51.3004 76.1662 51.7686 76.7437 51.7686Z" fill="#FFCC28"/>
<path d="M77.7895 53.8662C77.7895 53.2886 77.322 52.8204 76.7453 52.8204C76.1686 52.8204 75.7011 53.2886 75.7011 53.8662V57.4572C75.7011 58.0348 76.1686 58.503 76.7453 58.503C77.322 58.503 77.7895 58.0348 77.7895 57.4572V53.8662Z" fill="#FFCC28"/>
</svg>
