<svg width="92" height="92" viewBox="0 0 92 92" fill="none" xmlns="http://www.w3.org/2000/svg">
<g opacity="0.92">
<path fill-rule="evenodd" clip-rule="evenodd" d="M76.849 35.0353C77.4552 33.7155 77.9433 32.3181 78.2969 30.8531C81.2449 18.6393 73.7335 6.34831 61.5197 3.40031C49.306 0.452306 37.015 7.96368 34.067 20.1774C33.5812 22.1899 33.3794 24.2045 33.4359 26.179C33.0192 26.055 32.5969 25.9412 32.1693 25.8379C18.9833 22.6553 5.71394 30.7646 2.53127 43.9505C-0.651387 57.1365 7.4579 70.4059 20.6439 73.5886C24.071 74.4158 27.5039 74.4802 30.7637 73.8909C36.1097 82.7233 45.8088 88.6267 56.8867 88.6267C73.7387 88.6267 87.4 74.9654 87.4 58.1133C87.4 48.8944 83.3116 40.6303 76.849 35.0353Z" fill="#F1F6FE"/>
<path d="M76.0456 25.7562C76.0495 25.6796 76.0533 25.5993 76.0533 25.5227C76.0533 23.1655 74.1227 21.2521 71.7442 21.2521C71.6593 21.2521 71.5782 21.2521 71.4933 21.2598C71.1651 18.78 69.0259 16.8667 66.4351 16.8667C63.8442 16.8667 61.5738 18.8987 61.3499 21.4894C60.7398 21.233 60.0718 21.0952 59.3691 21.0952C56.6855 21.0952 54.4846 23.1502 54.28 25.76H76.0456V25.7562Z" fill="#CFE1FC"/>
<path d="M19.9333 34.3874C19.9333 30.484 22.1464 26.9182 25.6441 25.1856L35.5005 20.3034C42.2132 16.9784 50.0935 16.9784 56.8061 20.3034L66.6626 25.1856C70.1603 26.9182 72.3733 30.484 72.3733 34.3874V34.7232C72.3733 51.2324 63.7696 66.5484 49.6705 75.1374C47.5103 76.4533 44.7963 76.4533 42.6362 75.1374C28.5371 66.5484 19.9333 51.2324 19.9333 34.7232V34.3874Z" fill="#0F68EE"/>
<path d="M22.1087 30.7313C22.6614 30.1827 23.306 29.7172 24.0266 29.3602L42.8866 20.0182C44.9451 18.9985 47.3617 18.9985 49.4203 20.0182L68.2803 29.3602C69.0008 29.7171 69.6452 30.1825 70.1978 30.731C69.509 29.1929 68.2994 27.9073 66.7314 27.1352L49.4047 18.6033C47.3547 17.5939 44.952 17.5939 42.902 18.6033L25.5753 27.1352C24.0072 27.9073 22.7975 29.1931 22.1087 30.7313Z" fill="#3F87F3"/>
<path fill-rule="evenodd" clip-rule="evenodd" d="M36.1867 26.68C36.1867 26.3413 36.4613 26.0667 36.8 26.0667H58.0169C62.4441 26.0667 66.24 29.0504 66.24 32.9667C66.24 36.883 62.4441 39.8667 58.0169 39.8667H24.84C24.5013 39.8667 24.2267 39.5921 24.2267 39.2533C24.2267 38.9146 24.5013 38.64 24.84 38.64H58.0169C61.9964 38.64 65.0133 35.9966 65.0133 32.9667C65.0133 29.9367 61.9964 27.2933 58.0169 27.2933H36.8C36.4613 27.2933 36.1867 27.0187 36.1867 26.68Z" fill="#3F87F3"/>
<path fill-rule="evenodd" clip-rule="evenodd" d="M48.7491 68.4817L43.4897 68.4817C39.0625 68.4817 35.2667 65.498 35.2667 61.5817C35.2667 57.6655 39.0625 54.6818 43.4897 54.6818L64.2467 54.6818C64.5854 54.6818 64.86 54.9563 64.86 55.2951C64.86 55.6338 64.5854 55.9084 64.2467 55.9084L43.4897 55.9084C39.5103 55.9084 36.4933 58.5518 36.4933 61.5817C36.4933 64.6117 39.5103 67.2551 43.4897 67.2551L48.7491 67.2551C49.0878 67.2551 49.3624 67.5297 49.3624 67.8684C49.3624 68.2071 49.0878 68.4817 48.7491 68.4817Z" fill="#3F87F3"/>
<path d="M65.3297 34.144C64.3147 34.144 63.4885 33.3178 63.4885 32.3028C63.4885 31.2877 64.3147 30.4616 65.3297 30.4616C66.3447 30.4616 67.1709 31.2877 67.1709 32.3028C67.1709 33.3178 66.3447 34.144 65.3297 34.144Z" fill="#0F68EE"/>
<path fill-rule="evenodd" clip-rule="evenodd" d="M65.3297 31.0749C64.6534 31.0749 64.1019 31.6265 64.1019 32.3028C64.1019 32.9791 64.6534 33.5306 65.3297 33.5306C66.006 33.5306 66.5575 32.9791 66.5575 32.3028C66.5575 31.6265 66.006 31.0749 65.3297 31.0749ZM62.8752 32.3028C62.8752 30.949 63.9759 29.8483 65.3297 29.8483C66.6835 29.8483 67.7842 30.949 67.7842 32.3028C67.7842 33.6566 66.6835 34.7573 65.3297 34.7573C63.9759 34.7573 62.8752 33.6566 62.8752 32.3028Z" fill="#3F87F3"/>
<path d="M28.8266 41.1884C27.8116 41.1884 26.9855 40.3623 26.9855 39.3472C26.9855 38.3322 27.8116 37.5061 28.8266 37.5061C29.8417 37.5061 30.6678 38.3322 30.6678 39.3472C30.6678 40.3623 29.8417 41.1884 28.8266 41.1884Z" fill="#0F68EE"/>
<path fill-rule="evenodd" clip-rule="evenodd" d="M28.8266 38.1194C28.1503 38.1194 27.5988 38.6709 27.5988 39.3472C27.5988 40.0236 28.1503 40.5751 28.8266 40.5751C29.5029 40.5751 30.0545 40.0236 30.0545 39.3472C30.0545 38.6709 29.5029 38.1194 28.8266 38.1194ZM26.3721 39.3472C26.3721 37.9935 27.4729 36.8927 28.8266 36.8927C30.1804 36.8927 31.2811 37.9935 31.2811 39.3472C31.2811 40.701 30.1804 41.8017 28.8266 41.8017C27.4729 41.8017 26.3721 40.701 26.3721 39.3472Z" fill="#3F87F3"/>
<path fill-rule="evenodd" clip-rule="evenodd" d="M27.2933 47.2267C27.2933 46.8879 27.5679 46.6133 27.9067 46.6133H65.6267V47.84H27.9067C27.5679 47.84 27.2933 47.5654 27.2933 47.2267Z" fill="#3F87F3"/>
<path d="M35.8812 59.1867C36.8963 59.1867 37.7224 60.0128 37.7224 61.0278C37.7224 62.0429 36.8963 62.869 35.8812 62.869C34.8662 62.869 34.0401 62.0429 34.0401 61.0278C34.0401 60.0128 34.8662 59.1867 35.8812 59.1867Z" fill="#0F68EE"/>
<path fill-rule="evenodd" clip-rule="evenodd" d="M35.8812 62.2557C36.5575 62.2557 37.1091 61.7041 37.1091 61.0278C37.1091 60.3515 36.5575 59.8 35.8812 59.8C35.2049 59.8 34.6534 60.3515 34.6534 61.0278C34.6534 61.7041 35.2049 62.2557 35.8812 62.2557ZM38.3357 61.0278C38.3357 62.3816 37.235 63.4823 35.8812 63.4823C34.5275 63.4823 33.4267 62.3816 33.4267 61.0278C33.4267 59.6741 34.5275 58.5733 35.8812 58.5733C37.235 58.5733 38.3357 59.6741 38.3357 61.0278Z" fill="#3F87F3"/>
<path d="M64.7066 49.069C63.6916 49.069 62.8655 48.2429 62.8655 47.2278C62.8655 46.2128 63.6916 45.3867 64.7066 45.3867C65.7217 45.3867 66.5478 46.2128 66.5478 47.2278C66.5478 48.2429 65.7217 49.069 64.7066 49.069Z" fill="#0F68EE"/>
<path fill-rule="evenodd" clip-rule="evenodd" d="M64.7066 46C64.0303 46 63.4788 46.5515 63.4788 47.2278C63.4788 47.9041 64.0303 48.4557 64.7066 48.4557C65.3829 48.4557 65.9345 47.9041 65.9345 47.2278C65.9345 46.5515 65.3829 46 64.7066 46ZM62.2521 47.2278C62.2521 45.8741 63.3529 44.7733 64.7066 44.7733C66.0604 44.7733 67.1611 45.8741 67.1611 47.2278C67.1611 48.5816 66.0604 49.6823 64.7066 49.6823C63.3529 49.6823 62.2521 48.5816 62.2521 47.2278Z" fill="#3F87F3"/>
<path fill-rule="evenodd" clip-rule="evenodd" d="M56.4267 39.8667C56.4267 44.6097 53.1637 48.5907 48.76 49.6873V53.36H51.98C52.9115 53.36 53.6667 54.1151 53.6667 55.0467C53.6667 55.9782 52.9115 56.7333 51.98 56.7333H51.2133V60.1067H51.98C52.9115 60.1067 53.6667 60.8618 53.6667 61.7933C53.6667 62.7249 52.9115 63.48 51.98 63.48H48.76V63.7867C48.76 65.1416 47.6616 66.24 46.3067 66.24C44.9517 66.24 43.8533 65.1416 43.8533 63.7867V49.6873C39.4497 48.5907 36.1867 44.6097 36.1867 39.8667C36.1867 34.2775 40.7175 29.7467 46.3067 29.7467C51.8958 29.7467 56.4267 34.2775 56.4267 39.8667ZM46.3067 43.8614C48.5129 43.8614 50.3014 42.0729 50.3014 39.8667C50.3014 37.6604 48.5129 35.8719 46.3067 35.8719C44.1004 35.8719 42.3119 37.6604 42.3119 39.8667C42.3119 42.0729 44.1004 43.8614 46.3067 43.8614Z" fill="#08257A"/>
<path d="M43.8533 46.6133H48.76V62.2533C48.76 63.6083 47.6616 64.7067 46.3067 64.7067C44.9517 64.7067 43.8533 63.6083 43.8533 62.2533V46.6133Z" fill="#FFCC28"/>
<path fill-rule="evenodd" clip-rule="evenodd" d="M46.3067 47.84C51.8958 47.84 56.4267 43.3091 56.4267 37.72C56.4267 32.1309 51.8958 27.6 46.3067 27.6C40.7175 27.6 36.1867 32.1309 36.1867 37.72C36.1867 43.3091 40.7175 47.84 46.3067 47.84ZM46.3067 41.7147C48.5129 41.7147 50.3014 39.9262 50.3014 37.72C50.3014 35.5138 48.5129 33.7253 46.3067 33.7253C44.1004 33.7253 42.3119 35.5138 42.3119 37.72C42.3119 39.9262 44.1004 41.7147 46.3067 41.7147Z" fill="#FFCC28"/>
<path fill-rule="evenodd" clip-rule="evenodd" d="M46.3067 27.6C40.7175 27.6 36.1867 32.1309 36.1867 37.72C36.1867 42.4631 39.4497 46.444 43.8533 47.5406V62.2533C43.8533 63.6083 44.9517 64.7067 46.3067 64.7067L46.3067 41.7147C44.1004 41.7147 42.3119 39.9262 42.3119 37.72C42.3119 35.5138 44.1004 33.7253 46.3067 33.7253V27.6Z" fill="#E4AE02"/>
<path d="M46.2885 28.6652C50.1987 28.6652 53.5302 31.1438 54.7973 34.6154C53.0875 31.6939 49.918 29.7307 46.2885 29.7307C42.6592 29.7308 39.4905 31.6941 37.7807 34.6154C39.0478 31.1439 42.3785 28.6654 46.2885 28.6652Z" fill="#FFF6DC"/>
<path d="M53.6667 53.5133C53.6667 52.5818 52.9115 51.8267 51.98 51.8267H48.76V61.9467H51.98C52.9115 61.9467 53.6667 61.1915 53.6667 60.26C53.6667 59.3285 52.9115 58.5733 51.98 58.5733H51.2133V55.2H51.98C52.9115 55.2 53.6667 54.4449 53.6667 53.5133Z" fill="#FFDE77"/>
<path d="M38.9467 26.0667L39.3375 27.9369C39.6931 29.6425 40.9906 30.9728 42.647 31.3383L44.4667 31.74L42.647 32.1417C40.9874 32.5072 39.6931 33.8407 39.3375 35.5431L38.9467 37.4133L38.5558 35.5431C38.2002 33.8375 36.9027 32.5072 35.2464 32.1417L33.4267 31.74L35.2464 31.3383C36.9059 30.9728 38.2002 29.6393 38.5558 27.9369L38.9467 26.0667Z" fill="white"/>
<rect x="49.4067" y="61.98" width="24.4667" height="14.04" rx="7.02" fill="white" stroke="#7A95E3" stroke-width="3"/>
<g filter="url(#filter0_dd_485_4283)">
<circle cx="66.8533" cy="69" r="4.6" fill="#43BC38"/>
</g>
<path d="M66.4307 70.5949C66.2957 70.5949 66.1668 70.5418 66.0713 70.4462L64.8611 69.2361C64.6625 69.0374 64.6625 68.7159 64.8611 68.5173C65.0598 68.3186 65.3813 68.3186 65.5799 68.5173L66.4307 69.368L68.1322 67.6665C68.3309 67.4678 68.6524 67.4678 68.851 67.6665C69.0497 67.8652 69.0497 68.1867 68.851 68.3853L66.7901 70.4462C66.6946 70.5418 66.5657 70.5949 66.4307 70.5949Z" fill="white"/>
<path d="M32.8716 57.1259C32.8747 57.0523 32.8777 56.9787 32.8777 56.9051C32.8777 54.6848 31.0776 52.8877 28.8604 52.8877C28.7807 52.8877 28.704 52.8877 28.6273 52.8939C28.3207 50.5601 26.3273 48.76 23.9077 48.76C21.4881 48.76 19.3752 50.6736 19.1667 53.1085C18.5993 52.8693 17.9737 52.7375 17.3175 52.7375C14.812 52.7375 12.7635 54.6725 12.5733 57.1259H32.8716Z" fill="#CFE1FC"/>
</g>
<defs>
<filter id="filter0_dd_485_4283" x="58.2533" y="61.4" width="17.2" height="17.2" filterUnits="userSpaceOnUse" color-interpolation-filters="sRGB">
<feFlood flood-opacity="0" result="BackgroundImageFix"/>
<feColorMatrix in="SourceAlpha" type="matrix" values="0 0 0 0 0 0 0 0 0 0 0 0 0 0 0 0 0 0 127 0" result="hardAlpha"/>
<feMorphology radius="1" operator="dilate" in="SourceAlpha" result="effect1_dropShadow_485_4283"/>
<feOffset dy="1"/>
<feGaussianBlur stdDeviation="1.5"/>
<feColorMatrix type="matrix" values="0 0 0 0 0 0 0 0 0 0 0 0 0 0 0 0 0 0 0.1 0"/>
<feBlend mode="normal" in2="BackgroundImageFix" result="effect1_dropShadow_485_4283"/>
<feColorMatrix in="SourceAlpha" type="matrix" values="0 0 0 0 0 0 0 0 0 0 0 0 0 0 0 0 0 0 127 0" result="hardAlpha"/>
<feOffset dy="1"/>
<feGaussianBlur stdDeviation="1"/>
<feColorMatrix type="matrix" values="0 0 0 0 0 0 0 0 0 0 0 0 0 0 0 0 0 0 0.1 0"/>
<feBlend mode="normal" in2="effect1_dropShadow_485_4283" result="effect2_dropShadow_485_4283"/>
<feBlend mode="normal" in="SourceGraphic" in2="effect2_dropShadow_485_4283" result="shape"/>
</filter>
</defs>
</svg>
