<svg width="600" height="600" viewBox="0 0 600 600" fill="none" xmlns="http://www.w3.org/2000/svg">
<mask id="mask0_204_43766" style="mask-type:alpha" maskUnits="userSpaceOnUse" x="0" y="0" width="600" height="600">
<rect width="600" height="600" fill="#DDE4F8"/>
</mask>
<g mask="url(#mask0_204_43766)">
<path opacity="0.6" d="M24.5 269C81.698 269 129.957 307.265 145.079 359.592C152.278 357.898 159.784 357 167.5 357C202.047 357 232.396 374.968 249.715 402.068C269.248 392.422 291.241 387 314.5 387C339.675 387 363.367 393.351 384.062 404.537C384.021 404.03 384 403.517 384 403C384 392.507 392.507 384 403 384C408.791 384 413.976 386.591 417.461 390.677C433.677 325.943 492.239 278 562 278C644.29 278 711 344.71 711 427C711 482.664 680.475 531.196 635.253 556.776C651.305 581.207 660.645 610.442 660.645 641.858C660.644 727.541 591.184 797 505.502 797C464.957 797 428.047 781.444 400.408 755.979C372.013 787.479 330.891 807.283 285.142 807.283C204.81 807.283 138.738 746.229 130.799 667.991C130.366 667.996 129.934 668 129.5 668C101.006 668 75.0321 657.214 55.4355 639.504C33.0267 671.325 -3.99286 692.115 -45.8701 692.115C-114.255 692.115 -169.692 636.678 -169.692 568.293C-169.692 514.439 -135.311 468.616 -87.3008 451.573C-96.0589 434.451 -101 415.053 -101 394.5C-101 325.188 -44.8117 269 24.5 269Z" fill="#DDE4F8"/>
</g>
</svg>
