<svg width="19" height="18" viewBox="0 0 19 18" fill="none" xmlns="http://www.w3.org/2000/svg">
<path fill-rule="evenodd" clip-rule="evenodd" d="M9.5 1.5C13.6421 1.5 17 4.85786 17 9C17 13.1421 13.6421 16.5 9.5 16.5C5.35786 16.5 2 13.1421 2 9C2 4.85786 5.35786 1.5 9.5 1.5ZM9.5 3C6.18629 3 3.5 5.68629 3.5 9C3.5 12.3137 6.18629 15 9.5 15C12.8137 15 15.5 12.3137 15.5 9C15.5 5.68629 12.8137 3 9.5 3ZM11.75 6C12.1642 6 12.5 6.33579 12.5 6.75L12.5 11.25C12.5 11.6642 12.1642 12 11.75 12C11.3358 12 11 11.6642 11 11.25L11 6.75C11 6.33579 11.3358 6 11.75 6ZM7.25 6C7.66421 6 8 6.33579 8 6.75L8 11.25C8 11.6642 7.66421 12 7.25 12C6.83579 12 6.5 11.6642 6.5 11.25L6.5 6.75C6.5 6.33579 6.83579 6 7.25 6Z" fill="white" fill-opacity="0.9"/>
</svg>
