<svg viewBox="0 0 52 58" fill="none" xmlns="http://www.w3.org/2000/svg">
<path d="M26.4946 6.37402V48.44" stroke="black" stroke-width="0.637363"/>
<path d="M28.1929 0.87207C26.7183 0.154406 24.9955 0.154298 23.521 0.87207L3.76318 10.4902C1.92725 11.384 0.762255 13.2472 0.762207 15.2891V22.8867C0.762207 35.52 7.39663 47.2255 18.2358 53.7148L23.1157 56.6367C24.8036 57.6472 26.9112 57.6472 28.5991 56.6367L33.478 53.7148C44.3173 47.2255 50.9526 35.5201 50.9526 22.8867V15.2891C50.9526 13.2472 49.7876 11.384 47.9517 10.4902L28.1929 0.87207Z" fill="#8ED788" stroke="#69C960" stroke-width="0.476271"/>
<path d="M47.124 17.5155C47.1533 16.0527 46.3453 14.7014 45.0429 14.0348L28.0054 5.31456C26.9593 4.77914 25.7251 4.75442 24.6584 5.2475L7.28528 13.2783C5.95718 13.8922 5.09577 15.2101 5.06647 16.6729L4.936 23.1848C4.72054 33.9395 10.1691 44.0171 19.2858 49.7264L24.0716 52.7234C24.868 53.2222 25.8743 53.2423 26.6902 52.7758L31.5921 49.9729C40.9302 44.6334 46.778 34.7821 46.9935 24.0274L47.124 17.5155Z" fill="#D9F2D7"/>
<path d="M32.47 28.8937C32.8842 29.3873 32.8198 30.1232 32.3262 30.5374L26.9765 35.0267C27.0995 35.384 27.1663 35.7676 27.1663 36.1667C27.1663 38.0997 25.5993 39.6667 23.6663 39.6667C21.7333 39.6667 20.1663 38.0997 20.1663 36.1667C20.1663 34.2337 21.7333 32.6667 23.6663 32.6667C24.3484 32.6667 24.985 32.8618 25.5231 33.1992L30.8264 28.7499C31.32 28.3358 32.0559 28.4001 32.47 28.8937ZM14.333 22.3299C20.783 15.89 31.233 15.89 37.6663 22.3299L34.333 25.6667C29.733 21.062 22.2663 21.062 17.6663 25.6667L14.333 22.3299Z" fill="#69C960"/>
</svg>
