<svg viewBox="0 0 52 58" fill="none" xmlns="http://www.w3.org/2000/svg">
<path d="M26.4946 6.37402V48.44" stroke="black" stroke-width="0.637363"/>
<path d="M28.1926 0.87207C26.7181 0.154406 24.9952 0.154298 23.5208 0.87207L3.76294 10.4902C1.92701 11.384 0.762011 13.2472 0.761963 15.2891V22.8867C0.761963 35.52 7.39639 47.2255 18.2356 53.7148L23.1155 56.6367C24.8034 57.6472 26.911 57.6472 28.5989 56.6367L33.4778 53.7148C44.3171 47.2255 50.9524 35.5201 50.9524 22.8867V15.2891C50.9523 13.2472 49.7873 11.384 47.9514 10.4902L28.1926 0.87207Z" fill="#F06666" stroke="#EB3333" stroke-width="0.476271"/>
<path d="M47.1242 17.5155C47.1535 16.0527 46.3456 14.7014 45.0431 14.0348L28.0056 5.31456C26.9595 4.77914 25.7254 4.75442 24.6587 5.2475L7.28553 13.2783C5.95742 13.8922 5.09602 15.2101 5.06671 16.6729L4.93625 23.1848C4.72078 33.9395 10.1693 44.0171 19.286 49.7264L24.0718 52.7234C24.8683 53.2222 25.8746 53.2423 26.6904 52.7758L31.5924 49.9729C40.9305 44.6334 46.7783 34.7821 46.9937 24.0274L47.1242 17.5155Z" fill="#FACCCC"/>
<path d="M17.1968 28.8937C17.6109 28.4001 18.3468 28.3357 18.8404 28.7499L24.1437 33.1992C24.6819 32.8618 25.3184 32.6667 26.0005 32.6667C27.9335 32.6667 29.5005 34.2337 29.5005 36.1667C29.5005 38.0997 27.9335 39.6667 26.0005 39.6667C24.0675 39.6667 22.5005 38.0997 22.5005 36.1667C22.5005 35.7676 22.5673 35.384 22.6903 35.0267L17.3406 30.5374C16.847 30.1232 16.7826 29.3873 17.1968 28.8937ZM13.7156 21.7107C20.5073 14.9296 31.5112 14.9296 38.2862 21.7115L38.9039 22.3299L34.3338 26.9047L33.7148 26.2851C29.4565 22.0225 22.5444 22.0225 18.2862 26.2851L17.6671 26.9047L13.0962 22.3291L13.7156 21.7107ZM36.1672 22.131C30.3385 17.1229 21.6775 17.1229 15.8352 22.1317L15.588 22.3475L17.6891 24.4498L17.8531 24.3083C22.5494 20.3481 29.4515 20.3481 34.1479 24.3083L34.3106 24.4498L36.4118 22.3463L36.1672 22.131Z" fill="#E60000"/>
</svg>
