<svg viewBox="0 0 52 58" fill="none" xmlns="http://www.w3.org/2000/svg">
<path d="M26.4946 6.37402V48.44" stroke="black" stroke-width="0.637363"/>
<path d="M28.1929 0.87207C26.7183 0.154406 24.9955 0.154298 23.521 0.87207L3.76318 10.4902C1.92725 11.384 0.762255 13.2472 0.762207 15.2891V22.8867C0.762207 35.52 7.39663 47.2255 18.2358 53.7148L23.1157 56.6367C24.8036 57.6472 26.9112 57.6472 28.5991 56.6367L33.478 53.7148C44.3173 47.2255 50.9526 35.5201 50.9526 22.8867V15.2891C50.9526 13.2472 49.7876 11.384 47.9517 10.4902L28.1929 0.87207Z" fill="#FFBC66" stroke="#FFA533" stroke-width="0.476271"/>
<path d="M47.124 17.5155C47.1533 16.0527 46.3453 14.7014 45.0429 14.0348L28.0054 5.31456C26.9593 4.77914 25.7251 4.75442 24.6584 5.2475L7.28528 13.2783C5.95718 13.8922 5.09577 15.2101 5.06647 16.6729L4.936 23.1848C4.72054 33.9395 10.1691 44.0171 19.2858 49.7264L24.0716 52.7234C24.868 53.2222 25.8743 53.2423 26.6902 52.7758L31.5921 49.9729C40.9302 44.6334 46.778 34.7821 46.9935 24.0274L47.124 17.5155Z" fill="#FFE9CC"/>
<path d="M13.8086 20.9268C20.2774 14.4681 30.758 14.4683 37.2109 20.9278L37.7998 21.5167L33.4463 25.8741L32.8574 25.2833C28.8017 21.2235 22.2179 21.2237 18.1621 25.2833L17.5723 25.8741L13.2188 21.5157L13.8086 20.9268ZM25.5088 17.7501V20.5723C28.2708 20.5722 31.0328 21.5153 33.2695 23.4014L33.4248 23.5362L35.4258 21.5323L35.1924 21.3272C32.415 18.9409 28.9626 17.7486 25.5088 17.7501Z" fill="#FFA533"/>
<path d="M26.4731 25.2556C26.4772 24.6419 25.983 24.1411 25.3693 24.137C24.7556 24.1329 24.2548 24.6271 24.2508 25.2408L24.2063 31.8925C23.8694 32.0193 23.5475 32.2032 23.2547 32.4456C21.8365 33.6196 21.6386 35.7211 22.8126 37.1393C23.9867 38.5574 26.0881 38.7553 27.5063 37.5813C28.9245 36.4072 29.1224 34.3058 27.9483 32.8876C27.5341 32.3872 27.0043 32.0387 26.4298 31.8488L26.4731 25.2556Z" fill="#FFA533"/>
</svg>
