<svg viewBox="0 0 290 246" fill="none" xmlns="http://www.w3.org/2000/svg">
<g clip-path="url(#clip0_2637_19723)">
<rect width="290" height="246" rx="8" fill="#DDE4F8"/>
<mask id="mask0_2637_19723" style="mask-type:alpha" maskUnits="userSpaceOnUse" x="10" y="4" width="240" height="280">
<rect x="10" y="4" width="240" height="280" rx="16" fill="#DDE4F8"/>
</mask>
<g mask="url(#mask0_2637_19723)">
<rect x="10" y="4" width="240" height="280" rx="16" fill="#DDE4F8"/>
</g>
<path d="M48 108H249V245H56C51.5817 245 48 241.418 48 237V108Z" fill="#F6F7F7"/>
<rect x="14.4758" y="19.2595" width="261.048" height="238.966" rx="8.91129" fill="white" stroke="#B6C5F0" stroke-width="1.04839"/>
<path d="M15 28.1708C15 23.5387 18.755 19.7837 23.3871 19.7837H266.613C271.245 19.7837 275 23.5387 275 28.1708V35.5051H15V28.1708Z" fill="#F6F7F7"/>
<path d="M42.2289 60.5186L43.7792 54.6274H45.4147L44.8334 57.5808L43.2986 63.0145H41.9886L42.2289 60.5186ZM41.6165 54.6274L42.5777 60.4721L42.6862 63.0145H41.0972L39.1128 54.6274H41.6165ZM46.7945 60.348L47.7634 54.6274H50.2672L48.2983 63.0145H46.7092L46.7945 60.348ZM45.6008 54.6274L47.1666 60.5031L47.4069 63.0145H46.0814L44.5776 57.5963L44.0195 54.6274H45.6008Z" fill="#B9BBC1"/>
<path d="M53.8954 60.5186L55.4457 54.6274H57.0812L56.4999 57.5808L54.9651 63.0145H53.6551L53.8954 60.5186ZM53.283 54.6274L54.2442 60.4721L54.3527 63.0145H52.7637L50.7793 54.6274H53.283ZM58.461 60.348L59.4299 54.6274H61.9337L59.9648 63.0145H58.3757L58.461 60.348ZM57.2673 54.6274L58.8331 60.5031L59.0734 63.0145H57.7479L56.2441 57.5963L55.686 54.6274H57.2673Z" fill="#B9BBC1"/>
<path d="M65.5619 60.5186L67.1122 54.6274H68.7477L68.1664 57.5808L66.6316 63.0145H65.3216L65.5619 60.5186ZM64.9495 54.6274L65.9107 60.4721L66.0192 63.0145H64.4301L62.4458 54.6274H64.9495ZM70.1275 60.348L71.0964 54.6274H73.6001L71.6313 63.0145H70.0422L70.1275 60.348ZM68.9338 54.6274L70.4996 60.5031L70.7398 63.0145H69.4143L67.9106 57.5963L67.3525 54.6274H68.9338Z" fill="#B9BBC1"/>
<rect x="76.7451" y="54.6274" width="91.2097" height="8.3871" rx="4.19355" fill="#B9BBC1"/>
<path d="M39.1128 85.0306C39.1128 81.5565 41.9291 78.7402 45.4031 78.7402H250.887V100.756H39.1128V85.0306Z" fill="#CFD8F5"/>
<rect x="48.5483" y="116.482" width="98.5484" height="10.4839" rx="5.24194" fill="#E5E6E8"/>
<rect x="161.774" y="111.24" width="20.9677" height="20.9677" rx="10.4839" fill="#E5E6E8"/>
<path d="M177.43 117.131C177.476 117.251 177.5 117.379 177.5 117.507V125.889C177.5 126.468 177.031 126.937 176.452 126.937C176.302 126.937 176.153 126.905 176.017 126.843L173.746 125.807C173.585 126.18 173.214 126.442 172.782 126.442H171.21C170.631 126.442 170.161 125.972 170.161 125.393V124.174L169.385 123.82L168.065 123.821C167.485 123.821 167.016 123.351 167.016 122.772V120.151C167.016 119.572 167.485 119.103 168.065 119.103L169.378 119.103L176.075 116.529C176.616 116.321 177.222 116.591 177.43 117.131ZM176.452 117.507L170.161 119.925V123.022L176.452 125.889V117.507ZM171.21 124.652V125.393H172.782V125.368L171.21 124.652ZM169.113 120.151H168.065V122.772H169.113V120.151Z" fill="#747784"/>
<rect x="191.129" y="111.24" width="20.9677" height="20.9677" rx="10.4839" fill="#E5E6E8"/>
<g clip-path="url(#clip1_2637_19723)">
<path d="M203.186 116.482C203.475 116.483 203.709 116.717 203.709 117.006V118.579C203.709 118.64 203.696 118.697 203.677 118.751C203.697 118.865 203.709 118.983 203.709 119.103C204.288 119.103 204.758 119.572 204.758 120.151H205.806V119.365C205.806 119.076 206.041 118.841 206.331 118.841C206.62 118.841 206.855 119.076 206.855 119.365V120.676C206.855 120.965 206.62 121.2 206.331 121.2H204.758V122.248H206.331C206.62 122.248 206.855 122.483 206.855 122.772C206.855 123.062 206.62 123.297 206.331 123.297H204.758V123.82C204.758 123.999 204.743 124.174 204.714 124.345H206.331C206.62 124.345 206.855 124.58 206.855 124.869V126.18C206.855 126.469 206.62 126.704 206.331 126.704C206.041 126.704 205.806 126.469 205.806 126.18V125.394H204.333C203.789 126.333 202.776 126.966 201.613 126.966C200.449 126.966 199.436 126.333 198.892 125.394H197.419V126.18C197.419 126.469 197.184 126.704 196.895 126.704C196.606 126.704 196.372 126.469 196.372 126.18V124.869C196.372 124.58 196.606 124.345 196.895 124.345H198.512C198.484 124.174 198.468 123.999 198.468 123.82V123.297H196.895C196.606 123.297 196.372 123.062 196.372 122.772C196.372 122.483 196.606 122.248 196.895 122.248H198.468V121.2H196.895C196.606 121.2 196.372 120.965 196.372 120.676V119.365C196.372 119.076 196.606 118.841 196.895 118.841C197.185 118.841 197.419 119.076 197.419 119.365V120.151H198.468C198.468 119.572 198.937 119.103 199.516 119.103C199.516 118.983 199.528 118.867 199.547 118.753C199.528 118.698 199.516 118.64 199.516 118.579V117.006C199.516 116.717 199.751 116.482 200.041 116.482C200.33 116.482 200.565 116.717 200.565 117.006V117.288C200.873 117.11 201.231 117.006 201.613 117.006C201.995 117.006 202.353 117.109 202.662 117.288V117.006C202.662 116.717 202.897 116.482 203.186 116.482ZM199.516 123.82C199.516 124.978 200.455 125.917 201.613 125.917C202.771 125.917 203.709 124.978 203.709 123.82V120.151H199.516V123.82ZM201.613 118.055C201.034 118.055 200.565 118.524 200.565 119.103H202.662C202.661 118.524 202.192 118.055 201.613 118.055Z" fill="#747784"/>
</g>
<rect x="220.484" y="111.24" width="20.9677" height="20.9677" rx="10.4839" fill="#E5E6E8"/>
<g clip-path="url(#clip2_2637_19723)">
<path fill-rule="evenodd" clip-rule="evenodd" d="M228.871 116.482C229.16 116.482 229.395 116.717 229.395 117.006V117.53H235.148C235.734 117.53 236.209 118.005 236.209 118.591V124.856C236.209 125.442 235.734 125.917 235.148 125.917H226.787C226.201 125.917 225.726 125.442 225.726 124.856V118.591C225.726 118.005 226.201 117.53 226.787 117.53H228.347V117.006C228.347 116.717 228.581 116.482 228.871 116.482ZM235.161 118.579H226.774V124.869H235.161V118.579ZM233.53 119.489C233.568 119.536 233.588 119.595 233.588 119.655V121.724C233.588 123.171 232.415 124.345 230.968 124.345C229.52 124.345 228.347 123.171 228.347 121.724V120.151C228.347 119.862 228.581 119.627 228.871 119.627C229.14 119.627 229.361 119.829 229.391 120.09L229.395 120.151V121.724C229.395 122.592 230.099 123.296 230.968 123.296C231.836 123.296 232.54 122.592 232.54 121.724L232.54 121.2H231.724C231.577 121.2 231.459 121.081 231.459 120.934C231.459 120.854 231.495 120.778 231.558 120.727L233.157 119.448C233.272 119.356 233.439 119.375 233.53 119.489Z" fill="#747784"/>
</g>
<rect x="48.5483" y="138.499" width="202.339" height="1.04839" rx="0.524194" fill="#E5E6E8"/>
<rect x="48.5483" y="151.079" width="72.3387" height="10.4839" rx="5.24194" fill="#E5E6E8"/>
<rect x="161.774" y="145.837" width="20.9677" height="20.9677" rx="10.4839" fill="#E5E6E8"/>
<rect x="191.129" y="145.837" width="20.9677" height="20.9677" rx="10.4839" fill="#E5E6E8"/>
<g clip-path="url(#clip3_2637_19723)">
<path d="M203.186 151.079C203.475 151.079 203.709 151.313 203.709 151.603V153.176C203.709 153.236 203.696 153.293 203.677 153.348C203.696 153.462 203.709 153.579 203.709 153.699C204.288 153.699 204.758 154.169 204.758 154.748H205.806V153.962C205.806 153.672 206.041 153.438 206.33 153.438C206.62 153.438 206.854 153.672 206.854 153.962V155.272C206.854 155.562 206.619 155.797 206.33 155.797H204.758V156.845H206.33C206.62 156.845 206.854 157.08 206.854 157.369C206.854 157.659 206.62 157.894 206.33 157.894H204.758V158.417C204.758 158.596 204.742 158.771 204.714 158.941H206.33C206.62 158.941 206.854 159.176 206.854 159.466V160.776C206.854 161.066 206.62 161.301 206.33 161.301C206.041 161.301 205.806 161.066 205.806 160.776V159.99H204.333C203.789 160.929 202.776 161.562 201.612 161.562C200.449 161.562 199.436 160.929 198.892 159.99H197.419V160.776C197.419 161.066 197.184 161.301 196.895 161.301C196.605 161.301 196.371 161.066 196.371 160.776V159.466C196.371 159.176 196.605 158.942 196.895 158.941H198.512C198.483 158.771 198.468 158.596 198.468 158.417V157.894H196.895C196.605 157.893 196.371 157.658 196.371 157.369C196.371 157.08 196.605 156.845 196.895 156.845H198.468V155.797H196.895C196.605 155.797 196.371 155.562 196.371 155.272V153.962C196.371 153.673 196.605 153.438 196.895 153.438C197.184 153.438 197.419 153.672 197.419 153.962V154.748H198.468C198.468 154.169 198.937 153.699 199.516 153.699C199.516 153.58 199.528 153.463 199.547 153.35C199.528 153.295 199.516 153.237 199.516 153.176V151.603C199.516 151.313 199.751 151.079 200.04 151.079C200.329 151.079 200.564 151.313 200.564 151.603V151.885C200.873 151.706 201.23 151.603 201.612 151.603C201.995 151.603 202.353 151.706 202.661 151.885V151.603C202.661 151.313 202.896 151.079 203.186 151.079ZM199.516 158.417C199.516 159.575 200.454 160.514 201.612 160.514C202.77 160.514 203.709 159.575 203.709 158.417V154.748H199.516V158.417ZM201.612 152.651C201.034 152.652 200.565 153.12 200.564 153.699H202.661C202.661 153.12 202.191 152.651 201.612 152.651Z" fill="#747784"/>
</g>
<rect x="220.484" y="145.837" width="20.9677" height="20.9677" rx="10.4839" fill="#E5E6E8"/>
<g clip-path="url(#clip4_2637_19723)">
<path fill-rule="evenodd" clip-rule="evenodd" d="M228.871 151.079C229.16 151.079 229.395 151.313 229.395 151.603V152.127H235.148C235.734 152.127 236.209 152.602 236.209 153.188V159.453C236.209 160.039 235.734 160.514 235.148 160.514H226.787C226.201 160.514 225.726 160.039 225.726 159.453V153.188C225.726 152.602 226.201 152.127 226.787 152.127H228.347V151.603C228.347 151.313 228.581 151.079 228.871 151.079ZM235.161 153.175H226.774V159.466H235.161V153.175ZM233.53 154.086C233.568 154.133 233.588 154.191 233.588 154.252V156.321C233.588 157.768 232.415 158.942 230.968 158.942C229.52 158.942 228.347 157.768 228.347 156.321V154.748C228.347 154.458 228.581 154.224 228.871 154.224C229.14 154.224 229.361 154.426 229.391 154.687L229.395 154.748V156.321C229.395 157.189 230.099 157.893 230.968 157.893C231.836 157.893 232.54 157.189 232.54 156.321L232.54 155.796H231.724C231.577 155.796 231.459 155.678 231.459 155.531C231.459 155.45 231.495 155.374 231.558 155.324L233.157 154.044C233.272 153.953 233.439 153.971 233.53 154.086Z" fill="#747784"/>
</g>
<rect x="48.5483" y="173.095" width="202.339" height="1.04839" rx="0.524194" fill="#E5E6E8"/>
<rect x="48.5483" y="185.676" width="83.871" height="10.4839" rx="5.24194" fill="#E5E6E8"/>
<rect x="161.774" y="180.434" width="20.9677" height="20.9677" rx="10.4839" fill="#E5E6E8"/>
<path d="M177.43 186.324C177.476 186.444 177.5 186.572 177.5 186.701V195.082C177.5 195.661 177.031 196.131 176.452 196.131C176.302 196.131 176.153 196.098 176.017 196.036L173.746 195.001C173.585 195.374 173.214 195.635 172.782 195.635H171.21C170.631 195.635 170.161 195.166 170.161 194.587V193.367L169.385 193.014L168.065 193.014C167.485 193.014 167.016 192.545 167.016 191.966V189.345C167.016 188.766 167.485 188.296 168.065 188.296L169.378 188.296L176.075 185.722C176.616 185.514 177.222 185.784 177.43 186.324ZM176.452 186.701L170.161 189.118V192.215L176.452 195.082V186.701ZM171.21 193.845V194.587H172.782V194.562L171.21 193.845ZM169.113 189.345H168.065V191.966H169.113V189.345Z" fill="#747784"/>
<rect x="191.129" y="180.434" width="20.9677" height="20.9677" rx="10.4839" fill="#E5E6E8"/>
<rect x="220.484" y="180.434" width="20.9677" height="20.9677" rx="10.4839" fill="#E5E6E8"/>
<rect x="48.5483" y="207.692" width="202.339" height="1.04839" rx="0.524194" fill="#E5E6E8"/>
<rect x="48.5483" y="220.272" width="53.4677" height="10.4839" rx="5.24194" fill="#E5E6E8"/>
<rect x="161.774" y="215.031" width="20.9677" height="20.9677" rx="10.4839" fill="#E5E6E8"/>
<path d="M177.43 220.922C177.476 221.042 177.5 221.169 177.5 221.298V229.679C177.5 230.258 177.031 230.728 176.452 230.728C176.302 230.728 176.153 230.696 176.017 230.633L173.746 229.598C173.585 229.971 173.214 230.232 172.782 230.232H171.21C170.631 230.232 170.161 229.763 170.161 229.184V227.964L169.385 227.611L168.065 227.611C167.485 227.611 167.016 227.142 167.016 226.563V223.942C167.016 223.363 167.485 222.894 168.065 222.894L169.378 222.893L176.075 220.319C176.616 220.111 177.222 220.381 177.43 220.922ZM176.452 221.298L170.161 223.715V226.812L176.452 229.679V221.298ZM171.21 228.442V229.184H172.782V229.159L171.21 228.442ZM169.113 223.942H168.065V226.563H169.113V223.942Z" fill="#747784"/>
<rect x="191.129" y="215.031" width="20.9677" height="20.9677" rx="10.4839" fill="#E5E6E8"/>
<g clip-path="url(#clip5_2637_19723)">
<path d="M203.186 220.273C203.475 220.273 203.709 220.507 203.709 220.796V222.37C203.709 222.43 203.696 222.487 203.677 222.542C203.697 222.656 203.709 222.773 203.709 222.893C204.288 222.893 204.758 223.363 204.758 223.942H205.806V223.156C205.806 222.866 206.041 222.631 206.331 222.631C206.62 222.631 206.855 222.866 206.855 223.156V224.466C206.855 224.756 206.62 224.991 206.331 224.991H204.758V226.039H206.331C206.62 226.039 206.855 226.273 206.855 226.563C206.855 226.852 206.62 227.087 206.331 227.087H204.758V227.611C204.758 227.789 204.743 227.965 204.714 228.135H206.331C206.62 228.135 206.855 228.37 206.855 228.66V229.97C206.855 230.26 206.62 230.495 206.331 230.495C206.041 230.494 205.806 230.26 205.806 229.97V229.184H204.333C203.789 230.123 202.776 230.756 201.613 230.756C200.449 230.756 199.436 230.123 198.892 229.184H197.419V229.97C197.419 230.26 197.184 230.495 196.895 230.495C196.606 230.494 196.372 230.26 196.372 229.97V228.66C196.372 228.37 196.606 228.135 196.895 228.135H198.512C198.484 227.965 198.468 227.789 198.468 227.611V227.087H196.895C196.606 227.087 196.372 226.852 196.372 226.563C196.372 226.274 196.606 226.039 196.895 226.039H198.468V224.991H196.895C196.606 224.991 196.372 224.756 196.372 224.466V223.156C196.372 222.866 196.606 222.632 196.895 222.631C197.185 222.631 197.419 222.866 197.419 223.156V223.942H198.468C198.468 223.363 198.937 222.893 199.516 222.893C199.516 222.774 199.528 222.657 199.547 222.543C199.528 222.489 199.516 222.431 199.516 222.37V220.796C199.516 220.507 199.751 220.273 200.041 220.273C200.33 220.273 200.565 220.507 200.565 220.796V221.079C200.873 220.9 201.231 220.796 201.613 220.796C201.995 220.796 202.353 220.9 202.662 221.079V220.796C202.662 220.507 202.897 220.273 203.186 220.273ZM199.516 227.611C199.516 228.769 200.455 229.707 201.613 229.708C202.771 229.708 203.709 228.769 203.709 227.611V223.942H199.516V227.611ZM201.613 221.845C201.034 221.845 200.565 222.314 200.565 222.893H202.662C202.661 222.314 202.192 221.845 201.613 221.845Z" fill="#747784"/>
</g>
<rect x="220.484" y="215.031" width="20.9677" height="20.9677" rx="10.4839" fill="#E5E6E8"/>
<path d="M62.7878 91.1197C63.0642 90.8503 63.5067 90.8561 63.7761 91.1325L63.7964 91.1533C64.0618 91.4257 64.0607 91.8603 63.7939 92.1314L60.0258 95.9596C59.8838 96.0991 59.6625 96.097 59.5273 95.9592L57.7652 94.1635C57.4984 93.8917 57.4984 93.4563 57.7652 93.1845L57.7847 93.1646C57.7878 93.1615 57.7909 93.1583 57.794 93.1553C58.0695 92.8849 58.5121 92.8891 58.7824 93.1646L59.7758 94.1769L62.7776 91.1298L62.7878 91.1197ZM55.5375 93.0679C55.9235 93.0679 56.2364 93.3808 56.2364 93.7668C56.2364 94.1528 55.9235 94.4657 55.5375 94.4657H51.3439C50.9579 94.4657 50.645 94.1528 50.645 93.7668C50.645 93.3808 50.9579 93.0679 51.3439 93.0679H55.5375ZM59.0321 89.5732C59.4181 89.5732 59.731 89.8862 59.731 90.2722C59.731 90.6582 59.4181 90.9711 59.0321 90.9711H51.3439C50.9579 90.9711 50.645 90.6582 50.645 90.2722C50.645 89.8862 50.9579 89.5732 51.3439 89.5732H59.0321ZM62.5267 86.0786C62.9127 86.0786 63.2257 86.3915 63.2257 86.7775C63.2257 87.1635 62.9127 87.4765 62.5267 87.4765H51.3439C50.9579 87.4765 50.645 87.1635 50.645 86.7775C50.645 86.3915 50.9579 86.0786 51.3439 86.0786H62.5267Z" fill="#0D3ECC"/>
<rect x="208" y="48" width="49" height="15" rx="7.5" fill="#0D3ECC"/>
<path fill-rule="evenodd" clip-rule="evenodd" d="M217.583 52.5832C217.583 52.0769 217.994 51.6665 218.5 51.6665C219.006 51.6665 219.417 52.0769 219.417 52.5832V54.5832H221.417C221.923 54.5832 222.333 54.9936 222.333 55.4998C222.333 56.0061 221.923 56.4165 221.417 56.4165H219.417V58.4165C219.417 58.9228 219.006 59.3332 218.5 59.3332C217.994 59.3332 217.583 58.9228 217.583 58.4165V56.4165H215.583C215.077 56.4165 214.667 56.0061 214.667 55.4998C214.667 54.9936 215.077 54.5832 215.583 54.5832H217.583V52.5832Z" fill="#3D65D6"/>
<rect x="226.333" y="53.5" width="24" height="4" rx="2" fill="#3D65D6"/>
<g filter="url(#filter0_d_2637_19723)">
<path fill-rule="evenodd" clip-rule="evenodd" d="M248.141 61.3517C248.14 60.7838 247.692 60.3237 247.141 60.3237C246.588 60.3237 246.141 60.7846 246.141 61.3531V62.3825L246.141 63.1546C246.141 63.2967 246.029 63.4119 245.891 63.4119C245.753 63.4119 245.641 63.2967 245.641 63.1546V62.3825H245.641V57.2355C245.641 56.6669 245.193 56.2061 244.641 56.2061C244.088 56.2061 243.641 56.6669 243.641 57.2355V62.3825V64.4413V65.7329L242.875 64.312C242.607 63.8149 241.998 63.6356 241.515 63.9114C241.032 64.1873 240.858 64.8139 241.126 65.3111L243.89 70.4381C244.183 70.9817 244.722 71.2957 245.285 71.3146C245.692 71.5273 246.153 71.6472 246.641 71.6472H250.141C251.797 71.6472 253.141 70.2646 253.141 68.559V64.453L253.141 64.4413V62.3825C253.141 61.814 252.693 61.3531 252.141 61.3531C251.588 61.3531 251.141 61.814 251.141 62.3825L251.141 63.1546C251.141 63.2967 251.029 63.4119 250.891 63.4119C250.753 63.4119 250.641 63.2967 250.641 63.1546L250.641 62.3825V61.3531L250.641 61.3517C250.64 60.7838 250.192 60.3237 249.641 60.3237C249.088 60.3237 248.641 60.7846 248.641 61.3531V62.3825L248.641 63.1546C248.641 63.2967 248.529 63.4119 248.391 63.4119C248.253 63.4119 248.141 63.2967 248.141 63.1546V61.3517Z" fill="url(#paint0_linear_2637_19723)"/>
</g>
<path fill-rule="evenodd" clip-rule="evenodd" d="M248.641 61.3527C248.641 61.3523 248.641 61.3518 248.641 61.3513C248.641 61.3511 248.641 61.3515 248.641 61.3513C248.641 61.0389 248.777 60.7584 248.991 60.5701C249.166 60.4162 249.393 60.3233 249.641 60.3233C250.097 60.3233 250.482 60.6376 250.602 61.0672C250.627 61.1574 250.641 61.2527 250.641 61.3513V63.1542C250.641 63.2963 250.753 63.4116 250.891 63.4116C251.029 63.4116 251.141 63.2963 251.141 63.1542L251.141 62.3822C251.141 62.0011 251.342 61.6684 251.641 61.4905C251.788 61.4029 251.959 61.3527 252.141 61.3527C252.693 61.3527 253.141 61.8136 253.141 62.3822V64.441L253.141 64.4526V68.5586C253.141 70.2642 251.798 71.6469 250.141 71.6469H246.641C246.153 71.6469 245.692 71.5269 245.285 71.3142C244.722 71.2953 244.183 70.9813 243.89 70.4377L241.126 65.3107C240.858 64.8136 241.032 64.1869 241.515 63.9111C241.887 63.6988 242.333 63.756 242.641 64.0202C242.733 64.0993 242.813 64.197 242.875 64.3117L243.641 65.7326V57.2351C243.641 56.6666 244.088 56.2057 244.641 56.2057C245.193 56.2057 245.641 56.6666 245.641 57.2351V62.3822L245.641 63.1542C245.641 63.2963 245.753 63.4116 245.891 63.4116C246.029 63.4116 246.141 63.2963 246.141 63.1542L246.141 61.3527C246.141 60.9717 246.342 60.6391 246.641 60.4611C246.788 60.3735 246.959 60.3233 247.141 60.3233C247.389 60.3233 247.616 60.4162 247.79 60.5701C248.005 60.7586 248.14 61.0386 248.141 61.3513V63.1542C248.141 63.2963 248.253 63.4116 248.391 63.4116C248.529 63.4116 248.641 63.2963 248.641 63.1542L248.641 61.3527ZM248.391 59.7455C248.733 59.4629 249.168 59.2939 249.641 59.2939C250.432 59.2939 251.116 59.7669 251.44 60.4532C251.658 60.3692 251.894 60.3233 252.141 60.3233C253.245 60.3233 254.141 61.2451 254.141 62.3822V64.4467L254.141 64.4555V68.5586C254.141 70.8327 252.35 72.6763 250.141 72.6763H246.641C246.066 72.6763 245.518 72.551 245.022 72.325C244.207 72.2241 243.446 71.7356 243.016 70.9372L240.252 65.8102C239.716 64.816 240.064 63.5627 241.03 63.011C241.542 62.7182 242.126 62.6818 242.641 62.8607V57.2351C242.641 56.098 243.536 55.1763 244.641 55.1763C245.745 55.1763 246.641 56.098 246.641 57.2351V59.3588C246.801 59.3164 246.968 59.2939 247.141 59.2939C247.614 59.2939 248.048 59.4629 248.391 59.7455Z" fill="#1C1B1F"/>
</g>
<rect x="0.5" y="0.5" width="289" height="245" rx="7.5" stroke="#DDE4F8"/>
<defs>
<filter id="filter0_d_2637_19723" x="240" y="56.2061" width="14.1406" height="17.4414" filterUnits="userSpaceOnUse" color-interpolation-filters="sRGB">
<feFlood flood-opacity="0" result="BackgroundImageFix"/>
<feColorMatrix in="SourceAlpha" type="matrix" values="0 0 0 0 0 0 0 0 0 0 0 0 0 0 0 0 0 0 127 0" result="hardAlpha"/>
<feOffset dy="1"/>
<feGaussianBlur stdDeviation="0.5"/>
<feComposite in2="hardAlpha" operator="out"/>
<feColorMatrix type="matrix" values="0 0 0 0 0 0 0 0 0 0 0 0 0 0 0 0 0 0 0.1 0"/>
<feBlend mode="normal" in2="BackgroundImageFix" result="effect1_dropShadow_2637_19723"/>
<feBlend mode="normal" in="SourceGraphic" in2="effect1_dropShadow_2637_19723" result="shape"/>
</filter>
<linearGradient id="paint0_linear_2637_19723" x1="247.07" y1="56.2061" x2="247.07" y2="71.6472" gradientUnits="userSpaceOnUse">
<stop offset="0.353422" stop-color="white"/>
<stop offset="1" stop-color="#E7E7E7"/>
</linearGradient>
<clipPath id="clip0_2637_19723">
<rect width="290" height="246" rx="8" fill="white"/>
</clipPath>
<clipPath id="clip1_2637_19723">
<rect width="12.5806" height="12.5806" fill="white" transform="translate(195.323 115.434)"/>
</clipPath>
<clipPath id="clip2_2637_19723">
<rect width="12.5806" height="12.5806" fill="white" transform="translate(224.677 115.434)"/>
</clipPath>
<clipPath id="clip3_2637_19723">
<rect width="12.5806" height="12.5806" fill="white" transform="translate(195.322 150.03)"/>
</clipPath>
<clipPath id="clip4_2637_19723">
<rect width="12.5806" height="12.5806" fill="white" transform="translate(224.677 150.03)"/>
</clipPath>
<clipPath id="clip5_2637_19723">
<rect width="12.5806" height="12.5806" fill="white" transform="translate(195.323 219.224)"/>
</clipPath>
</defs>
</svg>
