<svg width="21" height="21" viewBox="0 0 21 21" fill="none" xmlns="http://www.w3.org/2000/svg">
<path fill-rule="evenodd" clip-rule="evenodd" d="M13.624 3.05873L14.4284 1.60782C14.4492 1.5703 14.4542 1.52606 14.4424 1.48484C14.4306 1.44361 14.4028 1.40877 14.3652 1.38795C14.3413 1.37468 14.3144 1.36776 14.287 1.36786C14.2579 1.36797 14.2293 1.3759 14.2043 1.39083C14.1793 1.40575 14.1588 1.42712 14.145 1.45269L13.3311 2.91754C12.637 2.61391 11.8875 2.45715 11.1297 2.45715C10.3719 2.45715 9.6224 2.61391 8.92835 2.91754L8.11444 1.45269C8.10495 1.43268 8.09145 1.41484 8.07478 1.40025C8.05811 1.38566 8.03861 1.37464 8.0175 1.36788C7.99639 1.36111 7.97412 1.35873 7.95206 1.3609C7.92999 1.36307 7.90861 1.36973 7.88922 1.38047C7.86984 1.39122 7.85287 1.40582 7.83937 1.42337C7.82586 1.44092 7.81611 1.46105 7.8107 1.48252C7.8053 1.50399 7.80437 1.52633 7.80796 1.54817C7.81155 1.57001 7.81959 1.59088 7.83158 1.6095L8.63599 3.0604C7.08978 3.86175 6.04277 5.38799 6.04277 7.13913H16.2167C16.2167 5.38799 15.1697 3.86175 13.624 3.05873ZM8.78189 5.28085C8.69787 5.28085 8.61573 5.25598 8.54586 5.20937C8.476 5.16277 8.42154 5.09653 8.38939 5.01904C8.35723 4.94154 8.34882 4.85627 8.36521 4.774C8.3816 4.69173 8.42207 4.61616 8.48148 4.55685C8.5409 4.49753 8.6166 4.45714 8.69901 4.44078C8.78142 4.42441 8.86684 4.43281 8.94447 4.46491C9.0221 4.49701 9.08846 4.55137 9.13514 4.62111C9.18182 4.69086 9.20674 4.77286 9.20674 4.85674C9.20659 4.96917 9.16178 5.07696 9.08214 5.15647C9.0025 5.23597 8.89452 5.2807 8.78189 5.28085ZM13.4775 5.28085C13.3935 5.28085 13.3114 5.25598 13.2415 5.20937C13.1716 5.16277 13.1172 5.09653 13.085 5.01904C13.0529 4.94154 13.0445 4.85627 13.0609 4.774C13.0773 4.69173 13.1177 4.61616 13.1771 4.55685C13.2365 4.49753 13.3122 4.45714 13.3947 4.44078C13.4771 4.42441 13.5625 4.43281 13.6401 4.46491C13.7178 4.49701 13.7841 4.55137 13.8308 4.62111C13.8775 4.69086 13.9024 4.77286 13.9024 4.85674C13.9022 4.96917 13.8574 5.07696 13.7778 5.15647C13.6981 5.23597 13.5902 5.2807 13.4775 5.28085Z" fill="#1C1B1F" fill-opacity="0.7"/>
<path d="M5.28393 7.67901C5.49779 7.8925 5.61793 8.18206 5.61793 8.48399V13.2273C5.61793 13.5293 5.49779 13.8188 5.28393 14.0323C5.07006 14.2458 4.78001 14.3657 4.47756 14.3657C4.17511 14.3657 3.88506 14.2458 3.6712 14.0323C3.45733 13.8188 3.33719 13.5293 3.33719 13.2273V8.48399C3.33719 8.18206 3.45733 7.8925 3.6712 7.67901C3.88506 7.46552 4.17511 7.34558 4.47756 7.34558C4.78001 7.34558 5.07006 7.46552 5.28393 7.67901Z" fill="#1C1B1F" fill-opacity="0.7"/>
<path d="M18.5882 7.67901C18.8021 7.8925 18.9223 8.18206 18.9223 8.48399V13.2273C18.9223 13.5293 18.8021 13.8188 18.5882 14.0323C18.3744 14.2458 18.0843 14.3657 17.7819 14.3657C17.4794 14.3657 17.1894 14.2458 16.9755 14.0323C16.7617 13.8188 16.6415 13.5293 16.6415 13.2273V8.48399C16.6415 8.18206 16.7617 7.8925 16.9755 7.67901C17.1894 7.46552 17.4794 7.34558 17.7819 7.34558C18.0843 7.34558 18.3744 7.46552 18.5882 7.67901Z" fill="#1C1B1F" fill-opacity="0.7"/>
<path d="M6.04277 14.9014V7.54089H16.2167V14.9014C16.2167 15.2271 16.0871 15.5393 15.8565 15.7696C15.6258 15.9998 15.313 16.1291 14.9869 16.1291H14.1707V18.6403C14.1707 18.9422 14.0506 19.2318 13.8367 19.4453C13.6228 19.6588 13.3328 19.7787 13.0303 19.7787C12.7279 19.7787 12.4378 19.6588 12.224 19.4453C12.0101 19.2318 11.89 18.9422 11.89 18.6403V16.1291H10.3695V18.6403C10.3695 18.9422 10.2493 19.2318 10.0355 19.4453C9.8216 19.6588 9.53154 19.7787 9.2291 19.7787C8.92665 19.7787 8.63659 19.6588 8.42273 19.4453C8.20887 19.2318 8.08873 18.9422 8.08873 18.6403V16.1291H7.27258C6.94641 16.1291 6.6336 15.9998 6.40297 15.7696C6.17233 15.5393 6.04277 15.2271 6.04277 14.9014Z" fill="#1C1B1F" fill-opacity="0.7"/>
</svg>
