<svg viewBox="0 0 40 40" fill="none" xmlns="http://www.w3.org/2000/svg">
<path d="M20 40C31.0457 40 40 31.0457 40 20C40 8.9543 31.0457 0 20 0C8.9543 0 0 8.9543 0 20C0 31.0457 8.9543 40 20 40Z" fill="#E5F6E3"/>
<path d="M28.2223 12.6984C28.2957 12.8893 28.3333 13.092 28.3333 13.2964V26.621C28.3333 27.5415 27.5871 28.2877 26.6666 28.2877C26.4281 28.2877 26.1924 28.2365 25.9754 28.1376L22.3649 26.4916C22.1097 27.0847 21.52 27.5 20.8333 27.5H18.3333C17.4128 27.5 16.6666 26.7538 16.6666 25.8333V23.8943L15.4333 23.3326L13.3333 23.3333C12.4128 23.3333 11.6666 22.5871 11.6666 21.6667V17.5C11.6666 16.5795 12.4128 15.8333 13.3333 15.8333L15.4208 15.8326L26.0687 11.7407C26.9279 11.4104 27.8921 11.8392 28.2223 12.6984ZM26.6666 13.2964L16.6666 17.1399V22.0632L26.6666 26.621V13.2964ZM18.3333 24.6543V25.8333H20.8333V25.7934L18.3333 24.6543ZM15 17.5H13.3333V21.6667H15V17.5Z" fill="#36962D"/>
</svg>
