<svg width="19" height="18" viewBox="0 0 19 18" fill="none" xmlns="http://www.w3.org/2000/svg">
    <path fill-rule="evenodd" clip-rule="evenodd" d="M7.86569 3.71781C8.15858 3.42492 8.63345 3.42492 8.92635 3.71781C9.21924 4.0107 9.21924 4.48558 8.92635 4.77847L5.45455 8.24939L15.4814 8.24998C15.9058 8.24998 16.2499 8.59404 16.2499 9.01846C16.2499 9.44288 15.9058 9.78694 15.4814 9.78694L5.45005 9.78689L8.92635 13.2638C9.19671 13.5341 9.21751 13.9595 8.98874 14.2538L8.92635 14.3244C8.63345 14.6173 8.15858 14.6173 7.86569 14.3244L3.09272 9.55144C2.79982 9.25855 2.79982 8.78367 3.09272 8.49078L7.86569 3.71781Z" fill="white" fill-opacity="0.9"/>
</svg>
