<svg viewBox="0 0 151 150" fill="none" xmlns="http://www.w3.org/2000/svg">
<path d="M53.5 132C82.2188 132 105.5 108.719 105.5 80C105.5 51.2812 82.2188 28 53.5 28C24.7812 28 1.5 51.2812 1.5 80C1.5 108.719 24.7812 132 53.5 132Z" fill="#F1F6FE"/>
<path d="M111.905 128.02C127.402 128.02 139.965 115.457 139.965 99.96C139.965 84.4629 127.402 71.9 111.905 71.9C96.4076 71.9 83.8447 84.4629 83.8447 99.96C83.8447 115.457 96.4076 128.02 111.905 128.02Z" fill="#F1F6FE"/>
<path d="M109.145 98.09C131.261 98.09 149.19 80.1612 149.19 58.045C149.19 35.9288 131.261 18 109.145 18C87.0284 18 69.0996 35.9288 69.0996 58.045C69.0996 80.1612 87.0284 98.09 109.145 98.09Z" fill="#F1F6FE"/>
<path d="M18.5 48C18.5 41.3726 23.8726 36 30.5 36H120.5C127.127 36 132.5 41.3726 132.5 48V101.5C132.5 108.127 127.127 113.5 120.5 113.5H30.5C23.8726 113.5 18.5 108.127 18.5 101.5V48Z" fill="#093F90"/>
<path d="M24.5 49.5C24.5 45.0817 28.0817 41.5 32.5 41.5H118.5C122.918 41.5 126.5 45.0817 126.5 49.5V99.5C126.5 103.918 122.918 107.5 118.5 107.5H32.5C28.0817 107.5 24.5 103.918 24.5 99.5V49.5Z" fill="#3F87F3"/>
<path d="M29.5 65.3077C29.5 62.9286 31.757 61 34.5411 61H116.459C119.243 61 121.5 62.9286 121.5 65.3077V98.6923C121.5 101.071 119.243 103 116.459 103H34.5411C31.757 103 29.5 101.071 29.5 98.6923V65.3077Z" fill="#0F68EE"/>
<path d="M29.5 54C29.5 56.2091 31.757 58 34.5411 58H116.459C119.243 58 121.5 56.2091 121.5 54V51.5C121.5 49.2909 119.243 47.5 116.459 47.5H34.5411C31.757 47.5 29.5 49.2909 29.5 51.5V54Z" fill="#0F68EE"/>
<circle cx="31.75" cy="44.75" r="1.25" fill="#0F68EE"/>
<circle cx="36.25" cy="44.75" r="1.25" fill="#0F68EE"/>
<circle cx="40.75" cy="44.75" r="1.25" fill="#0F68EE"/>
<circle cx="75.5" cy="78.1071" r="22.5" fill="#0C54C0"/>
<circle cx="75.5" cy="74.8929" r="22.5" fill="white"/>
<path d="M75.6602 60.4288C83.7373 60.4288 90.2852 66.9766 90.2852 75.0538C90.285 83.1308 83.7372 89.6788 75.6602 89.6788C67.5832 89.6786 61.0353 83.1307 61.0352 75.0538C61.0352 66.9767 67.5832 60.429 75.6602 60.4288ZM71.1201 83.1319C72.4621 83.8878 74.0101 84.3213 75.6602 84.3214C80.7786 84.3214 84.9286 80.1722 84.9287 75.0538C84.9287 73.4034 84.4944 71.855 83.7383 70.5128L71.1201 83.1319ZM75.6602 65.7852C70.5418 65.7854 66.3926 69.9354 66.3926 75.0538C66.3926 76.572 66.76 78.0039 67.4072 79.2686L79.875 66.7999C78.6104 66.1528 77.1782 65.7852 75.6602 65.7852Z" fill="#EB3333"/>
</svg>
