<svg viewBox="0 0 14 14" fill="none" xmlns="http://www.w3.org/2000/svg">
<path d="M7.00037 0.333334C10.6821 0.33351 13.6664 3.31854 13.6664 7.00033C13.6662 10.682 10.682 13.6662 7.00037 13.6663C3.31858 13.6663 0.33355 10.6821 0.333374 7.00033C0.333374 3.31843 3.31847 0.333334 7.00037 0.333334ZM3.72986 11.2122C4.63303 11.9144 5.76774 12.3333 7.00037 12.3333C9.94563 12.3332 12.3332 9.94559 12.3334 7.00033C12.3334 5.7677 11.9145 4.63299 11.2123 3.72982L3.72986 11.2122ZM7.00037 1.66634C4.05485 1.66634 1.66638 4.05481 1.66638 7.00033C1.66646 8.23238 2.0858 9.36594 2.78748 10.2689L10.2689 2.78744C9.36598 2.08576 8.23242 1.66642 7.00037 1.66634Z" fill="#1C1B1F" fill-opacity="0.7"/>
</svg>
