<svg viewBox="0 0 24 25" fill="none" xmlns="http://www.w3.org/2000/svg">
<path fill-rule="evenodd" clip-rule="evenodd" d="M18.9096 4.39641C19.3001 4.78693 19.3001 5.4201 18.9096 5.81062L4.76747 19.9528C4.37694 20.3433 3.74378 20.3433 3.35326 19.9528C2.96273 19.5622 2.96273 18.9291 3.35326 18.5385L4.93385 16.9575L4.75789 16.7917C4.32827 16.3704 3.93288 15.909 3.57779 15.4108L3.39415 15.1444L1.79785 12.75L3.39415 10.3555C5.18596 7.66779 8.12561 5.97816 11.3482 5.77104L11.6714 5.75529L11.9997 5.74996C13.218 5.74996 14.408 5.96448 15.5222 6.3682L17.4954 4.39641C17.8859 4.00588 18.5191 4.00588 18.9096 4.39641ZM18.4331 7.99426C19.1825 8.58948 19.8536 9.2922 20.4216 10.0892L20.6053 10.3555L22.2016 12.75L20.6053 15.1444C18.8134 17.8321 15.8738 19.5218 12.6512 19.7289L12.328 19.7446L11.9997 19.75C10.4708 19.75 8.98665 19.4121 7.64074 18.7865L9.17141 17.2577C9.884 17.5148 10.6341 17.6755 11.4023 17.7297L11.6867 17.7448L11.9831 17.7501L12.2781 17.7453C14.8695 17.6591 17.2701 16.3722 18.7774 14.2717L18.9412 14.035L19.7977 12.75L18.9412 11.4649C18.4095 10.6675 17.7531 9.97948 17.0072 9.41983L18.4331 7.99426ZM15.5403 10.887L15.6279 11.0637C15.8665 11.5761 15.9997 12.1475 15.9997 12.75C15.9997 14.9591 14.2088 16.75 11.9997 16.75C11.3274 16.75 10.6939 16.5841 10.1377 16.2911L15.5403 10.887ZM12.0163 7.74982L11.7213 7.75459C9.12988 7.84086 6.72929 9.12772 5.22201 11.2282L5.05825 11.4649L4.2007 12.75L5.05825 14.035C5.431 14.5941 5.86513 15.0995 6.34819 15.5445L8.12885 13.7625L8.12614 13.7516C8.0436 13.4315 7.9997 13.0958 7.9997 12.75C7.9997 10.5408 9.79056 8.74996 11.9997 8.74996C12.3496 8.74996 12.689 8.79489 13.0125 8.87929L13.9159 7.97452L13.7654 7.93882C13.3753 7.85434 12.9772 7.79748 12.5739 7.7697L12.2876 7.75492L12.0163 7.74982Z" fill="#1C1B1F"/>
</svg>
