<svg viewBox="0 0 157 24" fill="none" xmlns="http://www.w3.org/2000/svg">
<mask id="mask0_134_3693" style="mask-type:luminance" maskUnits="userSpaceOnUse" x="99" y="0" width="12" height="19">
<path fill-rule="evenodd" clip-rule="evenodd" d="M99.7021 0H110.42V18.9882H99.7021V0Z" fill="white"/>
</mask>
<g mask="url(#mask0_134_3693)">
<path fill-rule="evenodd" clip-rule="evenodd" d="M108.094 9.34973V14.1692C108.094 15.904 107.589 17.0606 104.758 17.0606L102.028 16.8674H101.926V8.28916C103.14 7.71088 104.353 7.42173 105.668 7.32573C107.387 7.22973 108.094 7.90402 108.094 9.34973M102.028 6.36229V6.36229L101.927 0.289143C101.927 0.193143 101.825 0 101.623 0L99.904 0.289143C99.8025 0.289143 99.7021 0.386286 99.7021 0.578286V18.3131C99.7021 18.4103 99.8025 18.5063 99.904 18.6023C101.421 18.8914 103.039 18.9886 104.556 18.9886C109.712 18.9886 110.42 16.6754 110.42 14.0731V9.44572C110.42 6.74743 109.105 5.39772 106.477 5.39772C104.859 5.39772 103.342 5.68686 102.028 6.36229" fill="#0D3ECC"/>
</g>
<path fill-rule="evenodd" clip-rule="evenodd" d="M113.251 5.68652H111.532C111.43 5.68652 111.229 5.78252 111.229 5.87967V5.97567L115.577 18.506L115.88 18.6991H116.386C116.487 18.6991 116.689 18.7951 116.689 18.8911V18.9882L114.97 23.7105C114.97 23.8065 114.97 23.9997 115.172 23.9997H115.273H116.891L117.194 23.8065L119.015 18.6991L123.464 5.97567C123.464 5.87967 123.464 5.68652 123.261 5.68652H123.16H121.441L121.138 5.87967L117.498 16.482C117.396 16.578 117.296 16.674 117.093 16.578C117.093 16.578 116.993 16.578 116.993 16.482L113.453 5.87967L113.251 5.68652Z" fill="#0D3ECC"/>
<path fill-rule="evenodd" clip-rule="evenodd" d="M136.608 10.1216C136.608 8.09757 137.619 7.13414 139.743 7.13414C141.866 7.13414 142.675 8.00157 142.675 10.1216V10.989C142.675 11.085 142.574 11.2781 142.372 11.2781H136.81C136.71 11.2781 136.507 11.1821 136.507 10.989L136.608 10.1216ZM134.384 10.3143V14.2652C134.384 17.5429 136.103 19.0846 139.743 19.0846C141.259 19.0846 142.878 18.8926 144.293 18.4103C144.393 18.4103 144.495 18.3143 144.495 18.1212L144.293 16.8686C144.293 16.7715 144.192 16.6755 143.99 16.6755C142.674 16.9646 141.259 17.1578 139.945 17.1578C137.113 17.1578 136.608 16.1932 136.608 14.1692V13.2058C136.608 13.1086 136.71 12.9166 136.912 12.9166H144.597C144.697 12.9166 144.9 12.8195 144.9 12.6275V10.2172C144.9 6.94062 143.181 5.30176 139.743 5.30176C136.305 5.30176 134.384 7.03662 134.384 10.3143V10.3143Z" fill="#0D3ECC"/>
<mask id="mask1_134_3693" style="mask-type:luminance" maskUnits="userSpaceOnUse" x="146" y="5" width="10" height="14">
<path fill-rule="evenodd" clip-rule="evenodd" d="M146.719 5.39746H155.718V18.9883H146.719V5.39746Z" fill="white"/>
</mask>
<g mask="url(#mask1_134_3693)">
<path fill-rule="evenodd" clip-rule="evenodd" d="M151.472 11.2775C149.146 10.7952 149.045 10.41 149.045 8.96432C149.045 7.42146 149.349 7.32546 151.472 7.32546C152.685 7.32546 153.798 7.42146 155.01 7.6146C155.112 7.6146 155.314 7.5186 155.314 7.32546V6.07289C155.314 5.97575 155.213 5.87975 155.112 5.78375C153.898 5.4946 152.685 5.39746 151.472 5.39746C148.034 5.39746 146.821 6.36203 146.821 8.86832C146.821 11.3735 147.123 12.2409 150.561 13.0123C153.898 13.7837 153.494 13.7837 153.494 15.3255C153.494 16.8683 153.191 17.1575 150.865 17.1575C149.651 17.1575 148.439 16.9643 147.225 16.7712C147.123 16.7712 147.023 16.8683 146.921 16.9643L146.719 18.1209C146.719 18.2169 146.821 18.314 146.921 18.41C148.235 18.7952 149.651 18.9883 151.067 18.9883C155.01 18.9883 155.719 17.7357 155.719 15.2295C155.617 12.53 155.112 12.1449 151.472 11.2775" fill="#0D3ECC"/>
</g>
<path fill-rule="evenodd" clip-rule="evenodd" d="M47.1233 18.5063L44.697 5.87996C44.697 5.78282 44.7974 5.59082 45.0005 5.59082H47.7302C47.8305 5.59082 47.932 5.68682 48.0336 5.78282L49.4492 13.3977C49.5496 13.4937 49.6511 13.5908 49.853 13.4937C49.853 13.4937 49.9545 13.4937 49.9545 13.3977L52.3808 5.78282L52.6842 5.59082H55.7174L56.0208 5.78282L58.3467 13.3977C58.4482 13.4937 58.5486 13.5908 58.7517 13.4937C58.7517 13.4937 58.852 13.4937 58.852 13.3977L60.3692 5.78282C60.3692 5.68682 60.4707 5.59082 60.6726 5.59082H63.4023C63.5039 5.59082 63.7058 5.68682 63.7058 5.87996L61.2795 18.5063C61.2795 18.6023 61.1779 18.6994 60.9761 18.6994H57.3361L57.0326 18.5063L54.4033 10.024C54.3017 9.92796 54.2014 9.83196 53.9995 9.92796C53.9995 9.92796 53.898 9.92796 53.898 10.024L51.3701 18.6023L50.9652 18.7954H47.3252C47.2248 18.6994 47.1233 18.6023 47.1233 18.5063" fill="#0D3ECC"/>
<path fill-rule="evenodd" clip-rule="evenodd" d="M43.0785 16.2892C41.8648 16.2892 41.461 15.8069 41.461 14.2652V1.06063C41.461 0.963484 41.3595 0.771484 41.1576 0.771484L38.1245 1.15663C38.0229 1.15663 37.9214 1.25263 37.9214 1.44577V14.6503C37.9214 17.6389 39.742 18.8915 42.3713 18.8915H44.0892C44.1907 18.8915 44.2923 18.7955 44.2923 18.6023V16.3852C44.2923 16.2892 44.1907 16.0961 43.9888 16.0961L43.0785 16.2892Z" fill="#0D3ECC"/>
<path fill-rule="evenodd" clip-rule="evenodd" d="M84.9392 8.48173C83.827 8.96402 82.6133 9.5423 81.6026 10.2166V18.5057C81.6026 18.6017 81.5011 18.7949 81.2992 18.7949H78.2661C78.1645 18.7949 77.9626 18.6989 77.9626 18.5057V6.26459C77.9626 6.16859 78.063 6.07259 78.1645 5.97544L80.5908 5.5903C80.6923 5.5903 80.7939 5.6863 80.8942 5.78344L81.0973 6.65087C81.0973 6.74687 81.2992 6.84287 81.4008 6.84287C82.3099 6.26459 83.3217 5.78344 84.4339 5.39716C84.5342 5.30116 84.7373 5.39716 84.7373 5.4943L85.0408 8.09659C85.1411 8.19259 85.0408 8.38573 84.9392 8.48173C84.9392 8.38573 84.9392 8.38573 84.9392 8.48173" fill="#0D3ECC"/>
<path fill-rule="evenodd" clip-rule="evenodd" d="M130.845 17.1567C129.429 17.1567 129.327 16.5784 129.327 15.615V7.61497C129.327 7.51783 129.429 7.32583 129.631 7.32583H132.867C132.967 7.32583 133.17 7.22869 133.17 7.03669L133.271 5.78297C133.271 5.68697 133.17 5.49383 132.967 5.49383H129.53C129.429 5.49383 129.227 5.39783 129.227 5.20469V2.40926C129.227 2.31326 129.125 2.12012 128.924 2.12012L127.205 2.40926C127.103 2.40926 127.003 2.5064 127.003 2.6984V5.49383C127.003 5.59097 126.901 5.78297 126.699 5.78297H124.778C124.677 5.78297 124.475 5.88012 124.475 6.07212V7.32583C124.475 7.42183 124.575 7.61497 124.778 7.61497H126.699C126.8 7.61497 127.003 7.71097 127.003 7.90412V16.1933C127.003 18.3133 128.013 19.1807 130.339 19.1807L131.957 18.9875C132.058 18.9875 132.159 18.8915 132.159 18.6984V17.4458C132.159 17.3498 132.058 17.1567 131.855 17.1567H130.845Z" fill="#0D3ECC"/>
<path fill-rule="evenodd" clip-rule="evenodd" d="M94.444 10.9888C94.444 11.0848 94.3424 11.2779 94.1406 11.2779H89.6918V10.1213C89.6918 8.86876 90.2987 8.00133 92.0177 8.00133H92.523C93.6352 8.09733 94.3424 8.96476 94.3424 10.0253V10.1213L94.444 10.9888ZM94.8489 5.78404C93.9386 5.39776 93.0283 5.30176 92.0177 5.30176C90.9055 5.30176 89.7933 5.4949 88.883 5.88004C87.0624 6.74747 86.4556 8.48233 86.4556 10.4103V13.88C86.4556 16.9646 87.8712 18.7955 92.0177 18.8926H93.0283C94.1405 18.8926 95.2527 18.7955 96.3649 18.6035C96.4665 18.6035 96.5668 18.5063 96.5668 18.3143L96.2646 16.5795L93.2302 16.7715C90.7024 16.7715 89.8937 16.0972 89.8937 14.5543V14.1692V13.5909H97.2752C97.3768 13.5909 97.5786 13.4949 97.5786 13.3018V10.5063C97.3768 8.48233 96.8702 6.55433 94.8489 5.78404V5.78404Z" fill="#0D3ECC"/>
<mask id="mask2_134_3693" style="mask-type:luminance" maskUnits="userSpaceOnUse" x="0" y="0" width="24" height="21">
<path fill-rule="evenodd" clip-rule="evenodd" d="M0 0.699219H23.2606V20.9161H0V0.699219Z" fill="white"/>
</mask>
<g mask="url(#mask2_134_3693)">
<path fill-rule="evenodd" clip-rule="evenodd" d="M10.5201 20.9161V20.9161C10.722 20.9161 10.8236 20.8201 10.8236 20.6269C10.8236 20.5309 10.722 20.4338 10.6217 20.3378H10.3182C6.67824 19.6635 4.25078 16.1926 4.95919 12.7229C5.16108 11.9526 5.46451 11.0852 5.96983 10.4098C6.07138 10.2178 6.27327 10.2178 6.47516 10.3138L11.4304 15.0361H11.8342L16.7895 10.3138C16.9914 10.1206 17.0929 10.1206 17.1933 10.3138C18.9123 12.8201 18.6089 16.0006 16.5864 18.2178H16.486C16.486 18.3138 16.5864 18.5069 16.7895 18.5069H16.9914C20.7329 17.0612 23.2607 13.4944 23.2607 9.6395C23.2607 6.16865 21.6432 2.89208 18.812 0.772076C18.7104 0.674933 18.6089 0.674933 18.5085 0.772076L11.9357 7.03608C11.8342 7.13322 11.7339 7.22922 11.5308 7.13322C11.5308 7.13322 11.4304 7.13322 11.4304 7.03608L4.85765 0.772076C4.7561 0.674933 4.65576 0.674933 4.55421 0.772076C1.62262 2.89208 -0.0964281 6.26579 0.00391963 9.73551C0.105462 15.5184 4.55421 20.3378 10.5201 20.9161" fill="#0D3ECC"/>
</g>
<path fill-rule="evenodd" clip-rule="evenodd" d="M32.2595 13.7837C32.361 15.2294 31.2488 16.482 29.7317 16.5791H29.2263C27.8107 16.5791 27.1023 16.0968 27.1023 14.9403C27.1023 13.7837 27.9111 13.3014 29.2263 13.3014H31.956C32.0576 13.3014 32.2595 13.3985 32.2595 13.5905V13.7837ZM29.3267 5.30176C28.1141 5.30176 26.9004 5.3989 25.6867 5.5909C25.5863 5.5909 25.4848 5.68804 25.4848 5.88004L25.7882 7.90404C25.7882 8.00119 25.8897 8.19319 26.0916 8.19319L29.1248 8.00119C31.6526 8.00119 32.4613 8.67547 32.4613 10.2183V11.0858C32.4613 11.1818 32.361 11.3749 32.1579 11.3749H28.9229C26.0916 11.3749 24.4741 12.7235 24.4741 15.2298C24.4741 17.736 26.2935 19.0858 29.1248 19.0858C31.956 19.0858 31.5522 18.7966 32.1579 18.3143C32.2594 18.2183 32.4613 18.2183 32.5629 18.3143C32.5629 18.3143 32.6644 18.4103 32.6644 18.5075V18.6995C32.6644 18.7966 32.7648 18.9886 32.9666 18.9886H35.4945C35.596 18.9886 35.7979 18.8926 35.7979 18.6995V10.4103C35.6975 6.94061 33.2701 5.30176 29.3267 5.30176V5.30176Z" fill="#0D3ECC"/>
<path fill-rule="evenodd" clip-rule="evenodd" d="M72.0981 13.7837C72.1996 15.2294 71.0875 16.482 69.5703 16.5791H69.065C67.6493 16.5791 66.9409 16.0968 66.9409 14.9403C66.9409 13.7837 67.7497 13.3014 69.065 13.3014H71.8962C71.9966 13.3014 72.1996 13.3985 72.1996 13.5905V13.7837H72.0981ZM69.1653 5.30176C67.9527 5.30176 66.739 5.3989 65.5253 5.5909C65.4249 5.5909 65.3234 5.68804 65.3234 5.88004L65.6268 7.90404C65.6268 8.00119 65.7284 8.19319 65.9303 8.19319L68.9634 8.00119C71.4912 8.00119 72.2999 8.67547 72.2999 10.2183V11.0858C72.2999 11.1818 72.1996 11.3749 71.9965 11.3749H68.7615C65.9303 11.3749 64.3127 12.7235 64.3127 15.2298C64.3127 17.736 66.1321 19.0858 68.9634 19.0858C71.7946 19.0858 71.3908 18.7966 71.9965 18.3143C72.0981 18.2183 72.2999 18.2183 72.4015 18.3143C72.4015 18.3143 72.503 18.4103 72.503 18.5075V18.6995C72.503 18.7966 72.6034 18.9886 72.8053 18.9886H75.6365C75.7381 18.9886 75.9399 18.8926 75.9399 18.6995V10.4103C75.6365 6.94061 73.2102 5.30176 69.1653 5.30176V5.30176Z" fill="#0D3ECC"/>
</svg>
