<svg viewBox="0 0 321 22" fill="none" xmlns="http://www.w3.org/2000/svg">
<path fill-rule="evenodd" clip-rule="evenodd" d="M94.4986 8.56636V12.9963C94.4986 14.6347 94.0053 15.6502 91.5489 15.6502C90.7286 15.6502 89.9265 15.5917 89.1657 15.4762L89.1191 15.4688V7.59107L89.1498 7.57651C89.8555 7.23437 91.3524 6.65497 92.489 6.65497C93.8787 6.65497 94.4986 7.24444 94.4986 8.56636ZM89.1993 5.76866L89.1191 5.8113V0.214587C89.1191 0.084037 89.0031 -0.0163252 88.8741 0.00221138L87.3348 0.222002C87.2294 0.237361 87.151 0.32766 87.151 0.434907V16.7396C87.151 16.8408 87.2204 16.9287 87.3192 16.9496C88.6739 17.2393 90.3599 17.3717 91.4006 17.3717C95.8531 17.3717 96.4669 15.2334 96.4669 12.9222V8.6405C96.4669 6.18097 95.2952 4.93346 92.9839 4.93346C91.3564 4.93346 89.9617 5.3651 89.1993 5.76866Z" fill="#0D3ECC"/>
<path fill-rule="evenodd" clip-rule="evenodd" d="M99.074 5.18115H97.5884C97.4428 5.18115 97.3392 5.32362 97.384 5.46185L101.119 16.9762C101.147 17.0647 101.23 17.1245 101.322 17.1245H101.769C101.916 17.1245 102.019 17.2696 101.971 17.4092L100.485 21.7152C100.437 21.855 100.541 22.0002 100.689 22.0002H102.073C102.165 22.0002 102.246 21.9424 102.276 21.8566L103.92 17.1611L107.786 5.46291C107.832 5.32441 107.728 5.18115 107.582 5.18115H106.098C106.005 5.18115 105.922 5.24126 105.894 5.32997L102.767 15.0614C102.703 15.2605 102.421 15.2597 102.358 15.0606L99.2782 5.33077C99.2501 5.24179 99.1675 5.18115 99.074 5.18115Z" fill="#0D3ECC"/>
<path fill-rule="evenodd" clip-rule="evenodd" d="M119.51 9.23434C119.51 7.38201 120.343 6.55581 122.212 6.55581C124.044 6.55581 124.791 7.33169 124.791 9.23434V10.0648C124.791 10.1834 124.694 10.279 124.576 10.279H119.725C119.606 10.279 119.51 10.1834 119.51 10.0648V9.23434ZM117.542 9.38289V12.9965C117.542 15.9814 119.041 17.3716 122.262 17.3716C123.636 17.3716 125.153 17.1383 126.285 16.7567C126.384 16.7234 126.443 16.6222 126.426 16.5197L126.238 15.3744C126.218 15.2505 126.095 15.1713 125.973 15.2018C124.654 15.532 123.465 15.6996 122.435 15.6996C119.948 15.6996 119.51 14.8197 119.51 12.9713V12.1168C119.51 11.9981 119.606 11.9017 119.725 11.9017H126.47C126.589 11.9017 126.685 11.8059 126.685 11.6875V9.43241C126.685 6.4046 125.222 4.93359 122.212 4.93359C119.113 4.93359 117.542 6.43029 117.542 9.38289Z" fill="#0D3ECC"/>
<path fill-rule="evenodd" clip-rule="evenodd" d="M132.488 10.3026C130.451 9.80581 130.393 9.5606 130.393 8.17036C130.393 7.0158 130.708 6.60561 132.477 6.60561C133.332 6.60561 134.526 6.7216 135.537 6.89902C135.661 6.921 135.777 6.83096 135.788 6.70571L135.891 5.52122C135.9 5.41715 135.832 5.32023 135.73 5.29481C134.799 5.06443 133.655 4.93335 132.551 4.93335C129.561 4.93335 128.45 5.79742 128.45 8.12084C128.45 10.5973 128.727 11.1976 131.674 11.9285C134.071 12.5156 134.239 12.652 134.239 14.0112C134.239 15.2987 133.924 15.6996 131.957 15.6996C131.006 15.6996 129.794 15.537 128.787 15.2791C128.665 15.2481 128.544 15.3284 128.523 15.452L128.337 16.5701C128.32 16.6741 128.38 16.775 128.48 16.8089C129.447 17.1349 130.942 17.3716 132.081 17.3716C135.548 17.3716 136.182 16.215 136.182 13.9371C136.182 11.3939 135.718 11.1105 132.488 10.3026Z" fill="#0D3ECC"/>
<path fill-rule="evenodd" clip-rule="evenodd" d="M41.1662 17.0004L39.0189 5.38086C38.9945 5.24899 39.0957 5.12744 39.2299 5.12744H41.6137C41.7173 5.12744 41.8063 5.20132 41.8248 5.30301L43.1152 12.3138C43.156 12.5354 43.4674 12.5521 43.5317 12.336L45.6311 5.28077C45.6582 5.18967 45.7418 5.12744 45.8369 5.12744H48.6582C48.7532 5.12744 48.8372 5.18994 48.8639 5.28129L50.9397 12.3299C51.0036 12.5466 51.3158 12.5301 51.3565 12.3082L52.6459 5.30301C52.6644 5.20132 52.7531 5.12744 52.8569 5.12744H55.2407C55.375 5.12744 55.4762 5.24899 55.4518 5.38086L53.3045 17.0004C53.2857 17.1023 53.197 17.1759 53.0934 17.1759H49.9443C49.849 17.1759 49.7653 17.1132 49.7383 17.0218L47.4411 9.21607C47.3807 9.01085 47.09 9.01085 47.0296 9.21607L44.7324 17.0218C44.7054 17.1132 44.6217 17.1759 44.5264 17.1759H41.377C41.2737 17.1759 41.185 17.1023 41.1662 17.0004Z" fill="#0D3ECC"/>
<path fill-rule="evenodd" clip-rule="evenodd" d="M37.6818 14.9495C36.5932 14.9495 36.2717 14.4792 36.2717 13.1186V4.38048V0.945661C36.2717 0.81511 36.1565 0.715013 36.0276 0.732755L33.4383 1.09369C33.3324 1.10852 33.2534 1.19935 33.2534 1.30633V1.41808V4.38048V13.4403C33.2534 16.1867 34.9111 17.3741 37.1376 17.3741C37.3651 17.3741 38.1632 17.3391 38.5777 17.2991C38.6873 17.2885 38.7705 17.1956 38.7705 17.0854V15.1531C38.7705 15.0313 38.6698 14.9339 38.5483 14.9389C38.2684 14.9495 37.869 14.9495 37.6818 14.9495Z" fill="#0D3ECC"/>
<path fill-rule="evenodd" clip-rule="evenodd" d="M74.2518 7.71477C73.1888 8.1991 72.3046 8.70938 71.3024 9.34386C71.2401 9.38332 71.202 9.45217 71.202 9.52579V16.9613C71.202 17.0797 71.1061 17.1761 70.9875 17.1761H68.3985C68.2798 17.1761 68.1837 17.0797 68.1837 16.9613V5.74724C68.1837 5.64317 68.2589 5.55393 68.3619 5.53593L70.5153 5.16467C70.6342 5.14401 70.7465 5.22584 70.7643 5.34474L70.881 6.1336C70.9038 6.28692 71.0759 6.36663 71.207 6.28427C71.8783 5.86111 72.9524 5.25867 73.8448 4.95812C73.974 4.91469 74.1098 5.00366 74.1247 5.13925L74.377 7.49683C74.3871 7.58872 74.336 7.67663 74.2518 7.71477Z" fill="#0D3ECC"/>
<path fill-rule="evenodd" clip-rule="evenodd" d="M114.428 15.7244C113.226 15.7244 113.136 15.1734 113.136 14.3331V7.01808C113.136 6.89971 113.232 6.80359 113.351 6.80359H116.188C116.298 6.80359 116.391 6.72017 116.402 6.61028L116.52 5.41705C116.533 5.29074 116.434 5.18111 116.307 5.18111H113.351C113.232 5.18111 113.136 5.08472 113.136 4.96635V2.16971C113.136 2.03943 113.021 1.93854 112.891 1.95734L111.352 2.17739C111.246 2.19222 111.167 2.28305 111.167 2.38977V4.96635C111.167 5.08472 111.071 5.18111 110.953 5.18111H109.255C109.136 5.18111 109.04 5.27723 109.04 5.3956V6.58883C109.04 6.70746 109.136 6.80359 109.255 6.80359H110.953C111.071 6.80359 111.167 6.89971 111.167 7.01808V14.6795C111.167 16.5914 112.019 17.3718 114.106 17.3718C114.573 17.3718 115.055 17.3228 115.525 17.2304C115.625 17.2105 115.696 17.1213 115.696 17.0193V15.8404C115.696 15.7072 115.575 15.6071 115.444 15.6296C115.071 15.6942 114.744 15.7244 114.428 15.7244Z" fill="#0D3ECC"/>
<path fill-rule="evenodd" clip-rule="evenodd" d="M82.5641 10.0177C82.5641 10.1363 82.4683 10.2322 82.3496 10.2322H78.5099H78.5097V9.17719C78.5097 8.03905 79.0292 7.24754 80.514 7.24754C80.6922 7.24754 80.8564 7.25972 81.0087 7.28143C82.1254 7.44323 82.5641 8.17569 82.5641 9.17719V10.0177ZM82.978 5.21964C82.334 4.93523 81.5192 4.77344 80.4888 4.77344C79.3155 4.77344 78.3947 4.97337 77.6803 5.32212C76.044 6.11998 75.4914 7.70089 75.4914 9.47404V12.6655C75.4914 15.4952 76.7458 17.2363 80.3382 17.3134C80.6046 17.3282 80.8908 17.3168 81.1755 17.3168C82.1457 17.3168 83.1544 17.2128 84.108 17.0738C84.225 17.0565 84.3055 16.9472 84.2886 16.8301L84.2732 16.7261L84.0306 15.085C83.1332 15.1801 82.311 15.2177 81.4046 15.2185C79.1778 15.2185 78.5099 14.5753 78.5099 13.2393V12.8186C78.5099 12.817 78.5097 12.8154 78.5097 12.8141V12.2368H78.5099H84.9998C85.1185 12.2368 85.2146 12.1407 85.2146 12.0223V11.1116V9.6226C85.2146 7.7181 84.7472 6.00135 82.978 5.21964Z" fill="#0D3ECC"/>
<path fill-rule="evenodd" clip-rule="evenodd" d="M9.10277 19.2158C9.12236 19.2179 9.14196 19.2205 9.16155 19.2221C9.29025 19.2316 9.41444 19.1106 9.41444 18.974C9.41444 18.8601 9.34242 18.7518 9.22881 18.7359L9.16976 18.7264L9.01353 18.7015C6.29898 18.152 4.2552 15.75 4.2552 12.8699C4.2552 11.6444 4.6254 10.5052 5.25988 9.55848C5.35097 9.42317 5.54613 9.32651 5.70952 9.47904L10.0126 13.8605C10.0619 13.9027 10.1255 13.9286 10.1962 13.9286C10.2669 13.9286 10.3304 13.9027 10.3797 13.8605L14.7289 9.52088C14.9007 9.36756 15.0273 9.40119 15.1332 9.55848C15.7701 10.5038 16.1382 11.6444 16.1382 12.8699C16.1382 14.3907 15.5683 15.7786 14.6306 16.8301C14.5996 16.8651 14.5681 16.8992 14.5361 16.9334C14.5226 16.9628 14.5152 16.9953 14.5152 17.0298C14.5152 17.1571 14.6179 17.2599 14.745 17.2599C14.7575 17.2599 14.7696 17.2588 14.7816 17.2572C14.8149 17.2429 14.848 17.2292 14.8811 17.2151C20.6291 14.7715 20.3918 9.06567 20.3918 9.06567C20.3918 5.78232 18.8437 2.86123 16.4387 0.993542C16.3349 0.91304 16.1848 0.924427 16.0924 1.01684L10.3821 6.73431C10.2801 6.83652 10.1117 6.83652 10.0097 6.73431L4.29968 1.01684C4.20726 0.924427 4.05685 0.91304 3.95331 0.993542C1.54886 2.8607 0.00105923 5.78047 0 9.0625V9.06753C0.00105923 14.3351 3.98668 18.6695 9.10277 19.2158Z" fill="#0D3ECC"/>
<path fill-rule="evenodd" clip-rule="evenodd" d="M28.1331 12.6732C28.1331 14.1823 27.1189 15.1965 25.5107 15.1965C24.2738 15.1965 23.6303 14.7268 23.6303 13.7369C23.6303 12.6485 24.2984 12.2278 25.5107 12.2278H27.9186C28.037 12.2278 28.1331 12.3239 28.1331 12.4423V12.6732ZM25.5107 4.87988C24.4658 4.87988 23.3544 4.96277 22.3248 5.11583C22.2086 5.13304 22.1288 5.24161 22.145 5.35813L22.3968 7.19112C22.4146 7.30499 22.512 7.40853 22.6272 7.39529C23.5935 7.28831 24.2616 7.25494 25.2385 7.25494C27.4653 7.25494 28.1331 7.89816 28.1331 9.23412V10.0341C28.1331 10.1525 28.037 10.2486 27.9186 10.2486H25.1212C22.6471 10.2486 21.2121 11.4858 21.2121 13.7618C21.2121 15.8649 22.8449 17.3491 25.2695 17.3491C26.803 17.3491 27.389 17.1174 27.8897 16.6286C28.0269 16.4946 28.2568 16.5873 28.2568 16.7793V16.9368C28.2568 17.0549 28.3532 17.1513 28.4713 17.1513H30.9369C31.0555 17.1513 31.1514 17.0549 31.1514 16.9368V9.30853C31.1514 6.31488 29.0485 4.87988 25.5107 4.87988Z" fill="#0D3ECC"/>
<path fill-rule="evenodd" clip-rule="evenodd" d="M63.0724 12.6732C63.0724 14.1823 62.0582 15.1965 60.4501 15.1965C59.2131 15.1965 58.5697 14.7268 58.5697 13.7369C58.5697 12.6485 59.2378 12.2278 60.4501 12.2278H62.8579C62.9763 12.2278 63.0724 12.3239 63.0724 12.4423V12.6732ZM60.4501 4.87988C59.4051 4.87988 58.2937 4.96277 57.2642 5.11583C57.1479 5.13304 57.0682 5.24161 57.0841 5.35813L57.3362 7.19112C57.3539 7.30499 57.4514 7.40853 57.5666 7.39529C58.5328 7.28831 59.201 7.25494 60.1778 7.25494C62.4046 7.25494 63.0724 7.89816 63.0724 9.23412V10.0341C63.0724 10.1525 62.9763 10.2486 62.8579 10.2486H60.0605C57.5864 10.2486 56.1514 11.4858 56.1514 13.7618C56.1514 15.8649 57.7842 17.3491 60.2088 17.3491C61.7423 17.3491 62.3283 17.1174 62.8291 16.6286C62.9663 16.4946 63.1961 16.5873 63.1961 16.7793V16.9368C63.1961 17.0549 63.2925 17.1513 63.4106 17.1513H65.8762C65.9949 17.1513 66.091 17.0549 66.091 16.9368V9.30853C66.091 6.31488 63.9879 4.87988 60.4501 4.87988Z" fill="#0D3ECC"/>
<path d="M148.097 21.2417V0.807373H147.179V21.2417H148.097ZM165.387 17.9686C168.55 17.9686 170.584 16.5312 170.584 13.5456V13.4572C170.584 11.4005 169.722 10.2284 167.422 9.6755C169.235 9.05628 169.81 7.77361 169.81 6.33613V6.24767C169.81 3.12945 167.665 2.15639 164.724 2.15639H159.969V17.9686H165.387ZM164.724 9.05628H161.849V3.66021H164.68C166.891 3.66021 167.93 4.39001 167.93 6.18132V6.26978C167.93 8.21591 167.046 9.05628 164.724 9.05628ZM165.343 16.4648H161.849V10.5601H165.078C167.621 10.5601 168.704 11.4889 168.704 13.4351V13.5235C168.704 15.4475 167.643 16.4648 165.343 16.4648ZM176.349 17.9686V11.6216C176.349 8.76878 177.831 8.03899 180.153 7.92841V6.20344C178.074 6.26978 177.079 7.1765 176.349 8.48129V6.40247H174.513V17.9686H176.349ZM188.217 18.1677C191.512 18.1677 193.923 15.7571 193.923 12.263V12.086C193.923 8.61398 191.512 6.20344 188.239 6.20344C184.966 6.20344 182.556 8.63609 182.556 12.1082V12.2851C182.556 15.6687 184.922 18.1677 188.217 18.1677ZM188.239 16.6417C185.895 16.6417 184.458 14.9168 184.458 12.2851V12.1082C184.458 9.45435 185.917 7.72937 188.239 7.72937C190.539 7.72937 192.021 9.45435 192.021 12.1303V12.2851C192.021 14.8946 190.561 16.6417 188.239 16.6417ZM201.811 17.9686L204.509 9.29954L206.919 17.9686H208.954L212.559 6.40247H210.679L207.959 15.7129L205.327 6.40247H203.735L200.926 15.7129L198.228 6.40247H196.238L199.798 17.9686H201.811ZM219.54 18.1677C222.348 18.1677 223.786 16.7523 223.786 14.6514C223.786 12.1966 222.105 11.6658 219.716 11.2235C217.593 10.8476 217.018 10.4274 217.018 9.388C217.018 8.39283 217.881 7.72937 219.208 7.72937C220.667 7.72937 221.375 8.28225 221.64 9.54281H223.41C223.1 7.04381 221.309 6.20344 219.23 6.20344C217.416 6.20344 215.316 7.30919 215.316 9.45435C215.316 11.4668 216.333 12.3072 219.34 12.8601C221.132 13.1918 222.039 13.5899 222.039 14.8062C222.039 16.0446 221.264 16.6417 219.517 16.6417C217.66 16.6417 216.93 15.7792 216.797 14.4081H215.006C215.117 16.7744 216.775 18.1677 219.54 18.1677ZM232.226 18.1677C234.836 18.1677 236.76 16.9513 237.158 14.6293H235.322C235.079 15.9783 234.04 16.6417 232.248 16.6417C229.882 16.6417 228.621 15.1821 228.533 12.5505H237.246V11.9533C237.246 7.81784 234.725 6.20344 232.049 6.20344C228.865 6.20344 226.631 8.63609 226.631 12.1303V12.3072C226.631 15.8677 228.953 18.1677 232.226 18.1677ZM235.367 11.0687H228.599C228.909 9.01205 230.169 7.72937 232.049 7.72937C233.951 7.72937 235.19 8.68032 235.367 11.0687ZM242.812 17.9686V11.6216C242.812 8.76878 244.294 8.03899 246.616 7.92841V6.20344C244.537 6.26978 243.542 7.1765 242.812 8.48129V6.40247H240.976V17.9686H242.812ZM264.005 18.1677C268.053 18.1677 270.861 15.735 270.861 11.1572V9.98511H264.359V11.5774H268.981C268.915 14.386 267.433 16.6196 264.005 16.6196C260.29 16.6196 258.344 14.0543 258.344 10.1399V9.96299C258.344 6.09286 260.423 3.43906 264.05 3.43906C266.35 3.43906 268.075 4.41212 268.517 6.93323H270.441C269.954 3.37272 267.146 1.91312 264.005 1.91312C259.472 1.91312 256.354 5.36307 256.354 9.98511V10.162C256.354 14.7841 259.14 18.1677 264.005 18.1677ZM278.793 18.1677C280.651 18.1677 281.933 17.2167 282.464 16.1331V17.9686H284.3V6.40247H282.464V13.4129C282.464 15.4917 280.916 16.5754 279.28 16.5754C277.466 16.5754 276.604 15.6687 276.604 13.6341V6.40247H274.768V13.7225C274.768 16.9071 276.493 18.1677 278.793 18.1677ZM291.834 18.1677C293.536 18.1677 294.576 17.5927 295.438 16.509V17.9686H297.274V10.3389C297.274 7.11015 295.261 6.20344 293.05 6.20344C290.816 6.20344 288.715 7.1765 288.472 9.80819H290.308C290.485 8.39283 291.369 7.72937 292.961 7.72937C294.731 7.72937 295.438 8.5034 295.438 10.3389V11.1793H293.78C290.816 11.1793 287.986 12.086 287.986 14.762C287.986 17.1283 289.688 18.1677 291.834 18.1677ZM292.01 16.7081C290.396 16.7081 289.821 15.9562 289.821 14.762C289.821 13.0591 291.524 12.4841 293.846 12.4841H295.438V13.9216C295.438 15.7129 293.957 16.7081 292.01 16.7081ZM303.636 17.9686V11.6216C303.636 8.76878 305.117 8.03899 307.439 7.92841V6.20344C305.361 6.26978 304.365 7.1765 303.636 8.48129V6.40247H301.8V17.9686H303.636ZM315.062 18.1677C316.742 18.1677 318.357 17.1061 319.02 15.9783V17.9686H320.856V0.873718H319.02V8.26014C318.357 7.13227 317.163 6.20344 315.239 6.20344C312.054 6.20344 309.843 8.70244 309.843 12.2408V12.4178C309.843 16.0225 312.032 18.1677 315.062 18.1677ZM315.261 16.6417C313.315 16.6417 311.744 15.2485 311.744 12.3293V12.1524C311.744 9.34377 313.116 7.72937 315.415 7.72937C317.671 7.72937 319.087 9.12262 319.087 12.086V12.263C319.087 15.2264 317.406 16.6417 315.261 16.6417Z" fill="#0D3ECC"/>
</svg>
