<svg width="21" height="21" viewBox="0 0 21 21" fill="none" xmlns="http://www.w3.org/2000/svg">
<path d="M18.4693 7.59248C18.6273 7.59248 18.7034 7.6475 18.7584 7.7917C20.3246 11.9958 18.3254 16.6669 14.1969 18.4392C13.2146 18.8582 12.1844 19.0787 11.1197 19.0993C11.0442 19.0993 10.9343 19.0781 10.9068 19.03C10.8794 18.9819 10.9135 18.8721 10.9478 18.8103C12.04 16.9076 13.132 15.0049 14.2379 13.1159C14.5814 12.5389 14.8703 11.9473 14.9527 11.2741C15.0968 10.0447 14.7672 8.95922 13.943 8.0251C13.8812 7.95645 13.8123 7.89457 13.7574 7.81905C13.6889 7.72302 13.7298 7.62689 13.8531 7.60616C13.9012 7.59929 13.9496 7.59932 13.9977 7.59932C14.7463 7.59245 15.4883 7.59248 16.2301 7.59248C16.9787 7.59248 17.7207 7.59935 18.4693 7.59248ZM3.59726 6.67256C3.68656 6.51457 3.79692 6.5281 3.90683 6.71358C4.52502 7.77824 5.13633 8.84325 5.74765 9.90791C6.29029 10.8489 6.82614 11.7902 7.36191 12.7243C8.26871 14.311 10.0965 15.1082 11.8687 14.6892C11.9167 14.6755 11.9644 14.6609 12.0123 14.654C12.129 14.6471 12.1978 14.7298 12.1568 14.8396C12.1431 14.8876 12.1091 14.9361 12.0816 14.9841C11.3466 16.2549 10.6115 17.5258 9.88339 18.8034C9.78727 18.9682 9.69077 19.0096 9.50546 18.9753C7.16986 18.5357 5.31473 17.354 3.97519 15.3894C3.14403 14.1941 2.6906 12.8476 2.57382 11.3845C2.56695 11.3295 2.55335 11.2812 2.54648 11.2263V10.2097C2.58767 9.90074 2.62929 9.58501 2.67734 9.27608C2.8353 8.35575 3.15088 7.48989 3.59726 6.67256ZM10.941 7.60616C12.7201 7.62682 14.0455 9.06963 14.0455 10.7595C14.0111 12.5385 12.5829 13.8776 10.8932 13.8571C9.13468 13.8365 7.78094 12.422 7.79453 10.7185C7.80826 8.93241 9.24426 7.59242 10.941 7.60616ZM11.4078 2.36494C11.7788 2.4199 12.157 2.45442 12.5211 2.52998C14.2106 2.8597 15.6599 3.64255 16.8687 4.85811C17.3289 5.31828 17.7275 5.82715 18.0641 6.39034C18.0983 6.45203 18.1332 6.555 18.1129 6.58955C18.0786 6.64442 17.9755 6.67248 17.9068 6.67256C15.7019 6.67943 13.4966 6.69222 11.2848 6.66475C10.5154 6.65788 9.77342 6.74119 9.08652 7.09834C8.06984 7.62042 7.38907 8.43091 7.02499 9.52315C6.99063 9.62618 6.92863 9.77695 6.84628 9.8044C6.70236 9.8452 6.67465 9.67392 6.61288 9.57784C5.88475 8.31391 5.15648 7.0429 4.42148 5.78584C4.33918 5.64171 4.34678 5.53836 4.45663 5.40791C5.67241 3.9656 7.18329 3.01057 9.02402 2.58467C9.42231 2.48853 9.8415 2.45407 10.2467 2.39229C10.3084 2.38543 10.3637 2.37182 10.4185 2.35811C10.7482 2.36498 11.0782 2.36494 11.4078 2.36494Z" fill="#1C1B1F" fill-opacity="0.7"/>
</svg>
