<svg width="159" height="159" viewBox="0 0 159 159" fill="none" xmlns="http://www.w3.org/2000/svg">
<path opacity="0.15" d="M100.748 9.00977C124.191 9.00991 143.195 28.0149 143.195 51.458C143.195 62.538 138.948 72.6245 131.995 80.1836C141.991 84.9773 148.893 95.1913 148.893 107.018C148.893 123.445 135.576 136.762 119.149 136.762C110.977 136.762 103.575 133.465 98.1992 128.13C88.1604 138.659 73.9962 145.22 58.2998 145.22C27.858 145.22 3.17969 120.541 3.17969 90.0996C3.17993 59.6579 27.8581 34.9806 58.2998 34.9805C59.4 34.9805 60.4929 35.0126 61.5771 35.0762C67.9875 19.7662 83.1115 9.00977 100.748 9.00977Z" fill="#0D3ECC"/>
<path d="M79.765 25.4399C82.7088 25.4399 85.5979 25.6763 88.4134 26.1313C89.9167 26.3744 91.1271 27.4686 91.6077 28.9136C93.722 35.2714 100.981 38.2783 106.972 35.2778C108.33 34.597 109.956 34.6786 111.188 35.5669C115.898 38.9623 120.037 43.1018 123.432 47.812C124.32 49.0441 124.402 50.669 123.722 52.0269C120.721 58.0177 123.728 65.2768 130.086 67.3911C131.531 67.8712 132.624 69.0809 132.867 70.5835C133.323 73.4 133.56 76.2898 133.56 79.2349C133.56 82.1799 133.322 85.0698 132.867 87.8862C132.623 89.3884 131.53 90.5979 130.086 91.0786C123.728 93.1929 120.721 100.452 123.722 106.443C124.402 107.801 124.32 109.426 123.432 110.658C120.036 115.368 115.897 119.507 111.187 122.902C109.955 123.79 108.33 123.873 106.972 123.193C100.981 120.192 93.7222 123.198 91.6077 129.556C91.1271 131.001 89.9171 132.094 88.4144 132.337C85.5986 132.793 82.7092 133.03 79.765 133.03C76.8192 133.03 73.9287 132.792 71.1116 132.336C69.6096 132.093 68.4003 131 67.9202 129.556C65.8057 123.198 58.5467 120.192 52.556 123.193C51.1987 123.872 49.5745 123.79 48.3431 122.903C43.6322 119.507 39.4927 115.368 36.097 110.657C35.2092 109.425 35.1267 107.8 35.8069 106.443C38.8076 100.452 35.8007 93.1929 29.4427 91.0786C27.9989 90.5985 26.9054 89.3892 26.6624 87.8872C26.2068 85.0704 25.97 82.1802 25.97 79.2349C25.97 76.2899 26.2062 73.4 26.6614 70.5835C26.9043 69.0809 27.9983 67.8712 29.4427 67.3911C35.8007 65.2768 38.8078 58.0177 35.8069 52.0269C35.1268 50.6689 35.209 49.0441 36.097 47.812C39.4922 43.1021 43.6313 38.9632 48.3411 35.5679C49.5732 34.6799 51.1981 34.5977 52.556 35.2778C58.5468 38.2786 65.8058 35.2715 67.9202 28.9136C68.4003 27.4691 69.61 26.3754 71.1126 26.1323C73.9294 25.6767 76.8196 25.4399 79.765 25.4399Z" fill="#0F68EE"/>
<path d="M80.0301 42.9302C100.227 42.9303 116.599 59.3035 116.599 79.5005C116.599 99.6973 100.227 116.07 80.0301 116.07C59.8331 116.07 43.4599 99.6974 43.4598 79.5005C43.4598 59.3034 59.833 42.9302 80.0301 42.9302ZM80.0301 57.77C68.0289 57.77 58.2996 67.4993 58.2996 79.5005C58.2998 91.5015 68.029 101.23 80.0301 101.23C92.031 101.23 101.759 91.5014 101.76 79.5005C101.76 67.4994 92.0311 57.7702 80.0301 57.77Z" fill="#0C54C0"/>
<path d="M80.0303 42.9302C100.227 42.9303 116.6 59.3035 116.6 79.5005C116.6 80.0329 116.586 80.5625 116.564 81.0894C115.731 61.6305 99.6942 46.11 80.0303 46.1099C60.3663 46.1099 44.3291 61.6304 43.4962 81.0894C43.4736 80.5625 43.46 80.0329 43.46 79.5005C43.46 59.3034 59.8333 42.9302 80.0303 42.9302Z" fill="#3F87F3"/>
<path d="M80.0299 100.884C68.3215 100.884 58.8297 91.3925 58.8297 79.6841C58.8297 79.3755 58.8391 79.0686 58.8522 78.7632C59.3351 90.0436 68.6306 99.0404 80.0299 99.0405C91.4293 99.0405 100.727 90.0437 101.21 78.7632C101.223 79.0685 101.23 79.3755 101.23 79.6841C101.23 91.3925 91.7384 100.884 80.0299 100.884Z" fill="#3F87F3"/>
<path d="M95.9535 80.9019C96.7856 84.0077 95.8979 87.3215 93.6243 89.595L89.3748 93.8446C87.1011 96.1182 83.7868 97.0066 80.6809 96.1744L74.8756 94.6187C71.7698 93.7865 69.3439 91.3605 68.5117 88.2547L66.9559 82.4494C66.1237 79.3436 67.0121 76.0292 69.2858 73.7556L73.5353 69.506C75.8089 67.2324 79.1227 66.3447 82.2284 67.1768L86.1527 68.2271C85.9396 68.3895 85.7342 68.567 85.5395 68.7616L82.8948 71.4064C80.5517 73.7495 80.5517 77.5485 82.8948 79.8916L83.1669 80.1637C85.51 82.5068 89.309 82.5068 91.6522 80.1637L94.2969 77.519C94.5068 77.309 94.697 77.0866 94.8693 76.8554L95.9535 80.9019Z" fill="#0C54C0"/>
<path d="M72.2546 84.293C75.8989 84.1687 78.8867 87.1565 78.7625 90.8008C78.7081 92.3956 78.05 93.9107 76.9216 95.0391L58.0359 113.925C56.9075 115.053 55.3924 115.711 53.7976 115.766C50.1533 115.89 47.1655 112.902 47.2898 109.258C47.3442 107.663 48.0024 106.149 49.1306 105.021L68.0173 86.1338C69.1456 85.0056 70.66 84.3474 72.2546 84.293Z" fill="#0C54C0"/>
<path d="M70.9867 81.564C74.631 81.4397 77.6186 84.4273 77.4944 88.0716C77.44 89.6664 76.7821 91.1811 75.6538 92.3095L56.7674 111.196C55.6391 112.324 54.1244 112.982 52.5296 113.036C48.8853 113.161 45.8977 110.173 46.022 106.529C46.0764 104.934 46.7342 103.419 47.8626 102.291L66.7489 83.4046C67.8772 82.2763 69.3919 81.6184 70.9867 81.564Z" fill="#FFCC28"/>
<path d="M71.4061 81.9678C71.6484 81.9572 71.888 81.9617 72.1238 81.9785L72.491 82.3457L48.8563 105.831C48.1285 106.554 46.9361 105.747 47.3358 104.803C47.4286 104.583 47.5625 104.383 47.7303 104.214L69.3465 82.418C69.9968 82.1535 70.6926 81.9988 71.4061 81.9678Z" fill="#FFEBAF"/>
<path d="M72.1119 66.6509C74.3854 64.3773 77.6995 63.4897 80.8052 64.3218L84.8189 65.397C84.5566 65.5853 84.3057 65.7969 84.0699 66.0327L81.4254 68.6772C79.0825 71.0204 79.0823 74.8195 81.4254 77.1626L81.6978 77.4341C84.041 79.7772 87.84 79.7772 90.1832 77.4341L92.8277 74.7905C93.062 74.5562 93.2711 74.3059 93.4586 74.0454L94.5308 78.0464C95.363 81.1522 94.4743 84.4661 92.2007 86.7397L87.9507 90.9897C85.6771 93.2633 82.3632 94.152 79.2574 93.3198L73.4527 91.7642C70.3469 90.932 67.9206 88.5057 67.0884 85.3999L65.5328 79.5942C64.7007 76.4885 65.5883 73.1744 67.8619 70.9009L72.1119 66.6509Z" fill="#FFCC28"/>
<path d="M78.322 64.7202C77.9409 64.9965 77.579 65.305 77.24 65.644L71.2419 71.6421C68.9686 73.9157 68.0807 77.2298 68.9128 80.3354L71.1082 88.5278C71.202 88.8782 71.3168 89.2196 71.45 89.5513C69.9422 88.3677 68.8247 86.7137 68.3123 84.8013L66.949 79.7134C66.1169 76.6077 67.0046 73.2936 69.2781 71.02L73.0027 67.2954C74.4585 65.8396 76.3409 64.9519 78.322 64.7202Z" fill="#FFEBAF"/>
<path d="M120.443 130.645C128.712 130.645 135.415 123.942 135.415 115.673C135.415 107.404 128.712 100.7 120.443 100.7C112.174 100.7 105.47 107.404 105.47 115.673C105.47 123.942 112.174 130.645 120.443 130.645Z" fill="#0C54C0"/>
<path d="M120.443 111.661C121.441 111.661 122.25 110.851 122.25 109.853C122.25 108.855 121.441 108.046 120.443 108.046C119.444 108.046 118.635 108.855 118.635 109.853C118.635 110.851 119.444 111.661 120.443 111.661Z" fill="#FFCC28"/>
<path d="M122.25 115.286C122.25 114.288 121.442 113.479 120.445 113.479C119.449 113.479 118.641 114.288 118.641 115.286V121.492C118.641 122.49 119.449 123.299 120.445 123.299C121.442 123.299 122.25 122.49 122.25 121.492V115.286Z" fill="#FFCC28"/>
</svg>
