<svg viewBox="0 0 97 111" fill="none" xmlns="http://www.w3.org/2000/svg">
<path d="M49.5469 12.463V92.2432" stroke="black" stroke-width="1.20879"/>
<path d="M52.7681 2.02936C49.9715 0.668099 46.7043 0.668007 43.9077 2.02936L6.43506 20.2706C2.95308 21.9656 0.743652 25.4995 0.743652 29.3721V43.7813C0.743656 67.7412 13.327 89.9407 33.8843 102.248L43.1392 107.789C46.3403 109.705 50.3365 109.706 53.5376 107.789L62.7925 102.248C83.3496 89.9406 95.9321 67.7411 95.9321 43.7813V29.3721C95.9321 25.4995 93.7227 21.9656 90.2407 20.2706L52.7681 2.02936Z" fill="#B9BBC1" stroke="#9799A3" stroke-width="0.903273"/>
<path d="M88.6726 33.5945C88.7282 30.8201 87.196 28.2572 84.7258 26.9929L52.4132 10.4546C50.4293 9.43921 48.0886 9.39232 46.0656 10.3275L13.1165 25.5583C10.5977 26.7226 8.96402 29.2221 8.90844 31.9964L8.66101 44.3465C8.25236 64.7433 18.5858 83.8561 35.8761 94.6839L44.9526 100.368C46.4632 101.314 48.3717 101.352 49.9189 100.467L59.2157 95.1515C76.9259 85.0249 88.0166 66.3413 88.4252 45.9445L88.6726 33.5945Z" fill="#DCDDE0"/>
<path d="M48.5007 71C58.718 71 67.0007 62.7173 67.0007 52.5C67.0007 42.2827 58.718 34 48.5007 34C38.2835 34 30.0007 42.2827 30.0007 52.5C30.0007 62.7173 38.2835 71 48.5007 71Z" fill="#B9BBC1"/>
<path d="M48.3604 57.8172C47.3192 57.8172 46.4744 56.9725 46.4744 55.9312V54.7983C46.4744 52.6176 47.6335 50.5744 49.5719 49.3498C50.2071 48.9438 50.8096 48.1056 50.5869 46.953C50.4167 46.0886 49.6963 45.3682 48.8385 45.1979C48.1312 45.0604 47.4501 45.2307 46.9197 45.6695C46.3958 46.1017 46.088 46.7434 46.088 47.4245C46.088 48.4657 45.2432 49.3105 44.202 49.3105C43.1608 49.3105 42.316 48.4657 42.316 47.4245C42.316 45.6105 43.1149 43.9144 44.5163 42.7618C45.9177 41.6093 47.7514 41.1509 49.5523 41.4979C51.9229 41.9564 53.822 43.862 54.287 46.2326C54.7716 48.7146 53.7107 51.19 51.5889 52.5325C50.7441 53.0695 50.2399 53.9142 50.2399 54.7983V55.9312C50.2399 56.9725 49.3951 57.8172 48.3538 57.8172H48.3604Z" fill="white"/>
<path d="M48.3606 63.3767C49.5361 63.3767 50.4889 62.4238 50.4889 61.2484C50.4889 60.0729 49.5361 59.1201 48.3606 59.1201C47.1852 59.1201 46.2323 60.0729 46.2323 61.2484C46.2323 62.4238 47.1852 63.3767 48.3606 63.3767Z" fill="white"/>
</svg>
