<svg viewBox="0 0 160 160" fill="none" xmlns="http://www.w3.org/2000/svg">
<path d="M108 115.2C136.719 115.2 160 92.277 160 64C160 35.723 136.719 12.8 108 12.8C79.2812 12.8 56 35.723 56 64C56 92.277 79.2812 115.2 108 115.2Z" fill="#FFF6DA"/>
<path d="M63.5305 143.595C80.0608 143.595 93.4612 130.194 93.4612 113.664C93.4612 97.1337 80.0608 83.7333 63.5305 83.7333C47.0003 83.7333 33.5999 97.1337 33.5999 113.664C33.5999 130.194 47.0003 143.595 63.5305 143.595Z" fill="#FFF6DA"/>
<path d="M39.6105 105.355C61.1923 105.355 78.6879 87.8591 78.6879 66.2773C78.6879 44.6955 61.1923 27.2 39.6105 27.2C18.0287 27.2 0.533203 44.6955 0.533203 66.2773C0.533203 87.8591 18.0287 105.355 39.6105 105.355Z" fill="#FFF6DA"/>
<path d="M95.1306 77.9893C95.136 77.8827 95.1413 77.7706 95.1413 77.664C95.1413 74.3787 92.4746 71.712 89.1893 71.712C89.072 71.712 88.96 71.712 88.8426 71.7227C88.3893 68.2667 85.4346 65.6 81.856 65.6C78.2773 65.6 75.1413 68.432 74.832 72.0427C73.9893 71.6853 73.0666 71.4933 72.096 71.4933C68.3893 71.4933 65.3493 74.3573 65.0667 77.9947H95.1306V77.9893Z" fill="#FFEFBE"/>
<path d="M60.2668 60.8707C60.2668 54.0823 64.1156 47.8809 70.1986 44.8678L93.6922 33.2305C101.364 29.4305 110.37 29.4305 118.041 33.2305L141.535 44.8678C147.618 47.8809 151.467 54.0823 151.467 60.8708V61.4548C151.467 90.1666 136.504 116.803 111.984 131.74C108.227 134.029 103.507 134.029 99.7501 131.74C75.2299 116.803 60.2668 90.1666 60.2668 61.4548V60.8707Z" fill="#9799A3"/>
<path fill-rule="evenodd" clip-rule="evenodd" d="M88.5336 47.4667C88.5336 46.8776 89.0112 46.4 89.6003 46.4H126.499C134.199 46.4 140.8 51.5891 140.8 58.4C140.8 65.211 134.199 70.4 126.499 70.4H68.8003C68.2112 70.4 67.7336 69.9224 67.7336 69.3333C67.7336 68.7442 68.2112 68.2667 68.8003 68.2667H126.499C133.42 68.2667 138.667 63.6695 138.667 58.4C138.667 53.1305 133.42 48.5333 126.499 48.5333H89.6003C89.0112 48.5333 88.5336 48.0558 88.5336 47.4667Z" fill="#B9BBC1"/>
<path fill-rule="evenodd" clip-rule="evenodd" d="M110.381 120.165L101.234 120.165C93.5349 120.165 86.9335 114.976 86.9335 108.165C86.9335 101.354 93.5349 96.1654 101.234 96.1654L137.333 96.1654C137.923 96.1654 138.4 96.6429 138.4 97.232C138.4 97.8211 137.923 98.2987 137.333 98.2987L101.234 98.2987C94.3136 98.2987 89.0668 102.896 89.0668 108.165C89.0668 113.435 94.3136 118.032 101.234 118.032L110.381 118.032C110.97 118.032 111.448 118.51 111.448 119.099C111.448 119.688 110.97 120.165 110.381 120.165Z" fill="#B9BBC1"/>
<path d="M139.217 60.4475C137.452 60.4475 136.015 59.0107 136.015 57.2454C136.015 55.4801 137.452 54.0434 139.217 54.0434C140.982 54.0434 142.419 55.4801 142.419 57.2454C142.419 59.0107 140.982 60.4475 139.217 60.4475Z" fill="#9799A3"/>
<path fill-rule="evenodd" clip-rule="evenodd" d="M139.217 55.1101C138.041 55.1101 137.082 56.0692 137.082 57.2454C137.082 58.4216 138.041 59.3808 139.217 59.3808C140.393 59.3808 141.353 58.4216 141.353 57.2454C141.353 56.0692 140.393 55.1101 139.217 55.1101ZM134.948 57.2454C134.948 54.891 136.863 52.9767 139.217 52.9767C141.572 52.9767 143.486 54.891 143.486 57.2454C143.486 59.5998 141.572 61.5141 139.217 61.5141C136.863 61.5141 134.948 59.5998 134.948 57.2454Z" fill="#B9BBC1"/>
<path d="M75.7335 72.6987C73.9682 72.6987 72.5315 71.262 72.5315 69.4967C72.5315 67.7314 73.9682 66.2946 75.7335 66.2946C77.4988 66.2946 78.9356 67.7314 78.9356 69.4967C78.9356 71.262 77.4988 72.6987 75.7335 72.6987Z" fill="#9799A3"/>
<path fill-rule="evenodd" clip-rule="evenodd" d="M75.7335 67.3613C74.5574 67.3613 73.5982 68.3205 73.5982 69.4967C73.5982 70.6729 74.5574 71.632 75.7335 71.632C76.9097 71.632 77.8689 70.6729 77.8689 69.4967C77.8689 68.3205 76.9097 67.3613 75.7335 67.3613ZM71.4648 69.4967C71.4648 67.1423 73.3791 65.228 75.7335 65.228C78.0879 65.228 80.0022 67.1423 80.0022 69.4967C80.0022 71.8511 78.0879 73.7654 75.7335 73.7654C73.3791 73.7654 71.4648 71.8511 71.4648 69.4967Z" fill="#B9BBC1"/>
<path fill-rule="evenodd" clip-rule="evenodd" d="M73.0669 83.2C73.0669 82.6109 73.5445 82.1333 74.1336 82.1333H139.734V84.2667H74.1336C73.5445 84.2667 73.0669 83.7891 73.0669 83.2Z" fill="#B9BBC1"/>
<path d="M88.0023 104C89.7676 104 91.2043 105.437 91.2043 107.202C91.2043 108.967 89.7676 110.404 88.0023 110.404C86.237 110.404 84.8003 108.967 84.8003 107.202C84.8003 105.437 86.237 104 88.0023 104Z" fill="#9799A3"/>
<path fill-rule="evenodd" clip-rule="evenodd" d="M88.0023 109.337C89.1785 109.337 90.1377 108.378 90.1377 107.202C90.1377 106.026 89.1785 105.067 88.0023 105.067C86.8261 105.067 85.8669 106.026 85.8669 107.202C85.8669 108.378 86.8261 109.337 88.0023 109.337ZM92.271 107.202C92.271 109.556 90.3567 111.471 88.0023 111.471C85.6479 111.471 83.7336 109.556 83.7336 107.202C83.7336 104.848 85.6479 102.933 88.0023 102.933C90.3567 102.933 92.271 104.848 92.271 107.202Z" fill="#B9BBC1"/>
<path d="M138.133 86.4041C136.368 86.4041 134.931 84.9673 134.931 83.202C134.931 81.4368 136.368 80 138.133 80C139.899 80 141.335 81.4368 141.335 83.202C141.335 84.9673 139.899 86.4041 138.133 86.4041Z" fill="#9799A3"/>
<path fill-rule="evenodd" clip-rule="evenodd" d="M138.133 81.0667C136.957 81.0667 135.998 82.0259 135.998 83.202C135.998 84.3782 136.957 85.3374 138.133 85.3374C139.31 85.3374 140.269 84.3782 140.269 83.202C140.269 82.0259 139.31 81.0667 138.133 81.0667ZM133.865 83.202C133.865 80.8477 135.779 78.9333 138.133 78.9333C140.488 78.9333 142.402 80.8477 142.402 83.202C142.402 85.5564 140.488 87.4707 138.133 87.4707C135.779 87.4707 133.865 85.5564 133.865 83.202Z" fill="#B9BBC1"/>
<path d="M62.1897 55.7835C63.4244 53.7933 65.2045 52.1415 67.3851 51.0613L100.185 34.8143C103.765 33.0409 107.968 33.0409 111.548 34.8143L144.348 51.0613C146.529 52.1414 148.309 53.793 149.543 55.783C148.698 52.0974 146.247 48.9164 142.774 47.1865L111.574 31.6434C107.98 29.8527 103.753 29.8527 100.159 31.6434L68.9589 47.1865C65.4862 48.9165 63.0345 52.0976 62.1897 55.7835Z" fill="#B9BBC1"/>
<path d="M106.133 55.4667C115.853 55.4667 123.733 63.3463 123.734 73.0663C123.734 81.3147 118.059 88.2368 110.401 90.1444V96.5331H116.648C117.91 96.5331 118.934 97.5569 118.934 98.8192V100.114C118.934 101.376 117.91 102.4 116.648 102.4H114.667V108.266H116.648C117.91 108.266 118.934 109.29 118.934 110.553V111.848C118.934 113.11 117.91 114.134 116.648 114.134H110.401V115.505C110.401 117.398 108.865 118.933 106.972 118.933H105.295C103.402 118.933 101.866 117.398 101.866 115.505V90.1434C94.2084 88.236 88.5334 81.3148 88.5334 73.0663C88.5337 63.3464 96.4132 55.4669 106.133 55.4667ZM106.133 66.119C102.296 66.1192 99.186 69.2297 99.1858 73.0663C99.1858 76.9031 102.296 80.0143 106.133 80.0145C109.97 80.0145 113.081 76.9032 113.081 73.0663C113.081 69.2295 109.97 66.119 106.133 66.119Z" fill="#747784"/>
<path d="M101.867 84.8H110.4V112.838C110.4 114.732 108.865 116.267 106.972 116.267H105.296C103.402 116.267 101.867 114.732 101.867 112.838V84.8Z" fill="#E5E6E8"/>
<path d="M106.133 51.7333C115.853 51.7333 123.733 59.6129 123.734 69.3329C123.734 79.0532 115.853 86.9335 106.133 86.9335C96.413 86.9333 88.5334 79.053 88.5334 69.3329C88.5337 59.613 96.4132 51.7335 106.133 51.7333ZM106.133 62.3857C102.296 62.3859 99.186 65.4963 99.1858 69.3329C99.1858 73.1697 102.296 76.281 106.133 76.2812C109.97 76.2812 113.081 73.1699 113.081 69.3329C113.081 65.4962 109.97 62.3857 106.133 62.3857Z" fill="#E5E6E8"/>
<path d="M106.133 62.3857C102.296 62.3859 99.186 65.4963 99.1858 69.3329C99.1858 73.1697 102.296 76.281 106.133 76.2812V116.267H105.295C103.402 116.266 101.866 114.731 101.866 112.838V86.4101C94.2084 84.5026 88.5334 77.5814 88.5334 69.3329C88.5337 59.613 96.4132 51.7335 106.133 51.7333V62.3857Z" fill="#DCDDE0"/>
<path d="M106.103 53.5859C112.898 53.586 118.689 57.8906 120.896 63.9219C117.921 58.8471 112.41 55.4386 106.103 55.4385C99.7958 55.4385 94.286 58.8468 91.3108 63.9209C93.5181 57.8902 99.3075 53.5859 106.103 53.5859Z" fill="white"/>
<path d="M118.933 96.1524C118.933 94.89 117.91 93.8667 116.648 93.8667H110.4V111.467H116.648C117.91 111.467 118.933 110.443 118.933 109.181V107.886C118.933 106.623 117.91 105.6 116.648 105.6H114.667V99.7333H116.648C117.91 99.7333 118.933 98.71 118.933 97.4476V96.1524Z" fill="#DCDDE0"/>
<path d="M118.4 46.4L119.08 49.6526C119.698 52.6189 121.955 54.9324 124.836 55.5681L128 56.2667L124.836 56.9653C121.949 57.6009 119.698 59.9202 119.08 62.8807L118.4 66.1333L117.721 62.8807C117.102 59.9144 114.846 57.6009 111.965 56.9653L108.8 56.2667L111.965 55.5681C114.851 54.9324 117.102 52.6132 117.721 49.6526L118.4 46.4Z" fill="white"/>
<path d="M42.2347 121.749C42.24 121.621 42.2453 121.493 42.2453 121.365C42.2453 117.504 39.1147 114.379 35.2587 114.379C35.12 114.379 34.9867 114.379 34.8533 114.389C34.32 110.331 30.8533 107.2 26.6453 107.2C22.4373 107.2 18.7627 110.528 18.4 114.763C17.4133 114.347 16.3253 114.117 15.184 114.117C10.8267 114.117 7.26402 117.483 6.93335 121.749H42.2347Z" fill="#FFEFBE"/>
<path d="M10.1333 60.8707C10.1333 54.0823 13.982 47.8809 20.0651 44.8678L43.5586 33.2305C51.2303 29.4305 60.2363 29.4305 67.9079 33.2305L91.4015 44.8678C97.4846 47.8809 101.333 54.0823 101.333 60.8708V61.4548C101.333 90.1666 86.3702 116.803 61.8501 131.74C58.0933 134.029 53.3733 134.029 49.6165 131.74C25.0964 116.803 10.1333 90.1666 10.1333 61.4548V60.8707Z" fill="#FFCC28"/>
<path fill-rule="evenodd" clip-rule="evenodd" d="M38.4001 47.4667C38.4001 46.8776 38.8777 46.4 39.4668 46.4H76.3658C84.0653 46.4 90.6668 51.5891 90.6668 58.4C90.6668 65.211 84.0653 70.4 76.3658 70.4H18.6668C18.0777 70.4 17.6001 69.9224 17.6001 69.3333C17.6001 68.7442 18.0777 68.2667 18.6668 68.2667H76.3658C83.2866 68.2667 88.5334 63.6695 88.5334 58.4C88.5334 53.1305 83.2866 48.5333 76.3658 48.5333H39.4668C38.8777 48.5333 38.4001 48.0558 38.4001 47.4667Z" fill="#FFDE77"/>
<path fill-rule="evenodd" clip-rule="evenodd" d="M60.2479 120.165L51.1012 120.165C43.4016 120.165 36.8002 114.976 36.8002 108.165C36.8002 101.354 43.4016 96.1654 51.1012 96.1654L87.2002 96.1654C87.7893 96.1654 88.2668 96.6429 88.2668 97.232C88.2668 97.8211 87.7893 98.2987 87.2002 98.2987L51.1012 98.2987C44.1803 98.2987 38.9335 102.896 38.9335 108.165C38.9335 113.435 44.1803 118.032 51.1012 118.032L60.2479 118.032C60.837 118.032 61.3145 118.51 61.3145 119.099C61.3145 119.688 60.837 120.165 60.2479 120.165Z" fill="#FFDE77"/>
<path d="M89.0836 60.4475C87.3183 60.4475 85.8816 59.0107 85.8816 57.2454C85.8816 55.4801 87.3183 54.0434 89.0836 54.0434C90.8489 54.0434 92.2856 55.4801 92.2856 57.2454C92.2856 59.0107 90.8489 60.4475 89.0836 60.4475Z" fill="#FFCC28"/>
<path fill-rule="evenodd" clip-rule="evenodd" d="M89.0836 55.1101C87.9074 55.1101 86.9483 56.0692 86.9483 57.2454C86.9483 58.4216 87.9074 59.3808 89.0836 59.3808C90.2598 59.3808 91.219 58.4216 91.219 57.2454C91.219 56.0692 90.2598 55.1101 89.0836 55.1101ZM84.8149 57.2454C84.8149 54.891 86.7292 52.9767 89.0836 52.9767C91.438 52.9767 93.3523 54.891 93.3523 57.2454C93.3523 59.5998 91.438 61.5141 89.0836 61.5141C86.7292 61.5141 84.8149 59.5998 84.8149 57.2454Z" fill="#FFDE77"/>
<path d="M25.6002 72.6987C23.8349 72.6987 22.3982 71.262 22.3982 69.4967C22.3982 67.7314 23.8349 66.2946 25.6002 66.2946C27.3655 66.2946 28.8023 67.7314 28.8023 69.4967C28.8023 71.262 27.3655 72.6987 25.6002 72.6987Z" fill="#FFCC28"/>
<path fill-rule="evenodd" clip-rule="evenodd" d="M25.6002 67.3613C24.4241 67.3613 23.4649 68.3205 23.4649 69.4967C23.4649 70.6729 24.4241 71.632 25.6002 71.632C26.7764 71.632 27.7356 70.6729 27.7356 69.4967C27.7356 68.3205 26.7764 67.3613 25.6002 67.3613ZM21.3315 69.4967C21.3315 67.1423 23.2458 65.228 25.6002 65.228C27.9546 65.228 29.8689 67.1423 29.8689 69.4967C29.8689 71.8511 27.9546 73.7654 25.6002 73.7654C23.2458 73.7654 21.3315 71.8511 21.3315 69.4967Z" fill="#FFDE77"/>
<path fill-rule="evenodd" clip-rule="evenodd" d="M22.9336 83.2C22.9336 82.6109 23.4112 82.1333 24.0003 82.1333H89.6003V84.2667H24.0003C23.4112 84.2667 22.9336 83.7891 22.9336 83.2Z" fill="#FFDE77"/>
<path d="M37.8688 104C39.6341 104 41.0708 105.437 41.0708 107.202C41.0708 108.967 39.6341 110.404 37.8688 110.404C36.1035 110.404 34.6667 108.967 34.6667 107.202C34.6667 105.437 36.1035 104 37.8688 104Z" fill="#FFCC28"/>
<path fill-rule="evenodd" clip-rule="evenodd" d="M37.8688 109.337C39.0449 109.337 40.0041 108.378 40.0041 107.202C40.0041 106.026 39.0449 105.067 37.8688 105.067C36.6926 105.067 35.7334 106.026 35.7334 107.202C35.7334 108.378 36.6926 109.337 37.8688 109.337ZM42.1375 107.202C42.1375 109.556 40.2232 111.471 37.8688 111.471C35.5144 111.471 33.6001 109.556 33.6001 107.202C33.6001 104.848 35.5144 102.933 37.8688 102.933C40.2232 102.933 42.1375 104.848 42.1375 107.202Z" fill="#FFDE77"/>
<path d="M88.0001 86.4041C86.2348 86.4041 84.7981 84.9673 84.7981 83.202C84.7981 81.4368 86.2348 80 88.0001 80C89.7654 80 91.2022 81.4368 91.2022 83.202C91.2022 84.9673 89.7654 86.4041 88.0001 86.4041Z" fill="#FFCC28"/>
<path fill-rule="evenodd" clip-rule="evenodd" d="M87.9999 81.0667C86.8237 81.0667 85.8645 82.0259 85.8645 83.202C85.8645 84.3782 86.8237 85.3374 87.9999 85.3374C89.1761 85.3374 90.1353 84.3782 90.1353 83.202C90.1353 82.0259 89.1761 81.0667 87.9999 81.0667ZM83.7312 83.202C83.7312 80.8477 85.6455 78.9333 87.9999 78.9333C90.3543 78.9333 92.2686 80.8477 92.2686 83.202C92.2686 85.5564 90.3543 87.4707 87.9999 87.4707C85.6455 87.4707 83.7312 85.5564 83.7312 83.202Z" fill="#FFDE77"/>
<path d="M12.0564 55.7835C13.2911 53.7933 15.0712 52.1415 17.2518 51.0613L50.0518 34.8143C53.6319 33.0409 57.8347 33.0409 61.4148 34.8143L94.2148 51.0613C96.3953 52.1414 98.1753 53.793 99.41 55.783C98.5651 52.0974 96.1134 48.9164 92.6409 47.1865L61.4408 31.6434C57.8464 29.8527 53.62 29.8527 50.0256 31.6434L18.8256 47.1865C15.3529 48.9165 12.9012 52.0976 12.0564 55.7835Z" fill="#FFDE77"/>
<path d="M55.9998 55.4667C65.7198 55.4667 73.6001 63.3463 73.6003 73.0663C73.6003 81.3147 67.9254 88.2368 60.2673 90.1444V96.5331H66.5144C67.7767 96.5331 68.8005 97.5569 68.8005 98.8192V100.114C68.8005 101.376 67.7767 102.4 66.5144 102.4H64.533V108.266H66.5144C67.7767 108.267 68.8005 109.29 68.8005 110.553V111.848C68.8005 113.11 67.7767 114.134 66.5144 114.134H60.2673V115.505C60.2673 117.398 58.732 118.933 56.8386 118.933H55.1619C53.2684 118.933 51.7332 117.398 51.7332 115.505V90.1434C44.0751 88.236 38.4001 81.3148 38.4001 73.0663C38.4004 63.3464 46.2799 55.4669 55.9998 55.4667ZM55.9998 66.119C52.1631 66.1192 49.0527 69.2297 49.0525 73.0663C49.0525 76.9031 52.163 80.0143 55.9998 80.0145C59.8367 80.0145 62.947 76.9032 62.947 73.0663C62.9468 69.2295 59.8365 66.119 55.9998 66.119Z" fill="#E4AE02"/>
<path d="M51.7336 84.8H60.267V112.838C60.267 114.732 58.732 116.267 56.8384 116.267H55.1622C53.2687 116.267 51.7336 114.732 51.7336 112.838V84.8Z" fill="#0A32A3"/>
<path d="M55.9998 51.7333C65.7198 51.7333 73.6001 59.6129 73.6003 69.3329C73.6003 79.0532 65.72 86.9335 55.9998 86.9335C46.2797 86.9333 38.4001 79.053 38.4001 69.3329C38.4004 59.613 46.2799 51.7335 55.9998 51.7333ZM55.9998 62.3857C52.1631 62.3859 49.0527 65.4963 49.0525 69.3329C49.0525 73.1698 52.163 76.281 55.9998 76.2812C59.8367 76.2812 62.947 73.1699 62.947 69.3329C62.9468 65.4962 59.8365 62.3857 55.9998 62.3857Z" fill="#0A32A3"/>
<path d="M55.9998 62.3857C52.1631 62.3859 49.0527 65.4963 49.0525 69.3329C49.0525 73.1698 52.163 76.281 55.9998 76.2812V116.267H55.1619C53.2684 116.266 51.7332 114.731 51.7332 112.838V86.4101C44.0751 84.5026 38.4001 77.5814 38.4001 69.3329C38.4004 59.613 46.2799 51.7335 55.9998 51.7333V62.3857Z" fill="#0D3ECC"/>
<path d="M55.9695 53.5859C62.7651 53.5861 68.5556 57.8906 70.7625 63.9219C67.7875 58.8471 62.277 55.4386 55.9695 55.4385C49.6634 55.4385 44.153 58.8451 41.1775 63.918C43.3855 57.8887 49.1752 53.5859 55.9695 53.5859Z" fill="#7A95E3"/>
<path d="M68.8002 96.1524C68.8002 94.89 67.7768 93.8667 66.5145 93.8667H60.2668V111.467H66.5145C67.7768 111.467 68.8002 110.443 68.8002 109.181V107.886C68.8002 106.623 67.7768 105.6 66.5145 105.6H64.5335V99.7333H66.5145C67.7768 99.7333 68.8002 98.71 68.8002 97.4476V96.1524Z" fill="#08257A"/>
<path d="M68.2667 46.4L68.9465 49.6526C69.5649 52.6189 71.8215 54.9324 74.702 55.5681L77.8667 56.2667L74.702 56.9653C71.8159 57.6009 69.5649 59.9202 68.9465 62.8807L68.2667 66.1333L67.587 62.8807C66.9685 59.9144 64.712 57.6009 61.8315 56.9653L58.6667 56.2667L61.8315 55.5681C64.7176 54.9324 66.9685 52.6132 67.587 49.6526L68.2667 46.4Z" fill="white"/>
<path d="M151.131 116.389C151.136 116.283 151.141 116.171 151.141 116.064C151.141 112.779 148.475 110.112 145.189 110.112C145.072 110.112 144.96 110.112 144.843 110.123C144.389 106.667 141.435 104 137.856 104C134.277 104 131.141 106.832 130.832 110.443C129.989 110.085 129.067 109.893 128.096 109.893C124.389 109.893 121.349 112.757 121.067 116.395H151.131V116.389Z" fill="#FFEFBE"/>
</svg>
