<svg width="198" height="115" viewBox="0 0 198 115" fill="none" xmlns="http://www.w3.org/2000/svg">
<rect x="0.259644" y="92.1815" width="59.8184" height="5.73601" rx="2.868" fill="url(#paint0_linear_51_10481)"/>
<rect x="197.74" y="97.9175" width="59.8184" height="5.73601" rx="2.868" transform="rotate(-180 197.74 97.9175)" fill="url(#paint1_linear_51_10481)"/>
<rect x="39.2852" y="20.9621" width="111.931" height="76.2895" rx="10.1033" fill="#F6F7F7" stroke="#E5E6E8" stroke-width="0.612321" stroke-linecap="round"/>
<rect x="44.0427" y="26.8343" width="102.413" height="65.678" rx="4.45275" fill="white"/>
<rect x="51.8354" y="33.5134" width="16.6978" height="52.3198" rx="2.22637" fill="#F6F7F7"/>
<path d="M77.438 35.7398C77.438 34.5102 78.4348 33.5134 79.6644 33.5134H137.55C138.78 33.5134 139.777 34.5102 139.777 35.7398V83.6069C139.777 84.8365 138.78 85.8332 137.55 85.8332H79.6644C78.4348 85.8332 77.438 84.8365 77.438 83.6069V35.7398Z" fill="#F6F7F7"/>
<path d="M71.0435 86.4471C71.3065 89.3651 73.7572 91.6522 76.7437 91.6522L114.217 91.6522C117.204 91.6522 119.655 89.3651 119.918 86.4471L71.0435 86.4471Z" fill="white" stroke="#DCDDE0" stroke-width="1.04095"/>
<path d="M25.0066 86.2333C25.1693 92.8213 30.5611 98.1122 37.1882 98.1122L153.774 98.1122C160.401 98.1121 165.792 92.8212 165.955 86.2333L25.0066 86.2333Z" fill="#F6F7F7" stroke="#E5E6E8" stroke-width="0.612321" stroke-linejoin="round"/>
<rect x="135.961" y="40.4216" width="31.886" height="57.046" rx="8.27375" fill="#F6F7F7" stroke="#E5E6E8" stroke-width="0.612321"/>
<rect x="139.847" y="44.3089" width="24.1117" height="49.2717" rx="4.28996" fill="white"/>
<rect x="144.04" y="58.9854" width="15.725" height="30.4017" rx="2.14498" fill="#F6F7F7"/>
<rect x="144.04" y="47.9779" width="15.725" height="6.81417" rx="2.14498" fill="#F6F7F7"/>
<rect x="33.856" y="101.195" width="65.5544" height="5.73601" rx="2.868" fill="url(#paint2_linear_51_10481)"/>
<path d="M97.369 32.1618V93.7115" stroke="black" stroke-width="0.848967"/>
<path d="M99.5454 24.0021C97.5827 23.0467 95.2894 23.0468 93.3267 24.0021L63.7476 38.4015C61.3041 39.5912 59.7535 42.0706 59.7534 44.7883V58.9777C59.7535 75.8036 68.5904 91.3934 83.0269 100.036L92.7866 105.879C95.0334 107.224 97.8387 107.224 100.085 105.879L109.845 100.036C124.282 91.3934 133.119 75.8036 133.119 58.9777V44.7883C133.119 42.0704 131.567 39.5911 129.124 38.4015L99.5454 24.0021Z" fill="#3F87F3" stroke="#0C54C0" stroke-width="0.624574"/>
<path d="M127.56 48.1509C127.599 46.2024 126.523 44.4024 124.788 43.5145L99.363 30.5012C97.9696 29.788 96.3257 29.7551 94.9048 30.4119L68.9785 42.3964C67.2095 43.2141 66.0621 44.9695 66.0231 46.918L65.7803 59.0339C65.4933 73.3591 72.7508 86.7826 84.8942 94.3872L93.9942 100.086C95.0551 100.75 96.3955 100.777 97.4822 100.156L106.803 94.8262C119.241 87.714 127.031 74.592 127.318 60.2668L127.56 48.1509Z" fill="#0F68EE"/>
<path fill-rule="evenodd" clip-rule="evenodd" d="M94.5712 84.7207C94.9135 84.7207 95.087 84.5567 95.087 84.2289C95.087 84.065 94.9135 83.901 94.7447 83.7371H94.2289C88.019 82.5848 83.8775 76.6643 85.0877 70.7437C85.43 69.4275 85.9507 67.9474 86.8137 66.7951C86.9873 66.4672 87.3296 66.4672 87.6767 66.6312L96.1285 74.6875H96.8179L105.27 66.6312C105.612 66.3033 105.786 66.3033 105.959 66.6312C108.89 70.9076 108.375 76.3364 104.922 80.1211H104.749C104.749 80.2851 104.922 80.6129 105.265 80.6129H105.607C111.991 78.1444 116.301 72.0599 116.301 65.4789C116.301 59.5535 113.543 53.9656 108.712 50.3448C108.538 50.1809 108.365 50.1809 108.196 50.3448L96.9818 61.0336C96.8082 61.1976 96.6395 61.3615 96.2924 61.1976C96.2924 61.1976 96.1188 61.1976 96.1188 61.0336L84.9045 50.3448C84.7309 50.1809 84.5622 50.1809 84.3886 50.3448C79.3889 53.9608 76.4527 59.7222 76.6263 65.6428C76.7999 75.512 84.3886 83.7371 94.5663 84.7207" fill="#0C54C0"/>
<path fill-rule="evenodd" clip-rule="evenodd" d="M94.5711 81.2409C94.9134 81.2409 95.087 81.0769 95.087 80.7491C95.087 80.5852 94.9134 80.4212 94.7447 80.2573H94.2288C88.019 79.105 83.8775 73.1845 85.0876 67.2639C85.4299 65.9477 85.9506 64.4676 86.8136 63.3153C86.9872 62.9874 87.3295 62.9874 87.6767 63.1514L96.1284 71.2077H96.8178L105.27 63.1514C105.612 62.8235 105.785 62.8235 105.959 63.1514C108.89 67.4278 108.374 72.8566 104.922 76.6413H104.749C104.749 76.8053 104.922 77.1331 105.265 77.1331H105.607C111.99 74.6646 116.301 68.5801 116.301 61.9991C116.301 56.0737 113.543 50.4858 108.712 46.865C108.538 46.7011 108.365 46.7011 108.196 46.865L96.9818 57.5538C96.8082 57.7178 96.6394 57.8817 96.2923 57.7178C96.2923 57.7178 96.1187 57.7178 96.1187 57.5538L84.9044 46.865C84.7308 46.7011 84.5621 46.7011 84.3885 46.865C79.3888 50.481 76.4527 56.2424 76.6262 62.163C76.7998 72.0322 84.3885 80.2573 94.5663 81.2409" fill="white"/>
<defs>
<linearGradient id="paint0_linear_51_10481" x1="59.0286" y1="97.9176" x2="-0.789801" y2="97.9176" gradientUnits="userSpaceOnUse">
<stop stop-color="#BDBDBD"/>
<stop offset="1" stop-color="#F0F6FF" stop-opacity="0"/>
</linearGradient>
<linearGradient id="paint1_linear_51_10481" x1="256.509" y1="103.654" x2="196.691" y2="103.654" gradientUnits="userSpaceOnUse">
<stop stop-color="#BDBDBD"/>
<stop offset="1" stop-color="#F0F6FF" stop-opacity="0"/>
</linearGradient>
<linearGradient id="paint2_linear_51_10481" x1="98.2603" y1="106.931" x2="32.7059" y2="106.931" gradientUnits="userSpaceOnUse">
<stop stop-color="#BDBDBD"/>
<stop offset="1" stop-color="#F0F6FF" stop-opacity="0"/>
</linearGradient>
</defs>
</svg>
