<svg width="198" height="115" viewBox="0 0 198 115" fill="none" xmlns="http://www.w3.org/2000/svg">
<rect x="0.259644" y="92.1815" width="59.8184" height="5.73601" rx="2.868" fill="url(#paint0_linear_70_856)"/>
<rect x="197.74" y="97.9175" width="59.8184" height="5.73601" rx="2.868" transform="rotate(-180 197.74 97.9175)" fill="url(#paint1_linear_70_856)"/>
<rect x="39.2852" y="20.9621" width="111.931" height="76.2895" rx="10.1033" fill="#F6F7F7" stroke="#E5E6E8" stroke-width="0.612321" stroke-linecap="round"/>
<rect x="44.0427" y="26.8344" width="102.413" height="65.678" rx="4.45275" fill="white"/>
<rect x="51.8354" y="33.5134" width="16.6978" height="52.3198" rx="2.22637" fill="#F6F7F7"/>
<path d="M77.438 35.7398C77.438 34.5102 78.4348 33.5134 79.6644 33.5134H137.55C138.78 33.5134 139.777 34.5102 139.777 35.7398V83.6069C139.777 84.8364 138.78 85.8332 137.55 85.8332H79.6644C78.4348 85.8332 77.438 84.8364 77.438 83.6069V35.7398Z" fill="#F6F7F7"/>
<path d="M71.0435 86.4471C71.3065 89.3651 73.7572 91.6522 76.7437 91.6522L114.217 91.6522C117.204 91.6522 119.655 89.3651 119.918 86.4471L71.0435 86.4471Z" fill="white" stroke="#DCDDE0" stroke-width="1.04095"/>
<path d="M25.0066 86.2333C25.1693 92.8213 30.5611 98.1122 37.1882 98.1122L153.774 98.1122C160.401 98.1121 165.792 92.8212 165.955 86.2333L25.0066 86.2333Z" fill="#F6F7F7" stroke="#E5E6E8" stroke-width="0.612321" stroke-linejoin="round"/>
<rect x="135.961" y="40.4215" width="31.886" height="57.046" rx="8.27375" fill="#F6F7F7" stroke="#E5E6E8" stroke-width="0.612321"/>
<rect x="139.847" y="44.3089" width="24.1117" height="49.2717" rx="4.28996" fill="white"/>
<rect x="144.04" y="58.9853" width="15.725" height="30.4017" rx="2.14498" fill="#F6F7F7"/>
<rect x="144.04" y="47.9779" width="15.725" height="6.81417" rx="2.14498" fill="#F6F7F7"/>
<rect x="33.856" y="101.195" width="65.5544" height="5.73601" rx="2.868" fill="url(#paint2_linear_70_856)"/>
<path d="M97.369 32.1618V93.7115" stroke="black" stroke-width="0.848967"/>
<path d="M99.5454 24.0021C97.5827 23.0467 95.2894 23.0468 93.3267 24.0021L63.7476 38.4016C61.3041 39.5912 59.7535 42.0706 59.7534 44.7883V58.9777C59.7535 75.8036 68.5904 91.3934 83.0269 100.036L92.7866 105.879C95.0334 107.224 97.8387 107.224 100.085 105.879L109.845 100.036C124.282 91.3934 133.119 75.8036 133.119 58.9777V44.7883C133.119 42.0704 131.567 39.5912 129.124 38.4016L99.5454 24.0021Z" fill="#3F87F3" stroke="#0C54C0" stroke-width="0.624574"/>
<path d="M127.56 48.1509C127.599 46.2024 126.523 44.4024 124.788 43.5145L99.363 30.5012C97.9696 29.788 96.3257 29.7551 94.9048 30.4119L68.9785 42.3964C67.2095 43.2141 66.0621 44.9695 66.0231 46.918L65.7803 59.0339C65.4933 73.3591 72.7508 86.7826 84.8942 94.3872L93.9942 100.086C95.0551 100.75 96.3955 100.777 97.4822 100.156L106.803 94.8262C119.241 87.714 127.031 74.592 127.318 60.2668L127.56 48.1509Z" fill="#0F68EE"/>
<path d="M97.0583 43.3273C103.653 43.3273 109 48.6736 109 55.2687C109 60.866 105.148 65.5613 99.9509 66.8546V71.1906H105.017C105.417 71.1907 105.741 71.5146 105.741 71.9142V74.4474C105.741 74.8469 105.417 75.1708 105.017 75.171H102.845V79.1515H105.017C105.417 79.1517 105.741 79.4756 105.741 79.8751V82.4083C105.741 82.8079 105.417 83.1318 105.017 83.132H99.9509V85.3029C99.9509 85.9024 99.4645 86.3888 98.865 86.3888H95.2468C94.6473 86.3888 94.1609 85.9024 94.1609 85.3029V66.8536C88.9662 65.5586 85.1169 60.8643 85.1169 55.2687C85.1169 48.6736 90.4633 43.3273 97.0583 43.3273ZM97.0574 50.5548C94.4541 50.5548 92.3435 52.6654 92.3435 55.2687C92.3435 57.872 94.4541 59.9825 97.0574 59.9825C99.6607 59.9825 101.771 57.872 101.771 55.2687C101.771 52.6654 99.6607 50.5548 97.0574 50.5548Z" fill="#0C54C0"/>
<path d="M94.1609 63.2296H99.9507V83.4938C99.9507 84.0934 99.4647 84.5794 98.8651 84.5794H95.2465C94.647 84.5794 94.1609 84.0934 94.1609 83.4938V63.2296Z" fill="white"/>
<path d="M97.0583 40.7943C103.653 40.7943 109 46.1406 109 52.7357C109 59.3307 103.653 64.6771 97.0583 64.6771C90.4633 64.6771 85.1169 59.3307 85.1169 52.7357C85.1169 46.1406 90.4633 40.7943 97.0583 40.7943ZM97.0574 48.0218C94.4541 48.0218 92.3435 50.1324 92.3435 52.7357C92.3435 55.339 94.4541 57.4495 97.0574 57.4495C99.6607 57.4495 101.771 55.339 101.771 52.7357C101.771 50.1323 99.6607 48.0218 97.0574 48.0218Z" fill="white"/>
<path d="M105.741 70.105C105.741 69.7053 105.417 69.3813 105.017 69.3813H99.9509V81.3227H105.017C105.417 81.3227 105.741 80.9986 105.741 80.5989V78.0659C105.741 77.6662 105.417 77.3422 105.017 77.3422H102.846V73.3617H105.017C105.417 73.3617 105.741 73.0377 105.741 72.638V70.105Z" fill="white"/>
<defs>
<linearGradient id="paint0_linear_70_856" x1="59.0286" y1="97.9176" x2="-0.789801" y2="97.9176" gradientUnits="userSpaceOnUse">
<stop stop-color="#BDBDBD"/>
<stop offset="1" stop-color="#F0F6FF" stop-opacity="0"/>
</linearGradient>
<linearGradient id="paint1_linear_70_856" x1="256.509" y1="103.654" x2="196.691" y2="103.654" gradientUnits="userSpaceOnUse">
<stop stop-color="#BDBDBD"/>
<stop offset="1" stop-color="#F0F6FF" stop-opacity="0"/>
</linearGradient>
<linearGradient id="paint2_linear_70_856" x1="98.2603" y1="106.931" x2="32.7059" y2="106.931" gradientUnits="userSpaceOnUse">
<stop stop-color="#BDBDBD"/>
<stop offset="1" stop-color="#F0F6FF" stop-opacity="0"/>
</linearGradient>
</defs>
</svg>
