<svg width="160" height="160" viewBox="0 0 160 160" fill="none" xmlns="http://www.w3.org/2000/svg">
<path d="M108 115.2C136.719 115.2 160 92.2769 160 63.9999C160 35.7229 136.719 12.7999 108 12.7999C79.2812 12.7999 56 35.7229 56 63.9999C56 92.2769 79.2812 115.2 108 115.2Z" fill="#FFF6DA"/>
<path d="M63.5306 143.595C80.0609 143.595 93.4613 130.194 93.4613 113.664C93.4613 97.1337 80.0609 83.7333 63.5306 83.7333C47.0004 83.7333 33.6 97.1337 33.6 113.664C33.6 130.194 47.0004 143.595 63.5306 143.595Z" fill="#FFF6DA"/>
<path d="M39.6107 105.355C61.1925 105.355 78.688 87.8591 78.688 66.2773C78.688 44.6955 61.1925 27.2 39.6107 27.2C18.0288 27.2 0.533325 44.6955 0.533325 66.2773C0.533325 87.8591 18.0288 105.355 39.6107 105.355Z" fill="#FFF6DA"/>
<path d="M95.1306 77.9893C95.136 77.8826 95.1413 77.7706 95.1413 77.664C95.1413 74.3786 92.4746 71.712 89.1893 71.712C89.072 71.712 88.96 71.712 88.8426 71.7226C88.3893 68.2666 85.4346 65.6 81.856 65.6C78.2773 65.6 75.1413 68.432 74.832 72.0426C73.9893 71.6853 73.0666 71.4933 72.096 71.4933C68.3893 71.4933 65.3493 74.3573 65.0667 77.9946H95.1306V77.9893Z" fill="#FFEFBE"/>
<path d="M60.2666 60.8708C60.2666 54.0824 64.1153 47.881 70.1984 44.8678L93.692 33.2306C101.364 29.4306 110.37 29.4306 118.041 33.2306L141.535 44.8678C147.618 47.881 151.467 54.0824 151.467 60.8708V61.4549C151.467 90.1667 136.504 116.803 111.983 131.74C108.227 134.029 103.507 134.029 99.7498 131.74C75.2297 116.803 60.2666 90.1667 60.2666 61.4549V60.8708Z" fill="#9799A3"/>
<path fill-rule="evenodd" clip-rule="evenodd" d="M88.5333 47.4668C88.5333 46.8777 89.0108 46.4001 89.5999 46.4001H126.499C134.198 46.4001 140.8 51.5892 140.8 58.4001C140.8 65.2111 134.198 70.4001 126.499 70.4001H68.7999C68.2108 70.4001 67.7333 69.9226 67.7333 69.3335C67.7333 68.7444 68.2108 68.2668 68.7999 68.2668H126.499C133.42 68.2668 138.667 63.6696 138.667 58.4001C138.667 53.1307 133.42 48.5335 126.499 48.5335H89.5999C89.0108 48.5335 88.5333 48.0559 88.5333 47.4668Z" fill="#B9BBC1"/>
<path fill-rule="evenodd" clip-rule="evenodd" d="M110.381 120.165L101.234 120.165C93.5347 120.165 86.9332 114.976 86.9332 108.165C86.9332 101.355 93.5347 96.1655 101.234 96.1655L137.333 96.1655C137.922 96.1655 138.4 96.643 138.4 97.2321C138.4 97.8212 137.922 98.2988 137.333 98.2988L101.234 98.2988C94.3134 98.2988 89.0666 102.896 89.0666 108.165C89.0666 113.435 94.3134 118.032 101.234 118.032L110.381 118.032C110.97 118.032 111.448 118.51 111.448 119.099C111.448 119.688 110.97 120.165 110.381 120.165Z" fill="#B9BBC1"/>
<path d="M139.217 60.4476C137.452 60.4476 136.015 59.0109 136.015 57.2456C136.015 55.4803 137.452 54.0436 139.217 54.0436C140.982 54.0436 142.419 55.4803 142.419 57.2456C142.419 59.0109 140.982 60.4476 139.217 60.4476Z" fill="#9799A3"/>
<path fill-rule="evenodd" clip-rule="evenodd" d="M139.217 55.1101C138.041 55.1101 137.081 56.0693 137.081 57.2455C137.081 58.4217 138.041 59.3809 139.217 59.3809C140.393 59.3809 141.352 58.4217 141.352 57.2455C141.352 56.0693 140.393 55.1101 139.217 55.1101ZM134.948 57.2455C134.948 54.8911 136.862 52.9768 139.217 52.9768C141.571 52.9768 143.486 54.8911 143.486 57.2455C143.486 59.5999 141.571 61.5142 139.217 61.5142C136.862 61.5142 134.948 59.5999 134.948 57.2455Z" fill="#B9BBC1"/>
<path d="M75.7333 72.6989C73.968 72.6989 72.5312 71.2621 72.5312 69.4968C72.5312 67.7315 73.968 66.2948 75.7333 66.2948C77.4986 66.2948 78.9353 67.7315 78.9353 69.4968C78.9353 71.2621 77.4986 72.6989 75.7333 72.6989Z" fill="#9799A3"/>
<path fill-rule="evenodd" clip-rule="evenodd" d="M75.7333 67.3615C74.5571 67.3615 73.5979 68.3207 73.5979 69.4968C73.5979 70.673 74.5571 71.6322 75.7333 71.6322C76.9095 71.6322 77.8687 70.673 77.8687 69.4968C77.8687 68.3207 76.9095 67.3615 75.7333 67.3615ZM71.4646 69.4968C71.4646 67.1424 73.3789 65.2281 75.7333 65.2281C78.0877 65.2281 80.002 67.1424 80.002 69.4968C80.002 71.8512 78.0877 73.7655 75.7333 73.7655C73.3789 73.7655 71.4646 71.8512 71.4646 69.4968Z" fill="#B9BBC1"/>
<path fill-rule="evenodd" clip-rule="evenodd" d="M73.0665 83.2002C73.0665 82.6111 73.5441 82.1335 74.1332 82.1335H139.733V84.2669H74.1332C73.5441 84.2669 73.0665 83.7893 73.0665 83.2002Z" fill="#B9BBC1"/>
<path d="M88.0021 104C89.7674 104 91.2041 105.437 91.2041 107.202C91.2041 108.967 89.7674 110.404 88.0021 110.404C86.2368 110.404 84.8 108.967 84.8 107.202C84.8 105.437 86.2368 104 88.0021 104Z" fill="#9799A3"/>
<path fill-rule="evenodd" clip-rule="evenodd" d="M88.0021 109.337C89.1782 109.337 90.1374 108.378 90.1374 107.202C90.1374 106.026 89.1782 105.067 88.0021 105.067C86.8259 105.067 85.8667 106.026 85.8667 107.202C85.8667 108.378 86.8259 109.337 88.0021 109.337ZM92.2708 107.202C92.2708 109.557 90.3565 111.471 88.0021 111.471C85.6477 111.471 83.7334 109.557 83.7334 107.202C83.7334 104.848 85.6477 102.933 88.0021 102.933C90.3565 102.933 92.2708 104.848 92.2708 107.202Z" fill="#B9BBC1"/>
<path d="M138.133 86.4042C136.368 86.4042 134.931 84.9674 134.931 83.2022C134.931 81.4369 136.368 80.0001 138.133 80.0001C139.899 80.0001 141.335 81.4369 141.335 83.2022C141.335 84.9674 139.899 86.4042 138.133 86.4042Z" fill="#9799A3"/>
<path fill-rule="evenodd" clip-rule="evenodd" d="M138.133 81.0668C136.957 81.0668 135.998 82.026 135.998 83.2022C135.998 84.3784 136.957 85.3375 138.133 85.3375C139.309 85.3375 140.269 84.3784 140.269 83.2022C140.269 82.026 139.309 81.0668 138.133 81.0668ZM133.865 83.2022C133.865 80.8478 135.779 78.9335 138.133 78.9335C140.488 78.9335 142.402 80.8478 142.402 83.2022C142.402 85.5566 140.488 87.4709 138.133 87.4709C135.779 87.4709 133.865 85.5566 133.865 83.2022Z" fill="#B9BBC1"/>
<path d="M62.1896 55.7837C63.4243 53.7934 65.2043 52.1416 67.385 51.0614L100.185 34.8144C103.765 33.041 107.968 33.041 111.548 34.8144L144.348 51.0614C146.529 52.1415 148.308 53.7932 149.543 55.7832C148.698 52.0975 146.247 48.9166 142.774 47.1866L111.574 31.6435C107.98 29.8529 103.753 29.8529 100.159 31.6435L68.9588 47.1866C65.4861 48.9166 63.0344 52.0978 62.1896 55.7837Z" fill="#B9BBC1"/>
<path d="M106.133 55.4668C115.853 55.4668 123.733 63.3464 123.733 73.0664C123.733 81.3151 118.058 88.2373 110.399 90.1445V96.5332H116.647C117.91 96.5332 118.934 97.557 118.934 98.8193V100.114C118.934 101.377 117.91 102.4 116.647 102.4H114.666V108.267H116.647C117.91 108.267 118.934 109.29 118.934 110.553V111.848C118.934 113.11 117.91 114.134 116.647 114.134H110.399V115.505C110.399 117.398 108.865 118.933 106.972 118.934H105.295C103.401 118.934 101.866 117.398 101.866 115.505V90.1436C94.2081 88.2361 88.5332 81.3149 88.5332 73.0664C88.5334 63.3465 96.4129 55.467 106.133 55.4668ZM106.133 66.1191C102.296 66.1193 99.1858 69.2298 99.1855 73.0664C99.1855 76.9032 102.296 80.0135 106.133 80.0137C109.97 80.0137 113.08 76.9033 113.08 73.0664C113.08 69.2297 109.97 66.1191 106.133 66.1191Z" fill="#747784"/>
<path d="M101.866 84.8H110.4V112.838C110.4 114.732 108.865 116.267 106.971 116.267H105.295C103.401 116.267 101.866 114.732 101.866 112.838V84.8Z" fill="#E5E6E8"/>
<path d="M106.133 51.7334C115.853 51.7334 123.733 59.613 123.733 69.333C123.733 79.0532 115.853 86.9336 106.133 86.9336C96.4128 86.9334 88.5332 79.0531 88.5332 69.333C88.5334 59.6131 96.4129 51.7336 106.133 51.7334ZM106.133 62.3857C102.296 62.3859 99.1858 65.4964 99.1855 69.333C99.1855 73.1698 102.296 76.2801 106.133 76.2803C109.97 76.2803 113.08 73.1699 113.08 69.333C113.08 65.4963 109.97 62.3857 106.133 62.3857Z" fill="#E5E6E8"/>
<path d="M106.133 62.3857C102.296 62.3859 99.1858 65.4964 99.1855 69.333C99.1855 73.1698 102.296 76.2801 106.133 76.2803V116.267H105.295C103.401 116.267 101.866 114.731 101.866 112.838V86.4102C94.2081 84.5027 88.5332 77.5815 88.5332 69.333C88.5334 59.6131 96.4129 51.7336 106.133 51.7334V62.3857Z" fill="#DCDDE0"/>
<path d="M106.103 53.5861C112.896 53.5862 118.685 57.8891 120.893 63.9181C117.917 58.8456 112.408 55.4388 106.103 55.4386C99.7965 55.4386 94.2861 58.8452 91.3105 63.9181C93.5186 57.8888 99.3083 53.5861 106.103 53.5861Z" fill="white"/>
<path d="M118.933 96.1525C118.933 94.8902 117.91 93.8668 116.647 93.8668H110.4V111.467H116.647C117.91 111.467 118.933 110.443 118.933 109.181V107.886C118.933 106.624 117.91 105.6 116.647 105.6H114.666V99.7335H116.647C117.91 99.7335 118.933 98.7101 118.933 97.4478V96.1525Z" fill="#DCDDE0"/>
<path d="M118.4 46.4001L119.08 49.6528C119.698 52.6191 121.955 54.9326 124.835 55.5682L128 56.2668L124.835 56.9654C121.949 57.6011 119.698 59.9203 119.08 62.8809L118.4 66.1335L117.72 62.8809C117.102 59.9146 114.845 57.6011 111.965 56.9654L108.8 56.2668L111.965 55.5682C114.851 54.9326 117.102 52.6133 117.72 49.6528L118.4 46.4001Z" fill="white"/>
<path d="M42.2347 121.749C42.24 121.621 42.2453 121.493 42.2453 121.365C42.2453 117.504 39.1147 114.379 35.2587 114.379C35.12 114.379 34.9867 114.379 34.8533 114.389C34.32 110.331 30.8533 107.2 26.6453 107.2C22.4373 107.2 18.7627 110.528 18.4 114.763C17.4133 114.347 16.3253 114.117 15.184 114.117C10.8267 114.117 7.26402 117.483 6.93335 121.749H42.2347Z" fill="#FFEFBE"/>
<path d="M10.1334 60.8708C10.1334 54.0824 13.9822 47.881 20.0652 44.8678L43.5588 33.2306C51.2304 29.4306 60.2364 29.4306 67.9081 33.2306L91.4016 44.8678C97.4847 47.881 101.333 54.0824 101.333 60.8708V61.4549C101.333 90.1667 86.3703 116.803 61.8502 131.74C58.0934 134.029 53.3734 134.029 49.6167 131.74C25.0965 116.803 10.1334 90.1667 10.1334 61.4549V60.8708Z" fill="#FFCC28"/>
<path fill-rule="evenodd" clip-rule="evenodd" d="M38.4 47.4668C38.4 46.8777 38.8775 46.4001 39.4666 46.4001H76.3656C84.0652 46.4001 90.6666 51.5892 90.6666 58.4001C90.6666 65.2111 84.0652 70.4001 76.3656 70.4001H18.6666C18.0775 70.4001 17.6 69.9226 17.6 69.3335C17.6 68.7444 18.0775 68.2668 18.6666 68.2668H76.3656C83.2865 68.2668 88.5333 63.6696 88.5333 58.4001C88.5333 53.1307 83.2865 48.5335 76.3656 48.5335H39.4666C38.8775 48.5335 38.4 48.0559 38.4 47.4668Z" fill="#FFDE77"/>
<path fill-rule="evenodd" clip-rule="evenodd" d="M60.2477 120.165L51.101 120.165C43.4015 120.165 36.8 114.976 36.8 108.165C36.8 101.355 43.4015 96.1655 51.101 96.1655L87.2001 96.1655C87.7892 96.1655 88.2667 96.643 88.2667 97.2321C88.2667 97.8212 87.7892 98.2988 87.2001 98.2988L51.101 98.2988C44.1802 98.2988 38.9334 102.896 38.9334 108.165C38.9334 113.435 44.1802 118.032 51.101 118.032L60.2477 118.032C60.8368 118.032 61.3144 118.51 61.3144 119.099C61.3144 119.688 60.8368 120.165 60.2477 120.165Z" fill="#FFDE77"/>
<path d="M89.0836 60.4476C87.3183 60.4476 85.8816 59.0109 85.8816 57.2456C85.8816 55.4803 87.3183 54.0436 89.0836 54.0436C90.8489 54.0436 92.2856 55.4803 92.2856 57.2456C92.2856 59.0109 90.8489 60.4476 89.0836 60.4476Z" fill="#FFCC28"/>
<path fill-rule="evenodd" clip-rule="evenodd" d="M89.0835 55.1101C87.9073 55.1101 86.9482 56.0693 86.9482 57.2455C86.9482 58.4217 87.9073 59.3809 89.0835 59.3809C90.2597 59.3809 91.2189 58.4217 91.2189 57.2455C91.2189 56.0693 90.2597 55.1101 89.0835 55.1101ZM84.8148 57.2455C84.8148 54.8911 86.7291 52.9768 89.0835 52.9768C91.4379 52.9768 93.3522 54.8911 93.3522 57.2455C93.3522 59.5999 91.4379 61.5142 89.0835 61.5142C86.7291 61.5142 84.8148 59.5999 84.8148 57.2455Z" fill="#FFDE77"/>
<path d="M25.6001 72.6989C23.8348 72.6989 22.3981 71.2621 22.3981 69.4968C22.3981 67.7315 23.8348 66.2948 25.6001 66.2948C27.3654 66.2948 28.8021 67.7315 28.8021 69.4968C28.8021 71.2621 27.3654 72.6989 25.6001 72.6989Z" fill="#FFCC28"/>
<path fill-rule="evenodd" clip-rule="evenodd" d="M25.6 67.3615C24.4238 67.3615 23.4646 68.3207 23.4646 69.4968C23.4646 70.673 24.4238 71.6322 25.6 71.6322C26.7762 71.6322 27.7354 70.673 27.7354 69.4968C27.7354 68.3207 26.7762 67.3615 25.6 67.3615ZM21.3313 69.4968C21.3313 67.1424 23.2456 65.2281 25.6 65.2281C27.9544 65.2281 29.8687 67.1424 29.8687 69.4968C29.8687 71.8512 27.9544 73.7655 25.6 73.7655C23.2456 73.7655 21.3313 71.8512 21.3313 69.4968Z" fill="#FFDE77"/>
<path fill-rule="evenodd" clip-rule="evenodd" d="M22.9333 83.2002C22.9333 82.6111 23.4109 82.1335 24 82.1335H89.6V84.2669H24C23.4109 84.2669 22.9333 83.7893 22.9333 83.2002Z" fill="#FFDE77"/>
<path d="M37.8689 104C39.6342 104 41.0709 105.437 41.0709 107.202C41.0709 108.967 39.6342 110.404 37.8689 110.404C36.1036 110.404 34.6669 108.967 34.6669 107.202C34.6669 105.437 36.1036 104 37.8689 104Z" fill="#FFCC28"/>
<path fill-rule="evenodd" clip-rule="evenodd" d="M37.8689 109.337C39.0451 109.337 40.0042 108.378 40.0042 107.202C40.0042 106.026 39.0451 105.067 37.8689 105.067C36.6927 105.067 35.7335 106.026 35.7335 107.202C35.7335 108.378 36.6927 109.337 37.8689 109.337ZM42.1376 107.202C42.1376 109.557 40.2233 111.471 37.8689 111.471C35.5145 111.471 33.6002 109.557 33.6002 107.202C33.6002 104.848 35.5145 102.933 37.8689 102.933C40.2233 102.933 42.1376 104.848 42.1376 107.202Z" fill="#FFDE77"/>
<path d="M88 86.4042C86.2347 86.4042 84.798 84.9674 84.798 83.2022C84.798 81.4369 86.2347 80.0001 88 80.0001C89.7653 80.0001 91.202 81.4369 91.202 83.2022C91.202 84.9674 89.7653 86.4042 88 86.4042Z" fill="#FFCC28"/>
<path fill-rule="evenodd" clip-rule="evenodd" d="M88 81.0668C86.8238 81.0668 85.8647 82.026 85.8647 83.2022C85.8647 84.3784 86.8238 85.3375 88 85.3375C89.1762 85.3375 90.1354 84.3784 90.1354 83.2022C90.1354 82.026 89.1762 81.0668 88 81.0668ZM83.7313 83.2022C83.7313 80.8478 85.6456 78.9335 88 78.9335C90.3544 78.9335 92.2687 80.8478 92.2687 83.2022C92.2687 85.5566 90.3544 87.4709 88 87.4709C85.6456 87.4709 83.7313 85.5566 83.7313 83.2022Z" fill="#FFDE77"/>
<path d="M12.0564 55.7837C13.2911 53.7934 15.0712 52.1416 17.2518 51.0614L50.0518 34.8144C53.6319 33.041 57.8347 33.041 61.4148 34.8144L94.2148 51.0614C96.3953 52.1415 98.1753 53.7932 99.41 55.7832C98.5651 52.0975 96.1134 48.9166 92.6409 47.1866L61.4408 31.6435C57.8464 29.8529 53.62 29.8529 50.0256 31.6435L18.8256 47.1866C15.3529 48.9166 12.9012 52.0978 12.0564 55.7837Z" fill="#FFDE77"/>
<path d="M55.9996 55.4668C65.7197 55.4668 73.6 63.3464 73.6002 73.0664C73.6002 81.3151 67.9248 88.2373 60.2662 90.1445V96.5332H66.5143C67.7766 96.5332 68.8004 97.557 68.8004 98.8193V100.114C68.8004 101.377 67.7766 102.4 66.5143 102.4H64.5328V108.267H66.5143C67.7766 108.267 68.8004 109.29 68.8004 110.553V111.848C68.8004 113.11 67.7766 114.134 66.5143 114.134H60.2662V115.505C60.2662 117.398 58.7318 118.933 56.8385 118.934H55.1617C53.2682 118.934 51.733 117.398 51.733 115.505V90.1436C44.0749 88.2361 38.4 81.3149 38.4 73.0664C38.4002 63.3465 46.2797 55.467 55.9996 55.4668ZM55.9996 66.1191C52.163 66.1193 49.0526 69.2298 49.0524 73.0664C49.0524 76.9032 52.1629 80.0135 55.9996 80.0137C59.8366 80.0137 62.9469 76.9033 62.9469 73.0664C62.9467 69.2297 59.8364 66.1191 55.9996 66.1191Z" fill="#E4AE02"/>
<path d="M51.7333 84.8H60.2666V112.838C60.2666 114.732 58.7316 116.267 56.838 116.267H55.1618C53.2683 116.267 51.7333 114.732 51.7333 112.838V84.8Z" fill="#0A32A3"/>
<path d="M55.9996 51.7334C65.7197 51.7334 73.6 59.613 73.6002 69.333C73.6002 79.0532 65.7198 86.9336 55.9996 86.9336C46.2796 86.9334 38.4 79.0531 38.4 69.333C38.4002 59.6131 46.2797 51.7336 55.9996 51.7334ZM55.9996 62.3857C52.163 62.3859 49.0526 65.4964 49.0524 69.333C49.0524 73.1698 52.1629 76.2801 55.9996 76.2803C59.8366 76.2803 62.9469 73.1699 62.9469 69.333C62.9467 65.4963 59.8364 62.3857 55.9996 62.3857Z" fill="#0A32A3"/>
<path d="M55.9996 62.3857C52.163 62.3859 49.0526 65.4964 49.0524 69.333C49.0524 73.1698 52.1629 76.2801 55.9996 76.2803V116.267H55.1617C53.2682 116.267 51.733 114.731 51.733 112.838V86.4102C44.0749 84.5027 38.4 77.5815 38.4 69.333C38.4002 59.6131 46.2797 51.7336 55.9996 51.7334V62.3857Z" fill="#0D3ECC"/>
<path d="M55.9694 53.5861C62.7633 53.5863 68.5513 57.8891 70.7594 63.9181C67.7838 58.8455 62.2743 55.4386 55.9684 55.4386C49.6625 55.4388 44.1529 58.8454 41.1774 63.9181C43.3854 57.8888 49.1751 53.5861 55.9694 53.5861Z" fill="#7A95E3"/>
<path d="M68.7999 96.1525C68.7999 94.8902 67.7766 93.8668 66.5142 93.8668H60.2666V111.467H66.5142C67.7766 111.467 68.7999 110.443 68.7999 109.181V107.886C68.7999 106.624 67.7766 105.6 66.5142 105.6H64.5333V99.7335H66.5142C67.7766 99.7335 68.7999 98.7101 68.7999 97.4478V96.1525Z" fill="#08257A"/>
<path d="M68.2666 46.4001L68.9464 49.6528C69.5648 52.6191 71.8214 54.9326 74.7019 55.5682L77.8666 56.2668L74.7019 56.9654C71.8158 57.6011 69.5648 59.9203 68.9464 62.8809L68.2666 66.1335L67.5869 62.8809C66.9684 59.9146 64.7119 57.6011 61.8313 56.9654L58.6666 56.2668L61.8313 55.5682C64.7175 54.9326 66.9684 52.6133 67.5869 49.6528L68.2666 46.4001Z" fill="white"/>
<path d="M151.131 116.389C151.136 116.283 151.141 116.171 151.141 116.064C151.141 112.779 148.475 110.112 145.189 110.112C145.072 110.112 144.96 110.112 144.843 110.123C144.389 106.667 141.435 104 137.856 104C134.277 104 131.141 106.832 130.832 110.443C129.989 110.085 129.067 109.893 128.096 109.893C124.389 109.893 121.349 112.757 121.067 116.395H151.131V116.389Z" fill="#FFEFBE"/>
</svg>
