<svg viewBox="0 0 97 111" fill="none" xmlns="http://www.w3.org/2000/svg">
<path d="M49.5402 12.4628V92.243" stroke="black" stroke-width="1.20879"/>
<path d="M52.7601 2.02917C49.9635 0.667916 46.6963 0.667824 43.8998 2.02917L6.42712 20.2704C2.94515 21.9654 0.735718 25.4993 0.735718 29.3719V43.7811C0.735722 67.741 13.319 89.9405 33.8763 102.248L43.1312 107.789C46.3324 109.705 50.3285 109.705 53.5297 107.789L62.7845 102.248C83.3417 89.9405 95.9242 67.7409 95.9242 43.7811V29.3719C95.9242 25.4993 93.7148 21.9654 90.2328 20.2704L52.7601 2.02917Z" fill="#B4E4AF" stroke="#69C960" stroke-width="0.903273"/>
<path d="M88.6668 33.5944C88.7224 30.82 87.1901 28.2572 84.7199 26.9929L52.4074 10.4546C50.4234 9.43915 48.0828 9.39226 46.0597 10.3274L13.1107 25.5582C10.5919 26.7225 8.95816 29.222 8.90258 31.9963L8.65515 44.3464C8.2465 64.7432 18.5799 83.8561 35.8703 94.6839L44.9467 100.368C46.4573 101.314 48.3658 101.352 49.9131 100.467L59.2099 95.1515C76.9201 85.0249 88.0107 66.3413 88.4194 45.9444L88.6668 33.5944Z" fill="#C7EBC3"/>
<path d="M60.6283 54.8441C61.3765 55.7358 61.2602 57.0652 60.3685 57.8134L50.704 65.9237C50.9262 66.5692 51.0469 67.262 51.0469 67.983C51.0469 71.4751 48.216 74.3059 44.724 74.3059C41.232 74.3059 38.4011 71.4751 38.4011 67.983C38.4011 64.491 41.232 61.6601 44.724 61.6601C45.9562 61.6601 47.1061 62.0126 48.0784 62.6223L57.6589 54.5843C58.5506 53.8361 59.88 53.9524 60.6283 54.8441ZM27.8629 42.9863C39.5151 31.3524 58.3935 31.3524 70.0156 42.9863L63.9938 49.0143C55.6837 40.6957 42.1948 40.6957 33.8847 49.0143L27.8629 42.9863Z" fill="#43BC38"/>
</svg>
