<svg viewBox="0 0 24 24" fill="none" xmlns="http://www.w3.org/2000/svg">
<path fill-rule="evenodd" clip-rule="evenodd" d="M10.5857 13.4142L9.18872 12.0172C8.39816 11.2267 8.39816 9.9449 9.18872 9.15434L14.8111 3.53194C15.6017 2.74138 16.8834 2.74138 17.674 3.53194L20.468 6.32591C21.2585 7.11648 21.2585 8.39823 20.468 9.1888L17.6654 11.9914C17.2701 12.3867 16.6292 12.3867 16.2339 11.9914L15.5362 11.2936L19.071 7.75735L16.2426 4.92893L10.5857 10.5858L11.9999 12L10.5857 13.4142ZM9.18872 20.468C8.39816 21.2586 7.1164 21.2586 6.32583 20.468L3.53187 17.6741C2.7413 16.8835 2.7413 15.6018 3.53187 14.8112L6.33445 12.0086C6.72973 11.6133 7.37061 11.6133 7.76589 12.0086L8.4658 12.7071L4.92885 16.2426L7.75728 19.0711L13.4141 13.4142L11.9999 12L13.4141 10.5858L14.8111 11.9828C15.6017 12.7733 15.6017 14.0551 14.8111 14.8457L9.18872 20.468Z" fill="#1C1B1F" fill-opacity="0.7"/>
</svg>
