<svg viewBox="0 0 20 20" fill="none" xmlns="http://www.w3.org/2000/svg">
<path d="M10 20C4.47715 20 3.91405e-07 15.5228 8.74228e-07 10C1.35705e-06 4.47715 4.47715 -1.35705e-06 10 -8.74228e-07C15.5228 -3.91405e-07 20 4.47715 20 10C20 15.5228 15.5228 20 10 20ZM10 18C14.4183 18 18 14.4183 18 10C18 5.58172 14.4183 2 10 2C5.58172 2 2 5.58172 2 10C2 14.4183 5.58172 18 10 18ZM10 7C9.44772 7 9 6.55228 9 6C9 5.44771 9.44772 5 10 5C10.5523 5 11 5.44771 11 6C11 6.55228 10.5523 7 10 7ZM10 15C9.44772 15 9 14.5523 9 14L9 9C9 8.44771 9.44772 8 10 8C10.5523 8 11 8.44771 11 9L11 14C11 14.5523 10.5523 15 10 15Z" fill="#1C1B1F" fill-opacity="0.7"/>
</svg>
