<svg width="21" height="21" viewBox="0 0 21 21" fill="none" xmlns="http://www.w3.org/2000/svg">
<path d="M7.49363 3.19531C5.22632 3.19531 3.3837 5.03793 3.3837 7.30525V14.1551C3.3837 16.4225 5.22632 18.2651 7.49363 18.2651H14.3435C16.6108 18.2651 18.4535 16.4225 18.4535 14.1551V7.30525C18.4535 5.03793 16.6108 3.19531 14.3435 3.19531H7.49363ZM6.33571 8.35681C6.57545 8.35681 6.75379 8.52812 6.75379 8.75416C6.75379 8.97678 6.57545 9.14816 6.33571 9.14816C6.09254 9.14816 5.91495 8.97678 5.91495 8.75416C5.91495 8.52812 6.09254 8.35681 6.33571 8.35681ZM9.90448 8.55214C11.1546 8.55214 11.9253 9.42505 11.9253 10.8259C11.9253 12.2232 11.1614 13.1036 9.90448 13.1036C8.64067 13.1036 7.87359 12.2267 7.87359 10.8259C7.87359 9.42163 8.65779 8.55214 9.90448 8.55214ZM14.3335 8.55214C15.2137 8.55214 15.857 9.06543 15.8981 9.79837H15.2406C15.1755 9.39765 14.8297 9.14816 14.3228 9.14816C13.7885 9.14816 13.4358 9.40116 13.4358 9.79502C13.4358 10.1033 13.6619 10.2816 14.2305 10.4151L14.7068 10.5315C15.6007 10.7404 15.967 11.1002 15.967 11.7543C15.967 12.5866 15.3229 13.1069 14.292 13.1069C13.3296 13.1069 12.6823 12.6107 12.6344 11.8333H13.3027C13.3609 12.2443 13.7647 12.5076 14.3435 12.5076C14.8847 12.5076 15.282 12.227 15.282 11.84C15.282 11.5112 15.032 11.3127 14.4566 11.1757L13.8947 11.0419C13.1104 10.857 12.7508 10.4769 12.7508 9.83984C12.7508 9.06581 13.3848 8.55214 14.3335 8.55214ZM9.90448 9.17894C9.08591 9.17894 8.56594 9.81892 8.56594 10.8259C8.56594 11.8294 9.06879 12.4768 9.90448 12.4768C10.7299 12.4768 11.237 11.8294 11.237 10.8259C11.237 9.81892 10.7299 9.17894 9.90448 9.17894ZM6.01395 9.72345H6.65813V13.0012H6.01395V9.72345Z" fill="#1C1B1F" fill-opacity="0.7"/>
</svg>
