<svg width="21" height="21" viewBox="0 0 21 21" fill="none" xmlns="http://www.w3.org/2000/svg">
<path d="M11.8436 5.7455C13.5171 5.09247 15.3439 5.61305 16.4256 6.87831C16.4868 6.94975 16.5382 7.04179 16.5994 7.12343C13.9971 8.7052 14.1501 12.3896 17.0789 13.8285C16.5483 15.3182 15.7625 16.6448 14.5789 17.7162C13.9973 18.2468 13.293 18.3587 12.5379 18.1547C12.344 18.1037 12.1395 18.0429 11.9559 17.9613C10.8844 17.4919 9.83342 17.5226 8.75177 17.9613C7.31286 18.5328 6.56729 18.3185 5.5672 17.1449C4.04671 15.3795 3.12804 13.3486 2.98517 11.0219C2.85251 9.083 3.35284 7.36839 5.04669 6.21523C6.0876 5.51108 7.26179 5.24599 8.43536 5.75624C9.60883 6.26636 10.6701 6.20469 11.8436 5.7455ZM13.4969 1.52089C13.7418 3.23533 12.1902 5.30727 10.5574 5.46034C10.0272 5.51129 9.95525 5.43947 10.0164 4.91933C10.2307 3.12324 11.6192 1.7556 13.4969 1.52089Z" fill="#1C1B1F" fill-opacity="0.7"/>
</svg>
