<svg xmlns="http://www.w3.org/2000/svg" width="144" height="24" viewBox="0 0 144 24" fill="none">
  <path fill-rule="evenodd" clip-rule="evenodd" d="M100.049 9.09471V13.7981C100.049 15.5374 99.5232 16.6156 96.9052 16.6156C96.0306 16.6156 95.1755 16.5533 94.3647 16.4307L94.3146 16.4233V8.05953L94.3476 8.04376C95.0994 7.68039 96.6956 7.06554 97.9071 7.06554C99.3884 7.06554 100.049 7.69133 100.049 9.09471ZM94.4004 6.12445L94.3146 6.16971V0.227925C94.3146 0.0893417 94.1916 -0.0174564 94.0537 0.00237757L92.4131 0.235808C92.3002 0.251827 92.2167 0.347946 92.2167 0.461609V17.7723C92.2167 17.8794 92.2908 17.9729 92.3957 17.9953C93.8405 18.3027 95.6379 18.4433 96.7467 18.4433C101.493 18.4433 102.148 16.1731 102.148 13.7193V9.17353C102.148 6.56207 100.898 5.23777 98.4351 5.23777C96.6995 5.23777 95.2133 5.69599 94.4004 6.12445Z" fill="#0D3ECC"/>
  <path fill-rule="evenodd" clip-rule="evenodd" d="M104.708 5.67487H103.091C102.932 5.67487 102.82 5.82487 102.869 5.97084L106.935 18.1114C106.966 18.2046 107.056 18.268 107.157 18.268H107.643C107.803 18.268 107.916 18.421 107.864 18.568L106.246 23.1086C106.193 23.2556 106.306 23.4089 106.467 23.4089H107.975C108.074 23.4089 108.163 23.348 108.195 23.2573L109.985 18.3069L114.195 5.9721C114.245 5.82588 114.133 5.67487 113.973 5.67487H112.357C112.256 5.67487 112.166 5.73825 112.135 5.83194L108.73 16.0924C108.66 16.3025 108.354 16.3018 108.285 16.0917L104.931 5.8327C104.9 5.73876 104.81 5.67487 104.708 5.67487Z" fill="#0D3ECC"/>
  <path fill-rule="evenodd" clip-rule="evenodd" d="M126.276 10.0899C126.276 8.18834 127.181 7.34035 129.211 7.34035C131.2 7.34035 132.011 8.13695 132.011 10.0899V10.9423C132.011 11.064 131.907 11.1626 131.778 11.1626H126.509C126.38 11.1626 126.276 11.064 126.276 10.9423V10.0899ZM124.138 10.2423V13.9519C124.138 17.0159 125.767 18.4433 129.265 18.4433C130.758 18.4433 132.405 18.2036 133.635 17.8122C133.742 17.778 133.806 17.6743 133.788 17.5686L133.584 16.3931C133.562 16.2657 133.429 16.1846 133.296 16.2158C131.863 16.5549 130.571 16.7267 129.453 16.7267C126.751 16.7267 126.276 15.8237 126.276 13.9263V13.0486C126.276 12.9269 126.38 12.8283 126.509 12.8283H133.836C133.965 12.8283 134.069 12.7295 134.069 12.608V10.2932C134.069 7.18546 132.48 5.67487 129.211 5.67487C125.845 5.67487 124.138 7.21152 124.138 10.2423Z" fill="#0D3ECC"/>
  <path fill-rule="evenodd" clip-rule="evenodd" d="M139.993 11.1864C137.783 10.6762 137.721 10.4247 137.721 8.99772C137.721 7.81216 138.062 7.39149 139.981 7.39149C140.909 7.39149 142.204 7.51024 143.3 7.69292C143.435 7.71529 143.56 7.6226 143.572 7.49402L143.684 6.27822C143.693 6.17127 143.62 6.07169 143.51 6.04563C142.5 5.80935 141.259 5.67487 140.061 5.67487C136.818 5.67487 135.613 6.5617 135.613 8.94683C135.613 11.4891 135.914 12.1054 139.11 12.8553C141.71 13.4584 141.892 13.5983 141.892 14.9936C141.892 16.3151 141.551 16.7267 139.417 16.7267C138.386 16.7267 137.071 16.5598 135.978 16.295C135.847 16.2633 135.716 16.3459 135.693 16.4725L135.491 17.6202C135.472 17.7271 135.538 17.8309 135.646 17.8656C136.695 18.1999 138.316 18.4433 139.551 18.4433C143.312 18.4433 144 17.2558 144 14.9174C144 12.3068 143.497 12.0157 139.993 11.1864Z" fill="#0D3ECC"/>
  <path fill-rule="evenodd" clip-rule="evenodd" d="M42.7538 18.2573L40.4373 5.94366C40.4113 5.8038 40.5203 5.67487 40.6652 5.67487H43.2366C43.3482 5.67487 43.4441 5.75329 43.4642 5.86117L44.856 13.2906C44.8999 13.5257 45.236 13.5434 45.3055 13.3145L47.57 5.83756C47.5992 5.74111 47.6894 5.67487 47.7919 5.67487H50.8354C50.9379 5.67487 51.0283 5.74137 51.0573 5.83807L53.2962 13.3079C53.3652 13.5373 53.7018 13.5201 53.746 13.2848L55.1367 5.86117C55.1569 5.75329 55.2527 5.67487 55.3643 5.67487H57.9357C58.0807 5.67487 58.1897 5.8038 58.1636 5.94366L55.8472 18.2573C55.827 18.3652 55.7312 18.4433 55.6196 18.4433H52.2225C52.1199 18.4433 52.0295 18.3768 52.0005 18.2801L49.5224 10.008C49.4573 9.79049 49.1436 9.79049 49.0785 10.008L46.6004 18.2801C46.5715 18.3768 46.4813 18.4433 46.3785 18.4433H42.9811C42.8698 18.4433 42.7739 18.3652 42.7538 18.2573Z" fill="#0D3ECC"/>
  <path fill-rule="evenodd" clip-rule="evenodd" d="M39.3138 15.8599C38.1941 15.8599 37.8632 15.3589 37.8632 13.9091V4.59812V0.937946C37.8632 0.799113 37.7447 0.692437 37.6122 0.711578L34.9488 1.09592C34.8399 1.112 34.7586 1.20821 34.7586 1.32254V1.44172V4.59812V14.2518C34.7586 17.178 36.4637 18.4433 38.7541 18.4433C38.9878 18.4433 39.809 18.4066 40.2352 18.3635C40.3482 18.3522 40.4335 18.2535 40.4335 18.1363V16.0768C40.4335 15.9472 40.33 15.8435 40.2051 15.8487C39.9171 15.8599 39.5062 15.8599 39.3138 15.8599Z" fill="#0D3ECC"/>
  <path fill-rule="evenodd" clip-rule="evenodd" d="M77.8994 8.56493C76.8039 9.07057 75.8926 9.60296 74.8598 10.2656C74.7956 10.3069 74.7561 10.3787 74.7561 10.4554V18.2193C74.7561 18.3428 74.6573 18.4433 74.5351 18.4433H71.8667C71.7446 18.4433 71.6453 18.3428 71.6453 18.2193V6.51063C71.6453 6.40185 71.7231 6.30857 71.8292 6.29007L74.0486 5.90246C74.1711 5.88096 74.2868 5.96598 74.3046 6.09026L74.4255 6.91398C74.4488 7.07428 74.6262 7.1573 74.7613 7.07103C75.4532 6.62966 76.5603 6.00024 77.4798 5.6864C77.6133 5.64114 77.7533 5.73417 77.7683 5.87596L78.0283 8.33712C78.0386 8.43339 77.9861 8.52492 77.8994 8.56493Z" fill="#0D3ECC"/>
  <path fill-rule="evenodd" clip-rule="evenodd" d="M120.535 16.6999C119.282 16.6999 119.188 16.1167 119.188 15.2275V7.48602C119.188 7.3608 119.288 7.25916 119.412 7.25916H122.371C122.486 7.25916 122.582 7.1707 122.594 7.05461L122.718 5.79156C122.731 5.65798 122.628 5.54189 122.496 5.54189H119.412C119.288 5.54189 119.188 5.44 119.188 5.31453V2.35525C119.188 2.21711 119.068 2.11065 118.933 2.13042L117.327 2.36311C117.217 2.37908 117.136 2.47489 117.136 2.58794V5.31453C117.136 5.44 117.035 5.54189 116.911 5.54189H115.14C115.016 5.54189 114.916 5.64353 114.916 5.769V7.0318C114.916 7.15726 115.016 7.25916 115.14 7.25916H116.911C117.035 7.25916 117.136 7.3608 117.136 7.48602V15.5941C117.136 17.6178 118.023 18.4433 120.2 18.4433C120.687 18.4433 121.189 18.3916 121.679 18.2935C121.784 18.2727 121.858 18.1784 121.858 18.0705V16.8231C121.858 16.6817 121.732 16.5757 121.595 16.5996C121.206 16.668 120.865 16.6999 120.535 16.6999Z" fill="#0D3ECC"/>
  <path fill-rule="evenodd" clip-rule="evenodd" d="M87.1884 10.5985C87.1884 10.7259 87.0833 10.829 86.9536 10.829H82.7518H82.7515V9.69579C82.7515 8.47328 83.32 7.62303 84.9446 7.62303C85.1398 7.62303 85.3194 7.6359 85.4863 7.65956C86.708 7.83322 87.1884 8.62044 87.1884 9.69579V10.5985ZM87.6416 5.44479C86.9366 5.13942 86.0449 4.96552 84.9176 4.96552C83.6335 4.96552 82.6257 5.18033 81.8434 5.55516C80.0532 6.41184 79.4482 8.11003 79.4482 10.0148V13.4428C79.4482 16.4821 80.8211 18.3524 84.7519 18.435C85.0436 18.4512 85.3574 18.4388 85.6688 18.4388C86.7306 18.4388 87.8343 18.3272 88.878 18.1777C89.0064 18.1592 89.0942 18.0419 89.0753 17.9158L89.0591 17.8044L88.7933 16.0414C87.8112 16.1436 86.9114 16.1842 85.9193 16.1847C83.4828 16.1847 82.7518 15.494 82.7518 14.059V13.6069C82.7518 13.6054 82.7515 13.6039 82.7515 13.6021V12.9821H82.7518H89.8538C89.9835 12.9821 90.0886 12.8789 90.0886 12.7518V11.7734V10.174C90.0886 8.12855 89.5775 6.28424 87.6416 5.44479Z" fill="#0D3ECC"/>
  <path fill-rule="evenodd" clip-rule="evenodd" d="M9.49898 20.5644C9.51947 20.5666 9.53972 20.5691 9.56046 20.5709C9.69468 20.5807 9.82414 20.454 9.82414 20.3109C9.82414 20.1918 9.74916 20.0784 9.63044 20.0613L9.56896 20.0518L9.406 20.0254C6.57301 19.4501 4.44032 16.9338 4.44032 13.9167C4.44032 12.6326 4.82672 11.4393 5.48879 10.4474C5.58377 10.3054 5.78746 10.2046 5.95792 10.3644L10.4485 14.9542C10.5 14.9981 10.5662 15.0257 10.6399 15.0257C10.7137 15.0257 10.7799 14.9981 10.8314 14.9542L15.3702 10.4083C15.5494 10.2472 15.6813 10.2828 15.7921 10.4474C16.4564 11.4378 16.8408 12.6326 16.8408 13.9167C16.8408 15.5099 16.2459 16.9634 15.2674 18.0651C15.235 18.1017 15.2022 18.1376 15.169 18.1732C15.1547 18.2041 15.147 18.2382 15.147 18.2744C15.147 18.4076 15.2542 18.5152 15.3869 18.5152C15.3999 18.5152 15.4127 18.5145 15.4252 18.5122C15.4599 18.4979 15.4944 18.4834 15.5289 18.4686C21.5268 15.9086 21.2794 9.93133 21.2794 9.93133C21.2794 6.4917 19.6638 3.43168 17.1542 1.47514C17.046 1.39084 16.8893 1.40263 16.7928 1.49948L10.8341 7.48904C10.7277 7.59617 10.5519 7.59617 10.4455 7.48904L4.48656 1.49948C4.39033 1.40263 4.23363 1.39084 4.1254 1.47514C1.61632 3.43093 0.00124967 6.48994 0 9.92782V9.93334C0.00124967 15.4515 4.16015 19.992 9.49898 20.5644Z" fill="#0D3ECC"/>
  <path fill-rule="evenodd" clip-rule="evenodd" d="M29.3994 13.6551C29.3994 15.2004 28.3138 16.239 26.5921 16.239C25.2678 16.239 24.5791 15.7578 24.5791 14.7442C24.5791 13.6298 25.2942 13.1991 26.5921 13.1991H29.1697C29.2963 13.1991 29.3994 13.2972 29.3994 13.4186V13.6551ZM26.5921 5.67487C25.4734 5.67487 24.2834 5.75972 23.1814 5.91644C23.0568 5.93434 22.9717 6.04544 22.9889 6.16463L23.2586 8.04153C23.2776 8.15803 23.3819 8.26422 23.5052 8.25049C24.5396 8.14086 25.2549 8.10701 26.3008 8.10701C28.6843 8.10701 29.3994 8.76576 29.3994 10.1335V10.9527C29.3994 11.0741 29.2963 11.1724 29.1697 11.1724H26.1749C23.5265 11.1724 21.9902 12.4391 21.9902 14.7697C21.9902 16.9233 23.7383 18.4433 26.3339 18.4433C27.9756 18.4433 28.6028 18.2059 29.1386 17.7054C29.2858 17.568 29.532 17.6632 29.532 17.8596V18.0208C29.532 18.1419 29.6348 18.2405 29.7614 18.2405H32.4011C32.528 18.2405 32.6306 18.1419 32.6306 18.0208V10.2095C32.6306 7.14441 30.3796 5.67487 26.5921 5.67487Z" fill="#0D3ECC"/>
  <path fill-rule="evenodd" clip-rule="evenodd" d="M66.2859 13.6551C66.2859 15.2004 65.2003 16.239 63.4786 16.239C62.1543 16.239 61.4657 15.7578 61.4657 14.7442C61.4657 13.6298 62.1807 13.1991 63.4786 13.1991H66.0561C66.1831 13.1991 66.2859 13.2972 66.2859 13.4186V13.6551ZM63.4786 5.67487C62.36 5.67487 61.17 5.75972 60.068 5.91644C59.9434 5.93434 59.8583 6.04544 59.8755 6.16463L60.1452 8.04153C60.1642 8.15803 60.2685 8.26422 60.3919 8.25049C61.4262 8.14086 62.1415 8.10701 63.1873 8.10701C65.5708 8.10701 66.2859 8.76576 66.2859 10.1335V10.9527C66.2859 11.0741 66.1831 11.1724 66.0561 11.1724H63.0615C60.4131 11.1724 58.8768 12.4391 58.8768 14.7697C58.8768 16.9233 60.6249 18.4433 63.2204 18.4433C64.8621 18.4433 65.4893 18.2059 66.0251 17.7054C66.1723 17.568 66.4184 17.6632 66.4184 17.8596V18.0208C66.4184 18.1419 66.5212 18.2405 66.6479 18.2405H69.2875C69.4144 18.2405 69.5172 18.1419 69.5172 18.0208V10.2095C69.5172 7.14441 67.2661 5.67487 63.4786 5.67487Z" fill="#0D3ECC"/>
</svg>