<svg viewBox="0 0 24 24" fill="none" xmlns="http://www.w3.org/2000/svg">
<g clip-path="url(#clip0_162_2099)">
<path d="M22.9985 10.8461C22.9993 7.35655 21.3438 4.07378 18.5373 2L12.0004 8.53694L5.4567 2C2.65256 4.07426 0.998838 7.3559 1 10.8438C0.998754 16.8301 5.78644 21.7176 11.7715 21.8397H11.7939C11.8741 21.8461 11.9516 21.8093 11.9972 21.7431C12.0429 21.6768 12.0497 21.5913 12.0152 21.5187C11.9807 21.446 11.91 21.3973 11.8298 21.3909H11.7872C11.3011 21.3477 10.8206 21.2552 10.3532 21.1149C8.48833 20.5467 7.04406 19.0634 6.52575 17.184C6.00744 15.3046 6.48723 13.2907 7.79726 11.8469L12.0004 16.0703L16.2147 11.8559C18.1912 14.0319 18.1825 17.356 16.1945 19.5216C16.156 19.5615 16.1336 19.6143 16.1317 19.6697C16.1308 19.736 16.1593 19.7993 16.2096 19.8426C16.2598 19.8859 16.3266 19.9047 16.392 19.8941C23.2723 17.4257 22.9985 10.8528 22.9985 10.8528" fill="#0D3ECC"/>
</g>
<defs>
<clipPath id="clip0_162_2099">
<rect width="24" height="24" fill="white"/>
</clipPath>
</defs>
</svg>
