<svg viewBox="0 0 20 20" fill="none" xmlns="http://www.w3.org/2000/svg">
<path d="M19.1654 9.03839C19.1661 6.13045 17.7865 3.3948 15.4478 1.66666L10.0003 7.11411L4.54726 1.66666C2.21048 3.3952 0.832375 6.1299 0.833344 9.03652C0.832305 14.0251 4.82204 18.098 9.80958 18.1998H9.82828C9.89509 18.2051 9.95968 18.1744 9.99771 18.1192C10.0357 18.064 10.0414 17.9927 10.0127 17.9322C9.9839 17.8717 9.92501 17.8311 9.8582 17.8258H9.82267C9.41759 17.7898 9.01721 17.7127 8.62771 17.5957C7.07362 17.1222 5.87006 15.8862 5.43813 14.32C5.00621 12.7539 5.40604 11.0756 6.49772 9.87243L10.0003 13.3919L13.5123 9.87991C15.1594 11.6933 15.1521 14.4633 13.4954 16.268C13.4633 16.3013 13.4447 16.3452 13.4431 16.3914C13.4424 16.4467 13.4661 16.4994 13.508 16.5355C13.5498 16.5716 13.6055 16.5873 13.66 16.5784C19.3936 14.5214 19.1654 9.044 19.1654 9.044" fill="#1C1B1F"/>
</svg>
