<svg width="120" height="120" viewBox="0 0 120 120" fill="none" xmlns="http://www.w3.org/2000/svg">
    <path opacity="0.15" d="M39.926 13.6C48.787 13.6 56.6707 17.7877 61.7131 24.2933C66.1475 22.5733 70.968 21.6293 76.009 21.6293C97.8743 21.6293 115.6 39.3771 115.6 61.2709C115.6 83.1647 97.8744 100.913 76.009 100.913C66.5288 100.913 57.8283 97.5753 51.0119 92.0111C47.0228 100.045 38.7437 105.568 29.175 105.568C15.7134 105.568 4.8001 94.6406 4.79999 81.1615C4.79999 71.3624 10.5676 62.9125 18.8889 59.0287C14.8191 54.219 12.3635 47.9962 12.3635 41.1986C12.3637 25.9564 24.7036 13.6002 39.926 13.6Z" fill="#0D3ECC"/>
    <path d="M57.9038 105.932C57.9128 105.747 57.9218 105.563 57.9218 105.378C57.9218 99.7879 53.3916 95.2544 47.8053 95.2544C47.6076 95.2544 47.4098 95.2634 47.2166 95.2724C46.4436 89.394 41.4235 84.856 35.3384 84.856C29.2532 84.856 23.9275 89.6729 23.4017 95.8121C21.9726 95.2094 20.3996 94.8721 18.7502 94.8721C12.4448 94.8721 7.28095 99.743 6.80457 105.932H57.9083H57.9038Z" fill="#3D65D6"/>
    <path d="M24.5003 50.9693C24.5003 45.9203 27.3558 41.3056 31.8741 39.0525L47.4507 31.2851C54.1948 27.922 62.1269 27.922 68.871 31.2851L84.4475 39.0525C88.9659 41.3056 91.8214 45.9203 91.8214 50.9693V51.6137C91.8214 72.8268 80.7993 92.5163 62.716 103.606C59.9211 105.32 56.4006 105.32 53.6057 103.606C35.5224 92.5163 24.5003 72.8268 24.5003 51.6137V50.9693Z" fill="#0F68EE"/>
    <path d="M27.2586 45.6251C28.0673 44.7948 29.021 44.0926 30.0938 43.5605L53.5343 31.9345C56.4498 30.4884 59.8724 30.4884 62.7879 31.9345L86.2284 43.5605C87.3008 44.0925 88.2543 44.7944 89.0628 45.6244C88.0761 43.5134 86.3926 41.7519 84.2258 40.6836L62.7657 30.1026C59.8623 28.671 56.4595 28.671 53.556 30.1026L32.0959 40.6836C29.9289 41.752 28.2452 43.5139 27.2586 45.6251Z" fill="#3F87F3"/>
    <path fill-rule="evenodd" clip-rule="evenodd" d="M45.2198 41.005C45.2198 40.5246 45.6088 40.1352 46.0885 40.1352H73.4734C79.2158 40.1352 84.164 44.0127 84.164 49.1298C84.164 54.2469 79.2158 58.1244 73.4734 58.1244H30.6516C30.1719 58.1244 29.783 57.735 29.783 57.2546C29.783 56.7743 30.1719 56.3848 30.6516 56.3848H73.4734C78.5816 56.3848 82.4267 52.99 82.4267 49.1298C82.4267 45.2697 78.5816 41.8748 73.4734 41.8748H46.0885C45.6088 41.8748 45.2198 41.4854 45.2198 41.005Z" fill="#3F87F3"/>
    <path fill-rule="evenodd" clip-rule="evenodd" d="M61.5113 95.1063L54.723 95.1063C48.9806 95.1063 44.0324 91.2288 44.0324 86.1117C44.0324 80.9946 48.9806 77.1171 54.723 77.1171L81.5142 77.1171C81.9939 77.1171 82.3828 77.5065 82.3828 77.9869C82.3828 78.4672 81.9939 78.8567 81.5142 78.8567L54.723 78.8567C49.6147 78.8567 45.7697 82.2516 45.7697 86.1117C45.7697 89.9718 49.6147 93.3667 54.723 93.3667L61.5113 93.3667C61.991 93.3667 62.3799 93.7562 62.3799 94.2365C62.3799 94.7169 61.991 95.1063 61.5113 95.1063Z" fill="#3F87F3"/>
    <path d="M82.9121 50.6513C81.6019 50.6513 80.5356 49.5837 80.5356 48.2718C80.5356 46.96 81.6019 45.8923 82.9121 45.8923C84.2222 45.8923 85.2885 46.96 85.2885 48.2718C85.2885 49.5837 84.2222 50.6513 82.9121 50.6513Z" fill="#0F68EE"/>
    <path fill-rule="evenodd" clip-rule="evenodd" d="M82.9121 46.7621C82.0817 46.7621 81.4043 47.4404 81.4043 48.2718C81.4043 49.1033 82.0817 49.7815 82.9121 49.7815C83.7424 49.7815 84.4198 49.1033 84.4198 48.2718C84.4198 47.4404 83.7424 46.7621 82.9121 46.7621ZM79.667 48.2718C79.667 46.4796 81.1222 45.0225 82.9121 45.0225C84.7019 45.0225 86.1571 46.4796 86.1571 48.2718C86.1571 50.064 84.7019 51.5211 82.9121 51.5211C81.1222 51.5211 79.667 50.064 79.667 48.2718Z" fill="#3F87F3"/>
    <path d="M35.7972 59.7555C34.4871 59.7555 33.4208 58.6879 33.4208 57.376C33.4208 56.0642 34.4871 54.9965 35.7972 54.9965C37.1073 54.9965 38.1736 56.0642 38.1736 57.376C38.1736 58.6879 37.1073 59.7555 35.7972 59.7555Z" fill="#0F68EE"/>
    <path fill-rule="evenodd" clip-rule="evenodd" d="M35.7972 55.8663C34.9668 55.8663 34.2894 56.5445 34.2894 57.376C34.2894 58.2075 34.9668 58.8857 35.7972 58.8857C36.6276 58.8857 37.3049 58.2075 37.3049 57.376C37.3049 56.5445 36.6276 55.8663 35.7972 55.8663ZM32.5521 57.376C32.5521 55.5838 34.0073 54.1267 35.7972 54.1267C37.5871 54.1267 39.0423 55.5838 39.0423 57.376C39.0423 59.1682 37.5871 60.6253 35.7972 60.6253C34.0073 60.6253 32.5521 59.1682 32.5521 57.376Z" fill="#3F87F3"/>
    <path fill-rule="evenodd" clip-rule="evenodd" d="M33.7411 67.5593C33.7411 67.0789 34.1301 66.6895 34.6098 66.6895H83.2954V68.4291H34.6098C34.1301 68.4291 33.7411 68.0397 33.7411 67.5593Z" fill="#3F87F3"/>
    <path d="M44.9026 83.0163C46.2128 83.0163 47.2791 84.0839 47.2791 85.3958C47.2791 86.7076 46.2128 87.7753 44.9026 87.7753C43.5925 87.7753 42.5262 86.7076 42.5262 85.3958C42.5262 84.0839 43.5925 83.0163 44.9026 83.0163Z" fill="#0F68EE"/>
    <path fill-rule="evenodd" clip-rule="evenodd" d="M44.9026 86.9055C45.733 86.9055 46.4104 86.2272 46.4104 85.3958C46.4104 84.5643 45.733 83.8861 44.9026 83.8861C44.0723 83.8861 43.3949 84.5643 43.3949 85.3958C43.3949 86.2272 44.0723 86.9055 44.9026 86.9055ZM48.1477 85.3958C48.1477 87.188 46.6925 88.6451 44.9026 88.6451C43.1128 88.6451 41.6576 87.188 41.6576 85.3958C41.6576 83.6036 43.1128 82.1465 44.9026 82.1465C46.6925 82.1465 48.1477 83.6036 48.1477 85.3958Z" fill="#3F87F3"/>
    <path d="M82.1078 69.9404C80.7977 69.9404 79.7314 68.8727 79.7314 67.5608C79.7314 66.249 80.7977 65.1813 82.1078 65.1813C83.4179 65.1813 84.4842 66.249 84.4842 67.5608C84.4842 68.8727 83.4179 69.9404 82.1078 69.9404Z" fill="#0F68EE"/>
    <path fill-rule="evenodd" clip-rule="evenodd" d="M82.1078 66.0511C81.2774 66.0511 80.6001 66.7294 80.6001 67.5608C80.6001 68.3923 81.2774 69.0705 82.1078 69.0705C82.9382 69.0705 83.6156 68.3923 83.6156 67.5608C83.6156 66.7294 82.9382 66.0511 82.1078 66.0511ZM78.8627 67.5608C78.8627 65.7686 80.3179 64.3115 82.1078 64.3115C83.8977 64.3115 85.3529 65.7686 85.3529 67.5608C85.3529 69.353 83.8977 70.8101 82.1078 70.8101C80.3179 70.8101 78.8627 69.353 78.8627 67.5608Z" fill="#3F87F3"/>
    <path fill-rule="evenodd" clip-rule="evenodd" d="M56.812 84.9042C57.1262 84.9042 57.2855 84.7536 57.2855 84.4522C57.2855 84.3016 57.1262 84.1509 56.9713 84.0002H56.4978C50.7976 82.9411 46.996 77.4994 48.1068 72.0577C48.4211 70.848 48.899 69.4876 49.6912 68.4285C49.8505 68.1271 50.1647 68.1271 50.4834 68.2778L58.2414 75.6826H58.8743L66.6324 68.2778C66.9466 67.9765 67.1059 67.9765 67.2652 68.2778C69.956 72.2084 69.4824 77.1981 66.3137 80.6767H66.1544C66.1544 80.8274 66.3137 81.1287 66.6279 81.1287H66.9421C72.8016 78.8599 76.7581 73.2675 76.7581 67.2187C76.7581 61.7726 74.2267 56.6366 69.7922 53.3087C69.6329 53.158 69.4736 53.158 69.3187 53.3087L59.0248 63.133C58.8654 63.2837 58.7106 63.4343 58.3919 63.2837C58.3919 63.2837 58.2326 63.2837 58.2326 63.133L47.9387 53.3087C47.7794 53.158 47.6245 53.158 47.4651 53.3087C42.8758 56.6322 40.1806 61.9277 40.3399 67.3694C40.4993 76.4403 47.4651 84.0002 56.8076 84.9042" fill="#0C54C0"/>
    <path fill-rule="evenodd" clip-rule="evenodd" d="M56.812 81.7059C57.1262 81.7059 57.2855 81.5553 57.2855 81.2539C57.2855 81.1033 57.1262 80.9526 56.9713 80.8019H56.4978C50.7976 79.7428 46.996 74.3011 48.1068 68.8594C48.4211 67.6497 48.899 66.2892 49.6912 65.2302C49.8505 64.9288 50.1647 64.9288 50.4834 65.0795L58.2414 72.4843H58.8743L66.6324 65.0795C66.9466 64.7782 67.1059 64.7782 67.2652 65.0795C69.956 69.0101 69.4824 73.9998 66.3137 77.4784H66.1544C66.1544 77.6291 66.3137 77.9304 66.6279 77.9304H66.9421C72.8016 75.6616 76.7581 70.0692 76.7581 64.0204C76.7581 58.5743 74.2267 53.4383 69.7922 50.1104C69.6329 49.9597 69.4736 49.9597 69.3187 50.1104L59.0248 59.9347C58.8654 60.0853 58.7106 60.236 58.3919 60.0854C58.3919 60.0854 58.2326 60.0853 58.2326 59.9347L47.9387 50.1104C47.7794 49.9597 47.6245 49.9597 47.4651 50.1104C42.8758 53.4339 40.1806 58.7294 40.3399 64.1711C40.4993 73.242 47.4651 80.8019 56.8076 81.7059" fill="white"/>
    <path d="M77.5126 30.6613L77.9384 32.8118C78.3259 34.7729 79.7394 36.3025 81.5439 36.7228L83.5264 37.1847L81.5439 37.6466C79.736 38.0668 78.3259 39.6002 77.9384 41.5576L77.5126 43.7081L77.0868 41.5576C76.6994 39.5964 75.2858 38.0668 73.4813 37.6466L71.4988 37.1847L73.4813 36.7228C75.2893 36.3025 76.6994 34.7692 77.0868 32.8118L77.5126 30.6613Z" fill="white"/>
    <path d="M114.028 105.927C114.042 105.672 114.051 105.418 114.051 105.159C114.051 97.4393 107.837 91.1838 100.169 91.1838C99.8983 91.1838 99.6273 91.1929 99.3609 91.2111C98.2997 83.0962 91.4087 76.827 83.0546 76.827C74.7005 76.827 67.394 83.4781 66.6715 91.9567C64.7072 91.1247 62.5486 90.661 60.2863 90.661C51.6341 90.661 44.5444 97.3893 43.8896 105.932H114.028V105.927Z" fill="#7A95E3"/>
</svg>
