<!-- Cloud + Window combined -->
<svg width="455" height="215" viewBox="0 0 455 215" fill="none" xmlns="http://www.w3.org/2000/svg">
  <!-- cloud -->
  <path opacity="0.3" d="M232.396 0C261.438 3.45182e-05 286.294 17.9192 296.515 43.3037C302.708 39.7812 309.872 37.7676 317.506 37.7676C339.841 37.7677 358.152 54.9888 359.89 76.877C363.972 75.8999 368.234 75.3818 372.616 75.3818C402.704 75.3821 427.096 99.7741 427.096 129.862C427.096 131.517 427.021 133.154 426.877 134.771C426.95 134.77 427.023 134.769 427.096 134.769C442.507 134.769 455 147.262 455 162.673C455 164.026 454.901 165.357 454.715 166.659H455C455 185.006 440.127 199.879 421.78 199.879H125.317C112.302 209.325 96.2907 214.896 78.9785 214.896C35.3599 214.895 0 179.536 0 135.917C1.23699e-05 92.2983 35.3599 56.9386 78.9785 56.9385C90.5669 56.9385 101.573 59.4335 111.487 63.917C112.084 40.9534 130.886 22.5217 153.993 22.5215C162.155 22.5215 169.779 24.8221 176.254 28.8086C188.796 11.3623 209.269 0 232.396 0Z" fill="url(#paint0_linear_cloud)"/>
  <defs>
    <linearGradient id="paint0_linear_cloud" x1="243.724" y1="99.7946" x2="243.724" y2="199.878" gradientUnits="userSpaceOnUse">
      <stop stop-color="#D3D3D3"/>
      <stop offset="1" stop-color="white" stop-opacity="0"/>
    </linearGradient>
  </defs>

  <!-- window icon (centered on cloud) -->
  <!-- adjust translate/scale to fine-tune placement -->
  <g transform="translate(135,15) scale(1.2)">
    <rect x="18" y="36" width="114" height="77.5" rx="12" fill="#9799A3"/>
    <rect x="24" y="41.5002" width="102" height="66" rx="8" fill="#B9BBC1"/>
    <rect x="29" y="64" width="92" height="39" rx="4" fill="#DCDDE0"/>
    <rect width="92" height="10.5" rx="4" transform="matrix(1 0 0 -1 29 57)" fill="#DCDDE0"/>
    <path d="M125.126 120.25C132.927 120.25 139.251 113.926 139.251 106.125C139.251 98.324 132.927 92 125.126 92C117.325 92 111.001 98.324 111.001 106.125C111.001 113.926 117.325 120.25 125.126 120.25Z" fill="#515565"/>
    <path d="M125.019 110.185C124.224 110.185 123.579 109.54 123.579 108.745V107.88C123.579 106.215 124.464 104.655 125.944 103.72C126.429 103.41 126.889 102.77 126.719 101.89C126.589 101.23 126.039 100.68 125.384 100.55C124.844 100.445 124.324 100.575 123.919 100.91C123.519 101.24 123.284 101.73 123.284 102.25C123.284 103.045 122.639 103.69 121.844 103.69C121.049 103.69 120.404 103.045 120.404 102.25C120.404 100.865 121.014 99.5699 122.084 98.6899C123.154 97.8099 124.554 97.4599 125.929 97.7249C127.739 98.0749 129.189 99.5299 129.544 101.34C129.914 103.235 129.104 105.125 127.484 106.15C126.839 106.56 126.454 107.205 126.454 107.88V108.745C126.454 109.54 125.809 110.185 125.014 110.185H125.019Z" fill="white"/>
    <path d="M125.019 114.43C125.917 114.43 126.644 113.702 126.644 112.805C126.644 111.907 125.917 111.18 125.019 111.18C124.122 111.18 123.394 111.907 123.394 112.805C123.394 113.702 124.122 114.43 125.019 114.43Z" fill="white"/>
    <circle cx="33.5" cy="52" r="2" fill="white"/>
    <circle cx="40.5" cy="52" r="2" fill="white"/>
    <circle cx="47.5" cy="52" r="2" fill="white"/>
  </g>
</svg>
