<svg viewBox="0 0 183 140" fill="none" xmlns="http://www.w3.org/2000/svg">
<path d="M118.298 -2.08416e-05C83.0675 -2.39249e-05 54.5077 28.5909 54.5077 63.8596C54.5077 99.1283 83.0675 127.719 118.298 127.719C153.528 127.719 182.088 99.1283 182.088 63.8596C182.088 28.5909 153.528 -1.77583e-05 118.298 -2.08416e-05Z" fill="#F1F6FE"/>
<path d="M46.6504 4.88769C27.6396 4.88769 12.2282 20.3158 12.2282 39.3473C12.2282 58.3789 27.6396 73.807 46.6504 73.807C65.6613 73.807 81.0726 58.3789 81.0726 39.3474C81.0726 20.3158 65.6613 4.88769 46.6504 4.88769Z" fill="#F1F6FE"/>
<path d="M50.0364 41.6439C22.9056 41.6439 0.911727 63.6616 0.911725 90.8219C0.911722 117.982 22.9056 140 50.0364 140C77.1672 140 99.161 117.982 99.161 90.8219C99.161 63.6616 77.1672 41.6439 50.0364 41.6439Z" fill="#F1F6FE"/>
<rect x="20.5403" y="21.4915" width="139.848" height="95.1754" rx="19.7647" fill="#515565"/>
<rect x="27.9007" y="28.2459" width="125.127" height="81.0526" rx="13.1765" fill="#DDE4F8"/>
<rect width="15.9476" height="69.386" rx="6.58824" transform="matrix(-1 0 0 1 49.9819 34.386)" fill="#9FC3F9"/>
<ellipse cx="100.891" cy="68.7719" rx="34.3486" ry="34.386" fill="#E60000"/>
<rect x="55.5015" y="34.386" width="89.5517" height="69.386" rx="6.58824" fill="#9FC3F9"/>
<path d="M153.181 125.989C162.751 125.989 170.509 118.223 170.509 108.643C170.509 99.0625 162.751 91.2962 153.181 91.2962C143.611 91.2962 135.853 99.0625 135.853 108.643C135.853 118.223 143.611 125.989 153.181 125.989Z" fill="#FFCC28"/>
<path d="M153.181 113.291C152.026 113.291 151.09 114.228 151.09 115.385C151.09 116.541 152.026 117.479 153.181 117.479C154.336 117.479 155.273 116.541 155.273 115.385C155.273 114.228 154.336 113.291 153.181 113.291Z" fill="#515565"/>
<path d="M151.09 109.091C151.09 110.247 152.025 111.185 153.178 111.185C154.331 111.185 155.267 110.247 155.267 109.091L155.267 101.901C155.267 100.744 154.331 99.8068 153.178 99.8068C152.025 99.8068 151.09 100.744 151.09 101.901L151.09 109.091Z" fill="#515565"/>
<path fill-rule="evenodd" clip-rule="evenodd" d="M114.823 85.0403C107.651 77.8605 96.0228 77.8605 88.8509 85.0403C87.8927 85.9995 86.3393 85.9995 85.3811 85.0403C84.423 84.0811 84.423 82.526 85.3811 81.5668C94.4694 72.4687 109.204 72.4687 118.293 81.5668C119.251 82.526 119.251 84.0811 118.293 85.0403C117.334 85.9995 115.781 85.9995 114.823 85.0403Z" fill="white"/>
<rect width="21.907" height="4.90961" rx="2.45481" transform="matrix(0.706722 0.707491 -0.706722 0.707491 79.8258 50.3508)" fill="white"/>
<rect width="21.907" height="4.90961" rx="2.45481" transform="matrix(0.706722 -0.707491 0.706722 0.707491 76.4602 65.8499)" fill="white"/>
<rect width="21.907" height="4.90961" rx="2.45481" transform="matrix(0.706722 0.707491 -0.706722 0.707491 110.418 50.3508)" fill="white"/>
<rect width="21.907" height="4.90961" rx="2.45481" transform="matrix(0.706722 -0.707491 0.706722 0.707491 107.052 65.8499)" fill="white"/>
</svg>
