<svg viewBox="0 0 24 24" fill="none" xmlns="http://www.w3.org/2000/svg">
<path d="M7.90909 3C5.20091 3 3 5.20091 3 7.90909V16.0909C3 18.7991 5.20091 21 7.90909 21H16.0909C18.7991 21 21 18.7991 21 16.0909V7.90909C21 5.20091 18.7991 3 16.0909 3H7.90909ZM6.52601 9.16513C6.81238 9.16513 7.02539 9.36974 7.02539 9.63974C7.02539 9.90565 6.81238 10.1104 6.52601 10.1104C6.23556 10.1104 6.02344 9.90565 6.02344 9.63974C6.02344 9.36974 6.23556 9.16513 6.52601 9.16513ZM10.7887 9.39844C12.2819 9.39844 13.2025 10.4411 13.2025 12.1143C13.2025 13.7833 12.2901 14.8349 10.7887 14.8349C9.27916 14.8349 8.36293 13.7874 8.36293 12.1143C8.36293 10.437 9.29962 9.39844 10.7887 9.39844ZM16.0789 9.39844C17.1303 9.39844 17.8987 10.0115 17.9478 10.887H17.1624C17.0846 10.4083 16.6716 10.1104 16.0661 10.1104C15.428 10.1104 15.0067 10.4125 15.0067 10.883C15.0067 11.2512 15.2768 11.4641 15.9559 11.6237L16.5248 11.7627C17.5925 12.0122 18.0301 12.4419 18.0301 13.2233C18.0301 14.2174 17.2607 14.8389 16.0294 14.8389C14.8798 14.8389 14.1067 14.2462 14.0494 13.3176H14.8477C14.9172 13.8085 15.3995 14.123 16.0909 14.123C16.7373 14.123 17.2119 13.7878 17.2119 13.3256C17.2119 12.9328 16.9132 12.6958 16.2259 12.5321L15.5548 12.3723C14.618 12.1514 14.1885 11.6974 14.1885 10.9365C14.1885 10.012 14.9457 9.39844 16.0789 9.39844ZM10.7887 10.1471C9.81098 10.1471 9.1899 10.9115 9.1899 12.1143C9.1899 13.3129 9.79052 14.0862 10.7887 14.0862C11.7746 14.0862 12.3803 13.3129 12.3803 12.1143C12.3803 10.9115 11.7746 10.1471 10.7887 10.1471ZM6.14169 10.7975H6.91113V14.7126H6.14169V10.7975Z" fill="#1C1B1F"/>
</svg>
