<svg viewBox="0 0 20 20" fill="none" xmlns="http://www.w3.org/2000/svg">
<path d="M17.8337 12.1665V16.6665C17.8337 17.2802 17.3591 17.7825 16.7575 17.8286L16.6481 17.8335H12.1667V17.1665H17.1667V12.1665H17.8337ZM2.83366 12.1665V17.1665H7.83366V17.8335H3.35124L3.24187 17.8286C2.64058 17.7822 2.16667 17.28 2.16667 16.6665V12.1665H2.83366ZM9.99968 11.3335C12.3505 11.3335 14.159 12.7701 14.4557 14.4995H5.54362C5.84026 12.7702 7.64895 11.3336 9.99968 11.3335ZM9.99968 5.49951C11.1041 5.49951 11.9995 6.39509 11.9997 7.49951C11.9997 8.60408 11.1042 9.49951 9.99968 9.49951C8.89526 9.49934 7.99968 8.60397 7.99968 7.49951C7.99986 6.3952 8.89537 5.49969 9.99968 5.49951ZM16.6481 2.1665L16.7585 2.16943C17.3597 2.21594 17.8337 2.72009 17.8337 3.3335V7.8335H17.1667V2.8335H12.1667V2.1665H16.6481ZM7.83366 2.1665V2.8335H2.83366V7.8335H2.16667V3.3335C2.16667 2.72031 2.64 2.21625 3.24089 2.16943L3.35124 2.1665H7.83366Z" fill="#1C1B1F" stroke="#1C1B1F"/>
</svg>
