<svg viewBox="0 0 20 20" fill="none" xmlns="http://www.w3.org/2000/svg">
<g clip-path="url(#clip0_813_1664)">
<path d="M17.8337 12.1665V16.6665C17.8337 17.2802 17.3592 17.7825 16.7576 17.8286L16.6482 17.8335H12.1667V17.1665H17.1667V12.1665H17.8337ZM2.83374 12.1665V17.1665H7.83374V17.8335H3.35132L3.24194 17.8286C2.64065 17.7822 2.16675 17.28 2.16675 16.6665V12.1665H2.83374ZM9.99976 11.3335C12.3506 11.3335 14.1591 12.7701 14.4558 14.4995H5.5437C5.84033 12.7702 7.64902 11.3336 9.99976 11.3335ZM9.99976 5.49951C11.1042 5.49951 11.9996 6.39509 11.9998 7.49951C11.9998 8.60408 11.1043 9.49951 9.99976 9.49951C8.89534 9.49934 7.99976 8.60397 7.99976 7.49951C7.99993 6.3952 8.89544 5.49969 9.99976 5.49951ZM16.6482 2.1665L16.7585 2.16943C17.3597 2.21594 17.8337 2.72009 17.8337 3.3335V7.8335H17.1667V2.8335H12.1667V2.1665H16.6482ZM7.83374 2.1665V2.8335H2.83374V7.8335H2.16675V3.3335C2.16675 2.72031 2.64008 2.21625 3.24097 2.16943L3.35132 2.1665H7.83374Z" fill="#1C1B1F" stroke="#1C1B1F"/>
</g>
<defs>
<clipPath id="clip0_813_1664">
<rect width="20" height="20" fill="white"/>
</clipPath>
</defs>
</svg>
