<svg viewBox="0 0 290 246" fill="none" xmlns="http://www.w3.org/2000/svg">
<g clip-path="url(#clip0_2637_17194)">
<rect width="290" height="246" rx="8" fill="#DDE4F8"/>
<g clip-path="url(#clip1_2637_17194)">
<g clip-path="url(#clip2_2637_17194)">
<path d="M-126 70.6458C-126 69.7197 -126 69.2566 -125.82 68.9029C-125.661 68.5917 -125.408 68.3388 -125.097 68.1802C-124.743 68 -124.28 68 -123.354 68H233.354C234.28 68 234.743 68 235.097 68.1802C235.408 68.3388 235.661 68.5917 235.82 68.9029C236 69.2566 236 69.7197 236 70.6458V290.354C236 291.28 236 291.743 235.82 292.097C235.661 292.408 235.408 292.661 235.097 292.82C234.743 293 234.28 293 233.354 293H-123.354C-124.28 293 -124.743 293 -125.097 292.82C-125.408 292.661 -125.661 292.408 -125.82 292.097C-126 291.743 -126 291.28 -126 290.354V70.6458Z" fill="white"/>
<rect width="362.323" height="33.0723" transform="translate(-126 68)" fill="#F6F7F7"/>
<g opacity="0.6">
<rect x="-35.1665" y="71.3071" width="214.028" height="26.4579" rx="13.2289" fill="#E5E6E8"/>
</g>
<rect x="186.092" y="74.6143" width="19.8434" height="19.8434" rx="3.30723" fill="#E5E6E8"/>
<path d="M201.738 83.5921H200.854V79.6948H196.957V78.8115C196.957 77.9606 196.347 77.1876 195.502 77.1032C194.528 77.0057 193.709 77.7657 193.709 78.7205V79.6948H189.819V83.4622H190.721C191.572 83.4622 192.345 84.0338 192.508 84.8652C192.722 85.9824 191.871 86.9697 190.786 86.9697H189.812V90.7371H193.579V89.8277C193.579 88.9768 194.151 88.2038 194.982 88.0415C196.1 87.8271 197.087 88.678 197.087 89.7627V90.7371H200.854V86.8398H201.829C202.783 86.8398 203.543 86.0214 203.446 85.0471C203.362 84.2027 202.582 83.5921 201.738 83.5921Z" fill="#1C1B1F" fill-opacity="0.8"/>
<g clip-path="url(#clip3_2637_17194)">
<path fill-rule="evenodd" clip-rule="evenodd" d="M222.629 88.4498C223.5 88.4498 224.206 89.1627 224.206 90.0421C224.206 90.9214 223.5 91.6343 222.629 91.6343C221.758 91.6343 221.052 90.9214 221.052 90.0421C221.052 89.1627 221.758 88.4498 222.629 88.4498ZM222.629 82.9442C223.5 82.9442 224.206 83.657 224.206 84.5364C224.206 85.4157 223.5 86.1286 222.629 86.1286C221.758 86.1286 221.052 85.4157 221.052 84.5364C221.052 83.657 221.758 82.9442 222.629 82.9442ZM222.629 77.4385C223.5 77.4385 224.206 78.1513 224.206 79.0307C224.206 79.9101 223.5 80.6229 222.629 80.6229C221.758 80.6229 221.052 79.9101 221.052 79.0307C221.052 78.1513 221.758 77.4385 222.629 77.4385Z" fill="#1C1B1F"/>
</g>
<g filter="url(#filter0_dd_2637_17194)">
<rect x="2.9447" y="101.072" width="212.687" height="33.0723" rx="3.30723" fill="white"/>
<rect x="2.5313" y="100.659" width="213.514" height="33.8991" rx="3.72064" stroke="#E5E6E8" stroke-width="0.826808"/>
<path fill-rule="evenodd" clip-rule="evenodd" d="M16.2371 123.809C16.2552 123.809 16.2552 123.809 16.2823 123.809C16.3638 123.809 16.4271 123.746 16.4271 123.665C16.4271 123.601 16.3818 123.52 16.3004 123.52H16.2552L16.1557 123.502C14.4824 123.176 13.2432 121.685 13.2432 119.94C13.2432 119.198 13.4693 118.493 13.8582 117.923C13.9216 117.842 14.021 117.779 14.1296 117.878L16.7708 120.554C16.7889 120.573 16.8341 120.6 16.8703 120.6C16.9155 120.6 16.9517 120.582 16.9698 120.554L19.6291 117.896C19.7286 117.797 19.819 117.815 19.8733 117.914C20.2622 118.493 20.4884 119.189 20.4884 119.931C20.4884 120.862 20.1356 121.703 19.5567 122.345C19.5386 122.363 19.5115 122.39 19.4934 122.408C19.4934 122.426 19.4753 122.453 19.4753 122.471C19.4753 122.553 19.5386 122.616 19.62 122.616H19.6381C19.6562 122.616 19.6833 122.598 19.7014 122.598C23.2291 121.115 23.0662 117.607 23.0662 117.607C23.0662 115.609 22.1165 113.81 20.6512 112.679C20.5879 112.634 20.4884 112.634 20.4431 112.697L16.9788 116.206C16.9155 116.269 16.816 116.269 16.7527 116.206L13.2613 112.697C13.1979 112.634 13.1165 112.634 13.0532 112.679C11.615 113.81 10.6653 115.582 10.6653 117.607C10.6653 120.826 13.0984 123.484 16.2371 123.809Z" fill="#1C1B1F"/>
<path d="M32.088 112.879H33.145L35.841 119.588L38.5313 112.879H39.5939L36.2479 121.108H35.4227L32.088 112.879ZM31.7433 112.879H32.6759L32.8285 117.898V121.108H31.7433V112.879ZM39.0005 112.879H39.933V121.108H38.8478V117.898L39.0005 112.879ZM45.5035 120.063V116.915C45.5035 116.673 45.4545 116.464 45.3565 116.287C45.2623 116.106 45.1192 115.967 44.927 115.869C44.7348 115.771 44.4974 115.722 44.2148 115.722C43.9511 115.722 43.7193 115.767 43.5196 115.858C43.3237 115.948 43.1692 116.067 43.0562 116.214C42.9469 116.361 42.8923 116.519 42.8923 116.689H41.8466C41.8466 116.47 41.9032 116.253 42.0162 116.039C42.1292 115.824 42.2913 115.63 42.5023 115.456C42.7171 115.279 42.9733 115.14 43.2709 115.038C43.5724 114.933 43.9077 114.88 44.277 114.88C44.7216 114.88 45.1135 114.955 45.4526 115.106C45.7955 115.257 46.063 115.485 46.2552 115.79C46.4511 116.091 46.5491 116.47 46.5491 116.926V119.775C46.5491 119.978 46.5661 120.195 46.6 120.425C46.6377 120.654 46.6923 120.852 46.7639 121.018V121.108H45.673C45.6203 120.988 45.5788 120.828 45.5487 120.628C45.5186 120.425 45.5035 120.236 45.5035 120.063ZM45.6844 117.401L45.6957 118.135H44.6387C44.3411 118.135 44.0754 118.16 43.8418 118.209C43.6082 118.254 43.4122 118.324 43.254 118.418C43.0957 118.512 42.9752 118.631 42.8923 118.774C42.8094 118.914 42.7679 119.077 42.7679 119.266C42.7679 119.458 42.8113 119.633 42.8979 119.791C42.9846 119.95 43.1146 120.076 43.2879 120.17C43.465 120.261 43.6817 120.306 43.9379 120.306C44.2582 120.306 44.5408 120.238 44.7857 120.102C45.0306 119.967 45.2247 119.801 45.3678 119.605C45.5148 119.409 45.5939 119.219 45.6052 119.034L46.0517 119.537C46.0254 119.695 45.9538 119.871 45.837 120.063C45.7201 120.255 45.5638 120.44 45.3678 120.617C45.1757 120.79 44.9458 120.935 44.6783 121.052C44.4145 121.165 44.1169 121.221 43.7853 121.221C43.3708 121.221 43.0072 121.14 42.6944 120.978C42.3855 120.816 42.1443 120.6 41.971 120.328C41.8014 120.053 41.7166 119.746 41.7166 119.407C41.7166 119.079 41.7807 118.791 41.9088 118.542C42.0369 118.29 42.2216 118.081 42.4627 117.915C42.7039 117.745 42.994 117.617 43.3331 117.531C43.6722 117.444 44.0509 117.401 44.4692 117.401H45.6844ZM49.5366 112.427V121.108H48.4853V112.427H49.5366ZM52.9706 120.023L54.5419 114.993H55.2314L55.0958 115.993L53.4962 121.108H52.8236L52.9706 120.023ZM51.9137 114.993L53.2532 120.08L53.3493 121.108H52.6428L50.8681 114.993H51.9137ZM56.7348 120.04L58.0122 114.993H59.0522L57.2774 121.108H56.5766L56.7348 120.04ZM55.384 114.993L56.9214 119.938L57.0966 121.108H56.4296L54.7849 115.982L54.6492 114.993H55.384ZM63.9387 120.063V116.915C63.9387 116.673 63.8897 116.464 63.7918 116.287C63.6976 116.106 63.5544 115.967 63.3622 115.869C63.17 115.771 62.9327 115.722 62.6501 115.722C62.3863 115.722 62.1546 115.767 61.9549 115.858C61.7589 115.948 61.6044 116.067 61.4914 116.214C61.3821 116.361 61.3275 116.519 61.3275 116.689H60.2819C60.2819 116.47 60.3384 116.253 60.4514 116.039C60.5645 115.824 60.7265 115.63 60.9375 115.456C61.1523 115.279 61.4085 115.14 61.7062 115.038C62.0076 114.933 62.343 114.88 62.7122 114.88C63.1569 114.88 63.5487 114.955 63.8879 115.106C64.2307 115.257 64.4983 115.485 64.6904 115.79C64.8864 116.091 64.9843 116.47 64.9843 116.926V119.775C64.9843 119.978 65.0013 120.195 65.0352 120.425C65.0729 120.654 65.1275 120.852 65.1991 121.018V121.108H64.1083C64.0555 120.988 64.0141 120.828 63.9839 120.628C63.9538 120.425 63.9387 120.236 63.9387 120.063ZM64.1196 117.401L64.1309 118.135H63.074C62.7763 118.135 62.5106 118.16 62.277 118.209C62.0434 118.254 61.8475 118.324 61.6892 118.418C61.531 118.512 61.4104 118.631 61.3275 118.774C61.2446 118.914 61.2031 119.077 61.2031 119.266C61.2031 119.458 61.2465 119.633 61.3331 119.791C61.4198 119.95 61.5498 120.076 61.7231 120.17C61.9002 120.261 62.1169 120.306 62.3731 120.306C62.6934 120.306 62.976 120.238 63.2209 120.102C63.4658 119.967 63.6599 119.801 63.8031 119.605C63.95 119.409 64.0292 119.219 64.0405 119.034L64.487 119.537C64.4606 119.695 64.389 119.871 64.2722 120.063C64.1554 120.255 63.999 120.44 63.8031 120.617C63.6109 120.79 63.3811 120.935 63.1135 121.052C62.8498 121.165 62.5521 121.221 62.2205 121.221C61.806 121.221 61.4424 121.14 61.1297 120.978C60.8207 120.816 60.5795 120.6 60.4062 120.328C60.2367 120.053 60.1519 119.746 60.1519 119.407C60.1519 119.079 60.2159 118.791 60.344 118.542C60.4722 118.29 60.6568 118.081 60.8979 117.915C61.1391 117.745 61.4292 117.617 61.7683 117.531C62.1075 117.444 62.4862 117.401 62.9044 117.401H64.1196ZM67.8814 115.954V121.108H66.8358V114.993H67.8531L67.8814 115.954ZM69.7918 114.959L69.7861 115.931C69.6995 115.912 69.6166 115.901 69.5374 115.897C69.4621 115.89 69.3754 115.886 69.2774 115.886C69.0363 115.886 68.8234 115.924 68.6388 115.999C68.4541 116.074 68.2978 116.18 68.1697 116.315C68.0415 116.451 67.9398 116.613 67.8644 116.802C67.7929 116.986 67.7458 117.19 67.7231 117.412L67.4292 117.582C67.4292 117.212 67.465 116.866 67.5366 116.542C67.612 116.218 67.7269 115.931 67.8814 115.682C68.0359 115.43 68.2318 115.234 68.4692 115.095C68.7104 114.951 68.9967 114.88 69.3283 114.88C69.4037 114.88 69.4903 114.889 69.5883 114.908C69.6863 114.923 69.7541 114.94 69.7918 114.959ZM73.3897 121.221C72.9639 121.221 72.5777 121.15 72.231 121.007C71.8881 120.86 71.5923 120.654 71.3437 120.391C71.0987 120.127 70.9103 119.814 70.7785 119.452C70.6466 119.091 70.5806 118.695 70.5806 118.265V118.028C70.5806 117.531 70.6541 117.088 70.8011 116.7C70.948 116.308 71.1477 115.976 71.4002 115.705C71.6526 115.434 71.939 115.228 72.2593 115.089C72.5796 114.95 72.9111 114.88 73.254 114.88C73.6911 114.88 74.0679 114.955 74.3844 115.106C74.7047 115.257 74.9666 115.468 75.1701 115.739C75.3735 116.007 75.5243 116.323 75.6222 116.689C75.7202 117.05 75.7692 117.446 75.7692 117.875V118.345H71.2024V117.491H74.7236V117.412C74.7085 117.141 74.652 116.877 74.554 116.621C74.4598 116.364 74.3091 116.153 74.1018 115.988C73.8946 115.822 73.612 115.739 73.254 115.739C73.0167 115.739 72.7981 115.79 72.5984 115.892C72.3987 115.99 72.2273 116.137 72.0841 116.332C71.9409 116.528 71.8297 116.768 71.7506 117.05C71.6715 117.333 71.6319 117.659 71.6319 118.028V118.265C71.6319 118.556 71.6715 118.829 71.7506 119.085C71.8335 119.337 71.9522 119.56 72.1067 119.752C72.2649 119.944 72.4552 120.095 72.6775 120.204C72.9036 120.313 73.1598 120.368 73.4462 120.368C73.8155 120.368 74.1282 120.293 74.3844 120.142C74.6407 119.991 74.8649 119.79 75.057 119.537L75.6901 120.04C75.5582 120.24 75.3905 120.43 75.187 120.611C74.9836 120.792 74.733 120.939 74.4353 121.052C74.1414 121.165 73.7929 121.221 73.3897 121.221ZM77.1911 112.427H78.2423V119.921L78.1519 121.108H77.1911V112.427ZM82.374 118V118.118C82.374 118.563 82.3212 118.976 82.2157 119.356C82.1102 119.733 81.9557 120.061 81.7522 120.34C81.5488 120.619 81.3001 120.835 81.0062 120.99C80.7123 121.144 80.375 121.221 79.9945 121.221C79.6064 121.221 79.2653 121.155 78.9714 121.024C78.6813 120.888 78.4364 120.694 78.2367 120.441C78.037 120.189 77.8768 119.884 77.7563 119.526C77.6395 119.168 77.5584 118.765 77.5132 118.316V117.796C77.5584 117.344 77.6395 116.939 77.7563 116.581C77.8768 116.223 78.037 115.918 78.2367 115.666C78.4364 115.409 78.6813 115.215 78.9714 115.083C79.2616 114.948 79.5988 114.88 79.9832 114.88C80.3675 114.88 80.7085 114.955 81.0062 115.106C81.3038 115.253 81.5525 115.464 81.7522 115.739C81.9557 116.014 82.1102 116.344 82.2157 116.728C82.3212 117.109 82.374 117.533 82.374 118ZM81.3227 118.118V118C81.3227 117.695 81.2944 117.408 81.2379 117.141C81.1814 116.869 81.0909 116.632 80.9666 116.429C80.8423 116.221 80.6783 116.059 80.4749 115.942C80.2714 115.822 80.0208 115.762 79.7232 115.762C79.4594 115.762 79.2296 115.807 79.0336 115.897C78.8414 115.988 78.6775 116.11 78.5419 116.265C78.4062 116.415 78.2951 116.589 78.2084 116.785C78.1255 116.977 78.0634 117.176 78.0219 117.384V118.746C78.0822 119.01 78.1802 119.264 78.3158 119.509C78.4552 119.75 78.6399 119.948 78.8697 120.102C79.1033 120.257 79.3916 120.334 79.7345 120.334C80.0171 120.334 80.2582 120.278 80.4579 120.165C80.6614 120.048 80.8253 119.888 80.9496 119.684C81.0778 119.481 81.172 119.245 81.2322 118.978C81.2925 118.71 81.3227 118.424 81.3227 118.118ZM85.5536 120.475L87.2549 114.993H88.374L85.921 122.052C85.8645 122.203 85.7891 122.365 85.6949 122.538C85.6045 122.715 85.4877 122.883 85.3445 123.041C85.2013 123.2 85.028 123.328 84.8245 123.426C84.6248 123.527 84.3855 123.578 84.1067 123.578C84.0238 123.578 83.9183 123.567 83.7902 123.544C83.6621 123.522 83.5716 123.503 83.5189 123.488L83.5132 122.64C83.5434 122.644 83.5905 122.648 83.6545 122.651C83.7224 122.659 83.7695 122.663 83.7958 122.663C84.0332 122.663 84.2348 122.631 84.4006 122.567C84.5664 122.506 84.7058 122.403 84.8188 122.256C84.9357 122.113 85.0355 121.915 85.1184 121.662L85.5536 120.475ZM84.3045 114.993L85.8927 119.741L86.164 120.843L85.4123 121.227L83.1628 114.993H84.3045ZM92.0849 114.993V115.796H88.7785V114.993H92.0849ZM89.8976 113.506H90.9432V119.594C90.9432 119.801 90.9752 119.957 91.0393 120.063C91.1033 120.168 91.1862 120.238 91.288 120.272C91.3897 120.306 91.499 120.323 91.6158 120.323C91.7025 120.323 91.7929 120.315 91.8871 120.3C91.9851 120.281 92.0585 120.266 92.1075 120.255L92.1132 121.108C92.0303 121.135 91.921 121.159 91.7854 121.182C91.6535 121.208 91.4933 121.221 91.3049 121.221C91.0487 121.221 90.8132 121.171 90.5984 121.069C90.3837 120.967 90.2122 120.798 90.0841 120.56C89.9598 120.319 89.8976 119.995 89.8976 119.588V113.506ZM96.0558 121.221C95.6301 121.221 95.2438 121.15 94.8972 121.007C94.5543 120.86 94.2585 120.654 94.0098 120.391C93.7649 120.127 93.5765 119.814 93.4446 119.452C93.3127 119.091 93.2468 118.695 93.2468 118.265V118.028C93.2468 117.531 93.3203 117.088 93.4672 116.7C93.6142 116.308 93.8139 115.976 94.0663 115.705C94.3188 115.434 94.6052 115.228 94.9254 115.089C95.2457 114.95 95.5773 114.88 95.9202 114.88C96.3573 114.88 96.7341 114.955 97.0506 115.106C97.3709 115.257 97.6328 115.468 97.8362 115.739C98.0397 116.007 98.1904 116.323 98.2884 116.689C98.3864 117.05 98.4353 117.446 98.4353 117.875V118.345H93.8685V117.491H97.3897V117.412C97.3746 117.141 97.3181 116.877 97.2202 116.621C97.126 116.364 96.9752 116.153 96.768 115.988C96.5608 115.822 96.2782 115.739 95.9202 115.739C95.6828 115.739 95.4643 115.79 95.2646 115.892C95.0649 115.99 94.8934 116.137 94.7502 116.332C94.607 116.528 94.4959 116.768 94.4168 117.05C94.3376 117.333 94.2981 117.659 94.2981 118.028V118.265C94.2981 118.556 94.3376 118.829 94.4168 119.085C94.4997 119.337 94.6184 119.56 94.7728 119.752C94.9311 119.944 95.1214 120.095 95.3437 120.204C95.5698 120.313 95.826 120.368 96.1124 120.368C96.4816 120.368 96.7944 120.293 97.0506 120.142C97.3068 119.991 97.531 119.79 97.7232 119.537L98.3562 120.04C98.2243 120.24 98.0567 120.43 97.8532 120.611C97.6497 120.792 97.3991 120.939 97.1015 121.052C96.8076 121.165 96.459 121.221 96.0558 121.221ZM103.424 119.486C103.424 119.336 103.39 119.196 103.322 119.068C103.258 118.936 103.124 118.817 102.921 118.712C102.721 118.603 102.419 118.508 102.016 118.429C101.677 118.358 101.37 118.273 101.095 118.175C100.824 118.077 100.592 117.958 100.4 117.819C100.211 117.68 100.066 117.516 99.9646 117.327C99.8629 117.139 99.812 116.918 99.812 116.666C99.812 116.425 99.8648 116.197 99.9703 115.982C100.08 115.767 100.232 115.577 100.428 115.411C100.628 115.245 100.867 115.115 101.146 115.021C101.425 114.927 101.736 114.88 102.078 114.88C102.568 114.88 102.987 114.967 103.333 115.14C103.68 115.313 103.946 115.545 104.13 115.835C104.315 116.121 104.407 116.44 104.407 116.79H103.361C103.361 116.621 103.311 116.457 103.209 116.299C103.111 116.137 102.966 116.003 102.774 115.897C102.585 115.792 102.354 115.739 102.078 115.739C101.788 115.739 101.553 115.784 101.372 115.875C101.195 115.961 101.065 116.072 100.982 116.208C100.903 116.344 100.863 116.487 100.863 116.638C100.863 116.751 100.882 116.852 100.92 116.943C100.961 117.03 101.033 117.111 101.135 117.186C101.236 117.257 101.379 117.325 101.564 117.389C101.749 117.453 101.984 117.517 102.271 117.582C102.772 117.695 103.184 117.83 103.508 117.988C103.832 118.147 104.074 118.341 104.232 118.571C104.39 118.8 104.469 119.079 104.469 119.407C104.469 119.675 104.413 119.92 104.3 120.142C104.19 120.364 104.03 120.556 103.819 120.718C103.612 120.877 103.363 121.001 103.073 121.091C102.787 121.178 102.465 121.221 102.107 121.221C101.568 121.221 101.112 121.125 100.739 120.933C100.366 120.741 100.083 120.492 99.8911 120.187C99.699 119.882 99.6029 119.56 99.6029 119.221H100.654C100.669 119.507 100.752 119.735 100.903 119.905C101.054 120.07 101.238 120.189 101.457 120.261C101.675 120.328 101.892 120.362 102.107 120.362C102.393 120.362 102.632 120.325 102.825 120.249C103.02 120.174 103.169 120.07 103.271 119.938C103.373 119.807 103.424 119.656 103.424 119.486ZM112.219 117.259H110.133L110.122 116.383H112.015C112.328 116.383 112.601 116.331 112.835 116.225C113.069 116.12 113.25 115.969 113.378 115.773C113.51 115.573 113.575 115.336 113.575 115.061C113.575 114.759 113.517 114.514 113.4 114.326C113.287 114.134 113.112 113.994 112.875 113.908C112.641 113.817 112.343 113.772 111.982 113.772H110.376V121.108H109.286V112.879H111.982C112.404 112.879 112.78 112.922 113.112 113.009C113.444 113.092 113.724 113.224 113.954 113.405C114.188 113.582 114.365 113.808 114.485 114.083C114.606 114.358 114.666 114.688 114.666 115.072C114.666 115.411 114.58 115.718 114.406 115.993C114.233 116.265 113.992 116.487 113.683 116.66C113.378 116.834 113.02 116.945 112.609 116.994L112.219 117.259ZM112.168 121.108H109.704L110.32 120.221H112.168C112.515 120.221 112.809 120.161 113.05 120.04C113.295 119.92 113.481 119.75 113.609 119.531C113.737 119.309 113.802 119.047 113.802 118.746C113.802 118.441 113.747 118.177 113.638 117.955C113.528 117.732 113.357 117.561 113.123 117.44C112.89 117.32 112.588 117.259 112.219 117.259H110.665L110.676 116.383H112.801L113.033 116.7C113.429 116.734 113.764 116.847 114.039 117.039C114.314 117.227 114.523 117.469 114.666 117.762C114.813 118.056 114.887 118.38 114.887 118.735C114.887 119.247 114.774 119.68 114.548 120.035C114.325 120.385 114.011 120.652 113.604 120.837C113.197 121.018 112.718 121.108 112.168 121.108ZM117.592 115.954V121.108H116.546V114.993H117.563L117.592 115.954ZM119.502 114.959L119.496 115.931C119.41 115.912 119.327 115.901 119.248 115.897C119.172 115.89 119.086 115.886 118.988 115.886C118.747 115.886 118.534 115.924 118.349 115.999C118.164 116.074 118.008 116.18 117.88 116.315C117.752 116.451 117.65 116.613 117.575 116.802C117.503 116.986 117.456 117.19 117.433 117.412L117.139 117.582C117.139 117.212 117.175 116.866 117.247 116.542C117.322 116.218 117.437 115.931 117.592 115.682C117.746 115.43 117.942 115.234 118.179 115.095C118.421 114.951 118.707 114.88 119.039 114.88C119.114 114.88 119.201 114.889 119.299 114.908C119.396 114.923 119.464 114.94 119.502 114.959ZM120.285 118.118V117.988C120.285 117.548 120.349 117.139 120.477 116.762C120.605 116.381 120.79 116.052 121.031 115.773C121.272 115.49 121.564 115.272 121.907 115.117C122.25 114.959 122.635 114.88 123.06 114.88C123.49 114.88 123.876 114.959 124.219 115.117C124.566 115.272 124.86 115.49 125.101 115.773C125.346 116.052 125.532 116.381 125.66 116.762C125.788 117.139 125.852 117.548 125.852 117.988V118.118C125.852 118.559 125.788 118.968 125.66 119.345C125.532 119.722 125.346 120.051 125.101 120.334C124.86 120.613 124.568 120.831 124.225 120.99C123.886 121.144 123.501 121.221 123.072 121.221C122.642 121.221 122.256 121.144 121.913 120.99C121.57 120.831 121.276 120.613 121.031 120.334C120.79 120.051 120.605 119.722 120.477 119.345C120.349 118.968 120.285 118.559 120.285 118.118ZM121.331 117.988V118.118C121.331 118.424 121.367 118.712 121.438 118.983C121.51 119.251 121.617 119.488 121.76 119.695C121.907 119.903 122.09 120.067 122.309 120.187C122.527 120.304 122.781 120.362 123.072 120.362C123.358 120.362 123.609 120.304 123.823 120.187C124.042 120.067 124.223 119.903 124.366 119.695C124.509 119.488 124.617 119.251 124.688 118.983C124.763 118.712 124.801 118.424 124.801 118.118V117.988C124.801 117.687 124.763 117.403 124.688 117.135C124.617 116.864 124.507 116.624 124.36 116.417C124.217 116.206 124.036 116.04 123.818 115.92C123.603 115.799 123.35 115.739 123.06 115.739C122.774 115.739 122.522 115.799 122.303 115.92C122.088 116.04 121.907 116.206 121.76 116.417C121.617 116.624 121.51 116.864 121.438 117.135C121.367 117.403 121.331 117.687 121.331 117.988ZM128.919 120.023L130.49 114.993H131.18L131.044 115.993L129.445 121.108H128.772L128.919 120.023ZM127.862 114.993L129.202 120.08L129.298 121.108H128.591L126.816 114.993H127.862ZM132.683 120.04L133.961 114.993H135.001L133.226 121.108H132.525L132.683 120.04ZM131.332 114.993L132.87 119.938L133.045 121.108H132.378L130.733 115.982L130.598 114.993H131.332ZM139.842 119.486C139.842 119.336 139.808 119.196 139.74 119.068C139.676 118.936 139.542 118.817 139.339 118.712C139.139 118.603 138.838 118.508 138.435 118.429C138.095 118.358 137.788 118.273 137.513 118.175C137.242 118.077 137.01 117.958 136.818 117.819C136.63 117.68 136.485 117.516 136.383 117.327C136.281 117.139 136.23 116.918 136.23 116.666C136.23 116.425 136.283 116.197 136.389 115.982C136.498 115.767 136.65 115.577 136.846 115.411C137.046 115.245 137.285 115.115 137.564 115.021C137.843 114.927 138.154 114.88 138.497 114.88C138.987 114.88 139.405 114.967 139.752 115.14C140.098 115.313 140.364 115.545 140.548 115.835C140.733 116.121 140.825 116.44 140.825 116.79H139.78C139.78 116.621 139.729 116.457 139.627 116.299C139.529 116.137 139.384 116.003 139.192 115.897C139.004 115.792 138.772 115.739 138.497 115.739C138.207 115.739 137.971 115.784 137.79 115.875C137.613 115.961 137.483 116.072 137.4 116.208C137.321 116.344 137.282 116.487 137.282 116.638C137.282 116.751 137.3 116.852 137.338 116.943C137.38 117.03 137.451 117.111 137.553 117.186C137.655 117.257 137.798 117.325 137.982 117.389C138.167 117.453 138.403 117.517 138.689 117.582C139.19 117.695 139.603 117.83 139.927 117.988C140.251 118.147 140.492 118.341 140.65 118.571C140.808 118.8 140.888 119.079 140.888 119.407C140.888 119.675 140.831 119.92 140.718 120.142C140.609 120.364 140.449 120.556 140.238 120.718C140.03 120.877 139.782 121.001 139.492 121.091C139.205 121.178 138.883 121.221 138.525 121.221C137.986 121.221 137.53 121.125 137.157 120.933C136.784 120.741 136.502 120.492 136.309 120.187C136.117 119.882 136.021 119.56 136.021 119.221H137.072C137.088 119.507 137.17 119.735 137.321 119.905C137.472 120.07 137.656 120.189 137.875 120.261C138.094 120.328 138.31 120.362 138.525 120.362C138.811 120.362 139.051 120.325 139.243 120.249C139.439 120.174 139.588 120.07 139.689 119.938C139.791 119.807 139.842 119.656 139.842 119.486ZM145.005 121.221C144.58 121.221 144.193 121.15 143.847 121.007C143.504 120.86 143.208 120.654 142.959 120.391C142.715 120.127 142.526 119.814 142.394 119.452C142.262 119.091 142.196 118.695 142.196 118.265V118.028C142.196 117.531 142.27 117.088 142.417 116.7C142.564 116.308 142.763 115.976 143.016 115.705C143.268 115.434 143.555 115.228 143.875 115.089C144.195 114.95 144.527 114.88 144.87 114.88C145.307 114.88 145.684 114.955 146 115.106C146.32 115.257 146.582 115.468 146.786 115.739C146.989 116.007 147.14 116.323 147.238 116.689C147.336 117.05 147.385 117.446 147.385 117.875V118.345H142.818V117.491H146.339V117.412C146.324 117.141 146.268 116.877 146.17 116.621C146.076 116.364 145.925 116.153 145.718 115.988C145.51 115.822 145.228 115.739 144.87 115.739C144.632 115.739 144.414 115.79 144.214 115.892C144.014 115.99 143.843 116.137 143.7 116.332C143.557 116.528 143.445 116.768 143.366 117.05C143.287 117.333 143.248 117.659 143.248 118.028V118.265C143.248 118.556 143.287 118.829 143.366 119.085C143.449 119.337 143.568 119.56 143.722 119.752C143.881 119.944 144.071 120.095 144.293 120.204C144.519 120.313 144.776 120.368 145.062 120.368C145.431 120.368 145.744 120.293 146 120.142C146.256 119.991 146.481 119.79 146.673 119.537L147.306 120.04C147.174 120.24 147.006 120.43 146.803 120.611C146.599 120.792 146.349 120.939 146.051 121.052C145.757 121.165 145.409 121.221 145.005 121.221ZM149.858 115.954V121.108H148.812V114.993H149.83L149.858 115.954ZM151.768 114.959L151.763 115.931C151.676 115.912 151.593 115.901 151.514 115.897C151.439 115.89 151.352 115.886 151.254 115.886C151.013 115.886 150.8 115.924 150.615 115.999C150.431 116.074 150.274 116.18 150.146 116.315C150.018 116.451 149.917 116.613 149.841 116.802C149.77 116.986 149.722 117.19 149.7 117.412L149.406 117.582C149.406 117.212 149.442 116.866 149.513 116.542C149.589 116.218 149.704 115.931 149.858 115.682C150.013 115.43 150.209 115.234 150.446 115.095C150.687 114.951 150.973 114.88 151.305 114.88C151.38 114.88 151.467 114.889 151.565 114.908C151.663 114.923 151.731 114.94 151.768 114.959ZM162.259 117.011V120.023C162.158 120.174 161.996 120.343 161.773 120.532C161.551 120.717 161.244 120.879 160.852 121.018C160.464 121.154 159.963 121.221 159.349 121.221C158.847 121.221 158.386 121.135 157.964 120.961C157.546 120.784 157.182 120.528 156.873 120.193C156.568 119.854 156.33 119.443 156.161 118.961C155.995 118.475 155.912 117.924 155.912 117.31V116.672C155.912 116.057 155.984 115.509 156.127 115.027C156.274 114.545 156.489 114.136 156.771 113.8C157.054 113.461 157.401 113.205 157.811 113.032C158.222 112.855 158.693 112.766 159.224 112.766C159.854 112.766 160.379 112.875 160.801 113.094C161.227 113.309 161.559 113.606 161.796 113.987C162.037 114.367 162.192 114.801 162.259 115.287H161.169C161.12 114.989 161.022 114.718 160.875 114.473C160.731 114.228 160.526 114.032 160.259 113.885C159.991 113.734 159.646 113.659 159.224 113.659C158.844 113.659 158.514 113.729 158.235 113.868C157.956 114.008 157.727 114.207 157.546 114.467C157.365 114.727 157.229 115.042 157.139 115.411C157.052 115.78 157.009 116.197 157.009 116.66V117.31C157.009 117.785 157.063 118.209 157.173 118.582C157.286 118.955 157.446 119.273 157.653 119.537C157.86 119.797 158.107 119.995 158.393 120.131C158.684 120.266 159.004 120.334 159.354 120.334C159.742 120.334 160.057 120.302 160.298 120.238C160.539 120.17 160.728 120.091 160.863 120.001C160.999 119.906 161.103 119.818 161.174 119.735V117.892H159.27V117.011H162.259ZM167.858 119.695V114.993H168.909V121.108H167.909L167.858 119.695ZM168.056 118.407L168.491 118.395C168.491 118.802 168.448 119.179 168.361 119.526C168.278 119.869 168.143 120.166 167.954 120.419C167.766 120.671 167.519 120.869 167.214 121.012C166.909 121.152 166.537 121.221 166.1 121.221C165.803 121.221 165.529 121.178 165.281 121.091C165.036 121.005 164.825 120.871 164.648 120.69C164.471 120.509 164.333 120.274 164.235 119.984C164.141 119.694 164.094 119.345 164.094 118.938V114.993H165.14V118.949C165.14 119.224 165.17 119.452 165.23 119.633C165.294 119.81 165.379 119.952 165.484 120.057C165.594 120.159 165.714 120.23 165.846 120.272C165.982 120.313 166.121 120.334 166.264 120.334C166.709 120.334 167.061 120.249 167.321 120.08C167.581 119.906 167.768 119.675 167.881 119.385C167.998 119.091 168.056 118.765 168.056 118.407ZM174.316 120.063V116.915C174.316 116.673 174.267 116.464 174.169 116.287C174.075 116.106 173.932 115.967 173.739 115.869C173.547 115.771 173.31 115.722 173.027 115.722C172.764 115.722 172.532 115.767 172.332 115.858C172.136 115.948 171.982 116.067 171.869 116.214C171.759 116.361 171.705 116.519 171.705 116.689H170.659C170.659 116.47 170.716 116.253 170.829 116.039C170.942 115.824 171.104 115.63 171.315 115.456C171.53 115.279 171.786 115.14 172.083 115.038C172.385 114.933 172.72 114.88 173.089 114.88C173.534 114.88 173.926 114.955 174.265 115.106C174.608 115.257 174.876 115.485 175.068 115.79C175.264 116.091 175.362 116.47 175.362 116.926V119.775C175.362 119.978 175.379 120.195 175.412 120.425C175.45 120.654 175.505 120.852 175.576 121.018V121.108H174.486C174.433 120.988 174.391 120.828 174.361 120.628C174.331 120.425 174.316 120.236 174.316 120.063ZM174.497 117.401L174.508 118.135H173.451C173.154 118.135 172.888 118.16 172.654 118.209C172.421 118.254 172.225 118.324 172.066 118.418C171.908 118.512 171.788 118.631 171.705 118.774C171.622 118.914 171.58 119.077 171.58 119.266C171.58 119.458 171.624 119.633 171.71 119.791C171.797 119.95 171.927 120.076 172.1 120.17C172.277 120.261 172.494 120.306 172.75 120.306C173.071 120.306 173.353 120.238 173.598 120.102C173.843 119.967 174.037 119.801 174.18 119.605C174.327 119.409 174.406 119.219 174.418 119.034L174.864 119.537C174.838 119.695 174.766 119.871 174.649 120.063C174.533 120.255 174.376 120.44 174.18 120.617C173.988 120.79 173.758 120.935 173.491 121.052C173.227 121.165 172.929 121.221 172.598 121.221C172.183 121.221 171.82 121.14 171.507 120.978C171.198 120.816 170.957 120.6 170.783 120.328C170.614 120.053 170.529 119.746 170.529 119.407C170.529 119.079 170.593 118.791 170.721 118.542C170.849 118.29 171.034 118.081 171.275 117.915C171.516 117.745 171.806 117.617 172.146 117.531C172.485 117.444 172.863 117.401 173.282 117.401H174.497ZM178.259 115.954V121.108H177.213V114.993H178.23L178.259 115.954ZM180.169 114.959L180.163 115.931C180.077 115.912 179.994 115.901 179.915 115.897C179.839 115.89 179.753 115.886 179.655 115.886C179.414 115.886 179.201 115.924 179.016 115.999C178.831 116.074 178.675 116.18 178.547 116.315C178.419 116.451 178.317 116.613 178.242 116.802C178.17 116.986 178.123 117.19 178.1 117.412L177.806 117.582C177.806 117.212 177.842 116.866 177.914 116.542C177.989 116.218 178.104 115.931 178.259 115.682C178.413 115.43 178.609 115.234 178.846 115.095C179.088 114.951 179.374 114.88 179.706 114.88C179.781 114.88 179.868 114.889 179.966 114.908C180.064 114.923 180.131 114.94 180.169 114.959ZM185.084 119.921V112.427H186.135V121.108H185.174L185.084 119.921ZM180.969 118.118V118C180.969 117.533 181.026 117.109 181.139 116.728C181.256 116.344 181.419 116.014 181.63 115.739C181.845 115.464 182.1 115.253 182.393 115.106C182.691 114.955 183.023 114.88 183.388 114.88C183.773 114.88 184.108 114.948 184.394 115.083C184.684 115.215 184.929 115.409 185.129 115.666C185.333 115.918 185.493 116.223 185.609 116.581C185.726 116.939 185.807 117.344 185.853 117.796V118.316C185.811 118.765 185.73 119.168 185.609 119.526C185.493 119.884 185.333 120.189 185.129 120.441C184.929 120.694 184.684 120.888 184.394 121.024C184.104 121.155 183.765 121.221 183.377 121.221C183.019 121.221 182.691 121.144 182.393 120.99C182.1 120.835 181.845 120.619 181.63 120.34C181.419 120.061 181.256 119.733 181.139 119.356C181.026 118.976 180.969 118.563 180.969 118.118ZM182.02 118V118.118C182.02 118.424 182.051 118.71 182.111 118.978C182.175 119.245 182.273 119.481 182.405 119.684C182.537 119.888 182.704 120.048 182.908 120.165C183.111 120.278 183.354 120.334 183.637 120.334C183.984 120.334 184.268 120.261 184.49 120.114C184.716 119.967 184.897 119.773 185.033 119.531C185.169 119.29 185.274 119.028 185.349 118.746V117.384C185.304 117.176 185.238 116.977 185.152 116.785C185.069 116.589 184.959 116.415 184.824 116.265C184.692 116.11 184.528 115.988 184.332 115.897C184.14 115.807 183.912 115.762 183.648 115.762C183.362 115.762 183.115 115.822 182.908 115.942C182.704 116.059 182.537 116.221 182.405 116.429C182.273 116.632 182.175 116.869 182.111 117.141C182.051 117.408 182.02 117.695 182.02 118Z" fill="#1C1B1F" fill-opacity="0.8"/>
<rect x="191.788" y="107.687" width="19.8434" height="19.8434" rx="3.30723" fill="#F6F7F7"/>
<path d="M205.017 113.474H204.19V117.608L205.844 120.088V120.916H202.537V124.223L201.709 125.049L200.883 124.223V120.916H197.576V120.088L199.229 117.608V113.474H198.403V111.821H205.017V113.474Z" fill="#0D3ECC"/>
</g>
</g>
<g filter="url(#filter1_d_2637_17194)">
<path fill-rule="evenodd" clip-rule="evenodd" d="M211.141 131.704C211.14 131.136 210.693 130.676 210.141 130.676C209.589 130.676 209.141 131.137 209.141 131.706V132.735L209.141 133.507C209.141 133.649 209.029 133.764 208.891 133.764C208.753 133.764 208.641 133.649 208.641 133.507V132.735H208.641V127.588C208.641 127.019 208.193 126.559 207.641 126.559C207.089 126.559 206.641 127.019 206.641 127.588V132.735V134.794V136.085L205.875 134.665C205.607 134.167 204.998 133.988 204.515 134.264C204.032 134.54 203.858 135.166 204.126 135.664L206.89 140.791C207.183 141.334 207.722 141.648 208.285 141.667C208.692 141.88 209.153 142 209.641 142H213.141C214.798 142 216.141 140.617 216.141 138.912V134.806L216.141 134.794V132.735C216.141 132.167 215.693 131.706 215.141 131.706C214.589 131.706 214.141 132.167 214.141 132.735L214.141 133.507C214.141 133.649 214.029 133.764 213.891 133.764C213.753 133.764 213.641 133.649 213.641 133.507L213.641 132.735V131.706L213.641 131.704C213.64 131.136 213.193 130.676 212.641 130.676C212.089 130.676 211.641 131.137 211.641 131.706V132.735L211.641 133.507C211.641 133.649 211.529 133.764 211.391 133.764C211.253 133.764 211.141 133.649 211.141 133.507V131.704Z" fill="url(#paint0_linear_2637_17194)"/>
</g>
<path fill-rule="evenodd" clip-rule="evenodd" d="M211.641 131.705C211.641 131.705 211.641 131.704 211.641 131.704C211.641 131.704 211.641 131.704 211.641 131.704C211.641 131.391 211.777 131.111 211.991 130.923C212.166 130.769 212.393 130.676 212.641 130.676C213.097 130.676 213.482 130.99 213.602 131.42C213.627 131.51 213.641 131.605 213.641 131.704V133.507C213.641 133.649 213.753 133.764 213.891 133.764C214.029 133.764 214.141 133.649 214.141 133.507L214.141 132.735C214.141 132.354 214.342 132.021 214.641 131.843C214.788 131.755 214.959 131.705 215.141 131.705C215.693 131.705 216.141 132.166 216.141 132.735V134.794L216.141 134.805V138.911C216.141 140.617 214.798 141.999 213.141 141.999H209.641C209.153 141.999 208.692 141.879 208.285 141.667C207.722 141.648 207.183 141.334 206.89 140.79L204.126 135.663C203.858 135.166 204.032 134.539 204.515 134.264C204.887 134.051 205.333 134.109 205.641 134.373C205.733 134.452 205.813 134.55 205.875 134.664L206.641 136.085V127.588C206.641 127.019 207.088 126.558 207.641 126.558C208.193 126.558 208.641 127.019 208.641 127.588V132.735L208.641 133.507C208.641 133.649 208.753 133.764 208.891 133.764C209.029 133.764 209.141 133.649 209.141 133.507L209.141 131.705C209.141 131.324 209.342 130.992 209.641 130.814C209.788 130.726 209.959 130.676 210.141 130.676C210.389 130.676 210.616 130.769 210.79 130.923C211.005 131.111 211.14 131.391 211.141 131.704V133.507C211.141 133.649 211.253 133.764 211.391 133.764C211.529 133.764 211.641 133.649 211.641 133.507L211.641 131.705ZM211.391 130.098C211.733 129.815 212.168 129.646 212.641 129.646C213.432 129.646 214.116 130.119 214.44 130.806C214.658 130.722 214.894 130.676 215.141 130.676C216.245 130.676 217.141 131.598 217.141 132.735V134.799L217.141 134.808V138.911C217.141 141.185 215.35 143.029 213.141 143.029H209.641C209.066 143.029 208.518 142.904 208.022 142.678C207.207 142.577 206.446 142.088 206.016 141.29L203.252 136.163C202.716 135.169 203.064 133.915 204.03 133.364C204.542 133.071 205.126 133.034 205.641 133.213V127.588C205.641 126.451 206.536 125.529 207.641 125.529C208.745 125.529 209.641 126.451 209.641 127.588V129.711C209.801 129.669 209.968 129.646 210.141 129.646C210.614 129.646 211.048 129.815 211.391 130.098Z" fill="#1C1B1F"/>
</g>
</g>
<rect x="0.5" y="0.5" width="289" height="245" rx="7.5" stroke="#DDE4F8"/>
<defs>
<filter id="filter0_dd_2637_17194" x="-6.9725" y="94.4652" width="232.521" height="52.9064" filterUnits="userSpaceOnUse" color-interpolation-filters="sRGB">
<feFlood flood-opacity="0" result="BackgroundImageFix"/>
<feColorMatrix in="SourceAlpha" type="matrix" values="0 0 0 0 0 0 0 0 0 0 0 0 0 0 0 0 0 0 127 0" result="hardAlpha"/>
<feOffset dy="0.826808"/>
<feGaussianBlur stdDeviation="1.24021"/>
<feColorMatrix type="matrix" values="0 0 0 0 0 0 0 0 0 0 0 0 0 0 0 0 0 0 0.01 0"/>
<feBlend mode="normal" in2="BackgroundImageFix" result="effect1_dropShadow_2637_17194"/>
<feColorMatrix in="SourceAlpha" type="matrix" values="0 0 0 0 0 0 0 0 0 0 0 0 0 0 0 0 0 0 127 0" result="hardAlpha"/>
<feMorphology radius="2.48042" operator="dilate" in="SourceAlpha" result="effect2_dropShadow_2637_17194"/>
<feOffset dy="3.31"/>
<feGaussianBlur stdDeviation="3.305"/>
<feColorMatrix type="matrix" values="0 0 0 0 0 0 0 0 0 0 0 0 0 0 0 0 0 0 0.08 0"/>
<feBlend mode="normal" in2="effect1_dropShadow_2637_17194" result="effect2_dropShadow_2637_17194"/>
<feBlend mode="normal" in="SourceGraphic" in2="effect2_dropShadow_2637_17194" result="shape"/>
</filter>
<filter id="filter1_d_2637_17194" x="203" y="126.559" width="14.1406" height="17.4414" filterUnits="userSpaceOnUse" color-interpolation-filters="sRGB">
<feFlood flood-opacity="0" result="BackgroundImageFix"/>
<feColorMatrix in="SourceAlpha" type="matrix" values="0 0 0 0 0 0 0 0 0 0 0 0 0 0 0 0 0 0 127 0" result="hardAlpha"/>
<feOffset dy="1"/>
<feGaussianBlur stdDeviation="0.5"/>
<feComposite in2="hardAlpha" operator="out"/>
<feColorMatrix type="matrix" values="0 0 0 0 0 0 0 0 0 0 0 0 0 0 0 0 0 0 0.1 0"/>
<feBlend mode="normal" in2="BackgroundImageFix" result="effect1_dropShadow_2637_17194"/>
<feBlend mode="normal" in="SourceGraphic" in2="effect1_dropShadow_2637_17194" result="shape"/>
</filter>
<linearGradient id="paint0_linear_2637_17194" x1="210.071" y1="126.559" x2="210.071" y2="142" gradientUnits="userSpaceOnUse">
<stop offset="0.353422" stop-color="white"/>
<stop offset="1" stop-color="#E7E7E7"/>
</linearGradient>
<clipPath id="clip0_2637_17194">
<rect width="290" height="246" rx="8" fill="white"/>
</clipPath>
<clipPath id="clip1_2637_17194">
<rect x="-8" y="68" width="246" height="225" rx="9" fill="white"/>
</clipPath>
<clipPath id="clip2_2637_17194">
<path d="M-126 70.6458C-126 69.7197 -126 69.2566 -125.82 68.9029C-125.661 68.5917 -125.408 68.3388 -125.097 68.1802C-124.743 68 -124.28 68 -123.354 68H233.354C234.28 68 234.743 68 235.097 68.1802C235.408 68.3388 235.661 68.5917 235.82 68.9029C236 69.2566 236 69.7197 236 70.6458V290.354C236 291.28 236 291.743 235.82 292.097C235.661 292.408 235.408 292.661 235.097 292.82C234.743 293 234.28 293 233.354 293H-123.354C-124.28 293 -124.743 293 -125.097 292.82C-125.408 292.661 -125.661 292.408 -125.82 292.097C-126 291.743 -126 291.28 -126 290.354V70.6458Z" fill="white"/>
</clipPath>
<clipPath id="clip3_2637_17194">
<rect width="18.9277" height="18.9277" fill="white" transform="translate(213.165 75.0723)"/>
</clipPath>
</defs>
</svg>
