<svg width="200" height="252" viewBox="0 0 200 252" fill="none" xmlns="http://www.w3.org/2000/svg">
    <rect width="200" height="252" rx="16" fill="#DDE4F8"/>
    <path opacity="0.3" d="M125.5 35C152.286 35 174 56.7142 174 83.5C174 92.0232 171.798 100.031 167.938 106.991C181.39 117.805 190 134.397 190 153C190 185.585 163.585 212 131 212C113.41 212 97.619 204.303 86.8096 192.093C79.0406 196.489 70.0637 199 60.5 199C30.9528 199 7 175.047 7 145.5C7 115.953 30.9528 92 60.5 92C66.773 92 72.7937 93.0799 78.3867 95.0635C77.4803 91.3578 77 87.485 77 83.5C77 56.7142 98.7142 35 125.5 35Z" fill="#B6C5F0"/>
    <path d="M44.1426 95.7873C44.1426 89.5381 47.6856 83.8292 53.2855 81.0553L95.3024 60.2428C99.9007 57.9652 105.299 57.9652 109.897 60.2428L151.914 81.0553C157.514 83.8292 161.057 89.5381 161.057 95.7873V116.711C161.057 143.476 147.108 168.307 124.25 182.232L108.302 191.948C104.8 194.081 100.4 194.081 96.8976 191.948L80.9491 182.232C58.0913 168.307 44.1426 143.476 44.1426 116.711V95.7873Z" fill="#0F68EE"/>
    <path d="M48.9922 91.6419C50.2243 90.4188 51.6613 89.3809 53.268 88.5851L95.3161 67.7571C99.9056 65.4838 105.293 65.4838 109.883 67.7571L151.931 88.5851C153.537 89.3807 154.974 90.4183 156.206 91.6411C154.67 88.212 151.974 85.3457 148.478 83.6243L109.848 64.6027C105.278 62.3521 99.921 62.3521 95.3505 64.6027L56.7209 83.6243C53.2248 85.3458 50.5278 88.2125 48.9922 91.6419Z" fill="#3F87F3"/>
    <path fill-rule="evenodd" clip-rule="evenodd" d="M80.3795 82.6084C80.3795 81.8532 80.9917 81.241 81.7469 81.241H129.05C138.92 81.241 147.383 87.8931 147.383 96.6244C147.383 105.356 138.92 112.008 129.05 112.008H55.0823C54.3271 112.008 53.7148 111.396 53.7148 110.64C53.7148 109.885 54.3271 109.273 55.0823 109.273H129.05C137.922 109.273 144.648 103.38 144.648 96.6244C144.648 89.8692 137.922 83.9758 129.05 83.9758H81.7469C80.9917 83.9758 80.3795 83.3636 80.3795 82.6084Z" fill="#3F87F3"/>
    <path fill-rule="evenodd" clip-rule="evenodd" d="M108.387 175.806L96.6614 175.806C86.791 175.806 78.3282 169.154 78.3282 160.422C78.3282 151.691 86.791 145.039 96.6614 145.039L142.939 145.039C143.694 145.039 144.306 145.651 144.306 146.406C144.306 147.161 143.694 147.774 142.939 147.774L96.6614 147.774C87.7892 147.774 81.063 153.667 81.063 160.422C81.063 167.177 87.7892 173.071 96.6614 173.071L108.387 173.071C109.142 173.071 109.754 173.683 109.754 174.438C109.754 175.193 109.142 175.806 108.387 175.806Z" fill="#3F87F3"/>
    <path d="M145.354 99.2502C143.091 99.2502 141.249 97.4084 141.249 95.1454C141.249 92.8823 143.091 91.0405 145.354 91.0405C147.617 91.0405 149.459 92.8823 149.459 95.1454C149.459 97.4084 147.617 99.2502 145.354 99.2502Z" fill="#0F68EE"/>
    <path fill-rule="evenodd" clip-rule="evenodd" d="M145.354 92.4079C143.846 92.4079 142.616 93.6375 142.616 95.1453C142.616 96.6531 143.846 97.8827 145.354 97.8827C146.861 97.8827 148.091 96.6531 148.091 95.1453C148.091 93.6375 146.861 92.4079 145.354 92.4079ZM139.881 95.1453C139.881 92.1271 142.335 89.673 145.354 89.673C148.372 89.673 150.826 92.1271 150.826 95.1453C150.826 98.1635 148.372 100.618 145.354 100.618C142.335 100.618 139.881 98.1635 139.881 95.1453Z" fill="#3F87F3"/>
    <path d="M63.9701 114.954C61.7071 114.954 59.8652 113.113 59.8652 110.849C59.8652 108.586 61.7071 106.745 63.9701 106.745C66.2331 106.745 68.0749 108.586 68.0749 110.849C68.0749 113.113 66.2331 114.954 63.9701 114.954Z" fill="#0F68EE"/>
    <path fill-rule="evenodd" clip-rule="evenodd" d="M63.9703 108.112C62.4625 108.112 61.2329 109.342 61.2329 110.849C61.2329 112.357 62.4625 113.587 63.9703 113.587C65.4781 113.587 66.7078 112.357 66.7078 110.849C66.7078 109.342 65.4781 108.112 63.9703 108.112ZM58.498 110.849C58.498 107.831 60.9521 105.377 63.9703 105.377C66.9886 105.377 69.4426 107.831 69.4426 110.849C69.4426 113.868 66.9886 116.322 63.9703 116.322C60.9521 116.322 58.498 113.868 58.498 110.849Z" fill="#3F87F3"/>
    <path fill-rule="evenodd" clip-rule="evenodd" d="M60.5518 128.416C60.5518 127.661 61.164 127.049 61.9192 127.049H146.015V129.784H61.9192C61.164 129.784 60.5518 129.172 60.5518 128.416Z" fill="#3F87F3"/>
    <path d="M79.6984 155.082C81.9614 155.082 83.8032 156.923 83.8032 159.186C83.8032 161.449 81.9614 163.291 79.6984 163.291C77.4353 163.291 75.5935 161.449 75.5935 159.186C75.5935 156.923 77.4353 155.082 79.6984 155.082Z" fill="#0F68EE"/>
    <path fill-rule="evenodd" clip-rule="evenodd" d="M79.6986 161.924C81.2064 161.924 82.4361 160.694 82.4361 159.187C82.4361 157.679 81.2064 156.449 79.6986 156.449C78.1908 156.449 76.9612 157.679 76.9612 159.187C76.9612 160.694 78.1908 161.924 79.6986 161.924ZM85.1709 159.187C85.1709 162.205 82.7169 164.659 79.6986 164.659C76.6804 164.659 74.2263 162.205 74.2263 159.187C74.2263 156.168 76.6804 153.714 79.6986 153.714C82.7169 153.714 85.1709 156.168 85.1709 159.187Z" fill="#3F87F3"/>
    <path d="M143.965 132.525C141.702 132.525 139.86 130.683 139.86 128.42C139.86 126.157 141.702 124.315 143.965 124.315C146.228 124.315 148.07 126.157 148.07 128.42C148.07 130.683 146.228 132.525 143.965 132.525Z" fill="#0F68EE"/>
    <path fill-rule="evenodd" clip-rule="evenodd" d="M143.964 125.682C142.457 125.682 141.227 126.912 141.227 128.42C141.227 129.927 142.457 131.157 143.964 131.157C145.472 131.157 146.702 129.927 146.702 128.42C146.702 126.912 145.472 125.682 143.964 125.682ZM138.492 128.42C138.492 125.401 140.946 122.947 143.964 122.947C146.983 122.947 149.437 125.401 149.437 128.42C149.437 131.438 146.983 133.892 143.964 133.892C140.946 133.892 138.492 131.438 138.492 128.42Z" fill="#3F87F3"/>
    <path d="M75.8127 148.981L69.7595 116.636C69.4549 115.008 71.259 113.816 72.6368 114.734L84.9323 122.931C85.7907 123.504 86.9505 123.273 87.5248 122.416L100.603 102.897C101.344 101.791 102.971 101.791 103.712 102.897L116.79 122.416C117.364 123.273 118.524 123.504 119.382 122.931L131.678 114.734C133.055 113.816 134.859 115.008 134.555 116.636L128.502 148.981C128.17 150.752 126.624 152.035 124.823 152.035H79.4913C77.6899 152.035 76.1441 150.752 75.8127 148.981Z" fill="#0C54C0"/>
    <circle cx="102.6" cy="92.0564" r="2.65714" fill="#0C54C0"/>
    <circle cx="134.486" cy="105.342" r="2.65714" fill="#0C54C0"/>
    <circle cx="70.7143" cy="105.342" r="2.65714" fill="#0C54C0"/>
    <path d="M75.8127 143.368L69.7595 111.022C69.4549 109.394 71.259 108.202 72.6368 109.121L84.9323 117.318C85.7907 117.89 86.9505 117.66 87.5248 116.802L100.603 97.2833C101.344 96.1771 102.971 96.1771 103.712 97.2833L116.79 116.802C117.364 117.66 118.524 117.89 119.382 117.318L131.678 109.121C133.055 108.202 134.859 109.394 134.555 111.022L128.502 143.368C128.17 145.138 126.624 146.422 124.823 146.422H79.4913C77.6899 146.422 76.1441 145.138 75.8127 143.368Z" fill="#FFCC28"/>
    <path d="M79.2459 141.367L74.0622 115.847C73.8975 115.036 74.789 114.426 75.485 114.874L85.6533 121.411C86.3313 121.846 86.7892 122.553 86.9104 123.349L89.6667 141.462C89.8391 142.595 88.9624 143.615 87.8168 143.615H81.9966C80.6618 143.615 79.5116 142.675 79.2459 141.367Z" fill="#FFE9A6"/>
    <path d="M125.536 141.367L130.73 115.8C130.893 114.996 130.016 114.386 129.319 114.819L118.726 121.394C118.01 121.838 117.532 122.581 117.423 123.416L115.064 141.502C114.917 142.622 115.789 143.615 116.919 143.615H122.786C124.12 143.615 125.271 142.675 125.536 141.367Z" fill="#E4AE02"/>
    <circle cx="102.6" cy="90.285" r="2.65714" fill="#FFCC28"/>
    <circle cx="134.486" cy="103.571" r="2.65714" fill="#FFCC28"/>
    <circle cx="70.7143" cy="103.571" r="2.65714" fill="#FFCC28"/>
    <path d="M170.886 131.106C175.365 131.106 179 134.643 179 139H138C138.385 134.176 142.53 130.816 147.583 130.816C148.906 130.816 150.164 131.071 151.313 131.545C151.735 126.756 156.01 123 160.888 123C165.767 123 169.795 126.537 170.413 131.12C170.573 131.106 170.726 131.106 170.886 131.106H170.886Z" fill="white"/>
    <path d="M88.2414 180.257C88.2493 180.07 88.2571 179.883 88.2571 179.696C88.2571 174.055 83.6242 169.488 77.9178 169.488C77.7126 169.488 77.5153 169.488 77.3179 169.504C76.5287 163.574 71.3985 159 65.1712 159C58.9439 159 53.5059 163.862 52.9692 170.049C51.509 169.442 49.8989 169.106 48.2099 169.106C41.7616 169.106 36.4893 174.023 36 180.257H88.2414Z" fill="white"/>
    <path d="M111.556 99L112.091 101.637C112.577 104.042 114.353 105.918 116.62 106.434L119.111 107L116.62 107.566C114.349 108.082 112.577 109.962 112.091 112.363L111.556 115L111.021 112.363C110.534 109.958 108.758 108.082 106.491 107.566L104 107L106.491 106.434C108.762 105.918 110.534 104.038 111.021 101.637L111.556 99Z" fill="white"/>
</svg>
