<svg viewBox="0 0 97 111" fill="none" xmlns="http://www.w3.org/2000/svg">
<path d="M49.5441 12.4629V92.2431" stroke="black" stroke-width="1.20879"/>
<path d="M52.7675 2.0293C49.9709 0.668038 46.7037 0.667946 43.9072 2.0293L6.43452 20.2705C2.95255 21.9655 0.743118 25.4994 0.743118 29.3721V43.7812C0.743122 67.7411 13.3264 89.9406 33.8837 102.248L43.1386 107.789C46.3398 109.705 50.3359 109.705 53.5371 107.789L62.7919 102.248C83.3491 89.9406 95.9316 67.741 95.9316 43.7812V29.3721C95.9316 25.4994 93.7222 21.9655 90.2402 20.2705L52.7675 2.0293Z" fill="#F8BABA" stroke="#F06666" stroke-width="0.903273"/>
<path d="M88.6706 33.5944C88.7262 30.82 87.194 28.2572 84.7238 26.9929L52.4112 10.4546C50.4273 9.43915 48.0866 9.39226 46.0636 10.3274L13.1145 25.5582C10.5957 26.7225 8.96202 29.222 8.90643 31.9963L8.659 44.3464C8.25036 64.7432 18.5838 83.8561 35.8741 94.6839L44.9506 100.368C46.4611 101.314 48.3697 101.352 49.9169 100.467L59.2137 95.1515C76.9239 85.0249 88.0146 66.3413 88.4232 45.9444L88.6706 33.5944Z" fill="#FACCCC"/>
<path d="M30.3875 52.7874C31.2159 51.8003 32.6876 51.6715 33.6748 52.4998L44.2813 61.3985C45.3577 60.7236 46.6307 60.3333 47.9949 60.3333C51.8609 60.3333 54.9949 63.4673 54.9949 67.3333C54.9949 71.1993 51.8609 74.3333 47.9949 74.3333C44.1289 74.3333 40.9949 71.1993 40.9949 67.3333C40.9949 66.5351 41.1285 65.7681 41.3746 65.0534L30.6751 56.0747C29.688 55.2464 29.5592 53.7746 30.3875 52.7874ZM23.4251 38.4215C37.0086 24.8592 59.0163 24.8592 72.5663 38.4231L73.8018 39.6599L64.6616 48.8095L63.4235 47.5701C54.9071 39.045 41.0827 39.045 32.5663 47.5701L31.3282 48.8095L22.1864 39.6583L23.4251 38.4215ZM68.3283 39.262C56.6709 29.2457 39.349 29.2458 27.6644 39.2634L27.1699 39.695L31.3722 43.8997L31.7001 43.6166C41.0928 35.6962 54.897 35.6962 64.2897 43.6166L64.6152 43.8997L68.8176 39.6927L68.3283 39.262Z" fill="#F06666"/>
</svg>
