<svg viewBox="0 0 97 111" fill="none" xmlns="http://www.w3.org/2000/svg">
<path d="M49.401 12.4629V92.2431" stroke="black" stroke-width="1.20879"/>
<path d="M52.6245 2.0293C49.8279 0.668038 46.5607 0.667946 43.7642 2.0293L6.2915 20.2705C2.80953 21.9655 0.600098 25.4994 0.600098 29.3721V43.7812C0.600102 67.7411 13.1834 89.9406 33.7407 102.248L42.9956 107.789C46.1968 109.705 50.1929 109.705 53.394 107.789L62.6489 102.248C83.2061 89.9406 95.7886 67.741 95.7886 43.7812V29.3721C95.7886 25.4994 93.5792 21.9655 90.0972 20.2705L52.6245 2.0293Z" fill="#FBEB9B" stroke="#F7CE05" stroke-width="0.903273"/>
<path d="M88.5276 33.5944C88.5832 30.82 87.0509 28.2572 84.5808 26.9929L52.2682 10.4546C50.2843 9.43915 47.9436 9.39226 45.9206 10.3274L12.9715 25.5582C10.4527 26.7225 8.819 29.222 8.76342 31.9963L8.51599 44.3464C8.10734 64.7432 18.4408 83.8561 35.7311 94.6839L44.8076 100.368C46.3181 101.314 48.2266 101.352 49.7739 100.467L59.0707 95.1515C76.7809 85.0249 87.8715 66.3413 88.2802 45.9444L88.5276 33.5944Z" fill="#FCF0B4"/>
<path d="M24.7964 40.0615C37.066 27.8111 56.9458 27.8107 69.1851 40.0625L70.3003 41.1796L62.0444 49.4443L60.9263 48.3252C53.2337 40.6247 40.7469 40.6249 33.0542 48.3252L31.9351 49.4443L23.6782 41.1787L24.7964 40.0615ZM46.9888 34.0351V39.3886C52.2274 39.3884 57.4661 41.1765 61.7085 44.7539L62.0024 45.0097L65.7983 41.2099L65.3569 40.8203C60.0889 36.2938 53.5398 34.0322 46.9888 34.0351Z" fill="#E6C419"/>
<path d="M48.8176 48.2734C48.8253 47.1094 47.8879 46.1596 46.7239 46.1519C45.56 46.1441 44.6101 47.0815 44.6024 48.2455L44.5181 60.8618C43.8791 61.1022 43.2685 61.4511 42.7131 61.9109C40.0232 64.1377 39.6478 68.1235 41.8747 70.8134C44.1016 73.5033 48.0874 73.8787 50.7773 71.6518C53.4671 69.425 53.8425 65.4392 51.6157 62.7493C50.8299 61.8001 49.8251 61.1391 48.7355 60.779L48.8176 48.2734Z" fill="#DDB911"/>
</svg>
